<svg viewBox="0 0 330 200" xmlns="http://www.w3.org/2000/svg"><g><g><g><g><g><line x1="41.0620002746582" y1="177.92999935150146" x2="36.0620002746582" y2="177.92999935150146" style="visibility: inherit;" fill="rgb(0, 0, 0)" stroke="rgb(204, 204, 204)" stroke-width="1px"></line><line x1="41.0620002746582" y1="155.68874943256378" x2="36.0620002746582" y2="155.68874943256378" style="visibility: inherit;" fill="rgb(0, 0, 0)" stroke="rgb(204, 204, 204)" stroke-width="1px"></line><line x1="41.0620002746582" y1="133.4474995136261" x2="36.0620002746582" y2="133.4474995136261" style="visibility: inherit;" fill="rgb(0, 0, 0)" stroke="rgb(204, 204, 204)" stroke-width="1px"></line><line x1="41.0620002746582" y1="111.20624959468842" x2="36.0620002746582" y2="111.20624959468842" style="visibility: inherit;" fill="rgb(0, 0, 0)" stroke="rgb(204, 204, 204)" stroke-width="1px"></line><line x1="41.0620002746582" y1="88.96499967575073" x2="36.0620002746582" y2="88.96499967575073" style="visibility: inherit;" fill="rgb(0, 0, 0)" stroke="rgb(204, 204, 204)" stroke-width="1px"></line><line x1="41.0620002746582" y1="66.72374975681305" x2="36.0620002746582" y2="66.72374975681305" style="visibility: inherit;" fill="rgb(0, 0, 0)" stroke="rgb(204, 204, 204)" stroke-width="1px"></line><line x1="41.0620002746582" y1="44.482499837875366" x2="36.0620002746582" y2="44.482499837875366" style="visibility: inherit;" fill="rgb(0, 0, 0)" stroke="rgb(204, 204, 204)" stroke-width="1px"></line><line x1="41.0620002746582" y1="22.241249918937683" x2="36.0620002746582" y2="22.241249918937683" style="visibility: inherit;" fill="rgb(0, 0, 0)" stroke="rgb(204, 204, 204)" stroke-width="1px"></line><line x1="41.0620002746582" y1="0" x2="36.0620002746582" y2="0" style="visibility: inherit;" fill="rgb(0, 0, 0)" stroke="rgb(204, 204, 204)" stroke-width="1px"></line></g><g transform="translate(31.062000274658203, 0)"><text style="text-anchor: end; visibility: hidden; font-family: &quot;Helvetica Neue&quot;, sans-serif; font-size: 12px; font-weight: 200;" x="0" y="177.92999935150146" dx="0em" dy="0.3em" fill="rgb(50, 49, 63)" stroke="none" stroke-width="1px">-10</text><text style="text-anchor: end; visibility: inherit; font-family: &quot;Helvetica Neue&quot;, sans-serif; font-size: 12px; font-weight: 200;" x="0" y="155.68874943256378" dx="0em" dy="0.3em" fill="rgb(50, 49, 63)" stroke="none" stroke-width="1px">0</text><text style="text-anchor: end; visibility: hidden; font-family: &quot;Helvetica Neue&quot;, sans-serif; font-size: 12px; font-weight: 200;" x="0" y="133.4474995136261" dx="0em" dy="0.3em" fill="rgb(50, 49, 63)" stroke="none" stroke-width="1px">10</text><text style="text-anchor: end; visibility: inherit; font-family: &quot;Helvetica Neue&quot;, sans-serif; font-size: 12px; font-weight: 200;" x="0" y="111.20624959468842" dx="0em" dy="0.3em" fill="rgb(50, 49, 63)" stroke="none" stroke-width="1px">20</text><text style="text-anchor: end; visibility: hidden; font-family: &quot;Helvetica Neue&quot;, sans-serif; font-size: 12px; font-weight: 200;" x="0" y="88.96499967575073" dx="0em" dy="0.3em" fill="rgb(50, 49, 63)" stroke="none" stroke-width="1px">30</text><text style="text-anchor: end; visibility: inherit; font-family: &quot;Helvetica Neue&quot;, sans-serif; font-size: 12px; font-weight: 200;" x="0" y="66.72374975681305" dx="0em" dy="0.3em" fill="rgb(50, 49, 63)" stroke="none" stroke-width="1px">40</text><text style="text-anchor: end; visibility: hidden; font-family: &quot;Helvetica Neue&quot;, sans-serif; font-size: 12px; font-weight: 200;" x="0" y="44.482499837875366" dx="0em" dy="0.3em" fill="rgb(50, 49, 63)" stroke="none" stroke-width="1px">50</text><text style="text-anchor: end; visibility: inherit; font-family: &quot;Helvetica Neue&quot;, sans-serif; font-size: 12px; font-weight: 200;" x="0" y="22.241249918937683" dx="0em" dy="0.3em" fill="rgb(50, 49, 63)" stroke="none" stroke-width="1px">60</text><text style="text-anchor: end; visibility: hidden; font-family: &quot;Helvetica Neue&quot;, sans-serif; font-size: 12px; font-weight: 200;" x="0" y="0" dx="0em" dy="0.3em" fill="rgb(50, 49, 63)" stroke="none" stroke-width="1px">70</text></g><line x1="41.0620002746582" y1="0" x2="41.0620002746582" y2="177.92999935150146" fill="rgb(0, 0, 0)" stroke="rgb(204, 204, 204)" stroke-width="1px"></line></g></g><g transform="translate(41, 0)" clip-path="url(#clip_0)"><clipPath id="clip_0"><rect width="288" height="177"></rect></clipPath><g><g><g><line x1="0" y1="0" x2="0" y2="177.92999935150146" fill="rgb(0, 0, 0)" stroke="rgb(60, 60, 60)" stroke-width="1px" opacity="0.25"></line><line x1="36.117249965667725" y1="0" x2="36.117249965667725" y2="177.92999935150146" fill="rgb(0, 0, 0)" stroke="rgb(60, 60, 60)" stroke-width="1px" opacity="0.25"></line><line x1="72.23449993133545" y1="0" x2="72.23449993133545" y2="177.92999935150146" fill="rgb(0, 0, 0)" stroke="rgb(60, 60, 60)" stroke-width="1px" opacity="0.25"></line><line x1="108.35174989700317" y1="0" x2="108.35174989700317" y2="177.92999935150146" fill="rgb(0, 0, 0)" stroke="rgb(60, 60, 60)" stroke-width="1px" opacity="0.25"></line><line x1="144.4689998626709" y1="0" x2="144.4689998626709" y2="177.92999935150146" fill="rgb(0, 0, 0)" stroke="rgb(60, 60, 60)" stroke-width="1px" opacity="0.25"></line><line x1="180.58624982833862" y1="0" x2="180.58624982833862" y2="177.92999935150146" fill="rgb(0, 0, 0)" stroke="rgb(60, 60, 60)" stroke-width="1px" opacity="0.25"></line><line x1="216.70349979400635" y1="0" x2="216.70349979400635" y2="177.92999935150146" fill="rgb(0, 0, 0)" stroke="rgb(60, 60, 60)" stroke-width="1px" opacity="0.25"></line><line x1="252.82074975967407" y1="0" x2="252.82074975967407" y2="177.92999935150146" fill="rgb(0, 0, 0)" stroke="rgb(60, 60, 60)" stroke-width="1px" opacity="0.25"></line><line x1="288.9379997253418" y1="0" x2="288.9379997253418" y2="177.92999935150146" fill="rgb(0, 0, 0)" stroke="rgb(60, 60, 60)" stroke-width="1px" opacity="0.25"></line></g><g><line x1="0" y1="177.92999935150146" x2="288.9379997253418" y2="177.92999935150146" fill="rgb(0, 0, 0)" stroke="rgb(60, 60, 60)" stroke-width="1px" opacity="0.25"></line><line x1="0" y1="155.68874943256378" x2="288.9379997253418" y2="155.68874943256378" fill="rgb(0, 0, 0)" stroke="rgb(60, 60, 60)" stroke-width="1px" opacity="0.25"></line><line x1="0" y1="133.4474995136261" x2="288.9379997253418" y2="133.4474995136261" fill="rgb(0, 0, 0)" stroke="rgb(60, 60, 60)" stroke-width="1px" opacity="0.25"></line><line x1="0" y1="111.20624959468842" x2="288.9379997253418" y2="111.20624959468842" fill="rgb(0, 0, 0)" stroke="rgb(60, 60, 60)" stroke-width="1px" opacity="0.25"></line><line x1="0" y1="88.96499967575073" x2="288.9379997253418" y2="88.96499967575073" fill="rgb(0, 0, 0)" stroke="rgb(60, 60, 60)" stroke-width="1px" opacity="0.25"></line><line x1="0" y1="66.72374975681305" x2="288.9379997253418" y2="66.72374975681305" fill="rgb(0, 0, 0)" stroke="rgb(60, 60, 60)" stroke-width="1px" opacity="0.25"></line><line x1="0" y1="44.482499837875366" x2="288.9379997253418" y2="44.482499837875366" fill="rgb(0, 0, 0)" stroke="rgb(60, 60, 60)" stroke-width="1px" opacity="0.25"></line><line x1="0" y1="22.241249918937683" x2="288.9379997253418" y2="22.241249918937683" fill="rgb(0, 0, 0)" stroke="rgb(60, 60, 60)" stroke-width="1px" opacity="0.25"></line><line x1="0" y1="0" x2="288.9379997253418" y2="0" fill="rgb(0, 0, 0)" stroke="rgb(60, 60, 60)" stroke-width="1px" opacity="0.25"></line></g></g></g><g><g><line x1="0" y1="155.68874943256378" x2="288.9379997253418" y2="155.68874943256378" fill="rgb(0, 0, 0)" stroke="rgb(153, 153, 153)" stroke-width="1.5px"></line></g></g><g><g><line x1="36.117249965667725" y1="0" x2="36.117249965667725" y2="177.92999935150146" fill="rgb(0, 0, 0)" stroke="rgb(153, 153, 153)" stroke-width="1.5px"></line></g></g><g><g><g><g><g><path style="fill: none;" stroke="rgb(51, 187, 238)" stroke-width="2px" d="M36.83959496498108,155.68874943256378L37.56193996429443,155.68874943256378L38.28428496360779,155.68874943256378L39.006629962921146,155.68874943256378L39.7289749622345,155.68874943256378L40.45131996154785,155.68874943256378L41.1736649608612,155.68874943256378L41.89600996017456,155.68874943256378L42.61835495948791,155.68874943256378L43.34069995880127,155.68874943256378L44.063044958114624,155.68874943256378L44.78538995742798,155.68874943256378L45.50773495674133,155.68874943256378L46.23007995605469,155.68874943256378L46.952424955368045,155.68874943256378L47.6747699546814,155.68874943256378L48.39711495399475,155.68874943256378L49.11945995330811,155.68874943256378L49.84180495262146,155.68874943256378L50.56414995193481,155.68874943256378L51.286494951248166,154.98551543604944L52.00883995056152,154.56358491142885L52.73118494987488,154.3104301509383L53.45352994918823,154.1585385741634L54.17587494850159,154.02180427006863L54.898219947814944,153.88392463894144L55.620564947128294,152.64506957748338L56.34290994644165,149.31282031961774L57.06525494575501,145.1563863346834L57.787599945068365,141.6265956654607L58.509944944381715,139.55505996932231L59.232289943695065,130.28821418492467L59.95463494300842,116.69136132839228L60.67697994232177,106.72127500377215L61.39932494163513,94.86629595268327L62.121669940948486,87.82717352206946L62.84401494026184,78.50324010192284L63.56635993957519,70.42662680976953L64.28870493888856,68.0416740681563L65.01104993820191,62.247160322401896L65.73339493751526,57.77589801798308L66.45573993682862,54.28239861500707L67.17808493614197,52.34504141589571L67.90042993545532,49.1527125793738L68.62277493476867,48.04743285097311L69.34511993408204,46.079095010403876L70.06746493339539,46.25553617026276L70.78980993270874,45.80132087991376L71.5121549320221,45.688660870741614L72.23449993133545,45.98674093316913L72.9568449306488,43.65222863240598L73.67918992996216,42.92399190494763L74.40153492927551,41.99144425752462L75.12387992858886,42.04912596555192L75.84622492790223,41.46652469388843L76.56856992721558,41.61256954183929L77.29091492652894,41.84417949337421L78.01325992584229,41.33170585161042L78.73560492515564,41.00652667798448L79.457949924469,39.65051728766676L80.18029492378236,39.35489222791281L80.9026399230957,38.16393100667531L81.62498492240906,36.946560710205944L82.3473299217224,35.938866138582426L83.06967492103576,35.33424939560828L83.79201992034912,36.406320971715246L84.51436491966247,35.61472229548801L85.23670991897582,35.13976308975168L85.95905491828918,34.85478756630985L86.68139991760253,34.68380225224473L87.4037449169159,35.099195031987705L88.12608991622925,35.525621541434674L88.8484349155426,36.724290465707924L89.57077991485596,36.308300949355925L90.29312491416931,36.05151589302088L91.01546991348266,35.89222867252474L91.73781491279603,35.30626691597368L92.46015991210938,35.9448592040992L93.18250491142273,35.337845234918376L93.90484991073609,34.97363685340986L94.62719491004944,34.75511182450475L95.3495399093628,35.27446241491364L96.07188490867615,35.21287955514899L96.7942299079895,34.898657445548224L97.51657490730287,34.71012417978781L98.23891990661622,34.59700422033154L98.96126490592957,34.529132244657774L99.68360990524292,34.48840905925351L100.40595490455627,34.463975148010974L101.12829990386962,34.449314801265416L101.85064490318298,34.440518593218144L102.57298990249633,34.43524086838971L103.29533490180968,34.43207423349267L104.01767990112305,34.948158220736474L104.7400249004364,34.73982464490072L105.46236989974976,34.614824499399305L106.18471489906311,34.539824412098426L106.90705989837646,34.49482435971791L107.62940489768982,34.467824328289595L108.35174989700317,34.45162430943262L109.07409489631652,34.44190429811843L109.79643989562989,34.43607229132991L110.51878489494324,34.4325730872568L111.24112989425659,34.43047356481293L111.96347489356995,34.42921385134662L112.6858198928833,34.42845802326681L113.40816489219667,34.42800452641893L114.13050989151002,34.427732428310236L114.85285489082337,34.42756916944498L115.57519989013673,34.42747121412583L116.29754488945008,34.427412440934376L117.01988988876343,34.42737717701945L117.74223488807678,34.42735601867054L118.46457988739013,34.42734332366118L119.18692488670348,34.427335706655555L119.90926988601684,34.42733113645218L120.6316148853302,34.427328394330175L121.35395988464354,34.945310717238954L122.07630488395691,34.7381161428022L122.79864988327026,35.131783366322196L123.52099488258362,34.84999973225217L124.24333988189697,34.68092955181015L124.96568488121032,34.579487443544934L125.68802988052369,34.518622178585815L126.41037487983704,34.48210301961032L127.13271987915039,34.46019152422505L127.85506487846375,34.72431702073584L128.57740987777711,34.605519924900335L129.29975487709046,34.534241667399044L130.02209987640381,35.009458681080275L130.74444487571716,34.77660492110701L131.4667898750305,34.63689266512307L132.18913487434386,34.55306531153269L132.91147987365724,34.50276889937848L133.6338248729706,34.47259105208596L134.35616987228394,34.45448434371042L135.0785148715973,34.44362031868508L135.80085987091064,34.437101903669884L136.523204870224,34.43319085466081L137.24554986953734,34.43084422525533L137.9678948688507,34.429436247612074L138.69023986816407,34.428591461026116L139.41258486747742,34.42808458907447L140.13492986679077,34.42778046590354L140.85727486610412,34.42759799200098L141.57961986541747,34.42748850765943L142.30196486473082,34.42742281705452L143.0243098640442,34.42738340269156L143.74665486335755,35.64051513829358L144.4689998626709,35.155238795435L145.19134486198425,34.86407298971986L145.9136898612976,34.68937350629079L146.63603486061095,34.584553816233296L147.35837985992433,34.52166200219884L148.08072485923765,34.483926913778134L148.80306985855103,34.46128586072575L149.52541485786438,34.44770122889432L150.24775985717773,34.43955044979543L150.97010485649108,34.933048464520795L151.69244985580445,34.730758791171326L152.41479485511778,34.60938498716163L153.13713985443115,34.53656070475583L153.8594848537445,34.49286613531237L154.58182985305788,34.466649393646264L155.3041748523712,34.450919348646636L156.02651985168458,34.44148132164685L156.74886485099793,34.435818505446946L157.47120985031128,34.432420815727L158.19355484962463,34.43038220189504L158.915899848938,34.42915903359588L159.63824484825133,34.42842513261641L160.3605898475647,34.427984792028695L161.08293484687806,34.42772058767608L161.8052798461914,34.94554603324647L162.52762484550476,34.73825733240673L163.2499698448181,34.61388411190288L163.97231484413146,34.5392601796006L164.6946598434448,34.49448582021921L165.4170048427582,34.46762120459039L166.1393498420715,34.45150243521309L166.8616948413849,34.441831173586706L167.58403984069824,34.436028416610895L168.3063848400116,34.432546762425375L169.02872983932494,34.43045776991411L169.75107483863832,34.429204374407306L170.47341983795164,34.94643630528523L171.19576483726502,34.73879149563001L171.91810983657837,34.61420460983683L172.64045483589175,34.53945247836097L173.36279983520507,34.494601199475426L174.08514483451845,34.46769043214411L174.8074898338318,35.10200957949726L175.52983483314515,34.83213546015722L176.2521798324585,34.67021098855318L176.97452483177187,34.57305630559074L177.6968698310852,34.5147634958133L178.41921483039857,34.97539342089533L179.14155982971192,34.75616576499604L179.86390482902527,35.26421782516937L180.58624982833862,34.92946040756047L181.30859482765197,34.72860595699515L182.03093982696532,34.60809328665593L182.75328482627867,34.535785684452435L183.47562982559205,34.49240112313029L184.19797482490537,34.46637038633702L184.92031982421875,34.4507519442611L185.6426648235321,34.94751049448041L186.36500982284545,34.739436009147084L187.0873548221588,34.61459131794712L187.80969982147218,34.539684503227136L188.5320448207855,34.494740414395125L189.25438982009888,34.4677739610959L189.97673481941223,34.451594089116384L190.6990798187256,34.44188616592871L191.42142481803893,34.43606141201607L192.1437698173523,34.432566559668516L192.86611481666566,34.43046964825993L193.588459815979,34.42921150141481L194.31080481529236,34.42845661330776L195.03314981460574,34.945987648625504L195.75549481391906,34.738522301634134L196.47783981323244,34.614043093439335L197.20018481254579,34.53935556852244L197.92252981185914,34.49454305357236L198.64487481117249,34.46765554460222L199.36721981048584,34.451523039220206L200.08956480979919,34.441843535990984L200.81190980911254,34.436035834053484L201.5342548084259,34.43255121289093L202.25659980773924,35.1256352499766L202.9789448070526,34.846310862444795L203.70128980636596,34.678716229925755L204.4236348056793,34.57815945041429L205.14597980499266,34.51782538270743L205.86832480430604,34.4816249420833L206.59066980361936,34.45990467770886L207.31301480293274,34.44687251908417L208.0353598022461,34.439053223909326L208.75770480155947,34.43436164680443L209.4800498008728,34.43154670054153L210.20239480018617,34.42985773278377L210.92473979949952,34.42884435212912L211.64708479881287,34.42823632373634L212.36942979812622,34.427871506700654L213.0917747974396,34.427652616479264L213.81411979675292,34.42752128234642L214.5364647960663,34.42744248186668L215.25880979537965,34.42739520157886L215.981154794693,34.42736683340618L216.70349979400635,34.42734981250254L217.4258447933197,34.42733959996036L218.14818979263305,34.427333472435095L218.8705347919464,34.42732979591989L219.59287979125978,34.427327590010805L220.3152247905731,34.42732626646534L221.03756978988648,34.427325472338055L221.75991478919983,34.42732499586168L222.48225978851318,34.42732470997586L223.20460478782653,34.42732453844437L223.9269497871399,34.42732443552546L224.64929478645323,34.42732437377413L225.3716397857666,34.4273243367233L226.09398478507995,34.427324314492864L226.81632978439333,34.427324301154584L227.53867478370665,34.4273242931516L228.26101978302003,34.42732428834981L228.98336478233338,34.42732428546873L229.70570978164673,34.42732428374009L230.42805478096008,34.4273242827029L231.15039978027346,34.427324282080605L231.87274477958678,34.4273242817072L232.59508977890016,34.42732428148318L233.3174347782135,34.427324281348746L234.03977977752686,34.42732428126814L234.7621247768402,34.42732428121971L235.48446977615356,34.42732428119069L236.2068147754669,34.42732428117324L236.92915977478026,34.42732428116281L237.65150477409364,34.42732428115656L238.37384977340696,34.42732428115278L239.09619477272034,34.42732428115053L239.8185397720337,34.42732428114917L240.54088477134704,35.099794934138686L241.2632297706604,34.83080667294206L241.98557476997377,34.66941371622411L242.7079197692871,34.572577942193305L243.43026476860047,34.51447647777482L244.15260976791382,34.47961559912375L244.8749547672272,34.4586990719331L245.59729976654052,34.44614915561874L246.3196447658539,35.13379401561329L247.04198976516724,34.851206121826834L247.7643347644806,34.68165338555494L248.48667976379394,34.57992174379183L249.20902476310732,34.51888275873398L249.93136976242064,34.48225936769924L250.65371476173402,34.46028533307839L251.37605976104737,34.44710091230587L252.09840476036072,34.43919025984238L252.82074975967407,34.43444386836427" fill="none"></path></g><g><path style="fill: none;" stroke="rgb(0, 119, 187)" stroke-width="2px" d="M36.83959496498108,155.68874943256378L37.56193996429443,155.68874943256378L38.28428496360779,155.68874943256378L39.006629962921146,155.68874943256378L39.7289749622345,155.68874943256378L40.45131996154785,155.68874943256378L41.1736649608612,155.68874943256378L41.89600996017456,155.68874943256378L42.61835495948791,155.68874943256378L43.34069995880127,155.68874943256378L44.063044958114624,155.68874943256378L44.78538995742798,155.68874943256378L45.50773495674133,155.68874943256378L46.23007995605469,155.68874943256378L46.952424955368045,155.68874943256378L47.6747699546814,155.68874943256378L48.39711495399475,155.68874943256378L49.11945995330811,155.68874943256378L49.84180495262146,155.00248847471948L50.56414995193481,153.54825199916087L51.286494951248166,152.82431475852587L52.00883995056152,152.45472754686398L52.73118494987488,152.29239342149145L53.45352994918823,152.0805638712971L54.17587494850159,151.58846153345831L54.898219947814944,150.78216424363802L55.620564947128294,150.3006272605911L56.34290994644165,145.99472055738454L57.06525494575501,139.46500809139923L57.787599945068365,130.86881568070805L58.509944944381715,115.21979597643934L59.232289943695065,108.05099642761346L59.95463494300842,99.70260929075296L60.67697994232177,89.67987654797902L61.39932494163513,85.38431394195275L62.121669940948486,76.802904521614L62.84401494026184,75.3051622543243L63.56635993957519,70.80143276858553L64.28870493888856,63.37817959370213L65.01104993820191,58.71373742751118L65.73339493751526,56.07921062867318L66.45573993682862,54.262988981628226L67.17808493614197,50.26517591376944L67.90042993545532,49.724268430235895L68.62277493476867,46.79009661939867L69.34511993408204,45.27501901992136L70.06746493339539,44.0828390682199L70.78980993270874,40.83634680807148L71.5121549320221,39.75885891232366L72.23449993133545,39.56909643216497L72.9568449306488,37.459750580438595L73.67918992996216,37.755523882662345L74.40153492927551,36.88959101892772L75.12387992858886,36.62437215669479L75.84622492790223,35.91844057889662L76.56856992721558,35.510068642927706L77.29091492652894,34.99662058188835L78.01325992584229,35.60540939897433L78.73560492515564,35.0762033927499L79.457949924469,34.19568457546049L80.18029492378236,33.712384530459616L80.9026399230957,33.91801011440765L81.62498492240906,33.54577985382792L82.3473299217224,33.81804730842856L83.06967492103576,34.15827282323082L83.79201992034912,34.48519044730034L84.51436491966247,33.92517042570503L85.23670991897582,33.67567855823026L85.95905491828918,34.02158565494847L86.68139991760253,33.91534081862588L87.4037449169159,33.66978079398277L88.12608991622925,33.52244477919689L88.8484349155426,34.11145851037807L89.57077991485596,33.66184889141019L90.29312491416931,33.39208312002944L91.01546991348266,33.106270499846374L91.73781491279603,33.32716437829464L92.46015991210938,33.31687492978401L93.18250491142273,33.31070126067763L93.90484991073609,33.48881018206342L94.62719491004944,33.41386241204526L95.3495399093628,33.368893750034374L96.07188490867615,33.216310035203946L96.7942299079895,33.12475980630572L97.51657490730287,33.069829668966776L98.23891990661622,33.03687158656339L98.96126490592957,33.14269925474528L99.68360990524292,33.206195855654386L100.40595490455627,33.24429381619984L101.12829990386962,33.26715259252714L101.85064490318298,33.28086785832352L102.57298990249633,33.16349450017745L103.29533490180968,33.218673002913704L104.01767990112305,33.12617758693159L104.7400249004364,33.07068033734225L105.46236989974976,33.0373819875887L106.18471489906311,33.143005495360455L106.90705989837646,33.88379494007617L107.62940489768982,33.92812226684947L108.35174989700317,33.67744966291693L109.07409489631652,33.401443582933496L109.79643989562989,33.3614424525673L110.51878489494324,33.33744177434761L111.24112989425659,33.19743884979192L111.96347489356995,33.29525021790812L112.6858198928833,33.17212391592821L113.40816489219667,33.09824813474026L114.13050989151002,33.05392266602752L114.85285489082337,33.15292990242369L115.57519989013673,33.212334244261456L116.29754488945008,33.77074599857417L117.01988988876343,33.58302390195175L117.74223488807678,33.47039064397825L118.46457988739013,33.277208171570265L119.18692488670348,33.1612986881255L119.90926988601684,33.21735551568253L120.6316148853302,33.59835642365667L121.35395988464354,33.47959015700124L122.07630488395691,33.40833039700797L122.79864988327026,33.06935826039145L123.52099488258362,33.16219125904212L124.24333988189697,33.21789105823248L124.96568488121032,33.25131093774672L125.68802988052369,33.27136286545527L126.41037487983704,33.28339402208039L127.13271987915039,33.29061271605545L127.85506487846375,33.169341414816614L128.57740987777711,33.09657863407327L129.29975487709046,33.36033660610079L130.02209987640381,33.33677826646772L130.74444487571716,33.32264326268785L131.4667898750305,33.49597538326955L132.18913487434386,33.29255901514506L132.91147987365724,33.29611171189424L133.6338248729706,33.79384554714687L134.35616987228394,33.47128111347149L135.0785148715973,33.40334497089009L135.80085987091064,33.36258328534129L136.523204870224,33.212523756388094L137.24554986953734,33.24809055664008L137.9678948688507,33.26943063679127L138.69023986816407,33.156632167258095L139.41258486747742,33.08895308553821L140.13492986679077,33.04834563650624L140.85727486610412,33.02398116708707L141.57961986541747,33.00936248543562L142.30196486473082,33.00059127644468L143.0243098640442,32.995328551050164L143.74665486335755,33.11777343343729L144.4689998626709,33.02062659987297L145.19134486198425,33.13295226273101L145.9136898612976,33.20034766044583L146.63603486061095,33.11518238145081L147.35837985992433,33.18968573167771L148.08072485923765,33.23438774181383L148.80306985855103,33.26120894789554L149.52541485786438,33.151699153920674L150.24775985717773,33.21159579515964L150.97010485649108,33.12193126227913L151.69244985580445,33.193735060174674L152.41479485511778,33.23681733891203L153.13713985443115,33.26266670615445L153.8594848537445,33.278176326499874L154.58182985305788,33.16187958108327L155.3041748523712,33.0921015338333L156.02651985168458,33.05023470548332L156.74886485099793,33.15071712609722L157.47120985031128,33.085404060841654L158.19355484962463,33.17181873931219L158.915899848938,33.09806502877066L159.63824484825133,33.17941532006961L160.3605898475647,33.05761173185235L161.08293484687806,33.15514334191863L161.8052798461914,33.08805979033451L162.52762484550476,33.04780965938403L163.2499698448181,33.02365958081376L163.97231484413146,33.65275262573206L164.6946598434448,33.51222787824645L165.4170048427582,33.4279130297551L166.1393498420715,33.2517216030364L166.8616948413849,33.271609264629035L167.58403984069824,33.28354186158464L168.3063848400116,33.290701419757994L169.02872983932494,32.9987808740415L169.75107483863832,33.11984482723213L170.47341983795164,33.06688068152263L171.19576483726502,33.16070471172077L171.91810983657837,33.21699912983968L172.64045483589175,33.250775780711024L173.36279983520507,33.145439253609965L174.08514483451845,33.2078398549732L174.8074898338318,33.245280215791155L175.52983483314515,33.26774443228189L176.2521798324585,33.28122296217637L176.97452483177187,33.28931008011301L177.6968698310852,33.29416235087501L178.41921483039857,33.171471195708364L179.14155982971192,33.09785650260835L179.86390482902527,33.17929020437225L180.58624982833862,33.228150425430556L181.30859482765197,33.25746655806557L182.03093982696532,33.27505623764654L182.75328482627867,33.285610045395146L183.47562982559205,33.16633981242043L184.19797482490537,33.220380190259476L184.92031982421875,33.25280441696293L185.6426648235321,33.27225895298497L186.36500982284545,33.28393167459822L187.0873548221588,33.29093530756617L187.80969982147218,33.29513748734692L188.5320448207855,33.81563936965196L189.25438982009888,33.6099599245984L189.97673481941223,33.486552257566274L190.6990798187256,33.412507657346964L191.42142481803893,34.0632523132532L192.1437698173523,33.75852769075914L192.86611481666566,33.57569291726273L193.588459815979,33.465992053164825L194.31080481529236,33.40017153470612L195.03314981460574,33.36067922363088L195.75549481391906,33.33698383698575L196.47783981323244,33.32276660499869L197.20018481254579,33.31423626580644L197.92252981185914,33.30911806229108L198.64487481117249,33.306047140181875L199.36721981048584,33.30420458691634L200.08956480979919,33.303099054957016L200.81190980911254,33.176833218157554L201.5342548084259,33.10107371607788L202.25659980773924,33.18122053245395L202.9789448070526,33.2293086222796L203.70128980636596,33.25816147617499L204.4236348056793,33.275473188512194L205.14597980499266,33.28586021591454L205.86832480430604,33.29209243235593L206.59066980361936,33.1702292445969L207.31301480293274,33.22271384956534L208.0353598022461,33.25420461254643L208.75770480155947,33.27309907033509L209.4800498008728,33.158833227384406L210.20239480018617,33.21587623923787L210.92473979949952,33.25010204634995L211.64708479881287,33.145035012993304L212.36942979812622,33.08199479297929L213.0917747974396,33.56215462915293L213.81411979675292,33.45786908029896L214.5364647960663,33.3952977509866L215.25880979537965,33.357754953399194L215.981154794693,33.33522927484674L216.70349979400635,33.32171386771529L217.4258447933197,33.31360462343639L218.14818979263305,33.183136559245185L218.8705347919464,33.10485572073043L219.59287979125978,33.18348973524547L220.3152247905731,33.23067014395451L221.03756978988648,33.088364626183306L221.75991478919983,33.047992560893306L222.48225978851318,33.680258827573994L223.20460478782653,33.5287315993516L223.9269497871399,33.31221274479432L224.64929478645323,33.30790394968378L225.3716397857666,33.1797161549936L226.09398478507995,33.10280347817951L226.81632978439333,33.182258389714946L227.53867478370665,33.229931336636184L228.26101978302003,33.258535104788905L228.98336478233338,33.27569736568057L229.70570978164673,33.28599472221558L230.42805478096008,33.29217313613657L231.15039978027346,33.295880184489164L231.87274477958678,33.29810441350074L232.59508977890016,33.29943895090767L233.3174347782135,33.300239673351825L234.03977977752686,33.17511758919446L234.7621247768402,33.1000443387L235.48446977615356,33.18060290602725L236.2068147754669,33.228938046423565L236.92915977478026,33.257939130661356L237.65150477409364,33.275339781204025L238.37384977340696,33.28578017152964L239.09619477272034,33.292044405724994L239.8185397720337,33.29580294624222L240.54088477134704,33.29805807055254L241.2632297706604,33.29941114513875L241.98557476997377,33.30022298989047L242.7079197692871,33.17510757911762L243.43026476860047,33.22564085027781L244.15260976791382,33.25596081297391L244.8749547672272,33.1485502729677L245.59729976654052,33.20970646658782L246.3196447658539,33.24640018275991L247.04198976516724,33.26841641246318L247.7643347644806,33.28162615028515L248.48667976379394,33.78515421018139L249.20902476310732,33.591668828916056L249.93136976242064,33.47557760015687L250.65371476173402,33.40592286290135L251.37605976104737,33.36413002054803L252.09840476036072,33.33905431513605L252.82074975967407,33.32400889188884" fill="none"></path></g></g></g></g><g opacity="0.2"><g><g><g><path style="fill: none;" stroke="rgb(51, 187, 238)" stroke-width="2px" d="M36.83959496498108,155.68874943256378L37.56193996429443,155.68874943256378L38.28428496360779,155.68874943256378L39.006629962921146,155.68874943256378L39.7289749622345,155.68874943256378L40.45131996154785,155.68874943256378L41.1736649608612,155.68874943256378L41.89600996017456,155.68874943256378L42.61835495948791,155.68874943256378L43.34069995880127,155.68874943256378L44.063044958114624,155.68874943256378L44.78538995742798,155.68874943256378L45.50773495674133,155.68874943256378L46.23007995605469,155.68874943256378L46.952424955368045,155.68874943256378L47.6747699546814,155.68874943256378L48.39711495399475,155.68874943256378L49.11945995330811,155.68874943256378L49.84180495262146,155.68874943256378L50.56414995193481,155.68874943256378L51.286494951248166,153.93070300830158L52.00883995056152,153.93070300830158L52.73118494987488,153.93070300830158L53.45352994918823,153.93070300830158L54.17587494850159,153.81670378577536L54.898219947814944,153.67710578024432L55.620564947128294,150.78679015518685L56.34290994644165,144.31445154860683L57.06525494575501,138.921739185945L57.787599945068365,136.33191161248834L58.509944944381715,136.44775711205847L59.232289943695065,116.38794735212036L59.95463494300842,96.29608366678485L60.67697994232177,91.76614623097876L61.39932494163513,77.08382788553867L62.121669940948486,77.26849005765997L62.84401494026184,64.51734011595944L63.56635993957519,58.31170694651463L64.28870493888856,64.4642449690201L65.01104993820191,53.555389723134894L65.73339493751526,51.0690045703203L66.45573993682862,49.04214951474597L67.17808493614197,49.439005618627164L67.90042993545532,44.36421932597355L68.62277493476867,46.38951325865929L69.34511993408204,43.126588249856866L70.06746493339539,46.520197910034625L70.78980993270874,45.11999794441573L71.5121549320221,45.519670856987204L72.23449993133545,46.43386102680438L72.9568449306488,40.15046018128956L73.67918992996216,41.831636813765414L74.40153492927551,40.59262278639417L75.12387992858886,42.13564852759268L75.84622492790223,40.59262278639417L76.56856992721558,41.831636813765414L77.29091492652894,42.19159442067644L78.01325992584229,40.56299538896491L78.73560492515564,40.518757917545656L79.457949924469,37.61650320219036L80.18029492378236,38.91145463828184L80.9026399230957,36.37748917481912L81.62498492240906,35.120505265501976L82.3473299217224,34.42732428114715L83.06967492103576,34.42732428114715L83.79201992034912,38.01442833587572L84.51436491966247,34.42732428114715L85.23670991897582,34.42732428114715L85.95905491828918,34.42732428114715L86.68139991760253,34.42732428114715L87.4037449169159,35.72228420160212L88.12608991622925,36.165261305605156L88.8484349155426,38.5222938521178L89.57077991485596,35.68431667482781L90.29312491416931,35.66633830851839L91.01546991348266,35.65329784178047L91.73781491279603,34.42732428114715L92.46015991210938,36.902747636287444L93.18250491142273,34.42732428114715L93.90484991073609,34.42732428114715L94.62719491004944,34.42732428114715L95.3495399093628,36.05348830052699L96.07188490867615,35.120505265501976L96.7942299079895,34.42732428114715L97.51657490730287,34.42732428114715L98.23891990661622,34.42732428114715L98.96126490592957,34.42732428114715L99.68360990524292,34.42732428114715L100.40595490455627,34.42732428114715L101.12829990386962,34.42732428114715L101.85064490318298,34.42732428114715L102.57298990249633,34.42732428114715L103.29533490180968,34.42732428114715L104.01767990112305,35.72228420160212L104.7400249004364,34.42732428114715L105.46236989974976,34.42732428114715L106.18471489906311,34.42732428114715L106.90705989837646,34.42732428114715L107.62940489768982,34.42732428114715L108.35174989700317,34.42732428114715L109.07409489631652,34.42732428114715L109.79643989562989,34.42732428114715L110.51878489494324,34.42732428114715L111.24112989425659,34.42732428114715L111.96347489356995,34.42732428114715L112.6858198928833,34.42732428114715L113.40816489219667,34.42732428114715L114.13050989151002,34.42732428114715L114.85285489082337,34.42732428114715L115.57519989013673,34.42732428114715L116.29754488945008,34.42732428114715L117.01988988876343,34.42732428114715L117.74223488807678,34.42732428114715L118.46457988739013,34.42732428114715L119.18692488670348,34.42732428114715L119.90926988601684,34.42732428114715L120.6316148853302,34.42732428114715L121.35395988464354,35.72228420160212L122.07630488395691,34.42732428114715L122.79864988327026,35.72228420160212L123.52099488258362,34.42732428114715L124.24333988189697,34.42732428114715L124.96568488121032,34.42732428114715L125.68802988052369,34.42732428114715L126.41037487983704,34.42732428114715L127.13271987915039,34.42732428114715L127.85506487846375,35.120505265501976L128.57740987777711,34.42732428114715L129.29975487709046,34.42732428114715L130.02209987640381,35.72228420160212L130.74444487571716,34.42732428114715L131.4667898750305,34.42732428114715L132.18913487434386,34.42732428114715L132.91147987365724,34.42732428114715L133.6338248729706,34.42732428114715L134.35616987228394,34.42732428114715L135.0785148715973,34.42732428114715L135.80085987091064,34.42732428114715L136.523204870224,34.42732428114715L137.24554986953734,34.42732428114715L137.9678948688507,34.42732428114715L138.69023986816407,34.42732428114715L139.41258486747742,34.42732428114715L140.13492986679077,34.42732428114715L140.85727486610412,34.42732428114715L141.57961986541747,34.42732428114715L142.30196486473082,34.42732428114715L143.0243098640442,34.42732428114715L143.74665486335755,37.46021274169661L144.4689998626709,34.42732428114715L145.19134486198425,34.42732428114715L145.9136898612976,34.42732428114715L146.63603486061095,34.42732428114715L147.35837985992433,34.42732428114715L148.08072485923765,34.42732428114715L148.80306985855103,34.42732428114715L149.52541485786438,34.42732428114715L150.24775985717773,34.42732428114715L150.97010485649108,35.67329548660888L151.69244985580445,34.42732428114715L152.41479485511778,34.42732428114715L153.13713985443115,34.42732428114715L153.8594848537445,34.42732428114715L154.58182985305788,34.42732428114715L155.3041748523712,34.42732428114715L156.02651985168458,34.42732428114715L156.74886485099793,34.42732428114715L157.47120985031128,34.42732428114715L158.19355484962463,34.42732428114715L158.915899848938,34.42732428114715L159.63824484825133,34.42732428114715L160.3605898475647,34.42732428114715L161.08293484687806,34.42732428114715L161.8052798461914,35.72228420160212L162.52762484550476,34.42732428114715L163.2499698448181,34.42732428114715L163.97231484413146,34.42732428114715L164.6946598434448,34.42732428114715L165.4170048427582,34.42732428114715L166.1393498420715,34.42732428114715L166.8616948413849,34.42732428114715L167.58403984069824,34.42732428114715L168.3063848400116,34.42732428114715L169.02872983932494,34.42732428114715L169.75107483863832,34.42732428114715L170.47341983795164,35.72228420160212L171.19576483726502,34.42732428114715L171.91810983657837,34.42732428114715L172.64045483589175,34.42732428114715L173.36279983520507,34.42732428114715L174.08514483451845,34.42732428114715L174.8074898338318,36.05348830052699L175.52983483314515,34.42732428114715L176.2521798324585,34.42732428114715L176.97452483177187,34.42732428114715L177.6968698310852,34.42732428114715L178.41921483039857,35.66633830851839L179.14155982971192,34.42732428114715L179.86390482902527,36.026295915429415L180.58624982833862,34.42732428114715L181.30859482765197,34.42732428114715L182.03093982696532,34.42732428114715L182.75328482627867,34.42732428114715L183.47562982559205,34.42732428114715L184.19797482490537,34.42732428114715L184.92031982421875,34.42732428114715L185.6426648235321,35.692648319809365L186.36500982284545,34.42732428114715L187.0873548221588,34.42732428114715L187.80969982147218,34.42732428114715L188.5320448207855,34.42732428114715L189.25438982009888,34.42732428114715L189.97673481941223,34.42732428114715L190.6990798187256,34.42732428114715L191.42142481803893,34.42732428114715L192.1437698173523,34.42732428114715L192.86611481666566,34.42732428114715L193.588459815979,34.42732428114715L194.31080481529236,34.42732428114715L195.03314981460574,35.72228420160212L195.75549481391906,34.42732428114715L196.47783981323244,34.42732428114715L197.20018481254579,34.42732428114715L197.92252981185914,34.42732428114715L198.64487481117249,34.42732428114715L199.36721981048584,34.42732428114715L200.08956480979919,34.42732428114715L200.81190980911254,34.42732428114715L201.5342548084259,34.42732428114715L202.25659980773924,36.165261305605156L202.9789448070526,34.42732428114715L203.70128980636596,34.42732428114715L204.4236348056793,34.42732428114715L205.14597980499266,34.42732428114715L205.86832480430604,34.42732428114715L206.59066980361936,34.42732428114715L207.31301480293274,34.42732428114715L208.0353598022461,34.42732428114715L208.75770480155947,34.42732428114715L209.4800498008728,34.42732428114715L210.20239480018617,34.42732428114715L210.92473979949952,34.42732428114715L211.64708479881287,34.42732428114715L212.36942979812622,34.42732428114715L213.0917747974396,34.42732428114715L213.81411979675292,34.42732428114715L214.5364647960663,34.42732428114715L215.25880979537965,34.42732428114715L215.981154794693,34.42732428114715L216.70349979400635,34.42732428114715L217.4258447933197,34.42732428114715L218.14818979263305,34.42732428114715L218.8705347919464,34.42732428114715L219.59287979125978,34.42732428114715L220.3152247905731,34.42732428114715L221.03756978988648,34.42732428114715L221.75991478919983,34.42732428114715L222.48225978851318,34.42732428114715L223.20460478782653,34.42732428114715L223.9269497871399,34.42732428114715L224.64929478645323,34.42732428114715L225.3716397857666,34.42732428114715L226.09398478507995,34.42732428114715L226.81632978439333,34.42732428114715L227.53867478370665,34.42732428114715L228.26101978302003,34.42732428114715L228.98336478233338,34.42732428114715L229.70570978164673,34.42732428114715L230.42805478096008,34.42732428114715L231.15039978027346,34.42732428114715L231.87274477958678,34.42732428114715L232.59508977890016,34.42732428114715L233.3174347782135,34.42732428114715L234.03977977752686,34.42732428114715L234.7621247768402,34.42732428114715L235.48446977615356,34.42732428114715L236.2068147754669,34.42732428114715L236.92915977478026,34.42732428114715L237.65150477409364,34.42732428114715L238.37384977340696,34.42732428114715L239.09619477272034,34.42732428114715L239.8185397720337,34.42732428114715L240.54088477134704,36.108500913623004L241.2632297706604,34.42732428114715L241.98557476997377,34.42732428114715L242.7079197692871,34.42732428114715L243.43026476860047,34.42732428114715L244.15260976791382,34.42732428114715L244.8749547672272,34.42732428114715L245.59729976654052,34.42732428114715L246.3196447658539,36.165261305605156L247.04198976516724,34.42732428114715L247.7643347644806,34.42732428114715L248.48667976379394,34.42732428114715L249.20902476310732,34.42732428114715L249.93136976242064,34.42732428114715L250.65371476173402,34.42732428114715L251.37605976104737,34.42732428114715L252.09840476036072,34.42732428114715L252.82074975967407,34.42732428114715" fill="none"></path></g><g><path style="fill: none;" stroke="rgb(0, 119, 187)" stroke-width="2px" d="M36.83959496498108,155.68874943256378L37.56193996429443,155.68874943256378L38.28428496360779,155.68874943256378L39.006629962921146,155.68874943256378L39.7289749622345,155.68874943256378L40.45131996154785,155.68874943256378L41.1736649608612,155.68874943256378L41.89600996017456,155.68874943256378L42.61835495948791,155.68874943256378L43.34069995880127,155.68874943256378L44.063044958114624,155.68874943256378L44.78538995742798,155.68874943256378L45.50773495674133,155.68874943256378L46.23007995605469,155.68874943256378L46.952424955368045,155.68874943256378L47.6747699546814,155.68874943256378L48.39711495399475,155.68874943256378L49.11945995330811,155.68874943256378L49.84180495262146,153.97320158290276L50.56414995193481,151.36703020879705L51.286494951248166,151.73844860001216L52.00883995056152,151.9003588907958L52.73118494987488,152.04889543843677L53.45352994918823,151.76282205532857L54.17587494850159,150.85031152435297L54.898219947814944,149.57272174739722L55.620564947128294,149.57832301814187L56.34290994644165,139.53586711315575L57.06525494575501,129.6704454072093L57.787599945068365,117.97453181565615L58.509944944381715,91.74627160942148L59.232289943695065,97.29779853072577L59.95463494300842,87.18002958209196L60.67697994232177,74.64577815172593L61.39932494163513,78.94097021752272L62.121669940948486,63.930790612386645L62.84401494026184,73.05854887656223L63.56635993957519,64.04583858178545L64.28870493888856,52.24329987272294L65.01104993820191,51.71707419381278L65.73339493751526,52.127420435698696L66.45573993682862,51.53865651324587L67.17808493614197,44.268456314867024L67.90042993545532,48.91290720516986L68.62277493476867,42.38883890390531L69.34511993408204,43.002402620941666L70.06746493339539,42.294569140779174L70.78980993270874,35.96660841803114L71.5121549320221,38.14262706873825L72.23449993133545,39.28445271193078L72.9568449306488,34.29573180287463L73.67918992996216,38.1991838359958L74.40153492927551,35.5906917233296L75.12387992858886,36.22654386334611L75.84622492790223,34.859543212200464L76.56856992721558,34.89751073897477L77.29091492652894,34.226448490329574L78.01325992584229,36.51859262460317L78.73560492515564,34.28239438341333L79.457949924469,32.87490634952647L80.18029492378236,32.98743446295833L80.9026399230957,34.226448490329574L81.62498492240906,32.98743446295833L82.3473299217224,34.226448490329574L83.06967492103576,34.66861109543419L83.79201992034912,34.97556688340464L84.51436491966247,33.08514039331209L85.23670991897582,33.30144075701804L85.95905491828918,34.54044630002576L86.68139991760253,33.755973564142096L87.4037449169159,33.30144075701804L88.12608991622925,33.30144075701804L88.8484349155426,34.99497910714982L89.57077991485596,32.98743446295833L90.29312491416931,32.98743446295833L91.01546991348266,32.67755156957179L91.73781491279603,33.65850519596705L92.46015991210938,33.30144075701804L93.18250491142273,33.30144075701804L93.90484991073609,33.755973564142096L94.62719491004944,33.30144075701804L95.3495399093628,33.30144075701804L96.07188490867615,32.98743446295833L96.7942299079895,32.98743446295833L97.51657490730287,32.98743446295833L98.23891990661622,32.98743446295833L98.96126490592957,33.30144075701804L99.68360990524292,33.30144075701804L100.40595490455627,33.30144075701804L101.12829990386962,33.30144075701804L101.85064490318298,33.30144075701804L102.57298990249633,32.98743446295833L103.29533490180968,33.30144075701804L104.01767990112305,32.98743446295833L104.7400249004364,32.98743446295833L105.46236989974976,32.98743446295833L106.18471489906311,33.30144075701804L106.90705989837646,34.99497910714982L107.62940489768982,33.99461325700935L108.35174989700317,33.30144075701804L109.07409489631652,32.98743446295833L109.79643989562989,33.30144075701804L110.51878489494324,33.30144075701804L111.24112989425659,32.98743446295833L111.96347489356995,33.44196727008239L112.6858198928833,32.98743446295833L113.40816489219667,32.98743446295833L114.13050989151002,32.98743446295833L114.85285489082337,33.30144075701804L115.57519989013673,33.30144075701804L116.29754488945008,34.60836363004327L117.01988988876343,33.30144075701804L117.74223488807678,33.30144075701804L118.46457988739013,32.98743446295833L119.18692488670348,32.98743446295833L119.90926988601684,33.30144075701804L120.6316148853302,34.16985778561792L121.35395988464354,33.30144075701804L122.07630488395691,33.30144075701804L122.79864988327026,32.56090005546676L123.52099488258362,33.30144075701804L124.24333988189697,33.30144075701804L124.96568488121032,33.30144075701804L125.68802988052369,33.30144075701804L126.41037487983704,33.30144075701804L127.13271987915039,33.30144075701804L127.85506487846375,32.98743446295833L128.57740987777711,32.98743446295833L129.29975487709046,33.755973564142096L130.02209987640381,33.30144075701804L130.74444487571716,33.30144075701804L131.4667898750305,33.755973564142096L132.18913487434386,32.98743446295833L132.91147987365724,33.30144075701804L133.6338248729706,34.54044630002576L134.35616987228394,32.98743446295833L135.0785148715973,33.30144075701804L135.80085987091064,33.30144075701804L136.523204870224,32.98743446295833L137.24554986953734,33.30144075701804L137.9678948688507,33.30144075701804L138.69023986816407,32.98743446295833L139.41258486747742,32.98743446295833L140.13492986679077,32.98743446295833L140.85727486610412,32.98743446295833L141.57961986541747,32.98743446295833L142.30196486473082,32.98743446295833L143.0243098640442,32.98743446295833L143.74665486335755,33.30144075701804L144.4689998626709,32.87490634952647L145.19134486198425,33.30144075701804L145.9136898612976,33.30144075701804L146.63603486061095,32.98743446295833L147.35837985992433,33.30144075701804L148.08072485923765,33.30144075701804L148.80306985855103,33.30144075701804L149.52541485786438,32.98743446295833L150.24775985717773,33.30144075701804L150.97010485649108,32.98743446295833L151.69244985580445,33.30144075701804L152.41479485511778,33.30144075701804L153.13713985443115,33.30144075701804L153.8594848537445,33.30144075701804L154.58182985305788,32.98743446295833L155.3041748523712,32.98743446295833L156.02651985168458,32.98743446295833L156.74886485099793,33.30144075701804L157.47120985031128,32.98743446295833L158.19355484962463,33.30144075701804L158.915899848938,32.98743446295833L159.63824484825133,33.30144075701804L160.3605898475647,32.87490634952647L161.08293484687806,33.30144075701804L161.8052798461914,32.98743446295833L162.52762484550476,32.98743446295833L163.2499698448181,32.98743446295833L163.97231484413146,34.59639219310952L164.6946598434448,33.30144075701804L165.4170048427582,33.30144075701804L166.1393498420715,32.98743446295833L166.8616948413849,33.30144075701804L167.58403984069824,33.30144075701804L168.3063848400116,33.30144075701804L169.02872983932494,32.56090005546676L169.75107483863832,33.30144075701804L170.47341983795164,32.98743446295833L171.19576483726502,33.30144075701804L171.91810983657837,33.30144075701804L172.64045483589175,33.30144075701804L173.36279983520507,32.98743446295833L174.08514483451845,33.30144075701804L174.8074898338318,33.30144075701804L175.52983483314515,33.30144075701804L176.2521798324585,33.30144075701804L176.97452483177187,33.30144075701804L177.6968698310852,33.30144075701804L178.41921483039857,32.98743446295833L179.14155982971192,32.98743446295833L179.86390482902527,33.30144075701804L180.58624982833862,33.30144075701804L181.30859482765197,33.30144075701804L182.03093982696532,33.30144075701804L182.75328482627867,33.30144075701804L183.47562982559205,32.98743446295833L184.19797482490537,33.30144075701804L184.92031982421875,33.30144075701804L185.6426648235321,33.30144075701804L186.36500982284545,33.30144075701804L187.0873548221588,33.30144075701804L187.80969982147218,33.30144075701804L188.5320448207855,34.59639219310952L189.25438982009888,33.30144075701804L189.97673481941223,33.30144075701804L190.6990798187256,33.30144075701804L191.42142481803893,35.03936929711253L192.1437698173523,33.30144075701804L192.86611481666566,33.30144075701804L193.588459815979,33.30144075701804L194.31080481529236,33.30144075701804L195.03314981460574,33.30144075701804L195.75549481391906,33.30144075701804L196.47783981323244,33.30144075701804L197.20018481254579,33.30144075701804L197.92252981185914,33.30144075701804L198.64487481117249,33.30144075701804L199.36721981048584,33.30144075701804L200.08956480979919,33.30144075701804L200.81190980911254,32.98743446295833L201.5342548084259,32.98743446295833L202.25659980773924,33.30144075701804L202.9789448070526,33.30144075701804L203.70128980636596,33.30144075701804L204.4236348056793,33.30144075701804L205.14597980499266,33.30144075701804L205.86832480430604,33.30144075701804L206.59066980361936,32.98743446295833L207.31301480293274,33.30144075701804L208.0353598022461,33.30144075701804L208.75770480155947,33.30144075701804L209.4800498008728,32.98743446295833L210.20239480018617,33.30144075701804L210.92473979949952,33.30144075701804L211.64708479881287,32.98743446295833L212.36942979812622,32.98743446295833L213.0917747974396,34.28239438341333L213.81411979675292,33.30144075701804L214.5364647960663,33.30144075701804L215.25880979537965,33.30144075701804L215.981154794693,33.30144075701804L216.70349979400635,33.30144075701804L217.4258447933197,33.30144075701804L218.14818979263305,32.98743446295833L218.8705347919464,32.98743446295833L219.59287979125978,33.30144075701804L220.3152247905731,33.30144075701804L221.03756978988648,32.87490634952647L221.75991478919983,32.98743446295833L222.48225978851318,34.628658227595054L223.20460478782653,33.30144075701804L223.9269497871399,32.98743446295833L224.64929478645323,33.30144075701804L225.3716397857666,32.98743446295833L226.09398478507995,32.98743446295833L226.81632978439333,33.30144075701804L227.53867478370665,33.30144075701804L228.26101978302003,33.30144075701804L228.98336478233338,33.30144075701804L229.70570978164673,33.30144075701804L230.42805478096008,33.30144075701804L231.15039978027346,33.30144075701804L231.87274477958678,33.30144075701804L232.59508977890016,33.30144075701804L233.3174347782135,33.30144075701804L234.03977977752686,32.98743446295833L234.7621247768402,32.98743446295833L235.48446977615356,33.30144075701804L236.2068147754669,33.30144075701804L236.92915977478026,33.30144075701804L237.65150477409364,33.30144075701804L238.37384977340696,33.30144075701804L239.09619477272034,33.30144075701804L239.8185397720337,33.30144075701804L240.54088477134704,33.30144075701804L241.2632297706604,33.30144075701804L241.98557476997377,33.30144075701804L242.7079197692871,32.98743446295833L243.43026476860047,33.30144075701804L244.15260976791382,33.30144075701804L244.8749547672272,32.98743446295833L245.59729976654052,33.30144075701804L246.3196447658539,33.30144075701804L247.04198976516724,33.30144075701804L247.7643347644806,33.30144075701804L248.48667976379394,34.54044630002576L249.20902476310732,33.30144075701804L249.93136976242064,33.30144075701804L250.65371476173402,33.30144075701804L251.37605976104737,33.30144075701804L252.09840476036072,33.30144075701804L252.82074975967407,33.30144075701804" fill="none"></path></g></g></g></g></g></g><g transform="translate(41, 177)" clip-path="url(#clip_1)"><clipPath id="clip_1"><rect width="288" height="22"></rect></clipPath><g><g><line x1="0" y1="0" x2="0" y2="5" style="visibility: inherit;" fill="rgb(0, 0, 0)" stroke="rgb(204, 204, 204)" stroke-width="1px"></line><line x1="36.117249965667725" y1="0" x2="36.117249965667725" y2="5" style="visibility: inherit;" fill="rgb(0, 0, 0)" stroke="rgb(204, 204, 204)" stroke-width="1px"></line><line x1="72.23449993133545" y1="0" x2="72.23449993133545" y2="5" style="visibility: inherit;" fill="rgb(0, 0, 0)" stroke="rgb(204, 204, 204)" stroke-width="1px"></line><line x1="108.35174989700317" y1="0" x2="108.35174989700317" y2="5" style="visibility: inherit;" fill="rgb(0, 0, 0)" stroke="rgb(204, 204, 204)" stroke-width="1px"></line><line x1="144.4689998626709" y1="0" x2="144.4689998626709" y2="5" style="visibility: inherit;" fill="rgb(0, 0, 0)" stroke="rgb(204, 204, 204)" stroke-width="1px"></line><line x1="180.58624982833862" y1="0" x2="180.58624982833862" y2="5" style="visibility: inherit;" fill="rgb(0, 0, 0)" stroke="rgb(204, 204, 204)" stroke-width="1px"></line><line x1="216.70349979400635" y1="0" x2="216.70349979400635" y2="5" style="visibility: inherit;" fill="rgb(0, 0, 0)" stroke="rgb(204, 204, 204)" stroke-width="1px"></line><line x1="252.82074975967407" y1="0" x2="252.82074975967407" y2="5" style="visibility: inherit;" fill="rgb(0, 0, 0)" stroke="rgb(204, 204, 204)" stroke-width="1px"></line><line x1="288.9379997253418" y1="0" x2="288.9379997253418" y2="5" style="visibility: inherit;" fill="rgb(0, 0, 0)" stroke="rgb(204, 204, 204)" stroke-width="1px"></line></g><g transform="translate(0, 8)"><text style="text-anchor: middle; visibility: hidden; font-family: &quot;Helvetica Neue&quot;, sans-serif; font-size: 12px; font-weight: 200;" x="0" y="0" dx="0em" dy="0.95em" fill="rgb(50, 49, 63)" stroke="none" stroke-width="1px">-50</text><text style="text-anchor: middle; visibility: inherit; font-family: &quot;Helvetica Neue&quot;, sans-serif; font-size: 12px; font-weight: 200;" x="36.117249965667725" y="0" dx="0em" dy="0.95em" fill="rgb(50, 49, 63)" stroke="none" stroke-width="1px">0</text><text style="text-anchor: middle; visibility: inherit; font-family: &quot;Helvetica Neue&quot;, sans-serif; font-size: 12px; font-weight: 200;" x="72.23449993133545" y="0" dx="0em" dy="0.95em" fill="rgb(50, 49, 63)" stroke="none" stroke-width="1px">50</text><text style="text-anchor: middle; visibility: inherit; font-family: &quot;Helvetica Neue&quot;, sans-serif; font-size: 12px; font-weight: 200;" x="108.35174989700317" y="0" dx="0em" dy="0.95em" fill="rgb(50, 49, 63)" stroke="none" stroke-width="1px">100</text><text style="text-anchor: middle; visibility: inherit; font-family: &quot;Helvetica Neue&quot;, sans-serif; font-size: 12px; font-weight: 200;" x="144.4689998626709" y="0" dx="0em" dy="0.95em" fill="rgb(50, 49, 63)" stroke="none" stroke-width="1px">150</text><text style="text-anchor: middle; visibility: inherit; font-family: &quot;Helvetica Neue&quot;, sans-serif; font-size: 12px; font-weight: 200;" x="180.58624982833862" y="0" dx="0em" dy="0.95em" fill="rgb(50, 49, 63)" stroke="none" stroke-width="1px">200</text><text style="text-anchor: middle; visibility: inherit; font-family: &quot;Helvetica Neue&quot;, sans-serif; font-size: 12px; font-weight: 200;" x="216.70349979400635" y="0" dx="0em" dy="0.95em" fill="rgb(50, 49, 63)" stroke="none" stroke-width="1px">250</text><text style="text-anchor: middle; visibility: inherit; font-family: &quot;Helvetica Neue&quot;, sans-serif; font-size: 12px; font-weight: 200;" x="252.82074975967407" y="0" dx="0em" dy="0.95em" fill="rgb(50, 49, 63)" stroke="none" stroke-width="1px">300</text><text style="text-anchor: middle; visibility: hidden; font-family: &quot;Helvetica Neue&quot;, sans-serif; font-size: 12px; font-weight: 200;" x="288.9379997253418" y="0" dx="0em" dy="0.95em" fill="rgb(50, 49, 63)" stroke="none" stroke-width="1px">350</text></g><line x1="0" y1="0" x2="288.9379997253418" y2="0" fill="rgb(0, 0, 0)" stroke="rgb(204, 204, 204)" stroke-width="1px"></line></g></g></g></g></svg>