<svg viewBox="0 0 330 200" xmlns="http://www.w3.org/2000/svg"><g><g><g><g><g><line x1="41.0620002746582" y1="177.92999935150146" x2="36.0620002746582" y2="177.92999935150146" style="visibility: inherit;" fill="rgb(0, 0, 0)" stroke="rgb(204, 204, 204)" stroke-width="1px"></line><line x1="41.0620002746582" y1="164.2430763244629" x2="36.0620002746582" y2="164.2430763244629" style="visibility: inherit;" fill="rgb(0, 0, 0)" stroke="rgb(204, 204, 204)" stroke-width="1px"></line><line x1="41.0620002746582" y1="150.55615329742432" x2="36.0620002746582" y2="150.55615329742432" style="visibility: inherit;" fill="rgb(0, 0, 0)" stroke="rgb(204, 204, 204)" stroke-width="1px"></line><line x1="41.0620002746582" y1="136.86923027038574" x2="36.0620002746582" y2="136.86923027038574" style="visibility: inherit;" fill="rgb(0, 0, 0)" stroke="rgb(204, 204, 204)" stroke-width="1px"></line><line x1="41.0620002746582" y1="123.18230724334717" x2="36.0620002746582" y2="123.18230724334717" style="visibility: inherit;" fill="rgb(0, 0, 0)" stroke="rgb(204, 204, 204)" stroke-width="1px"></line><line x1="41.0620002746582" y1="109.4953842163086" x2="36.0620002746582" y2="109.4953842163086" style="visibility: inherit;" fill="rgb(0, 0, 0)" stroke="rgb(204, 204, 204)" stroke-width="1px"></line><line x1="41.0620002746582" y1="95.80846118927002" x2="36.0620002746582" y2="95.80846118927002" style="visibility: inherit;" fill="rgb(0, 0, 0)" stroke="rgb(204, 204, 204)" stroke-width="1px"></line><line x1="41.0620002746582" y1="82.12153816223145" x2="36.0620002746582" y2="82.12153816223145" style="visibility: inherit;" fill="rgb(0, 0, 0)" stroke="rgb(204, 204, 204)" stroke-width="1px"></line><line x1="41.0620002746582" y1="68.43461513519287" x2="36.0620002746582" y2="68.43461513519287" style="visibility: inherit;" fill="rgb(0, 0, 0)" stroke="rgb(204, 204, 204)" stroke-width="1px"></line><line x1="41.0620002746582" y1="54.7476921081543" x2="36.0620002746582" y2="54.7476921081543" style="visibility: inherit;" fill="rgb(0, 0, 0)" stroke="rgb(204, 204, 204)" stroke-width="1px"></line><line x1="41.0620002746582" y1="41.06076908111572" x2="36.0620002746582" y2="41.06076908111572" style="visibility: inherit;" fill="rgb(0, 0, 0)" stroke="rgb(204, 204, 204)" stroke-width="1px"></line><line x1="41.0620002746582" y1="27.37384605407715" x2="36.0620002746582" y2="27.37384605407715" style="visibility: inherit;" fill="rgb(0, 0, 0)" stroke="rgb(204, 204, 204)" stroke-width="1px"></line><line x1="41.0620002746582" y1="13.686923027038574" x2="36.0620002746582" y2="13.686923027038574" style="visibility: inherit;" fill="rgb(0, 0, 0)" stroke="rgb(204, 204, 204)" stroke-width="1px"></line><line x1="41.0620002746582" y1="0" x2="36.0620002746582" y2="0" style="visibility: inherit;" fill="rgb(0, 0, 0)" stroke="rgb(204, 204, 204)" stroke-width="1px"></line></g><g transform="translate(31.062000274658203, 0)"><text style="text-anchor: end; visibility: hidden; font-family: &quot;Helvetica Neue&quot;, sans-serif; font-size: 12px; font-weight: 200;" x="0" y="177.92999935150146" dx="0em" dy="0.3em" fill="rgb(50, 49, 63)" stroke="none" stroke-width="1px">-10</text><text style="text-anchor: end; visibility: inherit; font-family: &quot;Helvetica Neue&quot;, sans-serif; font-size: 12px; font-weight: 200;" x="0" y="164.2430763244629" dx="0em" dy="0.3em" fill="rgb(50, 49, 63)" stroke="none" stroke-width="1px">0</text><text style="text-anchor: end; visibility: hidden; font-family: &quot;Helvetica Neue&quot;, sans-serif; font-size: 12px; font-weight: 200;" x="0" y="150.55615329742432" dx="0em" dy="0.3em" fill="rgb(50, 49, 63)" stroke="none" stroke-width="1px">10</text><text style="text-anchor: end; visibility: inherit; font-family: &quot;Helvetica Neue&quot;, sans-serif; font-size: 12px; font-weight: 200;" x="0" y="136.86923027038574" dx="0em" dy="0.3em" fill="rgb(50, 49, 63)" stroke="none" stroke-width="1px">20</text><text style="text-anchor: end; visibility: hidden; font-family: &quot;Helvetica Neue&quot;, sans-serif; font-size: 12px; font-weight: 200;" x="0" y="123.18230724334717" dx="0em" dy="0.3em" fill="rgb(50, 49, 63)" stroke="none" stroke-width="1px">30</text><text style="text-anchor: end; visibility: inherit; font-family: &quot;Helvetica Neue&quot;, sans-serif; font-size: 12px; font-weight: 200;" x="0" y="109.4953842163086" dx="0em" dy="0.3em" fill="rgb(50, 49, 63)" stroke="none" stroke-width="1px">40</text><text style="text-anchor: end; visibility: hidden; font-family: &quot;Helvetica Neue&quot;, sans-serif; font-size: 12px; font-weight: 200;" x="0" y="95.80846118927002" dx="0em" dy="0.3em" fill="rgb(50, 49, 63)" stroke="none" stroke-width="1px">50</text><text style="text-anchor: end; visibility: inherit; font-family: &quot;Helvetica Neue&quot;, sans-serif; font-size: 12px; font-weight: 200;" x="0" y="82.12153816223145" dx="0em" dy="0.3em" fill="rgb(50, 49, 63)" stroke="none" stroke-width="1px">60</text><text style="text-anchor: end; visibility: hidden; font-family: &quot;Helvetica Neue&quot;, sans-serif; font-size: 12px; font-weight: 200;" x="0" y="68.43461513519287" dx="0em" dy="0.3em" fill="rgb(50, 49, 63)" stroke="none" stroke-width="1px">70</text><text style="text-anchor: end; visibility: inherit; font-family: &quot;Helvetica Neue&quot;, sans-serif; font-size: 12px; font-weight: 200;" x="0" y="54.7476921081543" dx="0em" dy="0.3em" fill="rgb(50, 49, 63)" stroke="none" stroke-width="1px">80</text><text style="text-anchor: end; visibility: hidden; font-family: &quot;Helvetica Neue&quot;, sans-serif; font-size: 12px; font-weight: 200;" x="0" y="41.06076908111572" dx="0em" dy="0.3em" fill="rgb(50, 49, 63)" stroke="none" stroke-width="1px">90</text><text style="text-anchor: end; visibility: inherit; font-family: &quot;Helvetica Neue&quot;, sans-serif; font-size: 12px; font-weight: 200;" x="0" y="27.37384605407715" dx="0em" dy="0.3em" fill="rgb(50, 49, 63)" stroke="none" stroke-width="1px">100</text><text style="text-anchor: end; visibility: hidden; font-family: &quot;Helvetica Neue&quot;, sans-serif; font-size: 12px; font-weight: 200;" x="0" y="13.686923027038574" dx="0em" dy="0.3em" fill="rgb(50, 49, 63)" stroke="none" stroke-width="1px">110</text><text style="text-anchor: end; visibility: hidden; font-family: &quot;Helvetica Neue&quot;, sans-serif; font-size: 12px; font-weight: 200;" x="0" y="0" dx="0em" dy="0.3em" fill="rgb(50, 49, 63)" stroke="none" stroke-width="1px">120</text></g><line x1="41.0620002746582" y1="0" x2="41.0620002746582" y2="177.92999935150146" fill="rgb(0, 0, 0)" stroke="rgb(204, 204, 204)" stroke-width="1px"></line></g></g><g transform="translate(41, 0)" clip-path="url(#clip_0)"><clipPath id="clip_0"><rect width="288" height="177"></rect></clipPath><g><g><g><line x1="0" y1="0" x2="0" y2="177.92999935150146" fill="rgb(0, 0, 0)" stroke="rgb(60, 60, 60)" stroke-width="1px" opacity="0.25"></line><line x1="36.117249965667725" y1="0" x2="36.117249965667725" y2="177.92999935150146" fill="rgb(0, 0, 0)" stroke="rgb(60, 60, 60)" stroke-width="1px" opacity="0.25"></line><line x1="72.23449993133545" y1="0" x2="72.23449993133545" y2="177.92999935150146" fill="rgb(0, 0, 0)" stroke="rgb(60, 60, 60)" stroke-width="1px" opacity="0.25"></line><line x1="108.35174989700317" y1="0" x2="108.35174989700317" y2="177.92999935150146" fill="rgb(0, 0, 0)" stroke="rgb(60, 60, 60)" stroke-width="1px" opacity="0.25"></line><line x1="144.4689998626709" y1="0" x2="144.4689998626709" y2="177.92999935150146" fill="rgb(0, 0, 0)" stroke="rgb(60, 60, 60)" stroke-width="1px" opacity="0.25"></line><line x1="180.58624982833862" y1="0" x2="180.58624982833862" y2="177.92999935150146" fill="rgb(0, 0, 0)" stroke="rgb(60, 60, 60)" stroke-width="1px" opacity="0.25"></line><line x1="216.70349979400635" y1="0" x2="216.70349979400635" y2="177.92999935150146" fill="rgb(0, 0, 0)" stroke="rgb(60, 60, 60)" stroke-width="1px" opacity="0.25"></line><line x1="252.82074975967407" y1="0" x2="252.82074975967407" y2="177.92999935150146" fill="rgb(0, 0, 0)" stroke="rgb(60, 60, 60)" stroke-width="1px" opacity="0.25"></line><line x1="288.9379997253418" y1="0" x2="288.9379997253418" y2="177.92999935150146" fill="rgb(0, 0, 0)" stroke="rgb(60, 60, 60)" stroke-width="1px" opacity="0.25"></line></g><g><line x1="0" y1="177.92999935150146" x2="288.9379997253418" y2="177.92999935150146" fill="rgb(0, 0, 0)" stroke="rgb(60, 60, 60)" stroke-width="1px" opacity="0.25"></line><line x1="0" y1="164.2430763244629" x2="288.9379997253418" y2="164.2430763244629" fill="rgb(0, 0, 0)" stroke="rgb(60, 60, 60)" stroke-width="1px" opacity="0.25"></line><line x1="0" y1="150.55615329742432" x2="288.9379997253418" y2="150.55615329742432" fill="rgb(0, 0, 0)" stroke="rgb(60, 60, 60)" stroke-width="1px" opacity="0.25"></line><line x1="0" y1="136.86923027038574" x2="288.9379997253418" y2="136.86923027038574" fill="rgb(0, 0, 0)" stroke="rgb(60, 60, 60)" stroke-width="1px" opacity="0.25"></line><line x1="0" y1="123.18230724334717" x2="288.9379997253418" y2="123.18230724334717" fill="rgb(0, 0, 0)" stroke="rgb(60, 60, 60)" stroke-width="1px" opacity="0.25"></line><line x1="0" y1="109.4953842163086" x2="288.9379997253418" y2="109.4953842163086" fill="rgb(0, 0, 0)" stroke="rgb(60, 60, 60)" stroke-width="1px" opacity="0.25"></line><line x1="0" y1="95.80846118927002" x2="288.9379997253418" y2="95.80846118927002" fill="rgb(0, 0, 0)" stroke="rgb(60, 60, 60)" stroke-width="1px" opacity="0.25"></line><line x1="0" y1="82.12153816223145" x2="288.9379997253418" y2="82.12153816223145" fill="rgb(0, 0, 0)" stroke="rgb(60, 60, 60)" stroke-width="1px" opacity="0.25"></line><line x1="0" y1="68.43461513519287" x2="288.9379997253418" y2="68.43461513519287" fill="rgb(0, 0, 0)" stroke="rgb(60, 60, 60)" stroke-width="1px" opacity="0.25"></line><line x1="0" y1="54.7476921081543" x2="288.9379997253418" y2="54.7476921081543" fill="rgb(0, 0, 0)" stroke="rgb(60, 60, 60)" stroke-width="1px" opacity="0.25"></line><line x1="0" y1="41.06076908111572" x2="288.9379997253418" y2="41.06076908111572" fill="rgb(0, 0, 0)" stroke="rgb(60, 60, 60)" stroke-width="1px" opacity="0.25"></line><line x1="0" y1="27.37384605407715" x2="288.9379997253418" y2="27.37384605407715" fill="rgb(0, 0, 0)" stroke="rgb(60, 60, 60)" stroke-width="1px" opacity="0.25"></line><line x1="0" y1="13.686923027038574" x2="288.9379997253418" y2="13.686923027038574" fill="rgb(0, 0, 0)" stroke="rgb(60, 60, 60)" stroke-width="1px" opacity="0.25"></line><line x1="0" y1="0" x2="288.9379997253418" y2="0" fill="rgb(0, 0, 0)" stroke="rgb(60, 60, 60)" stroke-width="1px" opacity="0.25"></line></g></g></g><g><g><line x1="0" y1="164.2430763244629" x2="288.9379997253418" y2="164.2430763244629" fill="rgb(0, 0, 0)" stroke="rgb(153, 153, 153)" stroke-width="1.5px"></line></g></g><g><g><line x1="36.117249965667725" y1="0" x2="36.117249965667725" y2="177.92999935150146" fill="rgb(0, 0, 0)" stroke="rgb(153, 153, 153)" stroke-width="1.5px"></line></g></g><g><g><g><g><g><path style="fill: none;" stroke="rgb(187, 187, 187)" stroke-width="2px" d="M36.83959496498108,164.2430763244629L37.56193996429443,164.2430763244629L38.28428496360779,164.2430763244629L39.006629962921146,164.2430763244629L39.7289749622345,164.2430763244629L40.45131996154785,163.7236690358982L41.1736649608612,163.43894270204825L41.89600996017456,163.766090985934L42.61835495948791,163.95882746094887L43.34069995880127,164.07321868635128L44.063044958114624,164.1414091345344L44.78538995742798,164.1821647265586L45.50773495674133,164.20656122924598L46.23007995605469,164.22117872220892L46.952424955368045,164.22994188341733L47.6747699546814,164.23519714240186L48.39711495399475,164.2383493487895L49.11945995330811,164.24024033110695L49.84180495262146,164.24137479757914L50.56414995193481,164.24205543321776L51.286494951248166,164.2424637986741L52.00883995056152,164.24270881221452L52.73118494987488,164.24285581827482L53.45352994918823,163.4073385280709L54.17587494850159,162.88105989484637L54.898219947814944,162.5652936724975L55.620564947128294,162.05468722072453L56.34290994644165,161.4582405064944L57.06525494575501,158.78921909744014L57.787599945068365,156.87229604413858L58.509944944381715,155.0080591957952L59.232289943695065,147.37691563015125L59.95463494300842,131.05241797774113L60.67697994232177,115.23312406463043L61.39932494163513,103.29945053699966L62.121669940948486,93.43495145827725L62.84401494026184,85.42604113252261L63.56635993957519,77.86070487601629L64.28870493888856,70.83788297055166L65.01104993820191,65.80684645702705L65.73339493751526,62.58134600977468L66.45573993682862,57.21067734926473L67.17808493614197,54.02156200960367L67.90042993545532,52.735449096473644L68.62277493476867,51.46911319464351L69.34511993408204,50.96639256748483L70.06746493339539,49.965105637459146L70.78980993270874,49.36433347946772L71.5121549320221,50.31452421974532L72.23449993133545,48.979488148277085L72.9568449306488,48.77296298597096L73.67918992996216,48.05455140802124L74.40153492927551,47.62350446125268L75.12387992858886,46.1262364915153L75.84622492790223,46.46651551135008L76.56856992721558,46.67068292325084L77.29091492652894,45.5545435687155L78.01325992584229,46.12349975767009L78.73560492515564,45.61982877549548L79.457949924469,46.75716736230302L80.18029492378236,46.20093488962948L80.9026399230957,45.27269474854293L81.62498492240906,44.71575066389099L82.3473299217224,44.38158421309984L83.06967492103576,45.41972414430063L83.79201992034912,44.01028298248917L84.51436491966247,44.79684901628855L85.23670991897582,43.63655790568194L85.95905491828918,42.94038323931798L86.68139991760253,42.5226784394996L87.4037449169159,44.74669952806261L88.12608991622925,43.71422850546324L88.8484349155426,43.73888503609663L89.57077991485596,41.81082340524577L90.29312491416931,40.65398642673529L91.01546991348266,41.150840351949995L91.73781491279603,40.2579965947578L92.46015991210938,41.4476663299661L93.18250491142273,42.16146817109109L93.90484991073609,40.864373286242454L94.62719491004944,39.24754170488151L95.3495399093628,38.27744275606497L96.07188490867615,37.695383386775035L96.7942299079895,36.277132580263896L97.51657490730287,37.78889720850157L98.23891990661622,37.21357216727617L98.96126490592957,36.82662049901637L99.68360990524292,34.962189528752276L100.40595490455627,33.754913466448016L101.12829990386962,32.99582511448915L101.85064490318298,32.299769128726865L102.57298990249633,32.63966963578932L103.29533490180968,34.005770383601345L104.01767990112305,33.26967945950324L104.7400249004364,31.75900972010723L105.46236989974976,30.27725420847571L106.18471489906311,29.740039364100426L106.90705989837646,29.065871994871628L107.62940489768982,28.66137157333432L108.35174989700317,28.41867132041193L109.07409489631652,29.069756398815173L109.79643989562989,28.743230723523595L110.51878489494324,29.2644920406822L111.24112989425659,29.57724883097734L111.96347489356995,28.695887720217257L112.6858198928833,28.16707105376122L113.40816489219667,28.425134721881506L114.13050989151002,28.004619254759774L114.85285489082337,27.752309974486707L115.57519989013673,27.60092440632289L116.29754488945008,28.45195453002816L117.01988988876343,28.020711139647773L117.74223488807678,28.703826570023097L118.46457988739013,28.523672826248344L119.18692488670348,29.13275730231703L119.90926988601684,28.429192803021095L120.6316148853302,28.007054103443522L121.35395988464354,27.753770883696973L122.07630488395691,27.60180095184907L122.79864988327026,27.51061899274032L123.52099488258362,28.52492500221223L124.24333988189697,28.06449342295818L124.96568488121032,27.788234475405773L125.68802988052369,28.691494291811466L126.41037487983704,29.106296461321307L127.13271987915039,28.413316298423638L127.85506487846375,27.997528200685053L128.57740987777711,27.74805534204191L129.29975487709046,27.59837162685602L130.02209987640381,27.508561397744472L130.74444487571716,27.454675260277554L131.4667898750305,27.909079765645515L132.18913487434386,27.694986281018174L132.91147987365724,27.566530190241735L133.6338248729706,27.4894565357759L134.35616987228394,27.443212343096405L135.0785148715973,27.99081949548261L135.80085987091064,27.74403011892042L136.523204870224,28.834592117741153L137.24554986953734,30.557944501970752L137.9678948688507,29.284305122813294L138.69023986816407,28.792431450099343L139.41258486747742,28.22499729169047L140.13492986679077,28.15684675142566L140.85727486610412,27.843646472486256L141.57961986541747,27.655726305122613L142.30196486473082,27.54297420470445L143.0243098640442,27.475322944453524L143.74665486335755,27.434732188303002L144.4689998626709,27.410377734612666L145.19134486198425,27.395765062398453L145.9136898612976,27.38699745906993L146.63603486061095,27.38173689707284L147.35837985992433,27.378580559874564L148.08072485923765,28.445701942492775L148.80306985855103,28.016959587126536L149.52541485786438,27.759714173906787L150.24775985717773,27.60536692597492L150.97010485649108,27.512758577215834L151.69244985580445,27.45719356796036L152.41479485511778,27.423854562407087L153.13713985443115,27.403851159075117L153.8594848537445,27.391849117075935L154.58182985305788,27.384647891876426L155.3041748523712,27.38032715675672L156.02651985168458,27.37773471568488L156.74886485099793,27.376179251041805L157.47120985031128,27.375245972255954L158.19355484962463,27.374686004984426L158.915899848938,27.37435002462152L159.63824484825133,27.3741484364038L160.3605898475647,28.4430426684103L161.08293484687806,28.015364022677062L161.8052798461914,28.24549302308523L162.52762484550476,27.896834235482004L163.2499698448181,28.174375150768185L163.97231484413146,27.854163512091787L164.6946598434448,27.66203652888592L165.4170048427582,27.54676033896243L166.1393498420715,27.477594625008322L166.8616948413849,27.436095196635875L167.58403984069824,27.41119553961238L168.3063848400116,27.396255745398292L169.02872983932494,27.387291868869852L169.75107483863832,27.38191354295276L170.47341983795164,27.37868654740251L171.19576483726502,27.3767503500724L171.91810983657837,27.375588631674276L172.64045483589175,27.374891600635408L173.36279983520507,27.3744733820121L174.08514483451845,27.37422245083812L174.8074898338318,27.374071892133742L175.52983483314515,27.373981556911104L176.2521798324585,27.37392735577754L176.97452483177187,27.37389483509739L177.6968698310852,27.373875322689287L178.41921483039857,27.37386361524443L179.14155982971192,27.373856590777507L179.86390482902527,28.442867561034518L180.58624982833862,28.015258958251593L181.30859482765197,27.758693796581838L182.03093982696532,27.604754699579956L182.75328482627867,28.306076560235283L183.47562982559205,27.933184357772006L184.19797482490537,27.709449036294075L184.92031982421875,27.575207843407327L185.6426648235321,27.49466312767524L186.36500982284545,27.44633629823602L187.0873548221588,27.417340200572454L187.80969982147218,27.399942541974355L188.5320448207855,27.389503946815466L189.25438982009888,27.383240789720134L189.97673481941223,27.379482895462957L190.6990798187256,27.377228158908622L191.42142481803893,27.37587531697605L192.1437698173523,27.375063611816472L192.86611481666566,27.37457658872077L193.588459815979,27.374284374863322L194.31080481529236,27.374109046548853L195.03314981460574,27.374003849560182L195.75549481391906,27.373940731366986L196.47783981323244,27.373902860451068L197.20018481254579,27.373880137901523L197.92252981185914,27.37386650437179L198.64487481117249,28.315719788857507L199.36721981048584,27.938970294945364L200.08956480979919,27.71292059859809L200.81190980911254,27.577290780789724L201.5342548084259,27.495912890104705L202.25659980773924,27.447086155693682L202.9789448070526,28.656425739805087L203.70128980636596,28.1433938655139L204.4236348056793,27.835574740939222L205.14597980499266,27.6508832661944L205.86832480430604,27.54006838134751L206.59066980361936,27.473579450439388L207.31301480293274,27.433686091894486L208.0353598022461,27.40975007676755L208.75770480155947,27.39538846769139L209.4800498008728,27.386771502245722L210.20239480018617,27.381601322978298L210.92473979949952,27.378499215417833L211.64708479881287,27.37663795088156L212.36942979812622,27.375521192159795L213.0917747974396,27.374851136926765L213.81411979675292,27.3744491037869L214.5364647960663,27.37420788390301L215.25880979537965,28.31592461657624L215.981154794693,27.939093191576603L216.70349979400635,27.712994336576827L217.4258447933197,27.57733502357695L218.14818979263305,27.495939435777046L218.8705347919464,27.447102083097064L219.59287979125978,27.41779967148912L220.3152247905731,27.400218224524338L221.03756978988648,27.38966935634545L221.75991478919983,27.383340035438124L222.48225978851318,27.37954244289375L223.20460478782653,27.377263887367093L223.9269497871399,27.375896754051126L224.64929478645323,27.37507647406153L225.3716397857666,27.37458430606776L226.09398478507995,27.37428900527152L226.81632978439333,27.374111824793772L227.53867478370665,27.37400551650711L228.26101978302003,27.373941731535126L228.98336478233338,27.373903460551958L229.70570978164673,27.373880497962034L230.42805478096008,27.373866720408103L231.15039978027346,27.373858453875755L231.87274477958678,27.37385349395629L232.59508977890016,27.373850518004645L233.3174347782135,27.37384873243363L234.03977977752686,27.373847661091048L234.7621247768402,27.373847018285517L235.48446977615356,27.37384663260218L236.2068147754669,27.373846401192168L236.92915977478026,27.37384626234615L237.65150477409364,27.373846179038566L238.37384977340696,27.373846129053987L239.09619477272034,27.373846099063257L239.8185397720337,27.37384608106882L240.54088477134704,27.37384607027215L241.2632297706604,27.37384606379416L241.98557476997377,27.37384605990735L242.7079197692871,27.860582245423444L243.43026476860047,27.665887768884915L244.15260976791382,27.549071082961802L244.8749547672272,27.478981071407958L245.59729976654052,28.675562689233658L246.3196447658539,28.154876035171043L247.04198976516724,27.842464042733496L247.7643347644806,27.655016847270957L248.48667976379394,27.54254852999344L249.20902476310732,27.475067539626906L249.93136976242064,27.434578945407026L250.65371476173402,27.410285788875086L251.37605976104737,27.3957098949559L252.09840476036072,27.386964358604416L252.82074975967407,27.381717036793503" fill="none"></path></g><g><path style="fill: none;" stroke="rgb(238, 51, 119)" stroke-width="2px" d="M36.83959496498108,164.2430763244629L37.56193996429443,164.2430763244629L38.28428496360779,164.2430763244629L39.006629962921146,164.2430763244629L39.7289749622345,164.2430763244629L40.45131996154785,164.2430763244629L41.1736649608612,164.2430763244629L41.89600996017456,164.2430763244629L42.61835495948791,164.2430763244629L43.34069995880127,164.2430763244629L44.063044958114624,164.2430763244629L44.78538995742798,164.2430763244629L45.50773495674133,164.2430763244629L46.23007995605469,164.2430763244629L46.952424955368045,164.2430763244629L47.6747699546814,164.2430763244629L48.39711495399475,164.2430763244629L49.11945995330811,164.2430763244629L49.84180495262146,164.2430763244629L50.56414995193481,164.2430763244629L51.286494951248166,164.2430763244629L52.00883995056152,164.2430763244629L52.73118494987488,164.2430763244629L53.45352994918823,164.2430763244629L54.17587494850159,164.2430763244629L54.898219947814944,164.2430763244629L55.620564947128294,164.2430763244629L56.34290994644165,164.2430763244629L57.06525494575501,164.2430763244629L57.787599945068365,163.6003644344496L58.509944944381715,163.85744922455575L59.232289943695065,163.3689882777172L59.95463494300842,163.07591173449404L60.67697994232177,162.90006581751695L61.39932494163513,163.43727002953023L62.121669940948486,163.75959255082788L62.84401494026184,163.43113305713894L63.56635993957519,163.75591036527447L64.28870493888856,159.5811718456485L65.01104993820191,155.74578631066885L65.73339493751526,156.0076073366891L66.45573993682862,152.3200299372126L67.17808493614197,149.47474263983221L67.90042993545532,145.12756108782696L68.62277493476867,139.97621951934394L69.34511993408204,128.37689907228454L70.06746493339539,118.68106040900085L70.78980993270874,112.8339324244063L71.5121549320221,106.16562128452814L72.23449993133545,102.43727035500079L72.9568449306488,93.15894188211823L73.67918992996216,91.4193753680219L74.40153492927551,86.19346555820961L75.12387992858886,79.27510902315208L75.84622492790223,73.3381746944832L76.56856992721558,68.57354222361465L77.29091492652894,63.79711488853948L78.01325992584229,63.53958887513991L78.73560492515564,59.33347171608014L79.457949924469,53.54259572412195L80.18029492378236,49.67295880179273L80.9026399230957,49.365515962483585L81.62498492240906,45.92744878243764L82.3473299217224,43.89708400741034L83.06967492103576,44.20135154478518L83.79201992034912,40.57798009161709L84.51436491966247,38.40395721971626L85.23670991897582,37.11869048606431L85.95905491828918,37.30878533809343L86.68139991760253,37.17124145113684L87.4037449169159,36.664895838327965L88.12608991622925,37.12512185267997L88.8484349155426,37.40125746129115L89.57077991485596,36.65026417394324L90.29312491416931,35.47197817803547L91.01546991348266,34.76500658049082L91.73781491279603,36.361720696413755L92.46015991210938,35.29885209151777L93.18250491142273,35.23648041965669L93.90484991073609,33.91948800099067L94.62719491004944,35.307304373283216L95.3495399093628,33.96198237316662L96.07188490867615,33.154789173096646L96.7942299079895,33.37469317752752L97.51657490730287,33.506635580186014L98.23891990661622,32.8815810973083L98.96126490592957,31.437537399561933L99.68360990524292,30.08437081614852L100.40595490455627,29.272470866100463L101.12829990386962,28.785330896071628L101.85064490318298,29.562062098991476L102.57298990249633,30.387687465175418L103.29533490180968,29.4544608555166L104.01767990112305,28.89452488972131L104.7400249004364,28.558563310244153L105.46236989974976,29.91273773534317L106.18471489906311,29.169491017617247L106.90705989837646,28.723542986981727L107.62940489768982,28.757752275833212L108.35174989700317,28.963240106676892L109.07409489631652,28.599792440417474L109.79643989562989,28.381723840661863L110.51878489494324,28.250882680808473L111.24112989425659,28.172377984896457L111.96347489356995,28.12527516734923L112.6858198928833,28.097013476820905L113.40816489219667,28.080056462503904L114.13050989151002,28.069882253913704L114.85285489082337,28.4156161913632L115.57519989013673,28.75795845599484L116.29754488945008,28.476623450008276L117.01988988876343,28.035512491635814L117.74223488807678,28.043155871392855L118.46457988739013,27.77543194446659L119.18692488670348,27.614797588310807L119.90926988601684,27.518416974617338L120.6316148853302,27.460588606401245L121.35395988464354,27.425891585471618L122.07630488395691,27.40507337291382L122.79864988327026,27.392582445379162L123.52099488258362,27.38508788885835L124.24333988189697,27.380591154945904L124.96568488121032,27.377893114598407L125.68802988052369,27.376274290389915L126.41037487983704,27.64761295064531L127.13271987915039,27.538106192018063L127.85506487846375,27.47240213684168L128.57740987777711,27.432979703735867L129.29975487709046,27.409326243872385L130.02209987640381,27.395134167954296L130.74444487571716,28.455634107340586L131.4667898750305,30.160949255909543L132.18913487434386,29.046107975176568L132.91147987365724,28.377203206736795L133.6338248729706,27.97586034567294L134.35616987228394,27.735054629034636L135.0785148715973,28.659586383988795L135.80085987091064,28.145290252024125L136.523204870224,27.836712572845357L137.24554986953734,27.65156596533805L137.9678948688507,27.5404780008337L138.69023986816407,27.47382522213107L139.41258486747742,27.433833554909512L140.13492986679077,27.409838554576595L140.85727486610412,27.395441554376816L141.57961986541747,27.386803354256955L142.30196486473082,27.381620434185038L143.0243098640442,27.378510682141894L143.74665486335755,27.376644830916007L144.4689998626709,27.375525320180458L145.19134486198425,27.374853613739162L145.9136898612976,27.374450589874357L146.63603486061095,27.374208775555473L147.35837985992433,27.37406368696415L148.08072485923765,27.37397663380935L148.80306985855103,27.37392440191647L149.52541485786438,27.373893062780752L150.24775985717773,27.3738742592993L150.97010485649108,27.37386297721045L151.69244985580445,27.373856207957118L152.41479485511778,27.37385214640517L153.13713985443115,27.373849709473973L153.8594848537445,27.373848247315266L154.58182985305788,27.373847370020002L155.3041748523712,28.442862028580038L156.02651985168458,28.957117103382473L156.74886485099793,28.32380868366033L157.47120985031128,27.94382363182706L158.19355484962463,27.71583260072711L158.915899848938,27.57903798206712L159.63824484825133,27.49696121087115L160.3605898475647,27.9344513360017L161.08293484687806,27.710209223231885L161.8052798461914,27.575663955570008L162.52762484550476,27.49493679497286L163.2499698448181,27.44650049861457L163.97231484413146,27.417438720799595L164.6946598434448,27.40000165411064L165.4170048427582,27.389539414097214L166.1393498420715,27.383262070089188L166.8616948413849,27.379495663684395L167.58403984069824,27.863972007689654L168.3063848400116,27.667921626244663L169.02872983932494,27.550291397377663L169.75107483863832,27.47971326005745L170.47341983795164,27.43736637766534L171.19576483726502,27.411958248230036L171.91810983657837,27.396713370568904L172.64045483589175,27.38756644397222L173.36279983520507,27.382078288014185L174.08514483451845,27.378785394439376L174.8074898338318,27.37680965829449L175.52983483314515,27.375624216607576L176.2521798324585,27.374912951595405L176.97452483177187,27.374486192588137L177.6968698310852,27.37423013718373L178.41921483039857,27.374076503941126L179.14155982971192,27.37398432399553L179.86390482902527,27.3739290160282L180.58624982833862,27.37389583124775L181.30859482765197,28.315737384983095L182.03093982696532,27.938980852620745L182.75328482627867,27.712926933203306L183.47562982559205,27.57729458155285L184.19797482490537,27.49591517056257L184.92031982421875,27.447087523968406L185.6426648235321,27.417790936011897L186.36500982284545,27.400212983237992L187.0873548221588,27.389666211573655L187.80969982147218,27.383338148575064L188.5320448207855,27.379541310775892L189.25438982009888,28.446278393033566L189.97673481941223,28.017305457450988L190.6990798187256,27.759921696101486L191.42142481803893,27.60549143929174L192.1437698173523,27.512833285205915L192.86611481666566,27.45723839275439L193.588459815979,27.4238814572835L194.31080481529236,27.403867296000982L195.03314981460574,27.391858799231414L195.75549481391906,27.384653701169697L196.47783981323244,27.380330642332694L197.20018481254579,28.44675199196763L197.92252981185914,28.01758961681145L198.64487481117249,27.760092191717746L199.36721981048584,28.844229361419536L200.08956480979919,28.256076038482604L200.81190980911254,27.903184044720405L201.5342548084259,27.691448848463125L202.25659980773924,27.56440773070875L202.9789448070526,27.488183060056087L203.70128980636596,27.44244825766455L204.4236348056793,27.415007376229596L205.14597980499266,27.398542847368645L205.86832480430604,27.388664130052035L206.59066980361936,27.382736899662092L207.31301480293274,27.954534229422023L208.0353598022461,27.72225895928409L208.75770480155947,27.582893797201308L209.4800498008728,27.499274699951656L210.20239480018617,27.449103241601847L210.92473979949952,27.419000366591973L211.64708479881287,27.400938641586066L212.36942979812622,27.390101606582476L213.0917747974396,27.38359938558034L213.81411979675292,27.37969805297908L214.5364647960663,27.377357253418296L215.25880979537965,27.37595277368183L215.981154794693,27.375110085839964L216.70349979400635,28.3164659377384L217.4258447933197,27.939417984273916L218.14818979263305,27.713189212195203L218.8705347919464,27.57745194894798L219.59287979125978,27.496009590999677L220.3152247905731,27.447144176230665L221.03756978988648,27.417824927369253L221.75991478919983,27.400233378052405L222.48225978851318,27.38967844846229L223.20460478782653,27.38334549070825L223.9269497871399,27.379545716055816L224.64929478645323,27.377265851264326L225.3716397857666,27.375897932389478L226.09398478507995,27.37507718106454L226.81632978439333,27.37458473026959L227.53867478370665,27.37428925979262L228.26101978302003,27.37411197750643L228.98336478233338,27.374005608134723L229.70570978164673,27.373941786511693L230.42805478096008,27.37390349353788L231.15039978027346,27.373880517753605L231.87274477958678,27.373866732283034L232.59508977890016,27.37385846100068L233.3174347782135,27.373853498231284L234.03977977752686,27.37385052056962L234.7621247768402,27.373848733972636L235.48446977615356,27.37384766201444L236.2068147754669,27.37384701883954L236.92915977478026,27.373846632934573L237.65150477409364,27.373846401391603L238.37384977340696,27.373846262465833L239.09619477272034,27.37384617911036L239.8185397720337,27.373846129097075L240.54088477134704,27.37384609908912L241.2632297706604,27.373846081084338L241.98557476997377,27.373846070281473L242.7079197692871,27.373846063799732L243.43026476860047,27.373846059910704L244.15260976791382,27.373846057577282L244.8749547672272,27.37384605617723L245.59729976654052,27.373846055337225L246.3196447658539,27.373846054833194L247.04198976516724,27.37384605453076L247.7643347644806,27.373846054349343L248.48667976379394,27.37384605424046L249.20902476310732,27.373846054175118L249.93136976242064,27.373846054135925L250.65371476173402,27.37384605411242L251.37605976104737,27.373846054098294L252.09840476036072,27.373846054089853L252.82074975967407,27.373846054084765" fill="none"></path></g></g></g></g><g opacity="0.2"><g><g><g><path style="fill: none;" stroke="rgb(187, 187, 187)" stroke-width="2px" d="M36.83959496498108,164.2430763244629L37.56193996429443,164.2430763244629L38.28428496360779,164.2430763244629L39.006629962921146,164.2430763244629L39.7289749622345,164.2430763244629L40.45131996154785,163.00514176918938L41.1736649608612,163.0317794890215L41.89600996017456,164.2430763244629L42.61835495948791,164.2430763244629L43.34069995880127,164.2430763244629L44.063044958114624,164.2430763244629L44.78538995742798,164.2430763244629L45.50773495674133,164.2430763244629L46.23007995605469,164.2430763244629L46.952424955368045,164.2430763244629L47.6747699546814,164.2430763244629L48.39711495399475,164.2430763244629L49.11945995330811,164.2430763244629L49.84180495262146,164.2430763244629L50.56414995193481,164.2430763244629L51.286494951248166,164.2430763244629L52.00883995056152,164.2430763244629L52.73118494987488,164.2430763244629L53.45352994918823,162.15407249026384L54.17587494850159,162.09164568557287L54.898219947814944,162.09164568557287L55.620564947128294,161.28877884956702L56.34290994644165,160.56357135083542L57.06525494575501,154.7856894424047L57.787599945068365,153.99691252364045L58.509944944381715,152.2117045414813L59.232289943695065,135.9302018000275L59.95463494300842,106.56567344794311L60.67697994232177,91.50418432806799L61.39932494163513,85.39894075842422L62.121669940948486,78.63820309456024L62.84401494026184,73.41267576780156L63.56635993957519,66.51270056148569L64.28870493888856,60.30365015147035L65.01104993820191,58.26029170355322L65.73339493751526,57.7430953453637L66.45573993682862,49.154674364961096L67.17808493614197,49.237889002414164L67.90042993545532,50.80627972733565L68.62277493476867,49.569609342227324L69.34511993408204,50.212311626825255L70.06746493339539,48.46317524251427L70.78980993270874,48.46317524251427L71.5121549320221,51.739810330129686L72.23449993133545,46.9769340411018L72.9568449306488,48.46317524251427L73.67918992996216,46.9769340411018L74.40153492927551,46.9769340411018L75.12387992858886,43.880334536913125L75.84622492790223,46.9769340411018L76.56856992721558,46.9769340411018L77.29091492652894,43.880334536913125L78.01325992584229,46.9769340411018L78.73560492515564,44.86432230223363L79.457949924469,48.46317524251427L80.18029492378236,45.36658618061918L80.9026399230957,43.880334536913125L81.62498492240906,43.880334536913125L82.3473299217224,43.880334536913125L83.06967492103576,46.9769340411018L83.79201992034912,41.89612123977204L84.51436491966247,45.97669806698758L85.23670991897582,41.89612123977204L85.95905491828918,41.89612123977204L86.68139991760253,41.89612123977204L87.4037449169159,48.082731160907144L88.12608991622925,42.16552197156415L88.8484349155426,43.77586983204674L89.57077991485596,38.91873095896955L90.29312491416931,38.91873095896955L91.01546991348266,41.89612123977204L91.73781491279603,38.91873095896955L92.46015991210938,43.23217093277853L93.18250491142273,43.23217093277853L93.90484991073609,38.91873095896955L94.62719491004944,36.8222943328401L95.3495399093628,36.8222943328401L96.07188490867615,36.8222943328401L96.7942299079895,34.14975637049719L97.51657490730287,40.05654415085809L98.23891990661622,36.35058460543806L98.96126490592957,36.24619299662663L99.68360990524292,32.165543073356105L100.40595490455627,31.943999372991698L101.12829990386962,31.85719258655081L101.85064490318298,31.255685150083423L102.57298990249633,33.149520396383025L103.29533490180968,36.054921505319356L104.01767990112305,32.165543073356105L104.7400249004364,29.49300511101319L105.46236989974976,28.05462094102839L106.18471489906311,28.93421709753747L106.90705989837646,28.05462094102839L107.62940489768982,28.05462094102839L108.35174989700317,28.05462094102839L109.07409489631652,30.046384016420063L109.79643989562989,28.25344221058623L110.51878489494324,30.046384016420063L111.24112989425659,30.046384016420063L111.96347489356995,27.37384605407715L112.6858198928833,27.37384605407715L113.40816489219667,28.81223022406195L114.13050989151002,27.37384605407715L114.85285489082337,27.37384605407715L115.57519989013673,27.37384605407715L116.29754488945008,29.728499715586054L117.01988988876343,27.37384605407715L117.74223488807678,29.728499715586054L118.46457988739013,28.25344221058623L119.18692488670348,30.046384016420063L119.90926988601684,27.37384605407715L120.6316148853302,27.37384605407715L121.35395988464354,27.37384605407715L122.07630488395691,27.37384605407715L122.79864988327026,27.37384605407715L123.52099488258362,30.046384016420063L124.24333988189697,27.37384605407715L124.96568488121032,27.37384605407715L125.68802988052369,30.046384016420063L126.41037487983704,29.728499715586054L127.13271987915039,27.37384605407715L127.85506487846375,27.37384605407715L128.57740987777711,27.37384605407715L129.29975487709046,27.37384605407715L130.02209987640381,27.37384605407715L130.74444487571716,27.37384605407715L131.4667898750305,28.590686523697514L132.18913487434386,27.37384605407715L132.91147987365724,27.37384605407715L133.6338248729706,27.37384605407715L134.35616987228394,27.37384605407715L135.0785148715973,28.81223022406195L135.80085987091064,27.37384605407715L136.523204870224,30.470435115972236L137.24554986953734,33.14297307831512L137.9678948688507,27.37384605407715L138.69023986816407,28.05462094102839L139.41258486747742,27.37384605407715L140.13492986679077,28.05462094102839L140.85727486610412,27.37384605407715L141.57961986541747,27.37384605407715L142.30196486473082,27.37384605407715L143.0243098640442,27.37384605407715L143.74665486335755,27.37384605407715L144.4689998626709,27.37384605407715L145.19134486198425,27.37384605407715L145.9136898612976,27.37384605407715L146.63603486061095,27.37384605407715L147.35837985992433,27.37384605407715L148.08072485923765,30.046384016420063L148.80306985855103,27.37384605407715L149.52541485786438,27.37384605407715L150.24775985717773,27.37384605407715L150.97010485649108,27.37384605407715L151.69244985580445,27.37384605407715L152.41479485511778,27.37384605407715L153.13713985443115,27.37384605407715L153.8594848537445,27.37384605407715L154.58182985305788,27.37384605407715L155.3041748523712,27.37384605407715L156.02651985168458,27.37384605407715L156.74886485099793,27.37384605407715L157.47120985031128,27.37384605407715L158.19355484962463,27.37384605407715L158.915899848938,27.37384605407715L159.63824484825133,27.37384605407715L160.3605898475647,30.046384016420063L161.08293484687806,27.37384605407715L161.8052798461914,28.590686523697514L162.52762484550476,27.37384605407715L163.2499698448181,28.590686523697514L163.97231484413146,27.37384605407715L164.6946598434448,27.37384605407715L165.4170048427582,27.37384605407715L166.1393498420715,27.37384605407715L166.8616948413849,27.37384605407715L167.58403984069824,27.37384605407715L168.3063848400116,27.37384605407715L169.02872983932494,27.37384605407715L169.75107483863832,27.37384605407715L170.47341983795164,27.37384605407715L171.19576483726502,27.37384605407715L171.91810983657837,27.37384605407715L172.64045483589175,27.37384605407715L173.36279983520507,27.37384605407715L174.08514483451845,27.37384605407715L174.8074898338318,27.37384605407715L175.52983483314515,27.37384605407715L176.2521798324585,27.37384605407715L176.97452483177187,27.37384605407715L177.6968698310852,27.37384605407715L178.41921483039857,27.37384605407715L179.14155982971192,27.37384605407715L179.86390482902527,30.046384016420063L180.58624982833862,27.37384605407715L181.30859482765197,27.37384605407715L182.03093982696532,27.37384605407715L182.75328482627867,29.35805935121826L183.47562982559205,27.37384605407715L184.19797482490537,27.37384605407715L184.92031982421875,27.37384605407715L185.6426648235321,27.37384605407715L186.36500982284545,27.37384605407715L187.0873548221588,27.37384605407715L187.80969982147218,27.37384605407715L188.5320448207855,27.37384605407715L189.25438982009888,27.37384605407715L189.97673481941223,27.37384605407715L190.6990798187256,27.37384605407715L191.42142481803893,27.37384605407715L192.1437698173523,27.37384605407715L192.86611481666566,27.37384605407715L193.588459815979,27.37384605407715L194.31080481529236,27.37384605407715L195.03314981460574,27.37384605407715L195.75549481391906,27.37384605407715L196.47783981323244,27.37384605407715L197.20018481254579,27.37384605407715L197.92252981185914,27.37384605407715L198.64487481117249,29.728499715586054L199.36721981048584,27.37384605407715L200.08956480979919,27.37384605407715L200.81190980911254,27.37384605407715L201.5342548084259,27.37384605407715L202.25659980773924,27.37384605407715L202.9789448070526,30.470435115972236L203.70128980636596,27.37384605407715L204.4236348056793,27.37384605407715L205.14597980499266,27.37384605407715L205.86832480430604,27.37384605407715L206.59066980361936,27.37384605407715L207.31301480293274,27.37384605407715L208.0353598022461,27.37384605407715L208.75770480155947,27.37384605407715L209.4800498008728,27.37384605407715L210.20239480018617,27.37384605407715L210.92473979949952,27.37384605407715L211.64708479881287,27.37384605407715L212.36942979812622,27.37384605407715L213.0917747974396,27.37384605407715L213.81411979675292,27.37384605407715L214.5364647960663,27.37384605407715L215.25880979537965,29.728499715586054L215.981154794693,27.37384605407715L216.70349979400635,27.37384605407715L217.4258447933197,27.37384605407715L218.14818979263305,27.37384605407715L218.8705347919464,27.37384605407715L219.59287979125978,27.37384605407715L220.3152247905731,27.37384605407715L221.03756978988648,27.37384605407715L221.75991478919983,27.37384605407715L222.48225978851318,27.37384605407715L223.20460478782653,27.37384605407715L223.9269497871399,27.37384605407715L224.64929478645323,27.37384605407715L225.3716397857666,27.37384605407715L226.09398478507995,27.37384605407715L226.81632978439333,27.37384605407715L227.53867478370665,27.37384605407715L228.26101978302003,27.37384605407715L228.98336478233338,27.37384605407715L229.70570978164673,27.37384605407715L230.42805478096008,27.37384605407715L231.15039978027346,27.37384605407715L231.87274477958678,27.37384605407715L232.59508977890016,27.37384605407715L233.3174347782135,27.37384605407715L234.03977977752686,27.37384605407715L234.7621247768402,27.37384605407715L235.48446977615356,27.37384605407715L236.2068147754669,27.37384605407715L236.92915977478026,27.37384605407715L237.65150477409364,27.37384605407715L238.37384977340696,27.37384605407715L239.09619477272034,27.37384605407715L239.8185397720337,27.37384605407715L240.54088477134704,27.37384605407715L241.2632297706604,27.37384605407715L241.98557476997377,27.37384605407715L242.7079197692871,28.590686523697514L243.43026476860047,27.37384605407715L244.15260976791382,27.37384605407715L244.8749547672272,27.37384605407715L245.59729976654052,30.470435115972236L246.3196447658539,27.37384605407715L247.04198976516724,27.37384605407715L247.7643347644806,27.37384605407715L248.48667976379394,27.37384605407715L249.20902476310732,27.37384605407715L249.93136976242064,27.37384605407715L250.65371476173402,27.37384605407715L251.37605976104737,27.37384605407715L252.09840476036072,27.37384605407715L252.82074975967407,27.37384605407715" fill="none"></path></g><g><path style="fill: none;" stroke="rgb(238, 51, 119)" stroke-width="2px" d="M36.83959496498108,164.2430763244629L37.56193996429443,164.2430763244629L38.28428496360779,164.2430763244629L39.006629962921146,164.2430763244629L39.7289749622345,164.2430763244629L40.45131996154785,164.2430763244629L41.1736649608612,164.2430763244629L41.89600996017456,164.2430763244629L42.61835495948791,164.2430763244629L43.34069995880127,164.2430763244629L44.063044958114624,164.2430763244629L44.78538995742798,164.2430763244629L45.50773495674133,164.2430763244629L46.23007995605469,164.2430763244629L46.952424955368045,164.2430763244629L47.6747699546814,164.2430763244629L48.39711495399475,164.2430763244629L49.11945995330811,164.2430763244629L49.84180495262146,164.2430763244629L50.56414995193481,164.2430763244629L51.286494951248166,164.2430763244629L52.00883995056152,164.2430763244629L52.73118494987488,164.2430763244629L53.45352994918823,164.2430763244629L54.17587494850159,164.2430763244629L54.898219947814944,164.2430763244629L55.620564947128294,164.2430763244629L56.34290994644165,164.2430763244629L57.06525494575501,164.2430763244629L57.787599945068365,162.63629695464675L58.509944944381715,164.2430763244629L59.232289943695065,162.63629695464675L59.95463494300842,162.63629695464675L60.67697994232177,162.63629695464675L61.39932494163513,164.2430763244629L62.121669940948486,164.2430763244629L62.84401494026184,162.93844382168731L63.56635993957519,164.2430763244629L64.28870493888856,153.31906408946196L65.01104993820191,149.99270802101674L65.73339493751526,156.40033887519445L66.45573993682862,146.78866384243437L67.17808493614197,145.20681169581547L67.90042993545532,138.60678876170186L68.62277493476867,132.24920716795805L69.34511993408204,110.977918403504L70.06746493339539,104.13730241498233L70.78980993270874,104.06324044784269L71.5121549320221,96.16315457493548L72.23449993133545,96.84474396078512L72.9568449306488,79.24144917290687L73.67918992996216,88.81002559689004L74.40153492927551,78.35460084351398L75.12387992858886,68.89757422058392L75.84622492790223,64.43277320148917L76.56856992721558,61.42659351731635L77.29091492652894,56.63247388592936L78.01325992584229,63.153299855040686L78.73560492515564,53.02429597749142L79.457949924469,44.85628173618534L80.18029492378236,43.86850341829921L80.9026399230957,48.90435170351992L81.62498492240906,40.77034801236877L82.3473299217224,40.8515368448694L83.06967492103576,44.65775285084746L83.79201992034912,35.14292291186504L84.51436491966247,35.14292291186504L85.23670991897582,35.1907903855863L85.95905491828918,37.59392761613708L86.68139991760253,36.96492562070196L87.4037449169159,35.90537741911467L88.12608991622925,37.81546087420793L88.8484349155426,37.81546087420793L89.57077991485596,35.52377424292135L90.29312491416931,33.7045491841738L91.01546991348266,33.7045491841738L91.73781491279603,38.7567918702982L92.46015991210938,33.7045491841738L93.18250491142273,35.14292291186504L93.90484991073609,31.943999372991698L94.62719491004944,37.38902893172198L95.3495399093628,31.943999372991698L96.07188490867615,31.943999372991698L96.7942299079895,33.7045491841738L97.51657490730287,33.7045491841738L98.23891990661622,31.943999372991698L98.96126490592957,29.27147185294234L99.68360990524292,28.05462094102839L100.40595490455627,28.05462094102839L101.12829990386962,28.05462094102839L101.85064490318298,30.727158903371304L102.57298990249633,31.626125514451275L103.29533490180968,28.05462094102839L104.01767990112305,28.05462094102839L104.7400249004364,28.05462094102839L105.46236989974976,31.943999372991698L106.18471489906311,28.05462094102839L106.90705989837646,28.05462094102839L107.62940489768982,28.809066209110455L108.35174989700317,29.27147185294234L109.07409489631652,28.05462094102839L109.79643989562989,28.05462094102839L110.51878489494324,28.05462094102839L111.24112989425659,28.05462094102839L111.96347489356995,28.05462094102839L112.6858198928833,28.05462094102839L113.40816489219667,28.05462094102839L114.13050989151002,28.05462094102839L114.85285489082337,28.93421709753747L115.57519989013673,29.27147185294234L116.29754488945008,28.05462094102839L117.01988988876343,27.37384605407715L117.74223488807678,28.05462094102839L118.46457988739013,27.37384605407715L119.18692488670348,27.37384605407715L119.90926988601684,27.37384605407715L120.6316148853302,27.37384605407715L121.35395988464354,27.37384605407715L122.07630488395691,27.37384605407715L122.79864988327026,27.37384605407715L123.52099488258362,27.37384605407715L124.24333988189697,27.37384605407715L124.96568488121032,27.37384605407715L125.68802988052369,27.37384605407715L126.41037487983704,28.05462094102839L127.13271987915039,27.37384605407715L127.85506487846375,27.37384605407715L128.57740987777711,27.37384605407715L129.29975487709046,27.37384605407715L130.02209987640381,27.37384605407715L130.74444487571716,30.046384016420063L131.4667898750305,32.71892197876295L132.18913487434386,27.37384605407715L132.91147987365724,27.37384605407715L133.6338248729706,27.37384605407715L134.35616987228394,27.37384605407715L135.0785148715973,30.046384016420063L135.80085987091064,27.37384605407715L136.523204870224,27.37384605407715L137.24554986953734,27.37384605407715L137.9678948688507,27.37384605407715L138.69023986816407,27.37384605407715L139.41258486747742,27.37384605407715L140.13492986679077,27.37384605407715L140.85727486610412,27.37384605407715L141.57961986541747,27.37384605407715L142.30196486473082,27.37384605407715L143.0243098640442,27.37384605407715L143.74665486335755,27.37384605407715L144.4689998626709,27.37384605407715L145.19134486198425,27.37384605407715L145.9136898612976,27.37384605407715L146.63603486061095,27.37384605407715L147.35837985992433,27.37384605407715L148.08072485923765,27.37384605407715L148.80306985855103,27.37384605407715L149.52541485786438,27.37384605407715L150.24775985717773,27.37384605407715L150.97010485649108,27.37384605407715L151.69244985580445,27.37384605407715L152.41479485511778,27.37384605407715L153.13713985443115,27.37384605407715L153.8594848537445,27.37384605407715L154.58182985305788,27.37384605407715L155.3041748523712,30.046384016420063L156.02651985168458,29.728499715586054L156.74886485099793,27.37384605407715L157.47120985031128,27.37384605407715L158.19355484962463,27.37384605407715L158.915899848938,27.37384605407715L159.63824484825133,27.37384605407715L160.3605898475647,28.590686523697514L161.08293484687806,27.37384605407715L161.8052798461914,27.37384605407715L162.52762484550476,27.37384605407715L163.2499698448181,27.37384605407715L163.97231484413146,27.37384605407715L164.6946598434448,27.37384605407715L165.4170048427582,27.37384605407715L166.1393498420715,27.37384605407715L166.8616948413849,27.37384605407715L167.58403984069824,28.590686523697514L168.3063848400116,27.37384605407715L169.02872983932494,27.37384605407715L169.75107483863832,27.37384605407715L170.47341983795164,27.37384605407715L171.19576483726502,27.37384605407715L171.91810983657837,27.37384605407715L172.64045483589175,27.37384605407715L173.36279983520507,27.37384605407715L174.08514483451845,27.37384605407715L174.8074898338318,27.37384605407715L175.52983483314515,27.37384605407715L176.2521798324585,27.37384605407715L176.97452483177187,27.37384605407715L177.6968698310852,27.37384605407715L178.41921483039857,27.37384605407715L179.14155982971192,27.37384605407715L179.86390482902527,27.37384605407715L180.58624982833862,27.37384605407715L181.30859482765197,29.728499715586054L182.03093982696532,27.37384605407715L182.75328482627867,27.37384605407715L183.47562982559205,27.37384605407715L184.19797482490537,27.37384605407715L184.92031982421875,27.37384605407715L185.6426648235321,27.37384605407715L186.36500982284545,27.37384605407715L187.0873548221588,27.37384605407715L187.80969982147218,27.37384605407715L188.5320448207855,27.37384605407715L189.25438982009888,30.046384016420063L189.97673481941223,27.37384605407715L190.6990798187256,27.37384605407715L191.42142481803893,27.37384605407715L192.1437698173523,27.37384605407715L192.86611481666566,27.37384605407715L193.588459815979,27.37384605407715L194.31080481529236,27.37384605407715L195.03314981460574,27.37384605407715L195.75549481391906,27.37384605407715L196.47783981323244,27.37384605407715L197.20018481254579,30.046384016420063L197.92252981185914,27.37384605407715L198.64487481117249,27.37384605407715L199.36721981048584,30.470435115972236L200.08956480979919,27.37384605407715L200.81190980911254,27.37384605407715L201.5342548084259,27.37384605407715L202.25659980773924,27.37384605407715L202.9789448070526,27.37384605407715L203.70128980636596,27.37384605407715L204.4236348056793,27.37384605407715L205.14597980499266,27.37384605407715L205.86832480430604,27.37384605407715L206.59066980361936,27.37384605407715L207.31301480293274,28.81223022406195L208.0353598022461,27.37384605407715L208.75770480155947,27.37384605407715L209.4800498008728,27.37384605407715L210.20239480018617,27.37384605407715L210.92473979949952,27.37384605407715L211.64708479881287,27.37384605407715L212.36942979812622,27.37384605407715L213.0917747974396,27.37384605407715L213.81411979675292,27.37384605407715L214.5364647960663,27.37384605407715L215.25880979537965,27.37384605407715L215.981154794693,27.37384605407715L216.70349979400635,29.728499715586054L217.4258447933197,27.37384605407715L218.14818979263305,27.37384605407715L218.8705347919464,27.37384605407715L219.59287979125978,27.37384605407715L220.3152247905731,27.37384605407715L221.03756978988648,27.37384605407715L221.75991478919983,27.37384605407715L222.48225978851318,27.37384605407715L223.20460478782653,27.37384605407715L223.9269497871399,27.37384605407715L224.64929478645323,27.37384605407715L225.3716397857666,27.37384605407715L226.09398478507995,27.37384605407715L226.81632978439333,27.37384605407715L227.53867478370665,27.37384605407715L228.26101978302003,27.37384605407715L228.98336478233338,27.37384605407715L229.70570978164673,27.37384605407715L230.42805478096008,27.37384605407715L231.15039978027346,27.37384605407715L231.87274477958678,27.37384605407715L232.59508977890016,27.37384605407715L233.3174347782135,27.37384605407715L234.03977977752686,27.37384605407715L234.7621247768402,27.37384605407715L235.48446977615356,27.37384605407715L236.2068147754669,27.37384605407715L236.92915977478026,27.37384605407715L237.65150477409364,27.37384605407715L238.37384977340696,27.37384605407715L239.09619477272034,27.37384605407715L239.8185397720337,27.37384605407715L240.54088477134704,27.37384605407715L241.2632297706604,27.37384605407715L241.98557476997377,27.37384605407715L242.7079197692871,27.37384605407715L243.43026476860047,27.37384605407715L244.15260976791382,27.37384605407715L244.8749547672272,27.37384605407715L245.59729976654052,27.37384605407715L246.3196447658539,27.37384605407715L247.04198976516724,27.37384605407715L247.7643347644806,27.37384605407715L248.48667976379394,27.37384605407715L249.20902476310732,27.37384605407715L249.93136976242064,27.37384605407715L250.65371476173402,27.37384605407715L251.37605976104737,27.37384605407715L252.09840476036072,27.37384605407715L252.82074975967407,27.37384605407715" fill="none"></path></g></g></g></g></g></g><g transform="translate(41, 177)" clip-path="url(#clip_1)"><clipPath id="clip_1"><rect width="288" height="22"></rect></clipPath><g><g><line x1="0" y1="0" x2="0" y2="5" style="visibility: inherit;" fill="rgb(0, 0, 0)" stroke="rgb(204, 204, 204)" stroke-width="1px"></line><line x1="36.117249965667725" y1="0" x2="36.117249965667725" y2="5" style="visibility: inherit;" fill="rgb(0, 0, 0)" stroke="rgb(204, 204, 204)" stroke-width="1px"></line><line x1="72.23449993133545" y1="0" x2="72.23449993133545" y2="5" style="visibility: inherit;" fill="rgb(0, 0, 0)" stroke="rgb(204, 204, 204)" stroke-width="1px"></line><line x1="108.35174989700317" y1="0" x2="108.35174989700317" y2="5" style="visibility: inherit;" fill="rgb(0, 0, 0)" stroke="rgb(204, 204, 204)" stroke-width="1px"></line><line x1="144.4689998626709" y1="0" x2="144.4689998626709" y2="5" style="visibility: inherit;" fill="rgb(0, 0, 0)" stroke="rgb(204, 204, 204)" stroke-width="1px"></line><line x1="180.58624982833862" y1="0" x2="180.58624982833862" y2="5" style="visibility: inherit;" fill="rgb(0, 0, 0)" stroke="rgb(204, 204, 204)" stroke-width="1px"></line><line x1="216.70349979400635" y1="0" x2="216.70349979400635" y2="5" style="visibility: inherit;" fill="rgb(0, 0, 0)" stroke="rgb(204, 204, 204)" stroke-width="1px"></line><line x1="252.82074975967407" y1="0" x2="252.82074975967407" y2="5" style="visibility: inherit;" fill="rgb(0, 0, 0)" stroke="rgb(204, 204, 204)" stroke-width="1px"></line><line x1="288.9379997253418" y1="0" x2="288.9379997253418" y2="5" style="visibility: inherit;" fill="rgb(0, 0, 0)" stroke="rgb(204, 204, 204)" stroke-width="1px"></line></g><g transform="translate(0, 8)"><text style="text-anchor: middle; visibility: hidden; font-family: &quot;Helvetica Neue&quot;, sans-serif; font-size: 12px; font-weight: 200;" x="0" y="0" dx="0em" dy="0.95em" fill="rgb(50, 49, 63)" stroke="none" stroke-width="1px">-50</text><text style="text-anchor: middle; visibility: inherit; font-family: &quot;Helvetica Neue&quot;, sans-serif; font-size: 12px; font-weight: 200;" x="36.117249965667725" y="0" dx="0em" dy="0.95em" fill="rgb(50, 49, 63)" stroke="none" stroke-width="1px">0</text><text style="text-anchor: middle; visibility: inherit; font-family: &quot;Helvetica Neue&quot;, sans-serif; font-size: 12px; font-weight: 200;" x="72.23449993133545" y="0" dx="0em" dy="0.95em" fill="rgb(50, 49, 63)" stroke="none" stroke-width="1px">50</text><text style="text-anchor: middle; visibility: inherit; font-family: &quot;Helvetica Neue&quot;, sans-serif; font-size: 12px; font-weight: 200;" x="108.35174989700317" y="0" dx="0em" dy="0.95em" fill="rgb(50, 49, 63)" stroke="none" stroke-width="1px">100</text><text style="text-anchor: middle; visibility: inherit; font-family: &quot;Helvetica Neue&quot;, sans-serif; font-size: 12px; font-weight: 200;" x="144.4689998626709" y="0" dx="0em" dy="0.95em" fill="rgb(50, 49, 63)" stroke="none" stroke-width="1px">150</text><text style="text-anchor: middle; visibility: inherit; font-family: &quot;Helvetica Neue&quot;, sans-serif; font-size: 12px; font-weight: 200;" x="180.58624982833862" y="0" dx="0em" dy="0.95em" fill="rgb(50, 49, 63)" stroke="none" stroke-width="1px">200</text><text style="text-anchor: middle; visibility: inherit; font-family: &quot;Helvetica Neue&quot;, sans-serif; font-size: 12px; font-weight: 200;" x="216.70349979400635" y="0" dx="0em" dy="0.95em" fill="rgb(50, 49, 63)" stroke="none" stroke-width="1px">250</text><text style="text-anchor: middle; visibility: inherit; font-family: &quot;Helvetica Neue&quot;, sans-serif; font-size: 12px; font-weight: 200;" x="252.82074975967407" y="0" dx="0em" dy="0.95em" fill="rgb(50, 49, 63)" stroke="none" stroke-width="1px">300</text><text style="text-anchor: middle; visibility: hidden; font-family: &quot;Helvetica Neue&quot;, sans-serif; font-size: 12px; font-weight: 200;" x="288.9379997253418" y="0" dx="0em" dy="0.95em" fill="rgb(50, 49, 63)" stroke="none" stroke-width="1px">350</text></g><line x1="0" y1="0" x2="288.9379997253418" y2="0" fill="rgb(0, 0, 0)" stroke="rgb(204, 204, 204)" stroke-width="1px"></line></g></g></g></g></svg>