<svg viewBox="0 0 330 200" xmlns="http://www.w3.org/2000/svg"><g><g><g><g><g><line x1="51.41600036621094" y1="177.92999935150146" x2="46.41600036621094" y2="177.92999935150146" style="visibility: inherit;" fill="rgb(0, 0, 0)" stroke="rgb(204, 204, 204)" stroke-width="1px"></line><line x1="51.41600036621094" y1="158.15999942355685" x2="46.41600036621094" y2="158.15999942355685" style="visibility: inherit;" fill="rgb(0, 0, 0)" stroke="rgb(204, 204, 204)" stroke-width="1px"></line><line x1="51.41600036621094" y1="138.38999949561224" x2="46.41600036621094" y2="138.38999949561224" style="visibility: inherit;" fill="rgb(0, 0, 0)" stroke="rgb(204, 204, 204)" stroke-width="1px"></line><line x1="51.41600036621094" y1="118.61999956766765" x2="46.41600036621094" y2="118.61999956766765" style="visibility: inherit;" fill="rgb(0, 0, 0)" stroke="rgb(204, 204, 204)" stroke-width="1px"></line><line x1="51.41600036621094" y1="98.84999963972304" x2="46.41600036621094" y2="98.84999963972304" style="visibility: inherit;" fill="rgb(0, 0, 0)" stroke="rgb(204, 204, 204)" stroke-width="1px"></line><line x1="51.41600036621094" y1="79.07999971177843" x2="46.41600036621094" y2="79.07999971177843" style="visibility: inherit;" fill="rgb(0, 0, 0)" stroke="rgb(204, 204, 204)" stroke-width="1px"></line><line x1="51.41600036621094" y1="59.30999978383383" x2="46.41600036621094" y2="59.30999978383383" style="visibility: inherit;" fill="rgb(0, 0, 0)" stroke="rgb(204, 204, 204)" stroke-width="1px"></line><line x1="51.41600036621094" y1="39.53999985588922" x2="46.41600036621094" y2="39.53999985588922" style="visibility: inherit;" fill="rgb(0, 0, 0)" stroke="rgb(204, 204, 204)" stroke-width="1px"></line><line x1="51.41600036621094" y1="19.76999992794461" x2="46.41600036621094" y2="19.76999992794461" style="visibility: inherit;" fill="rgb(0, 0, 0)" stroke="rgb(204, 204, 204)" stroke-width="1px"></line><line x1="51.41600036621094" y1="0" x2="46.41600036621094" y2="0" style="visibility: inherit;" fill="rgb(0, 0, 0)" stroke="rgb(204, 204, 204)" stroke-width="1px"></line></g><g transform="translate(41.41600036621094, 0)"><text style="text-anchor: end; visibility: hidden; font-family: &quot;Helvetica Neue&quot;, sans-serif; font-size: 12px; font-weight: 200;" x="0" y="177.92999935150146" dx="0em" dy="0.3em" fill="rgb(50, 49, 63)" stroke="none" stroke-width="1px">-0.5</text><text style="text-anchor: end; visibility: inherit; font-family: &quot;Helvetica Neue&quot;, sans-serif; font-size: 12px; font-weight: 200;" x="0" y="158.15999942355685" dx="0em" dy="0.3em" fill="rgb(50, 49, 63)" stroke="none" stroke-width="1px">0</text><text style="text-anchor: end; visibility: hidden; font-family: &quot;Helvetica Neue&quot;, sans-serif; font-size: 12px; font-weight: 200;" x="0" y="138.38999949561224" dx="0em" dy="0.3em" fill="rgb(50, 49, 63)" stroke="none" stroke-width="1px">0.5</text><text style="text-anchor: end; visibility: inherit; font-family: &quot;Helvetica Neue&quot;, sans-serif; font-size: 12px; font-weight: 200;" x="0" y="118.61999956766765" dx="0em" dy="0.3em" fill="rgb(50, 49, 63)" stroke="none" stroke-width="1px">1</text><text style="text-anchor: end; visibility: hidden; font-family: &quot;Helvetica Neue&quot;, sans-serif; font-size: 12px; font-weight: 200;" x="0" y="98.84999963972304" dx="0em" dy="0.3em" fill="rgb(50, 49, 63)" stroke="none" stroke-width="1px">1.5</text><text style="text-anchor: end; visibility: inherit; font-family: &quot;Helvetica Neue&quot;, sans-serif; font-size: 12px; font-weight: 200;" x="0" y="79.07999971177843" dx="0em" dy="0.3em" fill="rgb(50, 49, 63)" stroke="none" stroke-width="1px">2</text><text style="text-anchor: end; visibility: hidden; font-family: &quot;Helvetica Neue&quot;, sans-serif; font-size: 12px; font-weight: 200;" x="0" y="59.30999978383383" dx="0em" dy="0.3em" fill="rgb(50, 49, 63)" stroke="none" stroke-width="1px">2.5</text><text style="text-anchor: end; visibility: inherit; font-family: &quot;Helvetica Neue&quot;, sans-serif; font-size: 12px; font-weight: 200;" x="0" y="39.53999985588922" dx="0em" dy="0.3em" fill="rgb(50, 49, 63)" stroke="none" stroke-width="1px">3</text><text style="text-anchor: end; visibility: hidden; font-family: &quot;Helvetica Neue&quot;, sans-serif; font-size: 12px; font-weight: 200;" x="0" y="19.76999992794461" dx="0em" dy="0.3em" fill="rgb(50, 49, 63)" stroke="none" stroke-width="1px">3.5</text><text style="text-anchor: end; visibility: hidden; font-family: &quot;Helvetica Neue&quot;, sans-serif; font-size: 12px; font-weight: 200;" x="0" y="0" dx="0em" dy="0.3em" fill="rgb(50, 49, 63)" stroke="none" stroke-width="1px">4</text></g><line x1="51.41600036621094" y1="0" x2="51.41600036621094" y2="177.92999935150146" fill="rgb(0, 0, 0)" stroke="rgb(204, 204, 204)" stroke-width="1px"></line></g></g><g transform="translate(51, 0)" clip-path="url(#clip_0)"><clipPath id="clip_0"><rect width="278" height="177"></rect></clipPath><g><g><g><line x1="0" y1="0" x2="0" y2="177.92999935150146" fill="rgb(0, 0, 0)" stroke="rgb(60, 60, 60)" stroke-width="1px" opacity="0.25"></line><line x1="34.82299995422363" y1="0" x2="34.82299995422363" y2="177.92999935150146" fill="rgb(0, 0, 0)" stroke="rgb(60, 60, 60)" stroke-width="1px" opacity="0.25"></line><line x1="69.64599990844727" y1="0" x2="69.64599990844727" y2="177.92999935150146" fill="rgb(0, 0, 0)" stroke="rgb(60, 60, 60)" stroke-width="1px" opacity="0.25"></line><line x1="104.4689998626709" y1="0" x2="104.4689998626709" y2="177.92999935150146" fill="rgb(0, 0, 0)" stroke="rgb(60, 60, 60)" stroke-width="1px" opacity="0.25"></line><line x1="139.29199981689453" y1="0" x2="139.29199981689453" y2="177.92999935150146" fill="rgb(0, 0, 0)" stroke="rgb(60, 60, 60)" stroke-width="1px" opacity="0.25"></line><line x1="174.11499977111816" y1="0" x2="174.11499977111816" y2="177.92999935150146" fill="rgb(0, 0, 0)" stroke="rgb(60, 60, 60)" stroke-width="1px" opacity="0.25"></line><line x1="208.9379997253418" y1="0" x2="208.9379997253418" y2="177.92999935150146" fill="rgb(0, 0, 0)" stroke="rgb(60, 60, 60)" stroke-width="1px" opacity="0.25"></line><line x1="243.76099967956543" y1="0" x2="243.76099967956543" y2="177.92999935150146" fill="rgb(0, 0, 0)" stroke="rgb(60, 60, 60)" stroke-width="1px" opacity="0.25"></line><line x1="278.58399963378906" y1="0" x2="278.58399963378906" y2="177.92999935150146" fill="rgb(0, 0, 0)" stroke="rgb(60, 60, 60)" stroke-width="1px" opacity="0.25"></line></g><g><line x1="0" y1="177.92999935150146" x2="278.58399963378906" y2="177.92999935150146" fill="rgb(0, 0, 0)" stroke="rgb(60, 60, 60)" stroke-width="1px" opacity="0.25"></line><line x1="0" y1="158.15999942355685" x2="278.58399963378906" y2="158.15999942355685" fill="rgb(0, 0, 0)" stroke="rgb(60, 60, 60)" stroke-width="1px" opacity="0.25"></line><line x1="0" y1="138.38999949561224" x2="278.58399963378906" y2="138.38999949561224" fill="rgb(0, 0, 0)" stroke="rgb(60, 60, 60)" stroke-width="1px" opacity="0.25"></line><line x1="0" y1="118.61999956766765" x2="278.58399963378906" y2="118.61999956766765" fill="rgb(0, 0, 0)" stroke="rgb(60, 60, 60)" stroke-width="1px" opacity="0.25"></line><line x1="0" y1="98.84999963972304" x2="278.58399963378906" y2="98.84999963972304" fill="rgb(0, 0, 0)" stroke="rgb(60, 60, 60)" stroke-width="1px" opacity="0.25"></line><line x1="0" y1="79.07999971177843" x2="278.58399963378906" y2="79.07999971177843" fill="rgb(0, 0, 0)" stroke="rgb(60, 60, 60)" stroke-width="1px" opacity="0.25"></line><line x1="0" y1="59.30999978383383" x2="278.58399963378906" y2="59.30999978383383" fill="rgb(0, 0, 0)" stroke="rgb(60, 60, 60)" stroke-width="1px" opacity="0.25"></line><line x1="0" y1="39.53999985588922" x2="278.58399963378906" y2="39.53999985588922" fill="rgb(0, 0, 0)" stroke="rgb(60, 60, 60)" stroke-width="1px" opacity="0.25"></line><line x1="0" y1="19.76999992794461" x2="278.58399963378906" y2="19.76999992794461" fill="rgb(0, 0, 0)" stroke="rgb(60, 60, 60)" stroke-width="1px" opacity="0.25"></line><line x1="0" y1="0" x2="278.58399963378906" y2="0" fill="rgb(0, 0, 0)" stroke="rgb(60, 60, 60)" stroke-width="1px" opacity="0.25"></line></g></g></g><g><g><line x1="0" y1="158.15999942355685" x2="278.58399963378906" y2="158.15999942355685" fill="rgb(0, 0, 0)" stroke="rgb(153, 153, 153)" stroke-width="1.5px"></line></g></g><g><g><line x1="34.82299995422363" y1="0" x2="34.82299995422363" y2="177.92999935150146" fill="rgb(0, 0, 0)" stroke="rgb(153, 153, 153)" stroke-width="1.5px"></line></g></g><g><g><g><g><g><path style="fill: none;" stroke="rgb(51, 187, 238)" stroke-width="2px" d="M41.78759994506836,-3.352938216487786L42.48405994415283,1.0071315674598225L43.18051994323731,5.250461746065923L43.876979942321775,9.544161923815608L44.57343994140625,13.814499300731626L45.269899940490724,17.865200855776692L45.9663599395752,21.81439591172324L46.66281993865967,25.750304516005855L47.35927993774414,29.661960527305467L48.05573993682861,33.44995299231931L48.75219993591308,37.44538545819509L49.44865993499756,41.38222192989045L50.14511993408203,45.241989582180736L50.8415799331665,49.00183756861799L51.538039932250975,52.92759376108785L52.23449993133545,57.08617157158034L52.930959930419924,61.10991656460622L53.6274199295044,64.99089595588192L54.323879928588866,69.10715639512965L55.02033992767334,73.10571849484059L55.716799926757815,77.0838234940376L56.41325992584229,80.94808154517706L57.10971992492676,84.85876281285833L57.806179924011225,88.59166161735207L58.5026399230957,92.10364056005956L59.199099922180174,95.62270516350739L59.89555992126465,99.02740034899892L60.592019920349124,102.56395374971653L61.28847991943359,105.64131561247838L61.984939918518066,108.63018998228922L62.68139991760254,111.79683893184273L63.377859916687015,114.77097700320212L64.07431991577148,117.49103061084143L64.77077991485596,119.91743864834811L65.46723991394043,122.42579704707227L66.1636999130249,124.82510548076561L66.86015991210937,126.95272528738833L67.55661991119385,128.88750278108535L68.25307991027832,130.6978322217965L68.9495399093628,132.51787265410888L69.64599990844727,134.0696692864386L70.34245990753173,135.63030400811243L71.03891990661621,137.09414829439118L71.73537990570068,138.54671712593122L72.43183990478516,139.78927351420575L73.12829990386963,140.71132311624646L73.8247599029541,141.81260316748833L74.52121990203858,142.6457536682127L75.21767990112305,143.66659143073787L75.91413990020753,144.32508688021474L76.610599899292,145.34936758018674L77.30705989837647,146.01151112592922L78.00351989746095,146.75349149030427L78.6999798965454,147.45168932116349L79.39643989562988,148.08809289480376L80.09289989471435,148.70824831953624L80.78935989379882,149.11188031036576L81.4858198928833,149.61483985137946L82.18227989196777,149.98744209998722L82.87873989105225,150.46591591558328L83.57519989013672,150.80459244115255L84.27165988922118,150.99884169673288L84.96811988830567,151.40881329984535L85.66457988739013,151.56146708455418L86.36103988647461,151.86607768446189L87.05749988555908,152.0587137159537L87.75395988464355,152.24845857048126L88.45041988372803,152.62116129325423L89.1468798828125,152.7691518963957L89.84333988189698,153.064055958686L90.53979988098145,153.27384160294216L91.23625988006592,153.45741891665753L91.9327198791504,153.56847902370302L92.62917987823486,153.78372060048457L93.32563987731935,153.96211503788675L94.02209987640381,154.11645803673736L94.71855987548828,154.35874733412317L95.41501987457276,154.51047829327928L96.11147987365722,154.69143203231985L96.8079398727417,154.72417303781037L97.50439987182617,154.84836456090397L98.20085987091063,154.9737347497289L98.89731986999512,155.09934384826138L99.59377986907958,155.1547393545723L100.29023986816406,155.0080222474485L100.98669986724853,155.21232485277096L101.683159866333,155.34577936349848L102.37961986541748,155.4728882029337L103.07607986450195,155.593664363061L103.77253986358643,155.57135806882593L104.4689998626709,155.5800600332475L105.16545986175537,155.73918886246588L105.86191986083985,155.83405428419687L106.55837985992432,155.90697386845974L107.2548398590088,155.97528349140217L107.95129985809326,156.07563506378224L108.64775985717773,156.13743364373488L109.34421985626221,156.19558524041975L110.04067985534668,156.20712304674734L110.73713985443116,156.24395311196946L111.43359985351563,156.19290792450738L112.1300598526001,156.2374023093874L112.82651985168458,156.29548896426698L113.52297985076903,156.3585813379452L114.21943984985352,156.429222287146L114.91589984893798,156.48048049928735L115.61235984802245,156.5034557365733L116.30881984710693,156.47868427809746L117.0052798461914,156.4032270214236L117.70173984527588,156.50327319939035L118.39819984436035,156.41720105005803L119.09465984344482,156.50741920563678L119.7911198425293,156.60107645079844L120.48757984161377,156.64164242352487L121.18403984069825,156.72158163215812L121.88049983978271,156.7574591814967L122.57695983886718,156.77838379264313L123.27341983795166,156.76386360018137L123.96987983703613,156.82365600338076L124.66633983612061,156.8516346828687L125.36279983520508,156.5746950518214L126.05925983428955,156.61286573836924L126.75571983337403,156.74001069355575L127.4521798324585,156.8025674918782L128.14863983154297,156.88334316066258L128.84509983062745,156.8645601120332L129.54155982971193,156.89724432350584L130.23801982879638,156.95790986061814L130.93447982788086,157.0009550614296L131.63093982696532,157.02784048842784L132.3273998260498,157.01250936790848L133.02385982513428,157.0346438036098L133.72031982421873,157.05449536890393L134.41677982330322,157.09460476782638L135.1132398223877,157.08238198897442L135.80969982147215,157.12668568997526L136.50615982055663,157.09473522932396L137.20261981964111,157.1102751027654L137.8990798187256,157.15461732403216L138.59553981781005,156.86011218126015L139.29199981689453,157.00105724378054L139.98845981597898,157.11253108507086L140.68491981506347,157.16273642737713L141.38137981414795,157.20635362997265L142.07783981323243,157.22750606915645L142.77429981231688,157.2480596800736L143.47075981140136,157.26694321878537L144.16721981048582,157.29098221154257L144.86367980957033,157.3081423152468L145.56013980865478,157.03298317451467L146.25659980773926,157.16974947207734L146.95305980682372,157.2395668148615L147.6495198059082,157.1503384525563L148.34597980499268,157.1272480155765L149.04243980407716,157.21060423226402L149.73889980316162,157.26074510989102L150.4353598022461,157.29586036322442L151.13181980133055,157.08642243831105L151.82827980041506,157.16862605945244L152.5247397994995,157.18800496892428L153.221199798584,157.22388987587482L153.91765979766845,157.28253725910335L154.61411979675293,157.26776554388317L155.3105797958374,157.30862035473478L156.0070397949219,157.25622419454828L156.70349979400635,157.32724399641967L157.3999597930908,157.35266870759133L158.09641979217528,157.38724767384878L158.79287979125976,157.4042800218439L159.48933979034425,157.43628777698626L160.1857997894287,157.46649635496763L160.88225978851318,157.4682873933143L161.57871978759763,157.488030915552L162.27517978668214,157.4905776951177L162.9716397857666,157.50226443303688L163.66809978485108,157.5029689701591L164.36455978393553,157.1295961769909L165.06101978302001,157.26807244163936L165.7574797821045,157.3897842522724L166.45393978118898,157.45616805255256L167.15039978027343,157.45725671088329L167.8468597793579,157.49213478252585L168.54331977844237,157.39558499232376L169.23977977752688,157.4790543128665L169.93623977661133,157.52694487723102L170.6326997756958,157.52778804914516L171.32915977478027,157.55648529754728L172.02561977386475,157.49129801381935L172.72207977294923,157.53917434982446L173.4185397720337,157.4348312760633L174.11499977111816,157.5004622853858L174.81145977020262,157.55029483468547L175.5079197692871,157.58273610871174L176.20437976837158,157.57715623984515L176.90083976745606,157.58482885863305L177.59729976654052,157.61136794166077L178.293759765625,157.613597923344L178.99021976470945,157.5509515119944L179.68667976379396,157.58689164882801L180.38313976287841,157.6084583381024L181.0795997619629,157.62091667254958L181.77605976104735,157.63680229937518L182.47251976013183,157.60770270387414L183.1689797592163,157.62536296775892L183.8654397583008,157.6459972034151L184.56189975738525,157.62726771958336L185.25835975646973,157.65021226316387L185.95481975555418,157.67622995361853L186.6512797546387,157.67760417414135L187.34773975372315,157.66476823306868L188.04419975280763,157.50710660366644L188.74065975189208,157.54851155764376L189.43711975097656,157.61966869672014L190.13357975006105,157.6559454429472L190.83003974914553,157.6676748863379L191.52649974822998,157.67993484014974L192.22295974731443,157.69776207838524L192.91941974639892,157.71050961931726L193.6158797454834,157.67644630250487L194.31233974456788,157.69016890822405L195.00879974365233,157.6488974183307L195.7052597427368,157.69091293171752L196.40171974182127,157.71294156086464L197.09817974090578,157.72161273978125L197.79463973999023,157.72021022282902L198.4910997390747,157.7307643028768L199.18755973815917,157.71561783342227L199.88401973724365,157.70777974563214L200.58047973632813,157.72511608775966L201.2769397354126,157.74344205289174L201.97339973449706,157.71251371097082L202.66985973358155,157.7392000162092L203.366319732666,157.75330594027625L204.0627797317505,157.75995202915698L204.75923973083496,157.75638752367297L205.45569972991944,157.75363477930222L206.1521597290039,157.76468369460395L206.84861972808838,157.75183873394218L207.54507972717286,157.75832254784112L208.24153972625734,157.73594926794195L208.9379997253418,157.76517089271533L209.63445972442625,157.77680333153307L210.33091972351073,157.78365620694154L211.0273797225952,157.79819804308002L211.7238397216797,157.794653370505L212.42029972076415,157.79755093044452L213.11675971984863,157.79732686815115L213.81321971893308,157.78138589950032L214.5096797180176,157.75482819871473L215.20613971710205,157.78213032193082L215.90259971618653,157.7866747892785L216.59905971527098,157.80637181701482L217.29551971435546,157.81710776176425L217.99197971343995,157.824939747876L218.68843971252443,157.83038647678066L219.38489971160888,157.81977702662635L220.08135971069336,157.83139079811846L220.77781970977782,157.8232153559095L221.47427970886233,157.81379143051717L222.17073970794678,157.82518326633829L222.86719970703126,157.8308751440354L223.56365970611571,157.83460679927828L224.2601197052002,157.8434135220259L224.95657970428468,157.83705816520734L225.65303970336916,157.83113378811865L226.3494997024536,157.8454144060947L227.04595970153807,157.8546596921025L227.74241970062255,157.85777816309385L228.43887969970703,157.8627008031663L229.1353396987915,157.86556416719833L229.83179969787597,157.83696084531988L230.52825969696045,157.7869896269543L231.2247196960449,157.82455059726672L231.9211796951294,157.7270270354785L232.61763969421386,157.76859611501342L233.31409969329835,157.78673512116967L234.0105596923828,157.81450944175654L234.70701969146728,157.83429317926345L235.40347969055176,157.84685310035954L236.09993968963624,157.85669792672553L236.7963996887207,157.85681677796453L237.49285968780518,157.7396224525087L238.18931968688963,157.76477173886076L238.88577968597414,157.80625794790376L239.5822396850586,157.8335018968328L240.27869968414308,157.85608563588735L240.97515968322753,157.8587652517292L241.671619682312,157.85389241838632L242.3680796813965,157.86677898365915L243.06453968048098,157.8655192282376L243.76099967956543,157.86882818788712" fill="none"></path></g><g><path style="fill: none;" stroke="rgb(0, 119, 187)" stroke-width="2px" d="M40.39467994689941,-0.19003663302234486L41.09113994598388,5.036957137328841L41.78759994506836,10.015845590461709L42.48405994415283,14.430708018935974L43.18051994323731,18.530977114246866L43.876979942321775,22.621108130365656L44.57343994140625,26.71005982467679L45.269899940490724,30.465850617262447L45.9663599395752,34.313112854003805L46.66281993865967,38.04095892043722L47.35927993774414,41.558233771612834L48.05573993682861,45.03510329858776L48.75219993591308,48.53057472957059L49.44865993499756,51.87761029242259L50.14511993408203,55.46130266137216L50.8415799331665,58.966964286421614L51.538039932250975,62.214418249848535L52.23449993133545,65.57916641163236L52.930959930419924,69.16511151094096L53.6274199295044,72.75008105907534L54.323879928588866,76.17169458478202L55.02033992767334,79.04035779235329L55.716799926757815,82.30638829258186L56.41325992584229,85.58968956801151L57.10971992492676,88.48702048869815L57.806179924011225,91.59182758989509L58.5026399230957,94.6089038631791L59.199099922180174,97.16034358211049L59.89555992126465,100.33284312995197L60.592019920349124,102.73361515781951L61.28847991943359,105.47395639303623L61.984939918518066,108.28527583299356L62.68139991760254,110.18658425519776L63.377859916687015,113.23371529260928L64.07431991577148,115.75415771726404L64.77077991485596,118.23556373580779L65.46723991394043,119.92858732556786L66.1636999130249,121.76552195209788L66.86015991210937,123.6368600418039L67.55661991119385,125.04119010334236L68.25307991027832,127.47211661186117L68.9495399093628,129.7145626598697L69.64599990844727,131.2991696162656L70.34245990753173,133.1747708934334L71.03891990661621,134.19417987073498L71.73537990570068,135.78401863724426L72.43183990478516,136.85950188375415L73.12829990386963,138.44445630296087L73.8247599029541,139.50908878773976L74.52121990203858,140.69814241457513L75.21767990112305,141.08151069593836L75.91413990020753,142.43971209463305L76.610599899292,143.40535576645706L77.30705989837647,144.29823967315318L78.00351989746095,145.0627480515009L78.6999798965454,145.56330078753592L79.39643989562988,146.4999285841979L80.09289989471435,147.18147068381742L80.78935989379882,147.6306643826161L81.4858198928833,148.04554320216883L82.18227989196777,148.49813198407543L82.87873989105225,148.97436557404757L83.57519989013672,149.65061576367214L84.27165988922118,150.16151047352116L84.96811988830567,150.62630966741358L85.66457988739013,150.65758081160556L86.36103988647461,151.08675313705635L87.05749988555908,151.41083804644268L87.75395988464355,151.8391484531257L88.45041988372803,151.77711673667693L89.1468798828125,152.27173508515932L89.84333988189698,152.60890109169827L90.53979988098145,152.7824483660193L91.23625988006592,152.89146278129525L91.9327198791504,153.11831708450305L92.62917987823486,153.44921698370908L93.32563987731935,153.5083205330429L94.02209987640381,153.58112670653682L94.71855987548828,153.83790615953274L95.41501987457276,154.0718588274533L96.11147987365722,154.238404925357L96.8079398727417,154.29751572524108L97.50439987182617,154.5345395731923L98.20085987091063,154.6648146149076L98.89731986999512,154.69662791226244L99.59377986907958,154.8414126790051L100.29023986816406,154.88652715477053L100.98669986724853,154.84564775439452L101.683159866333,155.00843706720485L102.37961986541748,155.17200434636948L103.07607986450195,155.25207408010547L103.77253986358643,155.23776174035754L104.4689998626709,155.23721727745368L105.16545986175537,155.36324256944664L105.86191986083985,155.4169937755153L106.55837985992432,155.5212642546151L107.2548398590088,155.5858326226951L107.95129985809326,155.65590728182875L108.64775985717773,155.7464808101769L109.34421985626221,155.87081550570136L110.04067985534668,155.87062047202824L110.73713985443116,155.93033518340252L111.43359985351563,155.98424407106046L112.1300598526001,155.9958922112704L112.82651985168458,156.0486762723911L113.52297985076903,156.12510514397093L114.21943984985352,156.2142496307041L114.91589984893798,156.26952958724573L115.61235984802245,156.31632321331506L116.30881984710693,156.08012283655725L117.0052798461914,156.23702775511774L117.70173984527588,156.3254239640264L118.39819984436035,156.25621750672389L119.09465984344482,156.36947110692665L119.7911198425293,156.48010150099313L120.48757984161377,156.5581542216434L121.18403984069825,156.5523532816639L121.88049983978271,156.5967185181996L122.57695983886718,156.50403867108105L123.27341983795166,156.57033321414906L123.96987983703613,156.63750995631702L124.66633983612061,156.66550790042584L125.36279983520508,156.69814933035994L126.05925983428955,156.75457624070543L126.75571983337403,156.791233464179L127.4521798324585,156.83325313511136L128.14863983154297,156.86224254161107L128.84509983062745,156.66786052108898L129.54155982971193,156.79308533811593L130.23801982879638,156.8603329224306L130.93447982788086,156.8483963176603L131.63093982696532,156.8279153181245L132.3273998260498,156.79866529733275L133.02385982513428,156.84114810763526L133.72031982421873,156.88698147105478L134.41677982330322,156.94021285502123L135.1132398223877,157.00317705847866L135.80969982147215,156.8933119827135L136.50615982055663,156.86763509832213L137.20261981964111,156.92248910150232L137.8990798187256,156.95462866038017L138.59553981781005,156.9854994732972L139.29199981689453,156.97966464958938L139.98845981597898,157.0023551034047L140.68491981506347,157.0017080149367L141.38137981414795,157.04933560316493L142.07783981323243,156.94608918595358L142.77429981231688,157.04861782232118L143.47075981140136,156.97975634958559L144.16721981048582,157.03800912815228L144.86367980957033,157.0566345231026L145.56013980865478,157.05458381572112L146.25659980773926,157.13867129657123L146.95305980682372,157.1620153303715L147.6495198059082,157.15772047771517L148.34597980499268,157.20429142184992L149.04243980407716,157.24020875977152L149.73889980316162,157.27050465590463L150.4353598022461,157.2819719458241L151.13181980133055,157.29598984951036L151.82827980041506,157.2685060188499L152.5247397994995,157.26511713909474L153.221199798584,157.24753424128923L153.91765979766845,157.27520585325567L154.61411979675293,157.3290075696038L155.3105797958374,157.35404486783602L156.0070397949219,157.33163131840317L156.70349979400635,157.36518131886388L157.3999597930908,157.36271410067937L158.09641979217528,157.2896321638096L158.79287979125976,157.34863979502944L159.48933979034425,157.36879859115842L160.1857997894287,157.39041600553406L160.88225978851318,157.36206819298468L161.57871978759763,157.4050145549003L162.27517978668214,157.41579279954948L162.9716397857666,157.4023293283077L163.66809978485108,157.40909631874655L164.36455978393553,157.4018404342392L165.06101978302001,157.43417058113405L165.7574797821045,157.45404915527476L166.45393978118898,157.43785443496168L167.15039978027343,157.45604140764488L167.8468597793579,157.48283567166249L168.54331977844237,157.4867937602978L169.23977977752688,157.46478738082934L169.93623977661133,157.4770767382328L170.6326997756958,157.49767340998613L171.32915977478027,157.48829721342952L172.02561977386475,157.51394222281485L172.72207977294923,157.53131437802352L173.4185397720337,157.54500666990126L174.11499977111816,157.5605618296159L174.81145977020262,157.54969174101797L175.5079197692871,157.56670783107293L176.20437976837158,157.5863695079667L176.90083976745606,157.59707777582938L177.59729976654052,157.6038869338626L178.293759765625,157.6172664302727L178.99021976470945,157.60702132788134L179.68667976379396,157.61299955611815L180.38313976287841,157.5929001975404L181.0795997619629,157.6085946588703L181.77605976104735,157.52927894542398L182.47251976013183,157.57582123281745L183.1689797592163,157.56370999851396L183.8654397583008,157.59219901718976L184.56189975738525,157.4333663962325L185.25835975646973,157.51273728785753L185.95481975555418,157.56851827485175L186.6512797546387,157.5770516025145L187.34773975372315,157.56533728146698L188.04419975280763,157.57598802552306L188.74065975189208,157.5846575399192L189.43711975097656,157.62281043958646L190.13357975006105,157.62456347604308L190.83003974914553,157.62643769198706L191.52649974822998,157.6173849918285L192.22295974731443,157.65193163374386L192.91941974639892,157.66176233773314L193.6158797454834,157.6631583322969L194.31233974456788,157.66838975406586L195.00879974365233,157.67244001336528L195.7052597427368,157.68330900266494L196.40171974182127,157.69258591424645L197.09817974090578,157.69703293534894L197.79463973999023,157.6784256490347L198.4910997390747,157.67689387269795L199.18755973815917,157.69917949694735L199.88401973724365,157.70826713697497L200.58047973632813,157.7100213486335L201.2769397354126,157.65513932448917L201.97339973449706,157.68270976426138L202.66985973358155,157.68021033244287L203.366319732666,157.69788698465558L204.0627797317505,157.70725960582516L204.75923973083496,157.71584211503603L205.45569972991944,157.6307821261963L206.1521597290039,157.65258577835542L206.84861972808838,157.69117703345745L207.54507972717286,157.70852421022622L208.24153972625734,157.63161006228734L208.9379997253418,157.67152563143966L209.63445972442625,157.70310487561625L210.33091972351073,157.70826055893963L211.0273797225952,157.73846072971668L211.7238397216797,157.66589742130265L212.42029972076415,157.69652105160898L213.11675971984863,157.73078937390483L213.81321971893308,157.73003187202684L214.5096797180176,157.6326168125037L215.20613971710205,157.67378341069676L215.90259971618653,157.71492996952043L216.59905971527098,157.73803648426468L217.29551971435546,157.73878530521776L217.99197971343995,157.75665779802046L218.68843971252443,157.65777946081766L219.38489971160888,157.71981970263252L220.08135971069336,157.75475885838023L220.77781970977782,157.7652142171966L221.47427970886233,157.76942081239739L222.17073970794678,157.77132134555634L222.86719970703126,157.77512042341175L223.56365970611571,157.77903879580552L224.2601197052002,157.77520468877248L224.95657970428468,157.78773280036302L225.65303970336916,157.77755532096882L226.3494997024536,157.7863020962838L227.04595970153807,157.8039308805678L227.74241970062255,157.7919862314036L228.43887969970703,157.79896928336325L229.1353396987915,157.81565873256181L229.83179969787597,157.81108465846435L230.52825969696045,157.813977145591L231.2247196960449,157.8096337092397L231.9211796951294,157.81477905621605L232.61763969421386,157.79771981915624L233.31409969329835,157.8171442713921L234.0105596923828,157.83275859960966L234.70701969146728,157.83629636926196L235.40347969055176,157.8351992298254L236.09993968963624,157.78940597343527L236.7963996887207,157.79600018917918L237.49285968780518,157.77066689870193L238.18931968688963,157.7858779176275L238.88577968597414,157.81185562386767L239.5822396850586,157.73266625079535L240.27869968414308,157.7871423875714L240.97515968322753,157.81228986730798L241.671619682312,157.8324636189834L242.3680796813965,157.8214617885685L243.06453968048098,157.82495368033102L243.76099967956543,157.819731213876" fill="none"></path></g></g></g></g><g opacity="0.2"><g><g><g><path style="fill: none;" stroke="rgb(51, 187, 238)" stroke-width="2px" d="M41.09113994598388,-1.2252363637137194L41.78759994506836,3.286380503120739L42.48405994415283,7.507690731341967L43.18051994323731,11.592364998528609L43.876979942321775,15.970692514385576L44.57343994140625,20.21163933063184L45.269899940490724,23.936491740723852L45.9663599395752,27.735403217318378L46.66281993865967,31.65250187781598L47.35927993774414,35.52845137521737L48.05573993682861,39.131364627314184L48.75219993591308,43.438168958655496L49.44865993499756,47.287260731965034L50.14511993408203,51.03151405331751L50.8415799331665,54.641535316634105L51.538039932250975,58.81618154546791L52.23449993133545,63.3240087299279L52.930959930419924,67.14551689471065L53.6274199295044,70.81235511243293L54.323879928588866,75.28154073457189L55.02033992767334,79.10355796116615L55.716799926757815,83.05097879419496L56.41325992584229,86.74446734045627L57.10971992492676,90.72478393628558L57.806179924011225,94.19100937845955L58.5026399230957,97.37160872256491L59.199099922180174,100.90130191744109L59.89555992126465,104.13444303944256L60.592019920349124,107.86878379607667L61.28847991943359,110.25735837805405L61.984939918518066,113.11350152035808L62.68139991760254,116.54681234559042L63.377859916687015,119.23218410427768L64.07431991577148,121.57111101902802L64.77077991485596,123.55705070285664L65.46723991394043,126.1883346440721L66.1636999130249,128.42406813068217L66.86015991210937,130.14415499699066L67.55661991119385,131.7896690214498L68.25307991027832,133.41332638276157L68.9495399093628,135.2479333025162L69.64599990844727,136.39736423490183L70.34245990753173,137.97125609060424L71.03891990661621,139.28991472379863L71.73537990570068,140.72557037323494L72.43183990478516,141.65310809661426L73.12829990386963,142.09439751930609L73.8247599029541,143.46452324435012L74.52121990203858,143.8954794192988L75.21767990112305,145.19784807452524L75.91413990020753,145.31283005442995L76.610599899292,146.88578863014462L77.30705989837647,147.00472644454285L78.00351989746095,147.8664620368668L78.6999798965454,148.49898606745225L79.39643989562988,149.04269825526418L80.09289989471435,149.63848145663496L80.78935989379882,149.71732829661002L81.4858198928833,150.36927916290003L82.18227989196777,150.54634547289882L82.87873989105225,151.1836266389774L83.57519989013672,151.31260722950643L84.27165988922118,151.2902155801034L84.96811988830567,152.02377070451408L85.66457988739013,151.79044776161743L86.36103988647461,152.3229935843234L87.05749988555908,152.34766776319142L87.75395988464355,152.53307585227262L88.45041988372803,153.18021537741367L89.1468798828125,152.99113780110793L89.84333988189698,153.50641205212145L90.53979988098145,153.5885200693264L91.23625988006592,153.73278488723057L91.9327198791504,153.73506918427128L92.62917987823486,154.10658296565686L93.32563987731935,154.22970669399007L94.02209987640381,154.34797253501327L94.71855987548828,154.72218128020188L95.41501987457276,154.73807473201344L96.11147987365722,154.96286264088073L96.8079398727417,154.77328454604617L97.50439987182617,155.03465184554437L98.20085987091063,155.16179003296628L98.89731986999512,155.28775749606012L99.59377986907958,155.23783261403872L100.29023986816406,154.78794658676279L100.98669986724853,155.51877876075466L101.683159866333,155.54596112958976L102.37961986541748,155.66355146208647L103.07607986450195,155.77482860325196L103.77253986358643,155.53789862747337L104.4689998626709,155.59311297987986L105.16545986175537,155.97788210629346L105.86191986083985,155.97635241679333L106.55837985992432,156.0163532448541L107.2548398590088,156.0777479258158L107.95129985809326,156.22616242235233L108.64775985717773,156.23013151366388L109.34421985626221,156.28281263544704L110.04067985534668,156.22442975623872L110.73713985443116,156.29919820980265L111.43359985351563,156.11634014331423L112.1300598526001,156.30414388670744L112.82651985168458,156.38261894658635L113.52297985076903,156.45321989846255L114.21943984985352,156.5351837109472L114.91589984893798,156.5573678174994L115.61235984802245,156.5379185925022L116.30881984710693,156.44152709038374L117.0052798461914,156.29004113641275L117.70173984527588,156.65334246634052L118.39819984436035,156.28809282605954L119.09465984344482,156.64274643900487L119.7911198425293,156.74156231854099L120.48757984161377,156.70249138261448L121.18403984069825,156.84149044510798L121.88049983978271,156.81127550550463L122.57695983886718,156.80977070936277L123.27341983795166,156.7420833114887L123.96987983703613,156.91334460817987L124.66633983612061,156.89360270210065L125.36279983520508,156.15928560525046L126.05925983428955,156.67012176819094L126.75571983337403,156.9307281263355L127.4521798324585,156.89640268936185L128.14863983154297,157.0045066638392L128.84509983062745,156.83638553908912L129.54155982971193,156.9462706407148L130.23801982879638,157.04890816628662L130.93447982788086,157.0655228626468L131.63093982696532,157.06816862892518L132.3273998260498,156.98951268712946L133.02385982513428,157.06784545716175L133.72031982421873,157.0842727168451L134.41677982330322,157.15476886621008L135.1132398223877,157.06404782069646L135.80969982147215,157.19314124147652L136.50615982055663,157.046809538347L137.20261981964111,157.13358491292755L137.8990798187256,157.22113065593234L138.59553981781005,156.41835446710206L139.29199981689453,157.2124748375611L139.98845981597898,157.27974184700636L140.68491981506347,157.23804444083657L141.38137981414795,157.27177943386593L142.07783981323243,157.25923472793212L142.77429981231688,157.27889009644935L143.47075981140136,157.29526852685302L144.16721981048582,157.32704070067837L144.86367980957033,157.3338824708032L145.56013980865478,156.6202444634164L146.25659980773926,157.3748989184213L146.95305980682372,157.34429282903776L147.6495198059082,157.01649590909847L148.34597980499268,157.09261236010684L149.04243980407716,157.33563855729528L149.73889980316162,157.33595642633153L150.4353598022461,157.3485332432245L151.13181980133055,156.77226555094097L151.82827980041506,157.29193149116452L152.5247397994995,157.21707333313208L153.221199798584,157.27771723630062L153.91765979766845,157.37050833394613L154.61411979675293,157.24560797105292L155.3105797958374,157.36990257101218L156.0070397949219,157.17762995426855L156.70349979400635,157.43377369922672L157.3999597930908,157.39080577434888L158.09641979217528,157.4391161232349L158.79287979125976,157.4298285438366L159.48933979034425,157.48429940969982L160.1857997894287,157.5118092219397L160.88225978851318,157.47097395083435L161.57871978759763,157.51764619890852L162.27517978668214,157.49439786446624L162.9716397857666,157.51979453991567L163.66809978485108,157.50402577584236L164.36455978393553,156.56953698723865L165.06101978302001,157.47578683861207L165.7574797821045,157.57235196822194L166.45393978118898,157.5557437529728L167.15039978027343,157.45888969837935L167.8468597793579,157.54445188998972L168.54331977844237,157.25076030702064L169.23977977752688,157.60425829368063L169.93623977661133,157.59878072377776L170.6326997756958,157.52905280701637L171.32915977478027,157.5995311701505L172.02561977386475,157.3935170882274L172.72207977294923,157.61098885383217L173.4185397720337,157.27831666542153L174.11499977111816,157.59890879936953L174.81145977020262,157.62504365863504L175.5079197692871,157.63139801975112L176.20437976837158,157.56878643654525L176.90083976745606,157.5963377868149L177.59729976654052,157.65117656620234L178.293759765625,157.6169428958689L178.99021976470945,157.45698189497006L179.68667976379396,157.6408018540784L180.38313976287841,157.64080837201394L181.0795997619629,157.6396041742204L181.77605976104735,157.66063073961357L182.47251976013183,157.56405331062254L183.1689797592163,157.65185336358613L183.8654397583008,157.67694855689936L184.56189975738525,157.59917349383574L185.25835975646973,157.68462907853464L185.95481975555418,157.71525648930051L186.6512797546387,157.67966550492557L187.34773975372315,157.64551432145973L188.04419975280763,157.27061415956305L188.74065975189208,157.61061898860976L189.43711975097656,157.72640440533473L190.13357975006105,157.71036056228778L190.83003974914553,157.68526905142397L191.52649974822998,157.6983247708675L192.22295974731443,157.72450293573849L192.91941974639892,157.72963093071536L193.6158797454834,157.6253513272863L194.31233974456788,157.71075281680282L195.00879974365233,157.58699018349063L195.7052597427368,157.75393620179779L196.40171974182127,157.74598450458527L197.09817974090578,157.7346195081562L197.79463973999023,157.71810644740071L198.4910997390747,157.74659542294845L199.18755973815917,157.6928981292405L199.88401973724365,157.69602261394695L200.58047973632813,157.7511206009509L201.2769397354126,157.77093100058985L201.97339973449706,157.66612119808948L202.66985973358155,157.77922947406677L203.366319732666,157.7744648263768L204.0627797317505,157.7699211624781L204.75923973083496,157.75104076544693L205.45569972991944,157.74950566274612L206.1521597290039,157.78125706755657L206.84861972808838,157.73257129294947L207.54507972717286,157.76804826868957L208.24153972625734,157.70238934809316L208.9379997253418,157.8090033298754L209.63445972442625,157.79425198975972L210.33091972351073,157.79393552005428L211.0273797225952,157.82001079728772L211.7238397216797,157.78933636164243L212.42029972076415,157.8018972703538L213.11675971984863,157.79699077471113L213.81321971893308,157.75747444652407L214.5096797180176,157.71499164753632L215.20613971710205,157.82308350675495L215.90259971618653,157.7934914903L216.59905971527098,157.83591735861933L217.29551971435546,157.83321167888843L217.99197971343995,157.83668772704354L218.68843971252443,157.8385565701377L219.38489971160888,157.8038628513949L220.08135971069336,157.8488114553566L220.77781970977782,157.81095219259603L221.47427970886233,157.79965554242867L222.17073970794678,157.84227102007L222.86719970703126,157.839412960581L223.56365970611571,157.8402042821426L224.2601197052002,157.85662360614737L224.95657970428468,157.82752512997948L225.65303970336916,157.82224722248563L226.3494997024536,157.86683533305876L227.04595970153807,157.8685276211142L227.74241970062255,157.8624558695809L228.43887969970703,157.87008476327495L229.1353396987915,157.86985921324634L229.83179969787597,157.79405586250218L230.52825969696045,157.71203279940596L231.2247196960449,157.88089205273536L231.9211796951294,157.58074169279615L232.61763969421386,157.83094973431585L233.31409969329835,157.813943630404L234.0105596923828,157.8561709226369L234.70701969146728,157.8639687855238L235.40347969055176,157.86569298200368L236.09993968963624,157.8714651662745L236.7963996887207,157.85699505482305L237.49285968780518,157.56383096432495L238.18931968688963,157.80249566838887L238.88577968597414,157.86848726146826L239.5822396850586,157.8743678202263L240.27869968414308,157.8899612444692L240.97515968322753,157.862784675492L241.671619682312,157.84658316837198L242.3680796813965,157.88610883156838L243.06453968048098,157.86362959510527L243.76099967956543,157.87379162736138" fill="none"></path></g><g><path style="fill: none;" stroke="rgb(0, 119, 187)" stroke-width="2px" d="M39.001759948730474,-3.4861495558518243L39.69821994781494,2.5928874827296227L40.39467994689941,8.208829105976207L41.09113994598388,12.745757657326891L41.78759994506836,17.40891468378817L42.48405994415283,21.01295918435497L43.18051994323731,24.65906727386451L43.876979942321775,28.742949667122133L44.57343994140625,32.83547668410469L45.269899940490724,36.095122015051146L45.9663599395752,40.08129282171271L46.66281993865967,43.63115052056659L47.35927993774414,46.833253012672486L48.05573993682861,50.249877922972345L48.75219993591308,53.77346237611053L49.44865993499756,56.89798007731574L50.14511993408203,60.836723291872616L50.8415799331665,64.22538751082234L51.538039932250975,67.08556072580076L52.23449993133545,70.62626473911824L52.930959930419924,74.54401386748609L53.6274199295044,78.1275262083224L54.323879928588866,81.30410962035926L55.02033992767334,83.34334996126596L55.716799926757815,87.2054322378393L56.41325992584229,90.51464039237756L57.10971992492676,92.83301629325628L57.806179924011225,96.24903787103881L58.5026399230957,99.13451805699813L59.199099922180174,100.98750305085494L59.89555992126465,105.0915923699079L60.592019920349124,106.33477316247698L61.28847991943359,109.58446822042275L61.984939918518066,112.50225497727111L62.68139991760254,113.03854688215013L63.377859916687015,117.80441184261667L64.07431991577148,119.5348213512139L64.77077991485596,121.95767276183223L65.46723991394043,122.46812270947474L66.1636999130249,124.52092389141553L66.86015991210937,126.44386717607114L67.55661991119385,127.14768519551866L68.25307991027832,131.11850637450294L68.9495399093628,133.07823173180697L69.64599990844727,133.67608005082744L70.34245990753173,135.98817280916236L71.03891990661621,135.72329333667997L71.73537990570068,138.1687767870012L72.43183990478516,138.47272675351616L73.12829990386963,140.82188793176852L73.8247599029541,141.10603751490703L74.52121990203858,142.48172285482755L75.21767990112305,141.65656311798304L75.91413990020753,144.47701419267483L76.610599899292,144.85382127419294L77.30705989837647,145.6375655331973L78.00351989746095,146.20951061902244L78.6999798965454,146.31412989158844L79.39643989562988,147.9048702791909L80.09289989471435,148.20378383324672L80.78935989379882,148.30445493081405L81.4858198928833,148.66786143149798L82.18227989196777,149.17701515693528L82.87873989105225,149.68871595900583L83.57519989013672,150.664991048109L84.27165988922118,150.92785253829464L84.96811988830567,151.3235084582522L85.66457988739013,150.70448752789355L86.36103988647461,151.7305116252325L87.05749988555908,151.89696541052214L87.75395988464355,152.4816140631502L88.45041988372803,151.6840691620038L89.1468798828125,153.01366260788294L89.84333988189698,153.11465010150673L90.53979988098145,153.04276927750084L91.23625988006592,153.05498440420916L91.9327198791504,153.45859853931478L92.62917987823486,153.94556683251807L93.32563987731935,153.59697585704367L94.02209987640381,153.6903359667777L94.71855987548828,154.2230753390266L95.41501987457276,154.42278782933417L96.11147987365722,154.48822407221255L96.8079398727417,154.38618192506723L97.50439987182617,154.89007534511907L98.20085987091063,154.8602271774806L98.89731986999512,154.74434785829473L99.59377986907958,155.058589829119L100.29023986816406,154.9541988684187L100.98669986724853,154.78432865383047L101.683159866333,155.25262103642035L102.37961986541748,155.4173552651164L103.07607986450195,155.37217868070945L103.77253986358643,155.21629323073563L104.4689998626709,155.23640058309795L105.16545986175537,155.55228050743608L105.86191986083985,155.4976205846183L106.55837985992432,155.67766997326478L107.2548398590088,155.6826851748151L107.95129985809326,155.7610192705292L108.64775985717773,155.88234110269917L109.34421985626221,156.05731754898804L110.04067985534668,155.8703279215185L110.73713985443116,156.019907250464L111.43359985351563,156.0651074025474L112.1300598526001,156.01336442158524L112.82651985168458,156.1278523640722L113.52297985076903,156.23974845134066L114.21943984985352,156.34796636080387L114.91589984893798,156.35244952205815L115.61235984802245,156.38651365241904L116.30881984710693,155.72582227142055L117.0052798461914,156.47238513295844L117.70173984527588,156.45801827738947L118.39819984436035,156.15240782077004L119.09465984344482,156.53935150723086L119.7911198425293,156.64604709209283L120.48757984161377,156.67523330261878L121.18403984069825,156.5436518716946L121.88049983978271,156.66326637300315L122.57695983886718,156.36501890040324L123.27341983795166,156.66977502875105L123.96987983703613,156.738275069569L124.66633983612061,156.70750481658908L125.36279983520508,156.74711147526108L126.05925983428955,156.8392166062237L126.75571983337403,156.84621929938933L127.4521798324585,156.8962826415099L128.14863983154297,156.90572665136068L128.84509983062745,156.37628749030583L129.54155982971193,156.98092256365638L130.23801982879638,156.9612042989026L130.93447982788086,156.8304914105049L131.63093982696532,156.7971938188208L132.3273998260498,156.7547902661451L133.02385982513428,156.90487232308905L133.72031982421873,156.95573151618404L134.41677982330322,157.0200599309709L135.1132398223877,157.09762336366478L135.80969982147215,156.7285143690658L136.50615982055663,156.829119771735L137.20261981964111,157.00477010627262L137.8990798187256,157.00283799869695L138.59553981781005,157.03180569267275L139.29199981689453,156.97091241402768L139.98845981597898,157.03639078412772L140.68491981506347,157.00073738223463L141.38137981414795,157.1207769855073L142.07783981323243,156.7912195601366L142.77429981231688,157.2024107768725L143.47075981140136,156.8764641404822L144.16721981048582,157.1253882960023L144.86367980957033,157.08457261552803L145.56013980865478,157.05150775464895L146.25659980773926,157.26480251784642L146.95305980682372,157.19703138107192L147.6495198059082,157.15127819873064L148.34597980499268,157.27414783805202L149.04243980407716,157.29408476665392L149.73889980316162,157.3159485001043L150.4353598022461,157.29917288070328L151.13181980133055,157.31701670503975L151.82827980041506,157.2272802728592L152.5247397994995,157.26003381946205L153.221199798584,157.22115989458095L153.91765979766845,157.31671327120534L154.61411979675293,157.40971014412597L155.3105797958374,157.3916008151844L156.0070397949219,157.2980109942539L156.70349979400635,157.4155063195549L157.3999597930908,157.35901327340258L158.09641979217528,157.18000925850498L158.79287979125976,157.43715124185917L159.48933979034425,157.39903678535194L160.1857997894287,157.4228421270975L160.88225978851318,157.31954647416057L161.57871978759763,157.46943409777376L162.27517978668214,157.43196016652325L162.9716397857666,157.38213412144503L163.66809978485108,157.4192468044048L164.36455978393553,157.3909566074782L165.06101978302001,157.48266580147632L165.7574797821045,157.4838670164858L166.45393978118898,157.41356235449206L167.15039978027343,157.4833218666697L167.8468597793579,157.5230270676889L168.54331977844237,157.49273089325075L169.23977977752688,157.43177781162666L169.93623977661133,157.495510774338L170.6326997756958,157.52856841761616L171.32915977478027,157.4742329185946L172.02561977386475,157.55240973689283L172.72207977294923,157.55737261083652L173.4185397720337,157.56554510771787L174.11499977111816,157.58389456918783L174.81145977020262,157.53338660812108L175.5079197692871,157.5922319661554L176.20437976837158,157.61586202330733L176.90083976745606,157.61314017762336L177.59729976654052,157.61410067091253L178.293759765625,157.63733567488782L178.99021976470945,157.59165367429432L179.68667976379396,157.6219668984734L180.38313976287841,157.56275115967372L181.0795997619629,157.63213635086515L181.77605976104735,157.4103053752545L182.47251976013183,157.64563466390766L183.1689797592163,157.5455431470587L183.8654397583008,157.63493254520344L184.56189975738525,157.19511746479657L185.25835975646973,157.63179362529516L185.95481975555418,157.65218975534307L186.6512797546387,157.58985159400862L187.34773975372315,157.5477657998957L188.04419975280763,157.59196414160715L188.74065975189208,157.59766181151343L189.43711975097656,157.68003978908732L190.13357975006105,157.62719303072802L190.83003974914553,157.62924901590304L191.52649974822998,157.6038059415906L192.22295974731443,157.70375159661694L192.91941974639892,157.676508393717L193.6158797454834,157.66525232414256L194.31233974456788,157.6762368867193L195.00879974365233,157.6785154023144L195.7052597427368,157.69961248661446L196.40171974182127,157.70650128161873L197.09817974090578,157.70370346700267L197.79463973999023,157.6505147195633L198.4910997390747,157.67459620819287L199.18755973815917,157.73260793332148L199.88401973724365,157.72189859701635L200.58047973632813,157.7126526661213L201.2769397354126,157.57281628827266L201.97339973449706,157.7240654239197L202.66985973358155,157.6764611847151L203.366319732666,157.72440196297464L204.0627797317505,157.72131853757952L204.75923973083496,157.72871587885237L205.45569972991944,157.50319214293665L206.1521597290039,157.68529125659413L206.84861972808838,157.7490639161105L207.54507972717286,157.73454497537938L208.24153972625734,157.516238840379L208.9379997253418,157.73139898516814L209.63445972442625,157.75047374188114L210.33091972351073,157.71599408392467L211.0273797225952,157.78376098588228L211.7238397216797,157.55705245868162L212.42029972076415,157.74245649706845L213.11675971984863,157.78219185734858L213.81321971893308,157.72889561920985L214.5096797180176,157.48649422321898L215.20613971710205,157.73553330798634L215.90259971618653,157.77664980775594L216.59905971527098,157.77269625638107L217.29551971435546,157.73990853664733L217.99197971343995,157.78346653722454L218.68843971252443,157.50946195501342L219.38489971160888,157.81288006535482L220.08135971069336,157.80716759200178L220.77781970977782,157.78089725542114L221.47427970886233,157.77573070519855L222.17073970794678,157.77417214529478L222.86719970703126,157.7808190401949L223.56365970611571,157.78491635439616L224.2601197052002,157.76945352822287L224.95657970428468,157.80652496774886L225.65303970336916,157.76228910187754L226.3494997024536,157.79942225925623L227.04595970153807,157.83037405699386L227.74241970062255,157.77406925765723L228.43887969970703,157.8094438613027L229.1353396987915,157.84069290635966L229.83179969787597,157.8042235473182L230.52825969696045,157.81831587628093L231.2247196960449,157.80311855471277L231.9211796951294,157.8224970766806L232.61763969421386,157.77213096356652L233.31409969329835,157.8462809497459L234.0105596923828,157.856180091936L234.70701969146728,157.8416030237404L235.40347969055176,157.83355352067056L236.09993968963624,157.72071608885005L236.7963996887207,157.80589151279506L237.49285968780518,157.7326669629861L238.18931968688963,157.80869444601583L238.88577968597414,157.85082218322793L239.5822396850586,157.61388219118686L240.27869968414308,157.8688565927355L240.97515968322753,157.85001108691284L241.671619682312,157.86272424649658L242.3680796813965,157.80495904294617L243.06453968048098,157.83019151797478L243.76099967956543,157.81189751419348" fill="none"></path></g></g></g></g></g></g><g transform="translate(51, 177)" clip-path="url(#clip_1)"><clipPath id="clip_1"><rect width="278" height="22"></rect></clipPath><g><g><line x1="0" y1="0" x2="0" y2="5" style="visibility: inherit;" fill="rgb(0, 0, 0)" stroke="rgb(204, 204, 204)" stroke-width="1px"></line><line x1="34.82299995422363" y1="0" x2="34.82299995422363" y2="5" style="visibility: inherit;" fill="rgb(0, 0, 0)" stroke="rgb(204, 204, 204)" stroke-width="1px"></line><line x1="69.64599990844727" y1="0" x2="69.64599990844727" y2="5" style="visibility: inherit;" fill="rgb(0, 0, 0)" stroke="rgb(204, 204, 204)" stroke-width="1px"></line><line x1="104.4689998626709" y1="0" x2="104.4689998626709" y2="5" style="visibility: inherit;" fill="rgb(0, 0, 0)" stroke="rgb(204, 204, 204)" stroke-width="1px"></line><line x1="139.29199981689453" y1="0" x2="139.29199981689453" y2="5" style="visibility: inherit;" fill="rgb(0, 0, 0)" stroke="rgb(204, 204, 204)" stroke-width="1px"></line><line x1="174.11499977111816" y1="0" x2="174.11499977111816" y2="5" style="visibility: inherit;" fill="rgb(0, 0, 0)" stroke="rgb(204, 204, 204)" stroke-width="1px"></line><line x1="208.9379997253418" y1="0" x2="208.9379997253418" y2="5" style="visibility: inherit;" fill="rgb(0, 0, 0)" stroke="rgb(204, 204, 204)" stroke-width="1px"></line><line x1="243.76099967956543" y1="0" x2="243.76099967956543" y2="5" style="visibility: inherit;" fill="rgb(0, 0, 0)" stroke="rgb(204, 204, 204)" stroke-width="1px"></line><line x1="278.58399963378906" y1="0" x2="278.58399963378906" y2="5" style="visibility: inherit;" fill="rgb(0, 0, 0)" stroke="rgb(204, 204, 204)" stroke-width="1px"></line></g><g transform="translate(0, 8)"><text style="text-anchor: middle; visibility: hidden; font-family: &quot;Helvetica Neue&quot;, sans-serif; font-size: 12px; font-weight: 200;" x="0" y="0" dx="0em" dy="0.95em" fill="rgb(50, 49, 63)" stroke="none" stroke-width="1px">-50</text><text style="text-anchor: middle; visibility: inherit; font-family: &quot;Helvetica Neue&quot;, sans-serif; font-size: 12px; font-weight: 200;" x="34.82299995422363" y="0" dx="0em" dy="0.95em" fill="rgb(50, 49, 63)" stroke="none" stroke-width="1px">0</text><text style="text-anchor: middle; visibility: inherit; font-family: &quot;Helvetica Neue&quot;, sans-serif; font-size: 12px; font-weight: 200;" x="69.64599990844727" y="0" dx="0em" dy="0.95em" fill="rgb(50, 49, 63)" stroke="none" stroke-width="1px">50</text><text style="text-anchor: middle; visibility: inherit; font-family: &quot;Helvetica Neue&quot;, sans-serif; font-size: 12px; font-weight: 200;" x="104.4689998626709" y="0" dx="0em" dy="0.95em" fill="rgb(50, 49, 63)" stroke="none" stroke-width="1px">100</text><text style="text-anchor: middle; visibility: inherit; font-family: &quot;Helvetica Neue&quot;, sans-serif; font-size: 12px; font-weight: 200;" x="139.29199981689453" y="0" dx="0em" dy="0.95em" fill="rgb(50, 49, 63)" stroke="none" stroke-width="1px">150</text><text style="text-anchor: middle; visibility: inherit; font-family: &quot;Helvetica Neue&quot;, sans-serif; font-size: 12px; font-weight: 200;" x="174.11499977111816" y="0" dx="0em" dy="0.95em" fill="rgb(50, 49, 63)" stroke="none" stroke-width="1px">200</text><text style="text-anchor: middle; visibility: inherit; font-family: &quot;Helvetica Neue&quot;, sans-serif; font-size: 12px; font-weight: 200;" x="208.9379997253418" y="0" dx="0em" dy="0.95em" fill="rgb(50, 49, 63)" stroke="none" stroke-width="1px">250</text><text style="text-anchor: middle; visibility: inherit; font-family: &quot;Helvetica Neue&quot;, sans-serif; font-size: 12px; font-weight: 200;" x="243.76099967956543" y="0" dx="0em" dy="0.95em" fill="rgb(50, 49, 63)" stroke="none" stroke-width="1px">300</text><text style="text-anchor: middle; visibility: hidden; font-family: &quot;Helvetica Neue&quot;, sans-serif; font-size: 12px; font-weight: 200;" x="278.58399963378906" y="0" dx="0em" dy="0.95em" fill="rgb(50, 49, 63)" stroke="none" stroke-width="1px">350</text></g><line x1="0" y1="0" x2="278.58399963378906" y2="0" fill="rgb(0, 0, 0)" stroke="rgb(204, 204, 204)" stroke-width="1px"></line></g></g></g></g></svg>