<svg viewBox="0 0 330 200" xmlns="http://www.w3.org/2000/svg"><g><g><g><g><g><line x1="51.41600036621094" y1="177.92999935150146" x2="46.41600036621094" y2="177.92999935150146" style="visibility: inherit;" fill="rgb(0, 0, 0)" stroke="rgb(204, 204, 204)" stroke-width="1px"></line><line x1="51.41600036621094" y1="160.13699941635133" x2="46.41600036621094" y2="160.13699941635133" style="visibility: inherit;" fill="rgb(0, 0, 0)" stroke="rgb(204, 204, 204)" stroke-width="1px"></line><line x1="51.41600036621094" y1="142.34399948120117" x2="46.41600036621094" y2="142.34399948120117" style="visibility: inherit;" fill="rgb(0, 0, 0)" stroke="rgb(204, 204, 204)" stroke-width="1px"></line><line x1="51.41600036621094" y1="124.55099954605103" x2="46.41600036621094" y2="124.55099954605103" style="visibility: inherit;" fill="rgb(0, 0, 0)" stroke="rgb(204, 204, 204)" stroke-width="1px"></line><line x1="51.41600036621094" y1="106.75799961090088" x2="46.41600036621094" y2="106.75799961090088" style="visibility: inherit;" fill="rgb(0, 0, 0)" stroke="rgb(204, 204, 204)" stroke-width="1px"></line><line x1="51.41600036621094" y1="88.96499967575073" x2="46.41600036621094" y2="88.96499967575073" style="visibility: inherit;" fill="rgb(0, 0, 0)" stroke="rgb(204, 204, 204)" stroke-width="1px"></line><line x1="51.41600036621094" y1="71.17199974060058" x2="46.41600036621094" y2="71.17199974060058" style="visibility: inherit;" fill="rgb(0, 0, 0)" stroke="rgb(204, 204, 204)" stroke-width="1px"></line><line x1="51.41600036621094" y1="53.37899980545045" x2="46.41600036621094" y2="53.37899980545045" style="visibility: inherit;" fill="rgb(0, 0, 0)" stroke="rgb(204, 204, 204)" stroke-width="1px"></line><line x1="51.41600036621094" y1="35.5859998703003" x2="46.41600036621094" y2="35.5859998703003" style="visibility: inherit;" fill="rgb(0, 0, 0)" stroke="rgb(204, 204, 204)" stroke-width="1px"></line><line x1="51.41600036621094" y1="17.792999935150135" x2="46.41600036621094" y2="17.792999935150135" style="visibility: inherit;" fill="rgb(0, 0, 0)" stroke="rgb(204, 204, 204)" stroke-width="1px"></line><line x1="51.41600036621094" y1="0" x2="46.41600036621094" y2="0" style="visibility: inherit;" fill="rgb(0, 0, 0)" stroke="rgb(204, 204, 204)" stroke-width="1px"></line></g><g transform="translate(41.41600036621094, 0)"><text style="text-anchor: end; visibility: hidden; font-family: &quot;Helvetica Neue&quot;, sans-serif; font-size: 12px; font-weight: 200;" x="0" y="177.92999935150146" dx="0em" dy="0.3em" fill="rgb(50, 49, 63)" stroke="none" stroke-width="1px">-0.5</text><text style="text-anchor: end; visibility: inherit; font-family: &quot;Helvetica Neue&quot;, sans-serif; font-size: 12px; font-weight: 200;" x="0" y="160.13699941635133" dx="0em" dy="0.3em" fill="rgb(50, 49, 63)" stroke="none" stroke-width="1px">0</text><text style="text-anchor: end; visibility: hidden; font-family: &quot;Helvetica Neue&quot;, sans-serif; font-size: 12px; font-weight: 200;" x="0" y="142.34399948120117" dx="0em" dy="0.3em" fill="rgb(50, 49, 63)" stroke="none" stroke-width="1px">0.5</text><text style="text-anchor: end; visibility: inherit; font-family: &quot;Helvetica Neue&quot;, sans-serif; font-size: 12px; font-weight: 200;" x="0" y="124.55099954605103" dx="0em" dy="0.3em" fill="rgb(50, 49, 63)" stroke="none" stroke-width="1px">1</text><text style="text-anchor: end; visibility: hidden; font-family: &quot;Helvetica Neue&quot;, sans-serif; font-size: 12px; font-weight: 200;" x="0" y="106.75799961090088" dx="0em" dy="0.3em" fill="rgb(50, 49, 63)" stroke="none" stroke-width="1px">1.5</text><text style="text-anchor: end; visibility: inherit; font-family: &quot;Helvetica Neue&quot;, sans-serif; font-size: 12px; font-weight: 200;" x="0" y="88.96499967575073" dx="0em" dy="0.3em" fill="rgb(50, 49, 63)" stroke="none" stroke-width="1px">2</text><text style="text-anchor: end; visibility: hidden; font-family: &quot;Helvetica Neue&quot;, sans-serif; font-size: 12px; font-weight: 200;" x="0" y="71.17199974060058" dx="0em" dy="0.3em" fill="rgb(50, 49, 63)" stroke="none" stroke-width="1px">2.5</text><text style="text-anchor: end; visibility: inherit; font-family: &quot;Helvetica Neue&quot;, sans-serif; font-size: 12px; font-weight: 200;" x="0" y="53.37899980545045" dx="0em" dy="0.3em" fill="rgb(50, 49, 63)" stroke="none" stroke-width="1px">3</text><text style="text-anchor: end; visibility: hidden; font-family: &quot;Helvetica Neue&quot;, sans-serif; font-size: 12px; font-weight: 200;" x="0" y="35.5859998703003" dx="0em" dy="0.3em" fill="rgb(50, 49, 63)" stroke="none" stroke-width="1px">3.5</text><text style="text-anchor: end; visibility: inherit; font-family: &quot;Helvetica Neue&quot;, sans-serif; font-size: 12px; font-weight: 200;" x="0" y="17.792999935150135" dx="0em" dy="0.3em" fill="rgb(50, 49, 63)" stroke="none" stroke-width="1px">4</text><text style="text-anchor: end; visibility: hidden; font-family: &quot;Helvetica Neue&quot;, sans-serif; font-size: 12px; font-weight: 200;" x="0" y="0" dx="0em" dy="0.3em" fill="rgb(50, 49, 63)" stroke="none" stroke-width="1px">4.5</text></g><line x1="51.41600036621094" y1="0" x2="51.41600036621094" y2="177.92999935150146" fill="rgb(0, 0, 0)" stroke="rgb(204, 204, 204)" stroke-width="1px"></line></g></g><g transform="translate(51, 0)" clip-path="url(#clip_0)"><clipPath id="clip_0"><rect width="278" height="177"></rect></clipPath><g><g><g><line x1="0" y1="0" x2="0" y2="177.92999935150146" fill="rgb(0, 0, 0)" stroke="rgb(60, 60, 60)" stroke-width="1px" opacity="0.25"></line><line x1="34.82299995422363" y1="0" x2="34.82299995422363" y2="177.92999935150146" fill="rgb(0, 0, 0)" stroke="rgb(60, 60, 60)" stroke-width="1px" opacity="0.25"></line><line x1="69.64599990844727" y1="0" x2="69.64599990844727" y2="177.92999935150146" fill="rgb(0, 0, 0)" stroke="rgb(60, 60, 60)" stroke-width="1px" opacity="0.25"></line><line x1="104.4689998626709" y1="0" x2="104.4689998626709" y2="177.92999935150146" fill="rgb(0, 0, 0)" stroke="rgb(60, 60, 60)" stroke-width="1px" opacity="0.25"></line><line x1="139.29199981689453" y1="0" x2="139.29199981689453" y2="177.92999935150146" fill="rgb(0, 0, 0)" stroke="rgb(60, 60, 60)" stroke-width="1px" opacity="0.25"></line><line x1="174.11499977111816" y1="0" x2="174.11499977111816" y2="177.92999935150146" fill="rgb(0, 0, 0)" stroke="rgb(60, 60, 60)" stroke-width="1px" opacity="0.25"></line><line x1="208.9379997253418" y1="0" x2="208.9379997253418" y2="177.92999935150146" fill="rgb(0, 0, 0)" stroke="rgb(60, 60, 60)" stroke-width="1px" opacity="0.25"></line><line x1="243.76099967956543" y1="0" x2="243.76099967956543" y2="177.92999935150146" fill="rgb(0, 0, 0)" stroke="rgb(60, 60, 60)" stroke-width="1px" opacity="0.25"></line><line x1="278.58399963378906" y1="0" x2="278.58399963378906" y2="177.92999935150146" fill="rgb(0, 0, 0)" stroke="rgb(60, 60, 60)" stroke-width="1px" opacity="0.25"></line></g><g><line x1="0" y1="177.92999935150146" x2="278.58399963378906" y2="177.92999935150146" fill="rgb(0, 0, 0)" stroke="rgb(60, 60, 60)" stroke-width="1px" opacity="0.25"></line><line x1="0" y1="160.13699941635133" x2="278.58399963378906" y2="160.13699941635133" fill="rgb(0, 0, 0)" stroke="rgb(60, 60, 60)" stroke-width="1px" opacity="0.25"></line><line x1="0" y1="142.34399948120117" x2="278.58399963378906" y2="142.34399948120117" fill="rgb(0, 0, 0)" stroke="rgb(60, 60, 60)" stroke-width="1px" opacity="0.25"></line><line x1="0" y1="124.55099954605103" x2="278.58399963378906" y2="124.55099954605103" fill="rgb(0, 0, 0)" stroke="rgb(60, 60, 60)" stroke-width="1px" opacity="0.25"></line><line x1="0" y1="106.75799961090088" x2="278.58399963378906" y2="106.75799961090088" fill="rgb(0, 0, 0)" stroke="rgb(60, 60, 60)" stroke-width="1px" opacity="0.25"></line><line x1="0" y1="88.96499967575073" x2="278.58399963378906" y2="88.96499967575073" fill="rgb(0, 0, 0)" stroke="rgb(60, 60, 60)" stroke-width="1px" opacity="0.25"></line><line x1="0" y1="71.17199974060058" x2="278.58399963378906" y2="71.17199974060058" fill="rgb(0, 0, 0)" stroke="rgb(60, 60, 60)" stroke-width="1px" opacity="0.25"></line><line x1="0" y1="53.37899980545045" x2="278.58399963378906" y2="53.37899980545045" fill="rgb(0, 0, 0)" stroke="rgb(60, 60, 60)" stroke-width="1px" opacity="0.25"></line><line x1="0" y1="35.5859998703003" x2="278.58399963378906" y2="35.5859998703003" fill="rgb(0, 0, 0)" stroke="rgb(60, 60, 60)" stroke-width="1px" opacity="0.25"></line><line x1="0" y1="17.792999935150135" x2="278.58399963378906" y2="17.792999935150135" fill="rgb(0, 0, 0)" stroke="rgb(60, 60, 60)" stroke-width="1px" opacity="0.25"></line><line x1="0" y1="0" x2="278.58399963378906" y2="0" fill="rgb(0, 0, 0)" stroke="rgb(60, 60, 60)" stroke-width="1px" opacity="0.25"></line></g></g></g><g><g><line x1="0" y1="160.13699941635133" x2="278.58399963378906" y2="160.13699941635133" fill="rgb(0, 0, 0)" stroke="rgb(153, 153, 153)" stroke-width="1.5px"></line></g></g><g><g><line x1="34.82299995422363" y1="0" x2="34.82299995422363" y2="177.92999935150146" fill="rgb(0, 0, 0)" stroke="rgb(153, 153, 153)" stroke-width="1.5px"></line></g></g><g><g><g><g><g><path style="fill: none;" stroke="rgb(187, 187, 187)" stroke-width="2px" d="M41.09113994598388,-1.4791388469803337L41.78759994506836,0.8388264255650597L42.48405994415283,3.1307474725680606L43.18051994323731,5.427060263962545L43.876979942321775,7.738918096455819L44.57343994140625,9.962719266537334L45.269899940490724,12.204470827534891L45.9663599395752,14.471751340595603L46.66281993865967,16.716466870111617L47.35927993774414,18.955050420371578L48.05573993682861,21.158941200791702L48.75219993591308,23.329942175160824L49.44865993499756,25.481622293682648L50.14511993408203,27.711247828211697L50.8415799331665,29.91811549256431L51.538039932250975,32.12299088794407L52.23449993133545,34.3542174363491L52.930959930419924,36.485318941800614L53.6274199295044,38.58012321873616L54.323879928588866,40.73723666050225L55.02033992767334,42.80262420646463L55.716799926757815,44.97588306522593L56.41325992584229,46.996478417553845L57.10971992492676,48.98370225858713L57.806179924011225,50.994095438384576L58.5026399230957,52.94658537815302L59.199099922180174,54.92959851009094L59.89555992126465,56.75048351417033L60.592019920349124,58.48232148139819L61.28847991943359,60.19481461537245L61.984939918518066,61.838814890495016L62.68139991760254,63.33184354994181L63.377859916687015,64.7690411938053L64.07431991577148,66.15284609308169L64.77077991485596,67.51177614863418L65.46723991394043,68.71945454492327L66.1636999130249,69.89525324737761L66.86015991210937,71.02959328876891L67.55661991119385,72.15523272416922L68.25307991027832,73.14287150681761L68.9495399093628,73.91828941661294L69.64599990844727,74.78743659122095L70.34245990753173,75.57730228300491L71.03891990661621,76.40217230466672L71.73537990570068,77.04620530974145L72.43183990478516,77.74911902223117L73.12829990386963,78.35201519847386L73.8247599029541,78.94203318922258L74.52121990203858,79.3839521710268L75.21767990112305,79.94139667103586L75.91413990020753,80.39548271550733L76.610599899292,80.79461267710903L77.30705989837647,81.21066383400664L78.00351989746095,81.58381328608733L78.6999798965454,81.95310119193616L79.39643989562988,82.21031844348659L80.09289989471435,82.50625621539427L80.78935989379882,82.7852138101533L81.4858198928833,83.06130021372704L82.18227989196777,83.28640368796356L82.87873989105225,83.57559272030035L83.57519989013672,83.82188501001974L84.27165988922118,83.84049782729244L84.96811988830567,84.07108473339379L85.66457988739013,84.26862719075031L86.36103988647461,84.5393010593851L87.05749988555908,84.67522398513177L87.75395988464355,84.91431879625712L88.45041988372803,85.10591256782769L89.1468798828125,85.2104330636343L89.84333988189698,85.37918293645352L90.53979988098145,85.52843738896944L91.23625988006592,85.61255667407758L91.9327198791504,85.7635849216406L92.62917987823486,85.90181951202604L93.32563987731935,86.04110662129942L94.02209987640381,86.11419221354657L94.71855987548828,86.12559936277533L95.41501987457276,86.23589179990002L96.11147987365722,86.4330963787093L96.8079398727417,86.48995160912905L97.50439987182617,86.59763436037875L98.20085987091063,86.69983992278048L98.89731986999512,86.73255059266988L99.59377986907958,86.92582476599667L100.29023986816406,87.01010526284506L100.98669986724853,87.14592783939854L101.683159866333,87.29065364980964L102.37961986541748,87.34583227887187L103.07607986450195,87.4382858822938L103.77253986358643,87.52170553779823L104.4689998626709,87.59031093725736L105.16545986175537,87.67423876284414L105.86191986083985,87.78491928285887L106.55837985992432,87.82789378281171L107.2548398590088,87.88380136704251L107.95129985809326,87.9622825005547L108.64775985717773,88.02935015989068L109.34421985626221,88.13886388680106L110.04067985534668,88.2638337052966L110.73713985443116,88.33941968307691L111.43359985351563,88.45188597897314L112.1300598526001,88.47787043138287L112.82651985168458,88.5791972931214L113.52297985076903,88.61128232399597L114.21943984985352,88.64596809664536L114.91589984893798,88.68899841143423L115.61235984802245,88.72598881019722L116.30881984710693,88.84657621325431L117.0052798461914,88.94266620735874L117.70173984527588,89.00668687021056L118.39819984436035,89.0651461220585L119.09465984344482,89.07231660153357L119.7911198425293,89.19303962863576L120.48757984161377,89.20089046974489L121.18403984069825,89.10865863677387L121.88049983978271,89.16414908084546L122.57695983886718,89.32078563046923L123.27341983795166,89.40686861780173L123.96987983703613,89.50342105572088L124.66633983612061,89.5477503868691L125.36279983520508,89.63563054329899L126.05925983428955,89.70858026918238L126.75571983337403,89.67086288367305L127.4521798324585,89.75816774430609L128.14863983154297,89.81411748711183L128.84509983062745,89.84123921651629L129.54155982971193,89.82938658907361L130.23801982879638,89.90389798346379L130.93447982788086,89.99631918368972L131.63093982696532,90.04926901658541L132.3273998260498,89.92750078335655L133.02385982513428,90.02307335596916L133.72031982421873,90.10926712926708L134.41677982330322,90.17664722518568L135.1132398223877,90.20732165842848L135.80969982147215,90.29994583361805L136.50615982055663,90.32246356156573L137.20261981964111,90.39047944649155L137.8990798187256,90.46930910727522L138.59553981781005,90.53089117817608L139.29199981689453,90.57705274263202L139.98845981597898,90.61249081458578L140.68491981506347,90.66336408646023L141.38137981414795,90.71102646390538L142.07783981323243,90.73437037247778L142.77429981231688,90.70656407729741L143.47075981140136,90.77081603759943L144.16721981048582,90.82983658922102L144.86367980957033,90.87351438714003L145.56013980865478,90.92046194096459L146.25659980773926,90.97012475981353L146.95305980682372,91.01467336554745L147.6495198059082,91.04714304934879L148.34597980499268,91.09099364854606L149.04243980407716,91.13191068830905L149.73889980316162,91.16679826068568L150.4353598022461,91.21133260656545L151.13181980133055,91.24669538677988L151.82827980041506,91.27445110544089L152.5247397994995,91.3143737520411L153.221199798584,91.35434751520911L153.91765979766845,91.36944694762657L154.61411979675293,91.32770732890752L155.3105797958374,91.39965680149373L156.0070397949219,91.40459254925648L156.70349979400635,91.4657855785315L157.3999597930908,91.45027335110942L158.09641979217528,91.51440666532844L158.79287979125976,91.54849684417202L159.48933979034425,91.60467521253646L160.1857997894287,91.6412787952626L160.88225978851318,91.6910391135515L161.57871978759763,91.71502751871098L162.27517978668214,91.76007796096785L162.9716397857666,91.79266887817623L163.66809978485108,91.82926851482297L164.36455978393553,91.8614163205318L165.06101978302001,91.89579698979536L165.7574797821045,91.91092073629848L166.45393978118898,91.94329304643995L167.15039978027343,91.98401897246337L167.8468597793579,92.02967731499884L168.54331977844237,92.0708254737941L169.23977977752688,92.10309260257178L169.93623977661133,92.13772982480147L170.6326997756958,92.15495720982234L171.32915977478027,92.19055328792143L172.02561977386475,92.21028533072949L172.72207977294923,92.21387945194077L173.4185397720337,92.14878037500496L174.11499977111816,92.24387398802786L174.81145977020262,92.3081079273837L175.5079197692871,92.3557061974965L176.20437976837158,92.33222546744732L176.90083976745606,92.39651218591622L177.59729976654052,92.4429797656939L178.293759765625,92.4839296271344L178.99021976470945,92.5157553716853L179.68667976379396,92.56373837934568L180.38313976287841,92.58312581228354L181.0795997619629,92.61601160267632L181.77605976104735,92.65886975500841L182.47251976013183,92.68108739176265L183.1689797592163,92.70204881036959L183.8654397583008,92.7438152658051L184.56189975738525,92.78825003161205L185.25835975646973,92.82280474291987L185.95481975555418,92.852882247691L186.6512797546387,92.8792977267347L187.34773975372315,92.90547418144355L188.04419975280763,92.94214831028451L188.74065975189208,92.97624639935759L189.43711975097656,93.0073853696067L190.13357975006105,93.04097577846956L190.83003974914553,93.07124168823636L191.52649974822998,93.02044711485615L192.22295974731443,93.08162185937037L192.91941974639892,93.12372954877159L193.6158797454834,93.14193517195953L194.31233974456788,93.18693005291594L195.00879974365233,93.21477202409686L195.7052597427368,93.21579810301124L196.40171974182127,93.2703420617974L197.09817974090578,93.30678967891113L197.79463973999023,93.35205473003587L198.4910997390747,93.38883163520266L199.18755973815917,93.41921584830263L199.88401973724365,93.44887651070344L200.58047973632813,93.46100365643656L201.2769397354126,93.5014147771869L201.97339973449706,93.52706646023684L202.66985973358155,93.55617668588671L203.366319732666,93.59279542349793L204.0627797317505,93.61548104947346L204.75923973083496,93.6481839398627L205.45569972991944,93.63783211463519L206.1521597290039,93.68600748656654L206.84861972808838,93.72967041164071L207.54507972717286,93.56088052415399L208.24153972625734,93.67695562269962L208.9379997253418,93.7418053195627L209.63445972442625,93.810588581652L210.33091972351073,93.86406244739993L211.0273797225952,93.90601068788285L211.7238397216797,93.93728498016516L212.42029972076415,93.95878661120771L213.11675971984863,93.99651962499817L213.81321971893308,94.03069986453912L214.5096797180176,94.06609467250465L215.20613971710205,94.09170609511744L215.90259971618653,94.12086513003133L216.59905971527098,94.14843827797463L217.29551971435546,94.18623719424342L217.99197971343995,94.21648629314168L218.68843971252443,94.24018961684409L219.38489971160888,94.2784376316956L220.08135971069336,94.31109085560637L220.77781970977782,94.34328376666014L221.47427970886233,94.37506304331062L222.17073970794678,94.4058169716202L222.86719970703126,94.43549414154953L223.56365970611571,94.46489347782766L224.2601197052002,94.49317586520026L224.95657970428468,94.51204918879884L225.65303970336916,94.54429901715602L226.3494997024536,94.57635509698532L227.04595970153807,94.59984619849978L227.74241970062255,94.62991012843514L228.43887969970703,94.65348707890548L229.1353396987915,94.68862186767579L229.83179969787597,94.70058035327594L230.52825969696045,94.71977778775091L231.2247196960449,94.72870682068806L231.9211796951294,94.78111512681453L232.61763969421386,94.81176088344635L233.31409969329835,94.85083321569935L234.0105596923828,94.8245378823223L234.70701969146728,94.87022141167105L235.40347969055176,94.91433893793369L236.09993968963624,94.95393985468256L236.7963996887207,94.952649472988L237.49285968780518,94.9959973280466L238.18931968688963,95.02713568726897L238.88577968597414,95.05974663396499L239.5822396850586,95.07164503422874L240.27869968414308,95.12177604124078L240.97515968322753,95.16436738477466L241.671619682312,95.18332474981796L242.3680796813965,95.21686541698931L243.06453968048098,95.24410141079876L243.76099967956543,95.28123478833878" fill="none"></path></g><g><path style="fill: none;" stroke="rgb(238, 51, 119)" stroke-width="2px" d="M36.21591995239258,-8.646936656669396L36.91237995147705,4.958772664165451L37.608839950561524,18.220596354130493L38.305299949646,30.84860080515807L39.001759948730474,41.1315031327226L39.69821994781494,49.154974875861825L40.39467994689941,55.385193217196644L41.09113994598388,60.059934517536206L41.78759994506836,64.17604463513908L42.48405994415283,67.70016673052173L43.18051994323731,70.77027747613667L43.876979942321775,73.47747973034934L44.57343994140625,75.8894523560191L45.269899940490724,78.04868175100647L45.9663599395752,79.955454501224L46.66281993865967,81.78240630405625L47.35927993774414,83.4829721168636L48.05573993682861,85.0327254897563L48.75219993591308,86.36942505554589L49.44865993499756,88.0588176549841L50.14511993408203,89.42791543153838L50.8415799331665,90.90430460399386L51.538039932250975,92.2749583213093L52.23449993133545,93.56639897860954L52.930959930419924,95.03729903159078L53.6274199295044,96.48048477311053L54.323879928588866,97.88979194019508L55.02033992767334,99.20146606541111L55.716799926757815,100.39451499057658L56.41325992584229,101.75474694392793L57.10971992492676,103.18330268029335L57.806179924011225,104.68061524533258L58.5026399230957,105.66492728422114L59.199099922180174,107.24660355360491L59.89555992126465,108.16537272279128L60.592019920349124,109.42140315065693L61.28847991943359,110.80203962544404L61.984939918518066,112.3533571558829L62.68139991760254,113.79347759000159L63.377859916687015,114.70380999296148L64.07431991577148,116.00369920277515L64.77077991485596,117.59637366677391L65.46723991394043,118.70073129684278L66.1636999130249,120.13744393100744L66.86015991210937,121.33073500090084L67.55661991119385,122.61813661683652L68.25307991027832,123.85484789751918L68.9495399093628,125.17607077162452L69.64599990844727,126.25871774303648L70.34245990753173,127.73807667862566L71.03891990661621,128.90648205083477L71.73537990570068,129.9235253936467L72.43183990478516,131.10969120631816L73.12829990386963,132.1656403502013L73.8247599029541,132.88019308637678L74.52121990203858,134.09215450470936L75.21767990112305,135.04867133771629L75.91413990020753,136.08275549795218L76.610599899292,137.23903512407782L77.30705989837647,138.31949728144048L78.00351989746095,139.18512106158664L78.6999798965454,140.05280220859288L79.39643989562988,140.97689922764528L80.09289989471435,141.85136514767584L80.78935989379882,142.88310335296504L81.4858198928833,143.70441562366508L82.18227989196777,144.2539095023589L82.87873989105225,145.04413920280226L83.57519989013672,145.7945584431505L84.27165988922118,146.48018235183324L84.96811988830567,147.187793764354L85.66457988739013,147.55098175659953L86.36103988647461,148.14447484163458L87.05749988555908,148.573048792286L87.75395988464355,149.17446572673921L88.45041988372803,149.27379344189882L89.1468798828125,150.05129746018847L89.84333988189698,150.62021483538143L90.53979988098145,151.04139993963102L91.23625988006592,150.97791065171347L91.9327198791504,151.59561701817216L92.62917987823486,151.9974868399281L93.32563987731935,152.43744000429876L94.02209987640381,152.80086688481558L94.71855987548828,153.03505899989565L95.41501987457276,153.48804256000543L96.11147987365722,153.81558005504854L96.8079398727417,153.95710351396005L97.50439987182617,154.2632662459298L98.20085987091063,154.52653957904886L98.89731986999512,154.45100731933093L99.59377986907958,154.8526323558875L100.29023986816406,155.15255249341126L100.98669986724853,155.33901293118552L101.683159866333,155.37661537867967L102.37961986541748,155.58019243985441L103.07607986450195,155.77253883063773L103.77253986358643,155.8634006590481L104.4689998626709,156.00292397296025L105.16545986175537,156.1603378092855L105.86191986083985,156.3290263069606L106.55837985992432,156.52804099711813L107.2548398590088,156.61948142501618L107.95129985809326,156.60931939860862L108.64775985717773,156.7279344785451L109.34421985626221,156.84963183531644L110.04067985534668,156.95893850850285L110.73713985443116,156.99834040290386L111.43359985351563,157.04314175428487L112.1300598526001,157.21964877016745L112.82651985168458,157.33751794730355L113.52297985076903,157.45639860993484L114.21943984985352,157.53216125405538L114.91589984893798,157.6080232996013L115.61235984802245,157.7385936729305L116.30881984710693,157.69588539941714L117.0052798461914,157.75064521936292L117.70173984527588,157.8428437193514L118.39819984436035,157.93603463189277L119.09465984344482,158.0196157343817L119.7911198425293,158.08037610749935L120.48757984161377,158.12178359381406L121.18403984069825,158.1634021495372L121.88049983978271,158.23236306400273L122.57695983886718,158.27865847546292L123.27341983795166,158.21347488439574L123.96987983703613,158.33433846456447L124.66633983612061,158.41287616253214L125.36279983520508,158.46356698644772L126.05925983428955,158.33807992231638L126.75571983337403,158.28238762412576L127.4521798324585,158.3906673732967L128.14863983154297,158.46828710568775L128.84509983062745,158.52354088826297L129.54155982971193,158.56559182340945L130.23801982879638,158.53968283032322L130.93447982788086,158.55008802691262L131.63093982696532,158.62323432830618L132.3273998260498,158.65486846106683L133.02385982513428,158.72885656925564L133.72031982421873,158.75090140853501L134.41677982330322,158.73921206962973L135.1132398223877,158.76458041838876L135.80969982147215,158.8107349928381L136.50615982055663,158.8458842203916L137.20261981964111,158.817410491438L137.8990798187256,158.87888546822546L138.59553981781005,158.91562600800893L139.29199981689453,158.92695988347415L139.98845981597898,158.93859512936254L140.68491981506347,158.97890601194442L141.38137981414795,158.95424448133932L142.07783981323243,158.996890813654L142.77429981231688,159.03754127479962L143.47075981140136,159.06566133071985L144.16721981048582,159.06084868329756L144.86367980957033,159.11634430694596L145.56013980865478,159.12517333351528L146.25659980773926,159.131554494329L146.95305980682372,159.12410818756072L147.6495198059082,159.17501784422734L148.34597980499268,159.19828941007734L149.04243980407716,159.2194453929838L149.73889980316162,159.16707401618638L150.4353598022461,159.11545707923665L151.13181980133055,159.12060981064263L151.82827980041506,159.15905213341304L152.5247397994995,159.21381871505915L153.221199798584,159.23675909089064L153.91765979766845,159.2620455327883L154.61411979675293,159.12976573524438L155.3105797958374,159.16164780078486L156.0070397949219,159.23777878571997L156.70349979400635,159.28630173303912L157.3999597930908,159.3230482469668L158.09641979217528,159.27544833331044L158.79287979125976,159.3108526645724L159.48933979034425,159.34057281285007L160.1857997894287,159.335286257352L160.88225978851318,159.3311582158248L161.57871978759763,159.25740496880326L162.27517978668214,159.30633917141247L162.9716397857666,159.33589509847545L163.66809978485108,159.38245279502576L164.36455978393553,159.40215903858666L165.06101978302001,159.41325633761002L165.7574797821045,159.40992864766878L166.45393978118898,159.427996651977L167.15039978027343,159.4452215934372L167.8468597793579,159.45612851046945L168.54331977844237,159.45919399210266L169.23977977752688,159.46417456365043L169.93623977661133,159.48803237278696L170.6326997756958,159.4570009191596L171.32915977478027,159.46972068750816L172.02561977386475,159.49260467671706L172.72207977294923,159.5052516435339L173.4185397720337,159.52905529827478L174.11499977111816,159.50087717569488L174.81145977020262,159.48407081534108L175.5079197692871,159.4938871798312L176.20437976837158,159.5125168271444L176.90083976745606,159.54372513726935L177.59729976654052,159.54066283459852L178.293759765625,159.5546922733332L178.99021976470945,159.57286834659362L179.68667976379396,159.54924025803277L180.38313976287841,159.5632714611055L181.0795997619629,159.59433174104734L181.77605976104735,159.60015136318754L182.47251976013183,159.55897235269896L183.1689797592163,159.58146413679304L183.8654397583008,159.60432312087883L184.56189975738525,159.60089504616218L185.25835975646973,159.61640697173564L185.95481975555418,159.63036186141872L186.6512797546387,159.63161268906524L187.34773975372315,159.63546623555786L188.04419975280763,159.61527885216015L188.74065975189208,159.63936934710765L189.43711975097656,159.6386681183092L190.13357975006105,159.50022367566476L190.83003974914553,159.54839025509622L191.52649974822998,159.5331083569442L192.22295974731443,159.50827178025867L192.91941974639892,159.51472550751245L193.6158797454834,159.5592656049263L194.31233974456788,159.58530209850863L195.00879974365233,159.60797747027453L195.7052597427368,159.6251448798737L196.40171974182127,159.6386113189098L197.09817974090578,159.6218246794397L197.79463973999023,159.63922306307205L198.4910997390747,159.66062310877345L199.18755973815917,159.65249819438316L199.88401973724365,159.5073548031608L200.58047973632813,159.58580327440208L201.2769397354126,159.60880081260376L201.97339973449706,159.6189154248822L202.66985973358155,159.64187870763203L203.366319732666,159.61477144417546L204.0627797317505,159.6458361800484L204.75923973083496,159.63348877378348L205.45569972991944,159.67290447177348L206.1521597290039,159.68921702395244L206.84861972808838,159.6789583109366L207.54507972717286,159.6934290613586L208.24153972625734,159.7055096715422L208.9379997253418,159.65455279833233L209.63445972442625,159.6898934427525L210.33091972351073,159.72280711276224L211.0273797225952,159.73050835374215L211.7238397216797,159.7425745250278L212.42029972076415,159.73588037083894L213.11675971984863,159.72994015495087L213.81321971893308,159.71501082277177L214.5096797180176,159.72172837672673L215.20613971710205,159.7441665046626L215.90259971618653,159.76224928970208L216.59905971527098,159.72441024752405L217.29551971435546,159.75202524908394L217.99197971343995,159.75833943844995L218.68843971252443,159.7569102938676L219.38489971160888,159.76439233990644L220.08135971069336,159.75760313075733L220.77781970977782,159.76095334381134L221.47427970886233,159.78130282110754L222.17073970794678,159.77458607983598L222.86719970703126,159.7900588691693L223.56365970611571,159.80177340571692L224.2601197052002,159.79398511472638L224.95657970428468,159.80414168074418L225.65303970336916,159.80732419775444L226.3494997024536,159.7865908241806L227.04595970153807,159.80267953867312L227.74241970062255,159.78919137420425L228.43887969970703,159.7935069897464L229.1353396987915,159.8110840800363L229.83179969787597,159.82153207467516L230.52825969696045,159.82228071918323L231.2247196960449,159.82524134377553L231.9211796951294,159.83371946425206L232.61763969421386,159.83823761904543L233.31409969329835,159.84400130522909L234.0105596923828,159.840071823684L234.70701969146728,159.8368588711432L235.40347969055176,159.83790183322287L236.09993968963624,159.83936054960293L236.7963996887207,159.84504365613148L237.49285968780518,159.81521027248047L238.18931968688963,159.837095537321L238.88577968597414,159.844740673628L239.5822396850586,159.84304965782417L240.27869968414308,159.84342034605325L240.97515968322753,159.84953078796565L241.671619682312,159.84107060420638L242.3680796813965,159.84864648289383L243.06453968048098,159.86319111754207L243.76099967956543,159.86780365811913" fill="none"></path></g></g></g></g><g opacity="0.2"><g><g><g><path style="fill: none;" stroke="rgb(187, 187, 187)" stroke-width="2px" d="M40.39467994689941,-0.5115222769213688L41.09113994598388,1.9393727832681975L41.78759994506836,4.280734710350231L42.48405994415283,6.547841487861575L43.18051994323731,8.859033018248738L43.876979942321775,11.1991562282561L44.57343994140625,13.294064363664347L45.269899940490724,15.564463074223397L45.9663599395752,17.871073048307068L46.66281993865967,20.08259027600269L47.35927993774414,22.31235736964058L48.05573993682861,24.46444163084371L48.75219993591308,26.58624519862616L49.44865993499756,28.709024468213954L50.14511993408203,31.055612763227373L50.8415799331665,33.22837341834088L51.538039932250975,35.43027786216271L52.23449993133545,37.70104140035332L52.930959930419924,39.68196211180339L53.6274199295044,41.722324274109496L54.323879928588866,43.97290351147416L55.02033992767334,45.9007036228943L55.716799926757815,48.235770152240775L56.41325992584229,50.027370775994314L57.10971992492676,51.96453762474603L57.806179924011225,54.009684968080236L58.5026399230957,55.87532014795279L59.199099922180174,57.904118122774335L59.89555992126465,59.48181097333595L60.592019920349124,61.08007840544565L61.28847991943359,62.76355430043678L61.984939918518066,64.30481529402209L62.68139991760254,65.57138653412248L63.377859916687015,66.92483765671874L64.07431991577148,68.22855344033151L64.77077991485596,69.550171230982L65.46723991394043,70.53097213883383L66.1636999130249,71.6589513007536L66.86015991210937,72.73110335067895L67.55661991119385,73.84369187716437L68.25307991027832,74.62432968073476L68.9495399093628,75.08141628127983L69.64599990844727,76.09115735311538L70.34245990753173,76.76210082067122L71.03891990661621,77.6394773371535L71.73537990570068,78.01225481735078L72.43183990478516,78.80348959096386L73.12829990386963,79.25635946283701L73.8247599029541,79.82706017534515L74.52121990203858,80.04683064373285L75.21767990112305,80.77756342104927L75.91413990020753,81.07661178221441L76.610599899292,81.39330761951156L77.30705989837647,81.83474056935302L78.00351989746095,82.14353746420839L78.6999798965454,82.50703305070932L79.39643989562988,82.59614432081226L80.09289989471435,82.95016287325579L80.78935989379882,83.20365020229178L81.4858198928833,83.47542981908764L82.18227989196777,83.62405889931834L82.87873989105225,84.00937626880555L83.57519989013672,84.19132344459886L84.27165988922118,83.86841705320144L84.96811988830567,84.41696509254585L85.66457988739013,84.56494087678512L86.36103988647461,84.94531186233725L87.05749988555908,84.8791083737518L87.75395988464355,85.27296101294515L88.45041988372803,85.39330322518354L89.1468798828125,85.36721380734421L89.84333988189698,85.63230774568238L90.53979988098145,85.7523190677433L91.23625988006592,85.73873560173979L91.9327198791504,85.99012729298511L92.62917987823486,86.10917139760419L93.32563987731935,86.2500372852095L94.02209987640381,86.2238206019173L94.71855987548828,86.14271008661844L95.41501987457276,86.40133045558706L96.11147987365722,86.72890324692321L96.8079398727417,86.57523445475867L97.50439987182617,86.75915848725332L98.20085987091063,86.85314826638309L98.89731986999512,86.78161659750394L99.59377986907958,87.21573602598687L100.29023986816406,87.1365260081176L100.98669986724853,87.34966170422877L101.683159866333,87.5077423654263L102.37961986541748,87.42860022246522L103.07607986450195,87.57696628742666L103.77253986358643,87.64683502105491L104.4689998626709,87.693219036446L105.16545986175537,87.80013050122433L105.86191986083985,87.95094006288095L106.55837985992432,87.89235553274092L107.2548398590088,87.9676627433887L107.95129985809326,88.08000420082304L108.64775985717773,88.12995164889462L109.34421985626221,88.30313447716662L110.04067985534668,88.45128843303992L110.73713985443116,88.45279864974736L111.43359985351563,88.62058542281748L112.1300598526001,88.51684710999747L112.82651985168458,88.73118758572919L113.52297985076903,88.65940987030781L114.21943984985352,88.69799675561944L114.91589984893798,88.75354388361752L115.61235984802245,88.78147440834177L116.30881984710693,89.02745731783992L117.0052798461914,89.08680119851542L117.70173984527588,89.1027178644883L118.39819984436035,89.15283499983039L119.09465984344482,89.0830723207462L119.7911198425293,89.37412416928905L120.48757984161377,89.21266673140858L121.18403984069825,88.97031088731737L121.88049983978271,89.24738474695282L122.57695983886718,89.55574045490489L123.27341983795166,89.53599309880049L123.96987983703613,89.64824971259956L124.66633983612061,89.61424438359143L125.36279983520508,89.76745077794385L126.05925983428955,89.81800485800747L126.75571983337403,89.61428680540905L127.4521798324585,89.88912503525566L128.14863983154297,89.89804210132043L128.84509983062745,89.88192181062296L129.54155982971193,89.81160764790964L130.23801982879638,90.01566507504906L130.93447982788086,90.13495098402859L131.63093982696532,90.12869376592892L132.3273998260498,89.74484843351328L133.02385982513428,90.16643221488805L133.72031982421873,90.23855778921396L134.41677982330322,90.27771736906352L135.1132398223877,90.25333330829271L135.80969982147215,90.43888209640238L136.50615982055663,90.35624015348726L137.20261981964111,90.49250327388029L137.8990798187256,90.5875535984507L138.59553981781005,90.62326428452737L139.29199981689453,90.64629508931594L139.98845981597898,90.66564792251643L140.68491981506347,90.73967399427193L141.38137981414795,90.7825200300731L142.07783981323243,90.76938623533643L142.77429981231688,90.66485463452685L143.47075981140136,90.86719397805246L144.16721981048582,90.91836741665341L144.86367980957033,90.93903108401851L145.56013980865478,90.99088327170145L146.25659980773926,91.04461898808695L146.95305980682372,91.0814962741483L147.6495198059082,91.09584757505081L148.34597980499268,91.15676954734197L149.04243980407716,91.19328624795351L149.73889980316162,91.21912961925061L150.4353598022461,91.27813412538512L151.13181980133055,91.2997395571015L151.82827980041506,91.31608468343238L152.5247397994995,91.37425772194145L153.221199798584,91.41430815996114L153.91765979766845,91.39209609625273L154.61411979675293,91.26509790082898L155.3105797958374,91.50758101037306L156.0070397949219,91.41199617090058L156.70349979400635,91.55757512244404L157.3999597930908,91.42700500997628L158.09641979217528,91.61060663665697L158.79287979125976,91.59963211243739L159.48933979034425,91.68894276508315L160.1857997894287,91.69618416935172L160.88225978851318,91.76567959098489L161.57871978759763,91.75101012645018L162.27517978668214,91.82765362435313L162.9716397857666,91.84155525398883L163.66809978485108,91.88416796979307L164.36455978393553,91.90963802909508L165.06101978302001,91.94736799369068L165.7574797821045,91.93360635605316L166.45393978118898,91.99185151165219L167.15039978027343,92.04510786149851L167.8468597793579,92.09816482880201L168.54331977844237,92.13254771198702L169.23977977752688,92.1514932957383L169.93623977661133,92.18968565814603L170.6326997756958,92.18079828735361L171.32915977478027,92.24394740507007L172.02561977386475,92.2398833949416L172.72207977294923,92.21927063375765L173.4185397720337,92.05113175960125L174.11499977111816,92.38651440756216L174.81145977020262,92.4044588364175L175.5079197692871,92.4271036026657L176.20437976837158,92.29700437237356L176.90083976745606,92.49294226361958L177.59729976654052,92.51268113536045L178.293759765625,92.54535441929518L178.99021976470945,92.5634939885116L179.68667976379396,92.63571289083627L180.38313976287841,92.6122069616903L181.0795997619629,92.66534028826553L181.77605976104735,92.72315698350653L182.47251976013183,92.71441384689403L183.1689797592163,92.73349093827997L183.8654397583008,92.80646494895836L184.56189975738525,92.85490218032251L185.25835975646973,92.87463680988162L185.95481975555418,92.89799850484766L186.6512797546387,92.91892094530029L187.34773975372315,92.94473886350681L188.04419975280763,92.99715950354593L188.74065975189208,93.02739353296722L189.43711975097656,93.05409382498036L190.13357975006105,93.09136139176385L190.83003974914553,93.11664055288654L191.52649974822998,92.94425525478589L192.22295974731443,93.17338397614165L192.91941974639892,93.18689108287342L193.6158797454834,93.16924360674145L194.31233974456788,93.25442237435054L195.00879974365233,93.25653498086827L195.7052597427368,93.21733722138283L196.40171974182127,93.35215799997661L197.09817974090578,93.36146110458176L197.79463973999023,93.419952306723L198.4910997390747,93.44399699295282L199.18755973815917,93.46479216795255L199.88401973724365,93.4933675043047L200.58047973632813,93.47919437503622L201.2769397354126,93.56203145831242L201.97339973449706,93.56554398481175L202.66985973358155,93.59984202436151L203.366319732666,93.64772352991477L204.0627797317505,93.64950948843678L204.75923973083496,93.69723827544658L205.45569972991944,93.6223043767939L206.1521597290039,93.75827054446356L206.84861972808838,93.79516479925196L207.54507972717286,93.30769569292393L208.24153972625734,93.85106827051808L208.9379997253418,93.83907986485728L209.63445972442625,93.91376347478597L210.33091972351073,93.94427324602182L211.0273797225952,93.96893304860718L211.7238397216797,93.98419641858864L212.42029972076415,93.99103905777153L213.11675971984863,94.05311914568385L213.81321971893308,94.08197022385056L214.5096797180176,94.11918688445292L215.20613971710205,94.13012322903663L215.90259971618653,94.16460368240216L216.59905971527098,94.1897979998896L217.29551971435546,94.24293556864659L217.99197971343995,94.26185994148906L218.68843971252443,94.27574460239771L219.38489971160888,94.33580965397285L220.08135971069336,94.36007069147254L220.77781970977782,94.39157313324081L221.47427970886233,94.42273195828632L222.17073970794678,94.4519478640846L222.86719970703126,94.48000989644349L223.56365970611571,94.50899248224485L224.2601197052002,94.5355994462592L224.95657970428468,94.54035917419671L225.65303970336916,94.59267375969178L226.3494997024536,94.62443921672931L227.04595970153807,94.63508285077141L227.74241970062255,94.67500602333823L228.43887969970703,94.688852504611L229.1353396987915,94.74132405083128L229.83179969787597,94.71851808167612L230.52825969696045,94.74857393946338L231.2247196960449,94.74210037009382L231.9211796951294,94.85972758600421L232.61763969421386,94.85772951839408L233.31409969329835,94.90944171407887L234.0105596923828,94.78509488225669L234.70701969146728,94.93874670569417L235.40347969055176,94.98051522732767L236.09993968963624,95.01334122980583L236.7963996887207,94.95071390044616L237.49285968780518,95.06101911063449L238.18931968688963,95.07384322610251L238.88577968597414,95.10866305400904L239.5822396850586,95.08949263462435L240.27869968414308,95.19697255175886L240.97515968322753,95.22825440007549L241.671619682312,95.21176079738291L242.3680796813965,95.26717641774636L243.06453968048098,95.28495540151296L243.76099967956543,95.33693485464877" fill="none"></path></g><g><path style="fill: none;" stroke="rgb(238, 51, 119)" stroke-width="2px" d="M36.21591995239258,-2.2339159474015844L36.91237995147705,18.02025361216687L37.608839950561524,33.81650101352935L38.305299949646,47.33572341641974L39.001759948730474,55.35645889658231L39.69821994781494,60.6286678440988L40.39467994689941,64.46891136895884L41.09113994598388,66.9542699137869L41.78759994506836,70.28798845184178L42.48405994415283,72.954386345566L43.18051994323731,75.3587361874575L43.876979942321775,77.52944362659797L44.57343994140625,79.50268598905791L45.269899940490724,81.28498775038805L45.9663599395752,82.81426882267611L46.66281993865967,84.52206090352983L47.35927993774414,86.033389062599L48.05573993682861,87.35711945976722L48.75219993591308,88.37435222459534L49.44865993499756,90.59281390383619L50.14511993408203,91.48151704562432L50.8415799331665,93.11885921394833L51.538039932250975,94.33092266058244L52.23449993133545,95.50355078555245L52.930959930419924,97.24364283834579L53.6274199295044,98.64525969267338L54.323879928588866,100.00375052720347L55.02033992767334,101.1689760449979L55.716799926757815,102.18408771894478L56.41325992584229,103.79509442288725L57.10971992492676,105.32613600060672L57.806179924011225,106.92658391414234L58.5026399230957,107.14139527204968L59.199099922180174,109.61911788970527L59.89555992126465,109.5435264528794L60.592019920349124,111.30544877302255L61.28847991943359,112.87299432480827L61.984939918518066,114.68033344290066L62.68139991760254,115.95365823636695L63.377859916687015,116.06930859557602L64.07431991577148,117.95353301593181L64.77077991485596,119.98538536162238L65.46723991394043,120.35726774146775L66.1636999130249,122.29251288188107L66.86015991210937,123.12067160555489L67.55661991119385,124.5492390406196L68.25307991027832,125.70991481847375L68.9495399093628,127.15790508273804L69.64599990844727,127.88268820013255L70.34245990753173,129.95711508199147L71.03891990661621,130.65909010913995L71.73537990570068,131.44909040786015L72.43183990478516,132.8889399253222L73.12829990386963,133.7495640660244L73.8247599029541,133.95202219063935L74.52121990203858,135.9100966322075L75.21767990112305,136.48344658722633L75.91413990020753,137.63388173830583L76.610599899292,138.9734545632661L77.30705989837647,139.94019051748438L78.00351989746095,140.4835567318059L78.6999798965454,141.3543239291022L79.39643989562988,142.36304475622387L80.09289989471435,143.16306402772165L80.78935989379882,144.43071066089885L81.4858198928833,144.93638402971516L82.18227989196777,145.07815032039957L82.87873989105225,146.22948375346732L83.57519989013672,146.92018730367283L84.27165988922118,147.50861821485734L84.96811988830567,148.24921088313522L85.66457988739013,148.09576374496777L86.36103988647461,149.03471446918718L87.05749988555908,149.21590971826308L87.75395988464355,150.07659112841907L88.45041988372803,149.42278501463824L89.1468798828125,151.21755348762292L89.84333988189698,151.4735908981709L90.53979988098145,151.67317759600536L91.23625988006592,150.88267671983718L91.9327198791504,152.52217656786016L92.62917987823486,152.60029157256199L93.32563987731935,153.09736975085477L94.02209987640381,153.3460072055908L94.71855987548828,153.38634717251577L95.41501987457276,154.16751790017008L96.11147987365722,154.30688629761323L96.8079398727417,154.16938870232732L97.50439987182617,154.72251034388444L98.20085987091063,154.9214495787274L98.89731986999512,154.3377089297541L99.59377986907958,155.4550699107223L100.29023986816406,155.6024326996969L100.98669986724853,155.61870358784694L101.683159866333,155.4330190499209L102.37961986541748,155.88555803161654L103.07607986450195,156.06105841681267L103.77253986358643,155.9996934016637L104.4689998626709,156.21220894382844L105.16545986175537,156.39645856377336L105.86191986083985,156.58205905347324L106.55837985992432,156.82656303235444L107.2548398590088,156.75664206686324L107.95129985809326,156.5940763589973L108.64775985717773,156.90585709844987L109.34421985626221,157.03217787047342L110.04067985534668,157.12289851828248L110.73713985443116,157.05744324450538L111.43359985351563,157.1103437813564L112.1300598526001,157.4844092939913L112.82651985168458,157.51432171300772L113.52297985076903,157.63471960388176L114.21943984985352,157.6458052202362L114.91589984893798,157.7218163679202L115.61235984802245,157.93444923292432L116.30881984710693,157.63182298914705L117.0052798461914,157.83278494928166L117.70173984527588,157.9811414693341L118.39819984436035,158.07582100070485L119.09465984344482,158.14498738811503L119.7911198425293,158.17151666717587L120.48757984161377,158.1838948232861L121.18403984069825,158.22582998312197L121.88049983978271,158.335804435701L122.57695983886718,158.34810159265322L123.27341983795166,158.11569949779496L123.96987983703613,158.51563383481758L124.66633983612061,158.53068270948364L125.36279983520508,158.5396032223211L126.05925983428955,158.1498493261194L126.75571983337403,158.1988491768398L127.4521798324585,158.55308699705319L128.14863983154297,158.5847167042743L128.84509983062745,158.60642156212575L129.54155982971193,158.62866822612918L130.23801982879638,158.50081934069385L130.93447982788086,158.56569582179674L131.63093982696532,158.7329537803965L132.3273998260498,158.70231966020776L133.02385982513428,158.83983873153886L133.72031982421873,158.7839686674541L134.41677982330322,158.72167806127183L135.1132398223877,158.80263294152726L135.80969982147215,158.87996685451208L136.50615982055663,158.89860806172192L137.20261981964111,158.7746998980076L137.8990798187256,158.97109793340667L138.59553981781005,158.97073681768413L139.29199981689453,158.94396069667198L139.98845981597898,158.95604799819515L140.68491981506347,159.0393723358172L141.38137981414795,158.9172521854317L142.07783981323243,159.06086031212604L142.77429981231688,159.09851696651805L143.47075981140136,159.1078414146002L144.16721981048582,159.05362971216414L144.86367980957033,159.19958774241854L145.56013980865478,159.13841687336927L146.25659980773926,159.14112623554962L146.95305980682372,159.11293872740828L147.6495198059082,159.25138232922723L148.34597980499268,159.23319675885233L149.04243980407716,159.25117936734352L149.73889980316162,159.08851695099025L150.4353598022461,159.03803167381207L151.13181980133055,159.12833890775158L151.82827980041506,159.2167156175687L152.5247397994995,159.2959685875283L153.221199798584,159.27116965463793L153.91765979766845,159.29997519563477L154.61411979675293,158.9313460389285L155.3105797958374,159.2094708990956L156.0070397949219,159.3519752631226L156.70349979400635,159.3590861540179L157.3999597930908,159.37816801785831L158.09641979217528,159.20404846282588L158.79287979125976,159.3639591614653L159.48933979034425,159.38515303526663L160.1857997894287,159.3273564241049L160.88225978851318,159.32496615353398L161.57871978759763,159.14677509827092L162.27517978668214,159.37974047532632L162.9716397857666,159.3802289890699L163.66809978485108,159.4522893398512L164.36455978393553,159.43171840392807L165.06101978302001,159.42990228614508L165.7574797821045,159.4049371127569L166.45393978118898,159.4550986584393L167.15039978027343,159.47105900562752L167.8468597793579,159.47248888601786L168.54331977844237,159.46379221455246L169.23977977752688,159.4716454209721L169.93623977661133,159.52381908649173L170.6326997756958,159.41045373871856L171.32915977478027,159.488800340031L172.02561977386475,159.52693066053044L172.72207977294923,159.52422209375916L173.4185397720337,159.56476078038608L174.11499977111816,159.45860999182503L174.81145977020262,159.45886127481037L175.5079197692871,159.50861172656636L176.20437976837158,159.54046129811417L176.90083976745606,159.5905376024568L177.59729976654052,159.5360693805923L178.293759765625,159.5757364314352L178.99021976470945,159.60013245648426L179.68667976379396,159.51379812519147L180.38313976287841,159.5843182657146L181.0795997619629,159.64092216096014L181.77605976104735,159.6088807963978L182.47251976013183,159.49720383696612L183.1689797592163,159.61520181293415L183.8654397583008,159.63861159700753L184.56189975738525,159.5957529340872L185.25835975646973,159.63967486009585L185.95481975555418,159.6512941959433L186.6512797546387,159.633488930535L187.34773975372315,159.6412465552968L188.04419975280763,159.58499777706362L188.74065975189208,159.67550508952888L189.43711975097656,159.6376162751115L190.13357975006105,159.29255701169808L190.83003974914553,159.62064012424344L191.52649974822998,159.51018550971617L192.22295974731443,159.47101691523034L192.91941974639892,159.52440609839311L193.6158797454834,159.6260757510471L194.31233974456788,159.62435683888216L195.00879974365233,159.64199052792338L195.7052597427368,159.6508959942724L196.40171974182127,159.65881097746396L197.09817974090578,159.5966447202346L197.79463973999023,159.66532063852054L198.4910997390747,159.69272317732558L199.18755973815917,159.64031082279772L199.88401973724365,159.2896397163273L200.58047973632813,159.70347598126398L201.2769397354126,159.64329711990624L201.97339973449706,159.63408734329988L202.66985973358155,159.6763236317568L203.366319732666,159.57411054899063L204.0627797317505,159.6924332838578L204.75923973083496,159.61496766438609L205.45569972991944,159.73202801875848L206.1521597290039,159.71368585222086L206.84861972808838,159.66357024141283L207.54507972717286,159.7151351869916L208.24153972625734,159.7236305868176L208.9379997253418,159.57811748851756L209.63445972442625,159.74290440938273L210.33091972351073,159.77217761777686L211.0273797225952,159.742060215212L211.7238397216797,159.76067378195629L212.42029972076415,159.72583913955563L213.11675971984863,159.72102983111876L213.81321971893308,159.69261682450312L214.5096797180176,159.73180470765914L215.20613971710205,159.77782369656637L215.90259971618653,159.78937346726136L216.59905971527098,159.66765168425698L217.29551971435546,159.7934477514238L217.99197971343995,159.76781072249898L218.68843971252443,159.75476657699406L219.38489971160888,159.77561540896468L220.08135971069336,159.7474193170337L220.77781970977782,159.76597866339233L221.47427970886233,159.81182703705184L222.17073970794678,159.76451096792866L222.86719970703126,159.81326805316928L223.56365970611571,159.81934521053836L224.2601197052002,159.78230267824054L224.95657970428468,159.8193765297709L225.65303970336916,159.81209797326986L226.3494997024536,159.75549076381978L227.04595970153807,159.82681261041193L227.74241970062255,159.76895912750095L228.43887969970703,159.79998041305961L229.1353396987915,159.83744971547114L229.83179969787597,159.83720406663346L230.52825969696045,159.82340368594532L231.2247196960449,159.82968228066403L231.9211796951294,159.84643664496681L232.61763969421386,159.84501485123548L233.31409969329835,159.8526468345046L234.0105596923828,159.83417760136638L234.70701969146728,159.83203944233193L235.40347969055176,159.8394662763424L236.09993968963624,159.84154862417302L236.7963996887207,159.85356831592432L237.49285968780518,159.77046019700396L238.18931968688963,159.86992343458178L238.88577968597414,159.85620837808852L239.5822396850586,159.84051313411842L240.27869968414308,159.84397637839683L240.97515968322753,159.8586964508343L241.671619682312,159.82838032856748L242.3680796813965,159.86001030092498L243.06453968048098,159.88500806951444L243.76099967956543,159.8747224689847" fill="none"></path></g></g></g></g></g></g><g transform="translate(51, 177)" clip-path="url(#clip_1)"><clipPath id="clip_1"><rect width="278" height="22"></rect></clipPath><g><g><line x1="0" y1="0" x2="0" y2="5" style="visibility: inherit;" fill="rgb(0, 0, 0)" stroke="rgb(204, 204, 204)" stroke-width="1px"></line><line x1="34.82299995422363" y1="0" x2="34.82299995422363" y2="5" style="visibility: inherit;" fill="rgb(0, 0, 0)" stroke="rgb(204, 204, 204)" stroke-width="1px"></line><line x1="69.64599990844727" y1="0" x2="69.64599990844727" y2="5" style="visibility: inherit;" fill="rgb(0, 0, 0)" stroke="rgb(204, 204, 204)" stroke-width="1px"></line><line x1="104.4689998626709" y1="0" x2="104.4689998626709" y2="5" style="visibility: inherit;" fill="rgb(0, 0, 0)" stroke="rgb(204, 204, 204)" stroke-width="1px"></line><line x1="139.29199981689453" y1="0" x2="139.29199981689453" y2="5" style="visibility: inherit;" fill="rgb(0, 0, 0)" stroke="rgb(204, 204, 204)" stroke-width="1px"></line><line x1="174.11499977111816" y1="0" x2="174.11499977111816" y2="5" style="visibility: inherit;" fill="rgb(0, 0, 0)" stroke="rgb(204, 204, 204)" stroke-width="1px"></line><line x1="208.9379997253418" y1="0" x2="208.9379997253418" y2="5" style="visibility: inherit;" fill="rgb(0, 0, 0)" stroke="rgb(204, 204, 204)" stroke-width="1px"></line><line x1="243.76099967956543" y1="0" x2="243.76099967956543" y2="5" style="visibility: inherit;" fill="rgb(0, 0, 0)" stroke="rgb(204, 204, 204)" stroke-width="1px"></line><line x1="278.58399963378906" y1="0" x2="278.58399963378906" y2="5" style="visibility: inherit;" fill="rgb(0, 0, 0)" stroke="rgb(204, 204, 204)" stroke-width="1px"></line></g><g transform="translate(0, 8)"><text style="text-anchor: middle; visibility: hidden; font-family: &quot;Helvetica Neue&quot;, sans-serif; font-size: 12px; font-weight: 200;" x="0" y="0" dx="0em" dy="0.95em" fill="rgb(50, 49, 63)" stroke="none" stroke-width="1px">-50</text><text style="text-anchor: middle; visibility: inherit; font-family: &quot;Helvetica Neue&quot;, sans-serif; font-size: 12px; font-weight: 200;" x="34.82299995422363" y="0" dx="0em" dy="0.95em" fill="rgb(50, 49, 63)" stroke="none" stroke-width="1px">0</text><text style="text-anchor: middle; visibility: inherit; font-family: &quot;Helvetica Neue&quot;, sans-serif; font-size: 12px; font-weight: 200;" x="69.64599990844727" y="0" dx="0em" dy="0.95em" fill="rgb(50, 49, 63)" stroke="none" stroke-width="1px">50</text><text style="text-anchor: middle; visibility: inherit; font-family: &quot;Helvetica Neue&quot;, sans-serif; font-size: 12px; font-weight: 200;" x="104.4689998626709" y="0" dx="0em" dy="0.95em" fill="rgb(50, 49, 63)" stroke="none" stroke-width="1px">100</text><text style="text-anchor: middle; visibility: inherit; font-family: &quot;Helvetica Neue&quot;, sans-serif; font-size: 12px; font-weight: 200;" x="139.29199981689453" y="0" dx="0em" dy="0.95em" fill="rgb(50, 49, 63)" stroke="none" stroke-width="1px">150</text><text style="text-anchor: middle; visibility: inherit; font-family: &quot;Helvetica Neue&quot;, sans-serif; font-size: 12px; font-weight: 200;" x="174.11499977111816" y="0" dx="0em" dy="0.95em" fill="rgb(50, 49, 63)" stroke="none" stroke-width="1px">200</text><text style="text-anchor: middle; visibility: inherit; font-family: &quot;Helvetica Neue&quot;, sans-serif; font-size: 12px; font-weight: 200;" x="208.9379997253418" y="0" dx="0em" dy="0.95em" fill="rgb(50, 49, 63)" stroke="none" stroke-width="1px">250</text><text style="text-anchor: middle; visibility: inherit; font-family: &quot;Helvetica Neue&quot;, sans-serif; font-size: 12px; font-weight: 200;" x="243.76099967956543" y="0" dx="0em" dy="0.95em" fill="rgb(50, 49, 63)" stroke="none" stroke-width="1px">300</text><text style="text-anchor: middle; visibility: hidden; font-family: &quot;Helvetica Neue&quot;, sans-serif; font-size: 12px; font-weight: 200;" x="278.58399963378906" y="0" dx="0em" dy="0.95em" fill="rgb(50, 49, 63)" stroke="none" stroke-width="1px">350</text></g><line x1="0" y1="0" x2="278.58399963378906" y2="0" fill="rgb(0, 0, 0)" stroke="rgb(204, 204, 204)" stroke-width="1px"></line></g></g></g></g></svg>