<svg viewBox="0 0 330 200" xmlns="http://www.w3.org/2000/svg"><g><g><g><g><g><line x1="30.70800018310547" y1="177.92999935150146" x2="25.70800018310547" y2="177.92999935150146" style="visibility: inherit;" fill="rgb(0, 0, 0)" stroke="rgb(204, 204, 204)" stroke-width="1px"></line><line x1="30.70800018310547" y1="165.22071368353707" x2="25.70800018310547" y2="165.22071368353707" style="visibility: inherit;" fill="rgb(0, 0, 0)" stroke="rgb(204, 204, 204)" stroke-width="1px"></line><line x1="30.70800018310547" y1="152.51142801557268" x2="25.70800018310547" y2="152.51142801557268" style="visibility: inherit;" fill="rgb(0, 0, 0)" stroke="rgb(204, 204, 204)" stroke-width="1px"></line><line x1="30.70800018310547" y1="139.8021423476083" x2="25.70800018310547" y2="139.8021423476083" style="visibility: inherit;" fill="rgb(0, 0, 0)" stroke="rgb(204, 204, 204)" stroke-width="1px"></line><line x1="30.70800018310547" y1="127.09285667964392" x2="25.70800018310547" y2="127.09285667964392" style="visibility: inherit;" fill="rgb(0, 0, 0)" stroke="rgb(204, 204, 204)" stroke-width="1px"></line><line x1="30.70800018310547" y1="114.38357101167952" x2="25.70800018310547" y2="114.38357101167952" style="visibility: inherit;" fill="rgb(0, 0, 0)" stroke="rgb(204, 204, 204)" stroke-width="1px"></line><line x1="30.70800018310547" y1="101.67428534371513" x2="25.70800018310547" y2="101.67428534371513" style="visibility: inherit;" fill="rgb(0, 0, 0)" stroke="rgb(204, 204, 204)" stroke-width="1px"></line><line x1="30.70800018310547" y1="88.96499967575073" x2="25.70800018310547" y2="88.96499967575073" style="visibility: inherit;" fill="rgb(0, 0, 0)" stroke="rgb(204, 204, 204)" stroke-width="1px"></line><line x1="30.70800018310547" y1="76.25571400778635" x2="25.70800018310547" y2="76.25571400778635" style="visibility: inherit;" fill="rgb(0, 0, 0)" stroke="rgb(204, 204, 204)" stroke-width="1px"></line><line x1="30.70800018310547" y1="63.546428339821944" x2="25.70800018310547" y2="63.546428339821944" style="visibility: inherit;" fill="rgb(0, 0, 0)" stroke="rgb(204, 204, 204)" stroke-width="1px"></line><line x1="30.70800018310547" y1="50.83714267185756" x2="25.70800018310547" y2="50.83714267185756" style="visibility: inherit;" fill="rgb(0, 0, 0)" stroke="rgb(204, 204, 204)" stroke-width="1px"></line><line x1="30.70800018310547" y1="38.12785700389318" x2="25.70800018310547" y2="38.12785700389318" style="visibility: inherit;" fill="rgb(0, 0, 0)" stroke="rgb(204, 204, 204)" stroke-width="1px"></line><line x1="30.70800018310547" y1="25.41857133592879" x2="25.70800018310547" y2="25.41857133592879" style="visibility: inherit;" fill="rgb(0, 0, 0)" stroke="rgb(204, 204, 204)" stroke-width="1px"></line><line x1="30.70800018310547" y1="12.709285667964394" x2="25.70800018310547" y2="12.709285667964394" style="visibility: inherit;" fill="rgb(0, 0, 0)" stroke="rgb(204, 204, 204)" stroke-width="1px"></line><line x1="30.70800018310547" y1="0" x2="25.70800018310547" y2="0" style="visibility: inherit;" fill="rgb(0, 0, 0)" stroke="rgb(204, 204, 204)" stroke-width="1px"></line></g><g transform="translate(20.70800018310547, 0)"><text style="text-anchor: end; visibility: hidden; font-family: &quot;Helvetica Neue&quot;, sans-serif; font-size: 12px; font-weight: 200;" x="0" y="177.92999935150146" dx="0em" dy="0.3em" fill="rgb(50, 49, 63)" stroke="none" stroke-width="1px">-2</text><text style="text-anchor: end; visibility: inherit; font-family: &quot;Helvetica Neue&quot;, sans-serif; font-size: 12px; font-weight: 200;" x="0" y="165.22071368353707" dx="0em" dy="0.3em" fill="rgb(50, 49, 63)" stroke="none" stroke-width="1px">-1</text><text style="text-anchor: end; visibility: hidden; font-family: &quot;Helvetica Neue&quot;, sans-serif; font-size: 12px; font-weight: 200;" x="0" y="152.51142801557268" dx="0em" dy="0.3em" fill="rgb(50, 49, 63)" stroke="none" stroke-width="1px">0</text><text style="text-anchor: end; visibility: inherit; font-family: &quot;Helvetica Neue&quot;, sans-serif; font-size: 12px; font-weight: 200;" x="0" y="139.8021423476083" dx="0em" dy="0.3em" fill="rgb(50, 49, 63)" stroke="none" stroke-width="1px">1</text><text style="text-anchor: end; visibility: hidden; font-family: &quot;Helvetica Neue&quot;, sans-serif; font-size: 12px; font-weight: 200;" x="0" y="127.09285667964392" dx="0em" dy="0.3em" fill="rgb(50, 49, 63)" stroke="none" stroke-width="1px">2</text><text style="text-anchor: end; visibility: inherit; font-family: &quot;Helvetica Neue&quot;, sans-serif; font-size: 12px; font-weight: 200;" x="0" y="114.38357101167952" dx="0em" dy="0.3em" fill="rgb(50, 49, 63)" stroke="none" stroke-width="1px">3</text><text style="text-anchor: end; visibility: hidden; font-family: &quot;Helvetica Neue&quot;, sans-serif; font-size: 12px; font-weight: 200;" x="0" y="101.67428534371513" dx="0em" dy="0.3em" fill="rgb(50, 49, 63)" stroke="none" stroke-width="1px">4</text><text style="text-anchor: end; visibility: inherit; font-family: &quot;Helvetica Neue&quot;, sans-serif; font-size: 12px; font-weight: 200;" x="0" y="88.96499967575073" dx="0em" dy="0.3em" fill="rgb(50, 49, 63)" stroke="none" stroke-width="1px">5</text><text style="text-anchor: end; visibility: hidden; font-family: &quot;Helvetica Neue&quot;, sans-serif; font-size: 12px; font-weight: 200;" x="0" y="76.25571400778635" dx="0em" dy="0.3em" fill="rgb(50, 49, 63)" stroke="none" stroke-width="1px">6</text><text style="text-anchor: end; visibility: inherit; font-family: &quot;Helvetica Neue&quot;, sans-serif; font-size: 12px; font-weight: 200;" x="0" y="63.546428339821944" dx="0em" dy="0.3em" fill="rgb(50, 49, 63)" stroke="none" stroke-width="1px">7</text><text style="text-anchor: end; visibility: hidden; font-family: &quot;Helvetica Neue&quot;, sans-serif; font-size: 12px; font-weight: 200;" x="0" y="50.83714267185756" dx="0em" dy="0.3em" fill="rgb(50, 49, 63)" stroke="none" stroke-width="1px">8</text><text style="text-anchor: end; visibility: inherit; font-family: &quot;Helvetica Neue&quot;, sans-serif; font-size: 12px; font-weight: 200;" x="0" y="38.12785700389318" dx="0em" dy="0.3em" fill="rgb(50, 49, 63)" stroke="none" stroke-width="1px">9</text><text style="text-anchor: end; visibility: hidden; font-family: &quot;Helvetica Neue&quot;, sans-serif; font-size: 12px; font-weight: 200;" x="0" y="25.41857133592879" dx="0em" dy="0.3em" fill="rgb(50, 49, 63)" stroke="none" stroke-width="1px">10</text><text style="text-anchor: end; visibility: inherit; font-family: &quot;Helvetica Neue&quot;, sans-serif; font-size: 12px; font-weight: 200;" x="0" y="12.709285667964394" dx="0em" dy="0.3em" fill="rgb(50, 49, 63)" stroke="none" stroke-width="1px">11</text><text style="text-anchor: end; visibility: hidden; font-family: &quot;Helvetica Neue&quot;, sans-serif; font-size: 12px; font-weight: 200;" x="0" y="0" dx="0em" dy="0.3em" fill="rgb(50, 49, 63)" stroke="none" stroke-width="1px">12</text></g><line x1="30.70800018310547" y1="0" x2="30.70800018310547" y2="177.92999935150146" fill="rgb(0, 0, 0)" stroke="rgb(204, 204, 204)" stroke-width="1px"></line></g></g><g transform="translate(30, 0)" clip-path="url(#clip_0)"><clipPath id="clip_0"><rect width="299" height="177"></rect></clipPath><g><g><g><line x1="0" y1="0" x2="0" y2="177.92999935150146" fill="rgb(0, 0, 0)" stroke="rgb(60, 60, 60)" stroke-width="1px" opacity="0.25"></line><line x1="27.208363619717684" y1="0" x2="27.208363619717684" y2="177.92999935150146" fill="rgb(0, 0, 0)" stroke="rgb(60, 60, 60)" stroke-width="1px" opacity="0.25"></line><line x1="54.41672723943537" y1="0" x2="54.41672723943537" y2="177.92999935150146" fill="rgb(0, 0, 0)" stroke="rgb(60, 60, 60)" stroke-width="1px" opacity="0.25"></line><line x1="81.62509085915305" y1="0" x2="81.62509085915305" y2="177.92999935150146" fill="rgb(0, 0, 0)" stroke="rgb(60, 60, 60)" stroke-width="1px" opacity="0.25"></line><line x1="108.83345447887073" y1="0" x2="108.83345447887073" y2="177.92999935150146" fill="rgb(0, 0, 0)" stroke="rgb(60, 60, 60)" stroke-width="1px" opacity="0.25"></line><line x1="136.0418180985884" y1="0" x2="136.0418180985884" y2="177.92999935150146" fill="rgb(0, 0, 0)" stroke="rgb(60, 60, 60)" stroke-width="1px" opacity="0.25"></line><line x1="163.2501817183061" y1="0" x2="163.2501817183061" y2="177.92999935150146" fill="rgb(0, 0, 0)" stroke="rgb(60, 60, 60)" stroke-width="1px" opacity="0.25"></line><line x1="190.45854533802378" y1="0" x2="190.45854533802378" y2="177.92999935150146" fill="rgb(0, 0, 0)" stroke="rgb(60, 60, 60)" stroke-width="1px" opacity="0.25"></line><line x1="217.66690895774147" y1="0" x2="217.66690895774147" y2="177.92999935150146" fill="rgb(0, 0, 0)" stroke="rgb(60, 60, 60)" stroke-width="1px" opacity="0.25"></line><line x1="244.87527257745919" y1="0" x2="244.87527257745919" y2="177.92999935150146" fill="rgb(0, 0, 0)" stroke="rgb(60, 60, 60)" stroke-width="1px" opacity="0.25"></line><line x1="272.0836361971768" y1="0" x2="272.0836361971768" y2="177.92999935150146" fill="rgb(0, 0, 0)" stroke="rgb(60, 60, 60)" stroke-width="1px" opacity="0.25"></line><line x1="299.29199981689453" y1="0" x2="299.29199981689453" y2="177.92999935150146" fill="rgb(0, 0, 0)" stroke="rgb(60, 60, 60)" stroke-width="1px" opacity="0.25"></line></g><g><line x1="0" y1="177.92999935150146" x2="299.29199981689453" y2="177.92999935150146" fill="rgb(0, 0, 0)" stroke="rgb(60, 60, 60)" stroke-width="1px" opacity="0.25"></line><line x1="0" y1="165.22071368353707" x2="299.29199981689453" y2="165.22071368353707" fill="rgb(0, 0, 0)" stroke="rgb(60, 60, 60)" stroke-width="1px" opacity="0.25"></line><line x1="0" y1="152.51142801557268" x2="299.29199981689453" y2="152.51142801557268" fill="rgb(0, 0, 0)" stroke="rgb(60, 60, 60)" stroke-width="1px" opacity="0.25"></line><line x1="0" y1="139.8021423476083" x2="299.29199981689453" y2="139.8021423476083" fill="rgb(0, 0, 0)" stroke="rgb(60, 60, 60)" stroke-width="1px" opacity="0.25"></line><line x1="0" y1="127.09285667964392" x2="299.29199981689453" y2="127.09285667964392" fill="rgb(0, 0, 0)" stroke="rgb(60, 60, 60)" stroke-width="1px" opacity="0.25"></line><line x1="0" y1="114.38357101167952" x2="299.29199981689453" y2="114.38357101167952" fill="rgb(0, 0, 0)" stroke="rgb(60, 60, 60)" stroke-width="1px" opacity="0.25"></line><line x1="0" y1="101.67428534371513" x2="299.29199981689453" y2="101.67428534371513" fill="rgb(0, 0, 0)" stroke="rgb(60, 60, 60)" stroke-width="1px" opacity="0.25"></line><line x1="0" y1="88.96499967575073" x2="299.29199981689453" y2="88.96499967575073" fill="rgb(0, 0, 0)" stroke="rgb(60, 60, 60)" stroke-width="1px" opacity="0.25"></line><line x1="0" y1="76.25571400778635" x2="299.29199981689453" y2="76.25571400778635" fill="rgb(0, 0, 0)" stroke="rgb(60, 60, 60)" stroke-width="1px" opacity="0.25"></line><line x1="0" y1="63.546428339821944" x2="299.29199981689453" y2="63.546428339821944" fill="rgb(0, 0, 0)" stroke="rgb(60, 60, 60)" stroke-width="1px" opacity="0.25"></line><line x1="0" y1="50.83714267185756" x2="299.29199981689453" y2="50.83714267185756" fill="rgb(0, 0, 0)" stroke="rgb(60, 60, 60)" stroke-width="1px" opacity="0.25"></line><line x1="0" y1="38.12785700389318" x2="299.29199981689453" y2="38.12785700389318" fill="rgb(0, 0, 0)" stroke="rgb(60, 60, 60)" stroke-width="1px" opacity="0.25"></line><line x1="0" y1="25.41857133592879" x2="299.29199981689453" y2="25.41857133592879" fill="rgb(0, 0, 0)" stroke="rgb(60, 60, 60)" stroke-width="1px" opacity="0.25"></line><line x1="0" y1="12.709285667964394" x2="299.29199981689453" y2="12.709285667964394" fill="rgb(0, 0, 0)" stroke="rgb(60, 60, 60)" stroke-width="1px" opacity="0.25"></line><line x1="0" y1="0" x2="299.29199981689453" y2="0" fill="rgb(0, 0, 0)" stroke="rgb(60, 60, 60)" stroke-width="1px" opacity="0.25"></line></g></g></g><g><g><line x1="0" y1="152.51142801557268" x2="299.29199981689453" y2="152.51142801557268" fill="rgb(0, 0, 0)" stroke="rgb(153, 153, 153)" stroke-width="1.5px"></line></g></g><g><g><line x1="0" y1="0" x2="0" y2="177.92999935150146" fill="rgb(0, 0, 0)" stroke="rgb(153, 153, 153)" stroke-width="1.5px"></line></g></g><g><g><g><g><g><path style="fill: none;" stroke="rgb(0, 153, 136)" stroke-width="2px" d="M13.604181809858842,142.49518614251517L27.208363619717684,134.63560660231497L40.812545429576524,127.88028926798967L54.41672723943537,121.27090284200217L68.0209090492942,116.11174918534397L81.62509085915305,111.47110416479431L95.22927266901189,106.6539570265203L108.83345447887073,101.81453830438222L122.43763628872959,96.4768841800769L136.0418180985884,91.0061456057221L149.64599990844727,85.32511947710684L163.2501817183061,78.74307218468168L176.85436352816495,70.76986804005432L190.45854533802378,62.102499031687756L204.0627271478826,52.53501437527413L217.66690895774147,42.54727272372915L231.27109076760033,31.330788043942505L244.87527257745919,19.696319232792717L258.479454387318,7.75043249220991L272.0836361971768,-4.091497252266976" fill="none"></path></g><g><path style="fill: none;" stroke="rgb(51, 187, 238)" stroke-width="2px" d="M13.604181809858842,138.78217943580302L27.208363619717684,126.89681637000962L40.812545429576524,118.1689498803544L54.41672723943537,112.1855497802396L68.0209090492942,105.60492489417692L81.62509085915305,100.15736911540742L95.22927266901189,95.12747189062563L108.83345447887073,90.83896396955521L122.43763628872959,86.2159778775751L136.0418180985884,80.95363186121173L149.64599990844727,76.1494703862871L163.2501817183061,70.53802167631751L176.85436352816495,64.92890651273902L190.45854533802378,58.94249257070102L204.0627271478826,53.64344229125024L217.66690895774147,47.48443397484644L231.27109076760033,41.42177836172229L244.87527257745919,35.34524769226013L258.479454387318,29.910968491315487L272.0836361971768,23.452428770614944" fill="none"></path></g><g><path style="fill: none;" stroke="rgb(0, 119, 187)" stroke-width="2px" d="M13.604181809858842,142.89895776020168L27.208363619717684,136.8979068363829L40.812545429576524,130.7049906889604L54.41672723943537,125.58642531138491L68.0209090492942,121.06655974041294L81.62509085915305,116.66861762475416L95.22927266901189,112.04156072509318L108.83345447887073,107.75890357050918L122.43763628872959,102.77214103088589L136.0418180985884,97.53374410731804L149.64599990844727,91.63622671018186L163.2501817183061,84.91577409644437L176.85436352816495,77.5526003662236L190.45854533802378,69.25536066148848L204.0627271478826,59.73535465075578L217.66690895774147,49.78303559424975L231.27109076760033,39.03793630606208L244.87527257745919,27.74763655515403L258.479454387318,15.990153670409455L272.0836361971768,4.329754009331111" fill="none"></path></g><g><path style="fill: none;" stroke="rgb(187, 187, 187)" stroke-width="2px" d="M13.604181809858842,139.93068651527147L27.208363619717684,128.03668555937503L40.812545429576524,120.21486194188265L54.41672723943537,113.57238424719415L68.0209090492942,108.3104757210143L81.62509085915305,103.83352681005536L95.22927266901189,99.77381874032108L108.83345447887073,96.76573639397932L122.43763628872959,92.73353305649162L136.0418180985884,88.09389270345052L149.64599990844727,83.98707618952139L163.2501817183061,79.66186837586342L176.85436352816495,75.10903464780732L190.45854533802378,70.74212955245687L204.0627271478826,65.93267414651433L217.66690895774147,61.136429460386296L231.27109076760033,55.73324418148249L244.87527257745919,51.07585345848783L258.479454387318,46.398264839582055L272.0836361971768,40.914950930918394" fill="none"></path></g></g></g></g><g opacity="0.2"><g><g><g><path style="fill: none;" stroke="rgb(0, 153, 136)" stroke-width="2px" d="M13.604181809858842,142.49518614251517L27.208363619717684,130.70581683221488L40.812545429576524,122.81380126724565L54.41672723943537,115.48768971926316L68.0209090492942,111.2750426322269L81.62509085915305,106.97547930113683L95.22927266901189,101.91207781228182L108.83345447887073,97.01292754101087L122.43763628872959,91.16008026719462L136.0418180985884,85.54609206764535L149.64599990844727,79.6496412255703L163.2501817183061,72.16423878253603L176.85436352816495,62.79861047847008L190.45854533802378,53.436188051764645L204.0627271478826,42.968113671781396L217.66690895774147,32.55983587387033L231.27109076760033,20.114474514129597L244.87527257745919,8.06193918559569L258.479454387318,-4.195408678431363" fill="none"></path></g><g><path style="fill: none;" stroke="rgb(51, 187, 238)" stroke-width="2px" d="M13.604181809858842,138.78217943580302L27.208363619717684,120.95413483711292L40.812545429576524,111.62305001311299L54.41672723943537,106.95007469263916L68.0209090492942,99.43558906349315L81.62509085915305,94.88004945472446L95.22927266901189,90.17616680998104L108.83345447887073,86.58396001661816L122.43763628872959,81.61105032501678L136.0418180985884,75.70156386441158L149.64599990844727,71.35000047530285L163.2501817183061,64.92931293153829L176.85436352816495,59.32116076204228L190.45854533802378,52.95680939208364L204.0627271478826,48.34471544016125L217.66690895774147,41.325613616460174L231.27109076760033,35.359215257381294L244.87527257745919,29.268763383047826L258.479454387318,24.476710020500832L272.0836361971768,16.993901368601342" fill="none"></path></g><g><path style="fill: none;" stroke="rgb(0, 119, 187)" stroke-width="2px" d="M13.604181809858842,142.89895776020168L27.208363619717684,133.89738137447353L40.812545429576524,126.06030357839353L54.41672723943537,121.10768060600634L68.0209090492942,116.82918576762671L81.62509085915305,112.40811120020972L95.22927266901189,107.48680158948939L108.83345447887073,103.50970467494538L122.43763628872959,97.804858032433L136.0418180985884,92.30557842774154L149.64599990844727,85.7444686073788L163.2501817183061,78.19860295370968L176.85436352816495,70.19122428583933L190.45854533802378,60.95913380339698L204.0627271478826,50.21592969507746L217.66690895774147,39.83102025841805L231.27109076760033,28.293000975077888L244.87527257745919,16.457422942397187L258.479454387318,4.232715636902668L272.0836361971768,-7.330623411299911" fill="none"></path></g><g><path style="fill: none;" stroke="rgb(187, 187, 187)" stroke-width="2px" d="M13.604181809858842,139.93068651527147L27.208363619717684,122.08968508142681L40.812545429576524,114.34849422876337L54.41672723943537,107.76021626434171L68.0209090492942,103.37743647772069L81.62509085915305,99.4964825525639L95.22927266901189,95.77754360917639L108.83345447887073,93.78115469096835L122.43763628872959,88.71708051329101L136.0418180985884,83.46331414797396L149.64599990844727,79.88427023859413L163.2501817183061,75.33877248008321L176.85436352816495,70.55731245142312L190.45854533802378,66.37575752657612L204.0627271478826,61.12351228643392L217.66690895774147,56.34033114403019L231.27109076760033,50.33014134864307L244.87527257745919,46.41849826856449L258.479454387318,41.720694064260755L272.0836361971768,35.43164748084604" fill="none"></path></g></g></g></g></g></g><g transform="translate(30, 177)" clip-path="url(#clip_1)"><clipPath id="clip_1"><rect width="299" height="22"></rect></clipPath><g><g><line x1="0" y1="0" x2="0" y2="5" style="visibility: inherit;" fill="rgb(0, 0, 0)" stroke="rgb(204, 204, 204)" stroke-width="1px"></line><line x1="27.208363619717684" y1="0" x2="27.208363619717684" y2="5" style="visibility: inherit;" fill="rgb(0, 0, 0)" stroke="rgb(204, 204, 204)" stroke-width="1px"></line><line x1="54.41672723943537" y1="0" x2="54.41672723943537" y2="5" style="visibility: inherit;" fill="rgb(0, 0, 0)" stroke="rgb(204, 204, 204)" stroke-width="1px"></line><line x1="81.62509085915305" y1="0" x2="81.62509085915305" y2="5" style="visibility: inherit;" fill="rgb(0, 0, 0)" stroke="rgb(204, 204, 204)" stroke-width="1px"></line><line x1="108.83345447887073" y1="0" x2="108.83345447887073" y2="5" style="visibility: inherit;" fill="rgb(0, 0, 0)" stroke="rgb(204, 204, 204)" stroke-width="1px"></line><line x1="136.0418180985884" y1="0" x2="136.0418180985884" y2="5" style="visibility: inherit;" fill="rgb(0, 0, 0)" stroke="rgb(204, 204, 204)" stroke-width="1px"></line><line x1="163.2501817183061" y1="0" x2="163.2501817183061" y2="5" style="visibility: inherit;" fill="rgb(0, 0, 0)" stroke="rgb(204, 204, 204)" stroke-width="1px"></line><line x1="190.45854533802378" y1="0" x2="190.45854533802378" y2="5" style="visibility: inherit;" fill="rgb(0, 0, 0)" stroke="rgb(204, 204, 204)" stroke-width="1px"></line><line x1="217.66690895774147" y1="0" x2="217.66690895774147" y2="5" style="visibility: inherit;" fill="rgb(0, 0, 0)" stroke="rgb(204, 204, 204)" stroke-width="1px"></line><line x1="244.87527257745919" y1="0" x2="244.87527257745919" y2="5" style="visibility: inherit;" fill="rgb(0, 0, 0)" stroke="rgb(204, 204, 204)" stroke-width="1px"></line><line x1="272.0836361971768" y1="0" x2="272.0836361971768" y2="5" style="visibility: inherit;" fill="rgb(0, 0, 0)" stroke="rgb(204, 204, 204)" stroke-width="1px"></line><line x1="299.29199981689453" y1="0" x2="299.29199981689453" y2="5" style="visibility: inherit;" fill="rgb(0, 0, 0)" stroke="rgb(204, 204, 204)" stroke-width="1px"></line></g><g transform="translate(0, 8)"><text style="text-anchor: middle; visibility: hidden; font-family: &quot;Helvetica Neue&quot;, sans-serif; font-size: 12px; font-weight: 200;" x="0" y="0" dx="0em" dy="0.95em" fill="rgb(50, 49, 63)" stroke="none" stroke-width="1px">0</text><text style="text-anchor: middle; visibility: inherit; font-family: &quot;Helvetica Neue&quot;, sans-serif; font-size: 12px; font-weight: 200;" x="27.208363619717684" y="0" dx="0em" dy="0.95em" fill="rgb(50, 49, 63)" stroke="none" stroke-width="1px">2</text><text style="text-anchor: middle; visibility: inherit; font-family: &quot;Helvetica Neue&quot;, sans-serif; font-size: 12px; font-weight: 200;" x="54.41672723943537" y="0" dx="0em" dy="0.95em" fill="rgb(50, 49, 63)" stroke="none" stroke-width="1px">4</text><text style="text-anchor: middle; visibility: inherit; font-family: &quot;Helvetica Neue&quot;, sans-serif; font-size: 12px; font-weight: 200;" x="81.62509085915305" y="0" dx="0em" dy="0.95em" fill="rgb(50, 49, 63)" stroke="none" stroke-width="1px">6</text><text style="text-anchor: middle; visibility: inherit; font-family: &quot;Helvetica Neue&quot;, sans-serif; font-size: 12px; font-weight: 200;" x="108.83345447887073" y="0" dx="0em" dy="0.95em" fill="rgb(50, 49, 63)" stroke="none" stroke-width="1px">8</text><text style="text-anchor: middle; visibility: inherit; font-family: &quot;Helvetica Neue&quot;, sans-serif; font-size: 12px; font-weight: 200;" x="136.0418180985884" y="0" dx="0em" dy="0.95em" fill="rgb(50, 49, 63)" stroke="none" stroke-width="1px">10</text><text style="text-anchor: middle; visibility: inherit; font-family: &quot;Helvetica Neue&quot;, sans-serif; font-size: 12px; font-weight: 200;" x="163.2501817183061" y="0" dx="0em" dy="0.95em" fill="rgb(50, 49, 63)" stroke="none" stroke-width="1px">12</text><text style="text-anchor: middle; visibility: inherit; font-family: &quot;Helvetica Neue&quot;, sans-serif; font-size: 12px; font-weight: 200;" x="190.45854533802378" y="0" dx="0em" dy="0.95em" fill="rgb(50, 49, 63)" stroke="none" stroke-width="1px">14</text><text style="text-anchor: middle; visibility: inherit; font-family: &quot;Helvetica Neue&quot;, sans-serif; font-size: 12px; font-weight: 200;" x="217.66690895774147" y="0" dx="0em" dy="0.95em" fill="rgb(50, 49, 63)" stroke="none" stroke-width="1px">16</text><text style="text-anchor: middle; visibility: inherit; font-family: &quot;Helvetica Neue&quot;, sans-serif; font-size: 12px; font-weight: 200;" x="244.87527257745919" y="0" dx="0em" dy="0.95em" fill="rgb(50, 49, 63)" stroke="none" stroke-width="1px">18</text><text style="text-anchor: middle; visibility: inherit; font-family: &quot;Helvetica Neue&quot;, sans-serif; font-size: 12px; font-weight: 200;" x="272.0836361971768" y="0" dx="0em" dy="0.95em" fill="rgb(50, 49, 63)" stroke="none" stroke-width="1px">20</text><text style="text-anchor: middle; visibility: hidden; font-family: &quot;Helvetica Neue&quot;, sans-serif; font-size: 12px; font-weight: 200;" x="299.29199981689453" y="0" dx="0em" dy="0.95em" fill="rgb(50, 49, 63)" stroke="none" stroke-width="1px">22</text></g><line x1="0" y1="0" x2="299.29199981689453" y2="0" fill="rgb(0, 0, 0)" stroke="rgb(204, 204, 204)" stroke-width="1px"></line></g></g></g></g></svg>