<svg viewBox="0 0 330 200" xmlns="http://www.w3.org/2000/svg"><g><g><g><g><g><line x1="41.0620002746582" y1="177.92999935150146" x2="36.0620002746582" y2="177.92999935150146" style="visibility: inherit;" fill="rgb(0, 0, 0)" stroke="rgb(204, 204, 204)" stroke-width="1px"></line><line x1="41.0620002746582" y1="164.2430763244629" x2="36.0620002746582" y2="164.2430763244629" style="visibility: inherit;" fill="rgb(0, 0, 0)" stroke="rgb(204, 204, 204)" stroke-width="1px"></line><line x1="41.0620002746582" y1="150.55615329742432" x2="36.0620002746582" y2="150.55615329742432" style="visibility: inherit;" fill="rgb(0, 0, 0)" stroke="rgb(204, 204, 204)" stroke-width="1px"></line><line x1="41.0620002746582" y1="136.86923027038574" x2="36.0620002746582" y2="136.86923027038574" style="visibility: inherit;" fill="rgb(0, 0, 0)" stroke="rgb(204, 204, 204)" stroke-width="1px"></line><line x1="41.0620002746582" y1="123.18230724334717" x2="36.0620002746582" y2="123.18230724334717" style="visibility: inherit;" fill="rgb(0, 0, 0)" stroke="rgb(204, 204, 204)" stroke-width="1px"></line><line x1="41.0620002746582" y1="109.4953842163086" x2="36.0620002746582" y2="109.4953842163086" style="visibility: inherit;" fill="rgb(0, 0, 0)" stroke="rgb(204, 204, 204)" stroke-width="1px"></line><line x1="41.0620002746582" y1="95.80846118927002" x2="36.0620002746582" y2="95.80846118927002" style="visibility: inherit;" fill="rgb(0, 0, 0)" stroke="rgb(204, 204, 204)" stroke-width="1px"></line><line x1="41.0620002746582" y1="82.12153816223145" x2="36.0620002746582" y2="82.12153816223145" style="visibility: inherit;" fill="rgb(0, 0, 0)" stroke="rgb(204, 204, 204)" stroke-width="1px"></line><line x1="41.0620002746582" y1="68.43461513519287" x2="36.0620002746582" y2="68.43461513519287" style="visibility: inherit;" fill="rgb(0, 0, 0)" stroke="rgb(204, 204, 204)" stroke-width="1px"></line><line x1="41.0620002746582" y1="54.7476921081543" x2="36.0620002746582" y2="54.7476921081543" style="visibility: inherit;" fill="rgb(0, 0, 0)" stroke="rgb(204, 204, 204)" stroke-width="1px"></line><line x1="41.0620002746582" y1="41.06076908111572" x2="36.0620002746582" y2="41.06076908111572" style="visibility: inherit;" fill="rgb(0, 0, 0)" stroke="rgb(204, 204, 204)" stroke-width="1px"></line><line x1="41.0620002746582" y1="27.37384605407715" x2="36.0620002746582" y2="27.37384605407715" style="visibility: inherit;" fill="rgb(0, 0, 0)" stroke="rgb(204, 204, 204)" stroke-width="1px"></line><line x1="41.0620002746582" y1="13.686923027038574" x2="36.0620002746582" y2="13.686923027038574" style="visibility: inherit;" fill="rgb(0, 0, 0)" stroke="rgb(204, 204, 204)" stroke-width="1px"></line><line x1="41.0620002746582" y1="0" x2="36.0620002746582" y2="0" style="visibility: inherit;" fill="rgb(0, 0, 0)" stroke="rgb(204, 204, 204)" stroke-width="1px"></line></g><g transform="translate(31.062000274658203, 0)"><text style="text-anchor: end; visibility: hidden; font-family: &quot;Helvetica Neue&quot;, sans-serif; font-size: 12px; font-weight: 200;" x="0" y="177.92999935150146" dx="0em" dy="0.3em" fill="rgb(50, 49, 63)" stroke="none" stroke-width="1px">-10</text><text style="text-anchor: end; visibility: inherit; font-family: &quot;Helvetica Neue&quot;, sans-serif; font-size: 12px; font-weight: 200;" x="0" y="164.2430763244629" dx="0em" dy="0.3em" fill="rgb(50, 49, 63)" stroke="none" stroke-width="1px">0</text><text style="text-anchor: end; visibility: hidden; font-family: &quot;Helvetica Neue&quot;, sans-serif; font-size: 12px; font-weight: 200;" x="0" y="150.55615329742432" dx="0em" dy="0.3em" fill="rgb(50, 49, 63)" stroke="none" stroke-width="1px">10</text><text style="text-anchor: end; visibility: inherit; font-family: &quot;Helvetica Neue&quot;, sans-serif; font-size: 12px; font-weight: 200;" x="0" y="136.86923027038574" dx="0em" dy="0.3em" fill="rgb(50, 49, 63)" stroke="none" stroke-width="1px">20</text><text style="text-anchor: end; visibility: hidden; font-family: &quot;Helvetica Neue&quot;, sans-serif; font-size: 12px; font-weight: 200;" x="0" y="123.18230724334717" dx="0em" dy="0.3em" fill="rgb(50, 49, 63)" stroke="none" stroke-width="1px">30</text><text style="text-anchor: end; visibility: inherit; font-family: &quot;Helvetica Neue&quot;, sans-serif; font-size: 12px; font-weight: 200;" x="0" y="109.4953842163086" dx="0em" dy="0.3em" fill="rgb(50, 49, 63)" stroke="none" stroke-width="1px">40</text><text style="text-anchor: end; visibility: hidden; font-family: &quot;Helvetica Neue&quot;, sans-serif; font-size: 12px; font-weight: 200;" x="0" y="95.80846118927002" dx="0em" dy="0.3em" fill="rgb(50, 49, 63)" stroke="none" stroke-width="1px">50</text><text style="text-anchor: end; visibility: inherit; font-family: &quot;Helvetica Neue&quot;, sans-serif; font-size: 12px; font-weight: 200;" x="0" y="82.12153816223145" dx="0em" dy="0.3em" fill="rgb(50, 49, 63)" stroke="none" stroke-width="1px">60</text><text style="text-anchor: end; visibility: hidden; font-family: &quot;Helvetica Neue&quot;, sans-serif; font-size: 12px; font-weight: 200;" x="0" y="68.43461513519287" dx="0em" dy="0.3em" fill="rgb(50, 49, 63)" stroke="none" stroke-width="1px">70</text><text style="text-anchor: end; visibility: inherit; font-family: &quot;Helvetica Neue&quot;, sans-serif; font-size: 12px; font-weight: 200;" x="0" y="54.7476921081543" dx="0em" dy="0.3em" fill="rgb(50, 49, 63)" stroke="none" stroke-width="1px">80</text><text style="text-anchor: end; visibility: hidden; font-family: &quot;Helvetica Neue&quot;, sans-serif; font-size: 12px; font-weight: 200;" x="0" y="41.06076908111572" dx="0em" dy="0.3em" fill="rgb(50, 49, 63)" stroke="none" stroke-width="1px">90</text><text style="text-anchor: end; visibility: inherit; font-family: &quot;Helvetica Neue&quot;, sans-serif; font-size: 12px; font-weight: 200;" x="0" y="27.37384605407715" dx="0em" dy="0.3em" fill="rgb(50, 49, 63)" stroke="none" stroke-width="1px">100</text><text style="text-anchor: end; visibility: hidden; font-family: &quot;Helvetica Neue&quot;, sans-serif; font-size: 12px; font-weight: 200;" x="0" y="13.686923027038574" dx="0em" dy="0.3em" fill="rgb(50, 49, 63)" stroke="none" stroke-width="1px">110</text><text style="text-anchor: end; visibility: hidden; font-family: &quot;Helvetica Neue&quot;, sans-serif; font-size: 12px; font-weight: 200;" x="0" y="0" dx="0em" dy="0.3em" fill="rgb(50, 49, 63)" stroke="none" stroke-width="1px">120</text></g><line x1="41.0620002746582" y1="0" x2="41.0620002746582" y2="177.92999935150146" fill="rgb(0, 0, 0)" stroke="rgb(204, 204, 204)" stroke-width="1px"></line></g></g><g transform="translate(41, 0)" clip-path="url(#clip_0)"><clipPath id="clip_0"><rect width="288" height="177"></rect></clipPath><g><g><g><line x1="0" y1="0" x2="0" y2="177.92999935150146" fill="rgb(0, 0, 0)" stroke="rgb(60, 60, 60)" stroke-width="1px" opacity="0.25"></line><line x1="24.07816664377848" y1="0" x2="24.07816664377848" y2="177.92999935150146" fill="rgb(0, 0, 0)" stroke="rgb(60, 60, 60)" stroke-width="1px" opacity="0.25"></line><line x1="48.15633328755696" y1="0" x2="48.15633328755696" y2="177.92999935150146" fill="rgb(0, 0, 0)" stroke="rgb(60, 60, 60)" stroke-width="1px" opacity="0.25"></line><line x1="72.23449993133545" y1="0" x2="72.23449993133545" y2="177.92999935150146" fill="rgb(0, 0, 0)" stroke="rgb(60, 60, 60)" stroke-width="1px" opacity="0.25"></line><line x1="96.31266657511392" y1="0" x2="96.31266657511392" y2="177.92999935150146" fill="rgb(0, 0, 0)" stroke="rgb(60, 60, 60)" stroke-width="1px" opacity="0.25"></line><line x1="120.39083321889242" y1="0" x2="120.39083321889242" y2="177.92999935150146" fill="rgb(0, 0, 0)" stroke="rgb(60, 60, 60)" stroke-width="1px" opacity="0.25"></line><line x1="144.4689998626709" y1="0" x2="144.4689998626709" y2="177.92999935150146" fill="rgb(0, 0, 0)" stroke="rgb(60, 60, 60)" stroke-width="1px" opacity="0.25"></line><line x1="168.5471665064494" y1="0" x2="168.5471665064494" y2="177.92999935150146" fill="rgb(0, 0, 0)" stroke="rgb(60, 60, 60)" stroke-width="1px" opacity="0.25"></line><line x1="192.62533315022785" y1="0" x2="192.62533315022785" y2="177.92999935150146" fill="rgb(0, 0, 0)" stroke="rgb(60, 60, 60)" stroke-width="1px" opacity="0.25"></line><line x1="216.70349979400635" y1="0" x2="216.70349979400635" y2="177.92999935150146" fill="rgb(0, 0, 0)" stroke="rgb(60, 60, 60)" stroke-width="1px" opacity="0.25"></line><line x1="240.78166643778485" y1="0" x2="240.78166643778485" y2="177.92999935150146" fill="rgb(0, 0, 0)" stroke="rgb(60, 60, 60)" stroke-width="1px" opacity="0.25"></line><line x1="264.8598330815633" y1="0" x2="264.8598330815633" y2="177.92999935150146" fill="rgb(0, 0, 0)" stroke="rgb(60, 60, 60)" stroke-width="1px" opacity="0.25"></line><line x1="288.9379997253418" y1="0" x2="288.9379997253418" y2="177.92999935150146" fill="rgb(0, 0, 0)" stroke="rgb(60, 60, 60)" stroke-width="1px" opacity="0.25"></line></g><g><line x1="0" y1="177.92999935150146" x2="288.9379997253418" y2="177.92999935150146" fill="rgb(0, 0, 0)" stroke="rgb(60, 60, 60)" stroke-width="1px" opacity="0.25"></line><line x1="0" y1="164.2430763244629" x2="288.9379997253418" y2="164.2430763244629" fill="rgb(0, 0, 0)" stroke="rgb(60, 60, 60)" stroke-width="1px" opacity="0.25"></line><line x1="0" y1="150.55615329742432" x2="288.9379997253418" y2="150.55615329742432" fill="rgb(0, 0, 0)" stroke="rgb(60, 60, 60)" stroke-width="1px" opacity="0.25"></line><line x1="0" y1="136.86923027038574" x2="288.9379997253418" y2="136.86923027038574" fill="rgb(0, 0, 0)" stroke="rgb(60, 60, 60)" stroke-width="1px" opacity="0.25"></line><line x1="0" y1="123.18230724334717" x2="288.9379997253418" y2="123.18230724334717" fill="rgb(0, 0, 0)" stroke="rgb(60, 60, 60)" stroke-width="1px" opacity="0.25"></line><line x1="0" y1="109.4953842163086" x2="288.9379997253418" y2="109.4953842163086" fill="rgb(0, 0, 0)" stroke="rgb(60, 60, 60)" stroke-width="1px" opacity="0.25"></line><line x1="0" y1="95.80846118927002" x2="288.9379997253418" y2="95.80846118927002" fill="rgb(0, 0, 0)" stroke="rgb(60, 60, 60)" stroke-width="1px" opacity="0.25"></line><line x1="0" y1="82.12153816223145" x2="288.9379997253418" y2="82.12153816223145" fill="rgb(0, 0, 0)" stroke="rgb(60, 60, 60)" stroke-width="1px" opacity="0.25"></line><line x1="0" y1="68.43461513519287" x2="288.9379997253418" y2="68.43461513519287" fill="rgb(0, 0, 0)" stroke="rgb(60, 60, 60)" stroke-width="1px" opacity="0.25"></line><line x1="0" y1="54.7476921081543" x2="288.9379997253418" y2="54.7476921081543" fill="rgb(0, 0, 0)" stroke="rgb(60, 60, 60)" stroke-width="1px" opacity="0.25"></line><line x1="0" y1="41.06076908111572" x2="288.9379997253418" y2="41.06076908111572" fill="rgb(0, 0, 0)" stroke="rgb(60, 60, 60)" stroke-width="1px" opacity="0.25"></line><line x1="0" y1="27.37384605407715" x2="288.9379997253418" y2="27.37384605407715" fill="rgb(0, 0, 0)" stroke="rgb(60, 60, 60)" stroke-width="1px" opacity="0.25"></line><line x1="0" y1="13.686923027038574" x2="288.9379997253418" y2="13.686923027038574" fill="rgb(0, 0, 0)" stroke="rgb(60, 60, 60)" stroke-width="1px" opacity="0.25"></line><line x1="0" y1="0" x2="288.9379997253418" y2="0" fill="rgb(0, 0, 0)" stroke="rgb(60, 60, 60)" stroke-width="1px" opacity="0.25"></line></g></g></g><g><g><line x1="0" y1="164.2430763244629" x2="288.9379997253418" y2="164.2430763244629" fill="rgb(0, 0, 0)" stroke="rgb(153, 153, 153)" stroke-width="1.5px"></line></g></g><g><g><line x1="24.07816664377848" y1="0" x2="24.07816664377848" y2="177.92999935150146" fill="rgb(0, 0, 0)" stroke="rgb(153, 153, 153)" stroke-width="1.5px"></line></g></g><g><g><g><g><g><path style="fill: none;" stroke="rgb(0, 119, 187)" stroke-width="2px" d="M24.07816664377848,164.2430763244629L26.485983308156328,164.2430763244629L28.893799972534183,164.2430763244629L31.30161663691203,164.2430763244629L33.70943330128988,164.2430763244629L36.117249965667725,164.2430763244629L38.52506663004557,164.2430763244629L40.93288329442342,164.2430763244629L43.34069995880127,164.2430763244629L45.748516623179114,164.2430763244629L48.15633328755696,164.2430763244629L50.56414995193481,164.2430763244629L52.971966616312656,164.2430763244629L55.37978328069052,164.2430763244629L57.787599945068365,164.2430763244629L60.19541660944621,164.2430763244629L62.60323327382406,164.2430763244629L65.01104993820191,164.2430763244629L67.41886660257975,164.2430763244629L69.8266832669576,164.2430763244629L72.23449993133545,164.2430763244629L74.64231659571331,164.2430763244629L77.05013326009114,163.75986881796481L79.457949924469,163.0925764031221L81.86576658884684,162.20899791360097L84.2735832532247,161.6374936954347L86.68139991760253,160.48493297815332L89.0892165819804,158.013930706123L91.49703324635823,154.92736628087383L93.90484991073609,143.1157665153592L96.31266657511392,137.37661935427514L98.72048323949178,125.48112592649503L101.12829990386962,117.08223845254498L103.53611656824748,109.89717773468436L105.94393323262531,98.57752239816686L108.35174989700317,84.83568324512986L110.75956656138104,72.54577411262397L113.16738322575887,63.429206193744335L115.57519989013673,52.74388281390594L117.98301655451456,46.99774594879864L120.39083321889242,44.66356736800273L122.79864988327026,39.80829004544816L125.20646654764812,38.175545160485115L127.61428321202595,37.198918141109715L130.02209987640381,34.9024190582642L132.42991654078165,33.90458985623076L134.8377332051595,32.439081722755105L137.24554986953734,33.4399243306361L139.6533665339152,32.160282407435915L142.06118319829304,33.27264474143112L144.4689998626709,31.617341014036924L146.87681652704873,29.919943030048074L149.28463319142662,29.970519424596944L151.69244985580445,28.931850076387974L154.1002665201823,28.308648467463257L156.50808318456012,28.634382055833328L158.915899848938,28.834383402686342L161.32371651331584,28.250168463242574L163.73153317769368,27.89963949957638L166.1393498420715,27.689322121376676L168.5471665064494,27.56313169445687L170.95498317082723,27.487417438305016L173.36279983520507,27.441988884613863L175.7706164995829,27.414731752399177L178.1784331639608,27.398377473070354L180.58624982833862,27.38856490547309L182.99406649271646,27.382677364914713L185.40188315709435,27.86588102842785L187.80969982147218,27.669067038687587L190.21751648585,27.55097864484341L192.62533315022785,27.480125608536895L195.03314981460574,27.43761378675299L197.44096647898357,27.41210669368266L199.8487831433614,27.396802437840478L202.25659980773924,28.329481348938714L204.66441647211713,27.947227230994088L207.07223313649496,27.717874760227318L209.4800498008728,27.580263277767244L211.88786646525062,27.497696388291217L214.29568312962851,27.448156254605607L216.70349979400635,27.418432174394212L219.11131645838418,27.400597726267392L221.51913312276207,28.458912242328466L223.9269497871399,28.02488576702794L226.33476645151774,27.764469881847617L228.74258311589557,27.60822035073943L231.15039978027346,27.514470632074534L233.5582164446513,27.45822080087558L235.96603310902913,27.4244709021562L238.37384977340696,27.404220962924597L240.78166643778485,27.392070999385624L243.18948310216268,27.384781021262228L245.59729976654052,27.380407034388185L248.00511643091835,28.171467961120214L250.41293309529624,27.85241919830301L252.82074975967407,27.660989940612666L255.2285664240519,27.546132385998447L257.6363830884298,27.477217853229945L260.04419975280763,27.435869133568815L262.45201641718546,27.41105990177215" fill="none"></path></g><g><path style="fill: none;" stroke="rgb(187, 187, 187)" stroke-width="2px" d="M24.07816664377848,164.2430763244629L26.485983308156328,164.2430763244629L28.893799972534183,164.2430763244629L31.30161663691203,164.2430763244629L33.70943330128988,164.2430763244629L36.117249965667725,164.2430763244629L38.52506663004557,164.2430763244629L40.93288329442342,164.2430763244629L43.34069995880127,164.2430763244629L45.748516623179114,164.2430763244629L48.15633328755696,164.2430763244629L50.56414995193481,164.2430763244629L52.971966616312656,164.2430763244629L55.37978328069052,164.2430763244629L57.787599945068365,164.2430763244629L60.19541660944621,164.2430763244629L62.60323327382406,164.2430763244629L65.01104993820191,164.2430763244629L67.41886660257975,163.801006574094L69.8266832669576,162.7099398546049L72.23449993133545,161.06958410992743L74.64231659571331,161.6582272358001L77.05013326009114,159.6013022161013L79.457949924469,156.50638167038753L81.86576658884684,154.922385917101L84.2735832532247,152.22135872872443L86.68139991760253,147.71505478597692L89.0892165819804,138.56841700833033L91.49703324635823,128.74732308510016L93.90484991073609,117.698321819529L96.31266657511392,113.28212944678714L98.72048323949178,99.80696297779296L101.12829990386962,88.28152678303579L103.53611656824748,79.1328676058406L105.94393323262531,69.20527137848794L108.35174989700317,62.9799959427359L110.75956656138104,56.73547655457152L113.16738322575887,51.39750141574166L115.57519989013673,46.804629868263675L117.98301655451456,44.46288541005444L120.39083321889242,40.369219640536386L122.79864988327026,35.68973892528359L125.20646654764812,35.0800530485088L127.61428321202595,32.51623897187477L130.02209987640381,35.69681045984407L132.42991654078165,32.854360885208195L134.8377332051595,31.974513170079547L137.24554986953734,31.721930230192868L139.6533665339152,30.50136528131293L142.06118319829304,30.044042909271354L144.4689998626709,28.975964167188494L146.87681652704873,29.128802240800866L149.28463319142662,28.42681976611013L151.69244985580445,28.005630281296504L154.1002665201823,27.752916590408603L156.50808318456012,27.60128837587598L158.915899848938,27.99704763500469L161.32371651331584,27.747767002633623L163.73153317769368,27.598198623211005L166.1393498420715,27.995193783405625L168.5471665064494,28.815669876611423L170.95498317082723,28.23894034759769L173.36279983520507,27.892902630189468L175.7706164995829,27.68527999974455L178.1784331639608,27.56070642147759L180.58624982833862,27.48596227451742L182.99406649271646,27.4411157863413L185.40188315709435,27.414207893435645L187.80969982147218,27.398063157692263L190.21751648585,27.388376316246223L192.62533315022785,27.382564211378593L195.03314981460574,27.37907694845802L197.44096647898357,27.37698459070566L199.8487831433614,27.37572917605425L202.25659980773924,27.37497592726342L204.66441647211713,27.37452397798893L207.07223313649496,27.374252808424217L209.4800498008728,27.3740901066854L211.88786646525062,27.373992485642106L214.29568312962851,27.373933913016117L216.70349979400635,27.373898769440558L219.11131645838418,27.373877683295177L221.51913312276207,27.373865031607977L223.9269497871399,27.373857440595657L226.33476645151774,27.373852885988242L228.74258311589557,27.3738501532238L231.15039978027346,27.37384851356515L233.5582164446513,27.37384752976996L235.96603310902913,27.373846939492836L238.37384977340696,27.373846585326532L240.78166643778485,27.37384637282679L243.18948310216268,27.373846245326916L245.59729976654052,28.07806191638244L248.00511643091835,27.796375571460317L250.41293309529624,27.627363764507038L252.82074975967407,27.52595668033507L255.2285664240519,27.46511242983189L257.6363830884298,27.428605879529982L260.04419975280763,27.406701949348843L262.45201641718546,27.393559591240177" fill="none"></path></g><g><path style="fill: none;" stroke="rgb(238, 51, 119)" stroke-width="2px" d="M24.07816664377848,164.2430763244629L26.485983308156328,164.2430763244629L28.893799972534183,164.2430763244629L31.30161663691203,163.69952136724473L33.70943330128988,163.42227439045408L36.117249965667725,163.76666295701926L38.52506663004557,163.96271654985307L40.93288329442342,164.0767762242375L43.34069995880127,164.1439734576177L45.748516623179114,164.1838557573714L48.15633328755696,164.20763023732133L50.56414995193481,164.2218396028739L52.971966616312656,164.23034540067172L55.37978328069052,164.23544176391064L57.787599945068365,164.23849702466927L60.19541660944621,164.24032926148087L62.60323327382406,164.24142827269955L65.01104993820191,164.2420875603621L67.41886660257975,164.24248309010443L69.8266832669576,164.24272039252395L72.23449993133545,164.24286276842284L74.64231659571331,164.24294819196322L77.05013326009114,163.53447620376141L79.457949924469,163.10939659166843L81.86576658884684,162.7090026329085L84.2735832532247,162.445977228975L86.68139991760253,162.28127570463758L89.0892165819804,159.6809468541551L91.49703324635823,156.4181804402712L93.90484991073609,153.4258375983445L96.31266657511392,147.48134357300538L98.72048323949178,140.65598037002707L101.12829990386962,133.44746173870345L103.53611656824748,120.06341754392929L105.94393323262531,107.12246504489016L108.35174989700317,92.74166476798277L110.75956656138104,81.35664055406153L113.16738322575887,74.46357796218324L115.57519989013673,66.21382343214846L117.98301655451456,60.580251111238894L120.39083321889242,55.10830329713292L122.79864988327026,52.82017241233241L125.20646654764812,50.28131155879929L127.61428321202595,48.16349438956317L130.02209987640381,47.77960542742031L132.42991654078165,47.383486020527585L134.8377332051595,45.74108363008523L137.24554986953734,44.29383385120906L139.6533665339152,44.21916930277129L142.06118319829304,42.93811161495759L144.4689998626709,42.76397348284391L146.87681652704873,41.27130880415075L149.28463319142662,40.375709996937616L151.69244985580445,40.63203603146803L154.1002665201823,40.58664281389454L156.50808318456012,40.952997812561364L158.915899848938,41.87201425840374L161.32371651331584,41.67799473409454L163.73153317769368,41.28625315342828L166.1393498420715,39.31566142156845L168.5471665064494,38.44327124784371L170.95498317082723,37.71066547266528L173.36279983520507,35.835909002488165L175.7706164995829,34.71105512038193L178.1784331639608,34.03614279111818L180.58624982833862,32.56218020862275L182.99406649271646,32.74681784406269L185.40188315709435,31.788585240389466L187.80969982147218,31.213645678185543L190.21751648585,31.662367259719645L192.62533315022785,31.137914889783616L195.03314981460574,30.82324346782201L197.44096647898357,30.634440614645058L199.8487831433614,31.590174087676075L202.25659980773924,30.607858621791934L204.66441647211713,31.662838195192535L207.07223313649496,31.016256523683552L209.4800498008728,29.559292335841008L211.88786646525062,29.389329570690904L214.29568312962851,29.287351911600837L216.70349979400635,29.59096475352854L219.11131645838418,29.190853461596106L221.51913312276207,28.464050498588534L223.9269497871399,28.027968720784003L226.33476645151774,28.83533483903841L228.74258311589557,28.2507393250539L231.15039978027346,27.899982016663216L233.5582164446513,27.689527631628806L235.96603310902913,27.563255000608137L238.37384977340696,27.48749142199577L240.78166643778485,27.928769462676456L243.18948310216268,27.706800099236744L245.59729976654052,29.346849413665495L248.00511643091835,28.55764806983015L250.41293309529624,28.084127263528956L252.82074975967407,28.28675096759636L255.2285664240519,27.921589002188682L257.6363830884298,27.70249182294407L260.04419975280763,27.571033515397318L262.45201641718546,27.49215853086926" fill="none"></path></g><g><path style="fill: none;" stroke="rgb(204, 51, 17)" stroke-width="2px" d="M24.07816664377848,164.2430763244629L26.485983308156328,164.2430763244629L28.893799972534183,164.2430763244629L31.30161663691203,164.2430763244629L33.70943330128988,164.2430763244629L36.117249965667725,164.2430763244629L38.52506663004557,164.2430763244629L40.93288329442342,164.2430763244629L43.34069995880127,164.2430763244629L45.748516623179114,164.2430763244629L48.15633328755696,164.2430763244629L50.56414995193481,164.2430763244629L52.971966616312656,164.2430763244629L55.37978328069052,164.2430763244629L57.787599945068365,164.2430763244629L60.19541660944621,164.2430763244629L62.60323327382406,164.2430763244629L65.01104993820191,163.88717993293332L67.41886660257975,164.0295471648311L69.8266832669576,163.77254231859885L72.23449993133545,162.94185531204988L74.64231659571331,163.04440156680633L77.05013326009114,162.3979508609992L79.457949924469,160.0632798367474L81.86576658884684,159.5672148904591L84.2735832532247,157.03116726492883L86.68139991760253,153.68088304836164L89.0892165819804,144.7550049887263L91.49703324635823,133.26666295550726L93.90484991073609,124.696786449601L96.31266657511392,120.53813957837019L98.72048323949178,109.6047488150679L101.12829990386962,96.36812510979738L103.53611656824748,85.62478040741797L105.94393323262531,82.10158851092604L108.35174989700317,79.37065498609392L110.75956656138104,71.39166367919773L113.16738322575887,62.87388901965005L115.57519989013673,56.478843016875956L117.98301655451456,51.28405411271936L120.39083321889242,46.99208441687912L122.79864988327026,44.35768644317727L125.20646654764812,44.420468352917084L127.61428321202595,44.94921350388992L130.02209987640381,41.026697266672244L132.42991654078165,38.673187524602554L134.8377332051595,37.62588111685008L137.24554986953734,36.14596164697468L139.6533665339152,35.25800996507073L142.06118319829304,34.02102320837486L144.4689998626709,32.91403171698025L146.87681652704873,30.970267406593848L149.28463319142662,31.17304780721838L151.69244985580445,30.5010307287356L154.1002665201823,31.166835666584205L156.50808318456012,29.64963982158082L158.915899848938,28.73932231457917L161.32371651331584,28.46544176515883L163.73153317769368,29.739326351876997L166.1393498420715,28.79313423275704L168.5471665064494,28.712155149133224L170.95498317082723,29.24584669604795L173.36279983520507,28.497046439259606L175.7706164995829,28.04776628518667L178.1784331639608,27.778198192742877L180.58624982833862,27.616457337276557L182.99406649271646,28.58842800893396L185.40188315709435,28.10259522699127L187.80969982147218,27.811095557825638L190.21751648585,27.63619575632623L192.62533315022785,28.10660954342049L195.03314981460574,27.813504147683176L197.44096647898357,27.637640910240748L199.8487831433614,27.532122967775337L202.25659980773924,27.46881220229608L204.66441647211713,27.917561930856664L207.07223313649496,28.64193704474843L209.4800498008728,28.621436836328087L211.88786646525062,28.1224005234277L214.29568312962851,27.822978735687457L216.70349979400635,27.643325663043328L219.11131645838418,27.535533819456873L221.51913312276207,27.470858713305006L223.9269497871399,27.432053649613863L226.33476645151774,27.408770611399177L228.74258311589557,27.394800788470377L231.15039978027346,27.386418894713074L233.5582164446513,27.38138975845871L235.96603310902913,31.02821702494387L238.37384977340696,29.566468636597193L240.78166643778485,28.689419603589187L243.18948310216268,28.163190183784394L245.59729976654052,27.847452531901496L248.00511643091835,27.658009940771734L250.41293309529624,27.54434438609391L252.82074975967407,27.476145053287212L255.2285664240519,27.43522545360318L257.6363830884298,27.410673693792774L260.04419975280763,27.3959426379065L262.45201641718546,27.387104004374777" fill="none"></path></g></g></g></g><g opacity="0.2"><g><g><g><path style="fill: none;" stroke="rgb(0, 119, 187)" stroke-width="2px" d="M24.07816664377848,164.2430763244629L26.485983308156328,164.2430763244629L28.893799972534183,164.2430763244629L31.30161663691203,164.2430763244629L33.70943330128988,164.2430763244629L36.117249965667725,164.2430763244629L38.52506663004557,164.2430763244629L40.93288329442342,164.2430763244629L43.34069995880127,164.2430763244629L45.748516623179114,164.2430763244629L48.15633328755696,164.2430763244629L50.56414995193481,164.2430763244629L52.971966616312656,164.2430763244629L55.37978328069052,164.2430763244629L57.787599945068365,164.2430763244629L60.19541660944621,164.2430763244629L62.60323327382406,164.2430763244629L65.01104993820191,164.2430763244629L67.41886660257975,164.2430763244629L69.8266832669576,164.2430763244629L72.23449993133545,164.2430763244629L74.64231659571331,164.2430763244629L77.05013326009114,163.03506709830702L79.457949924469,162.09164568557287L81.86576658884684,160.883636459417L84.2735832532247,160.78023980538973L86.68139991760253,158.75609485131827L89.0892165819804,154.30743109164806L91.49703324635823,150.29752248616214L93.90484991073609,125.3983733951789L96.31266657511392,128.76790051581264L98.72048323949178,107.6378881516299L101.12829990386962,104.48390824427842L103.53611656824748,99.11958717254457L105.94393323262531,81.59803987987287L108.35174989700317,64.22292486992228L110.75956656138104,54.11091060401013L113.16738322575887,49.75435440005387L115.57519989013673,36.71589780366341L117.98301655451456,38.37854067034061L120.39083321889242,41.16229950148917L122.79864988327026,32.52537406745759L125.20646654764812,35.726427834219066L127.61428321202595,35.7339776124696L130.02209987640381,31.45767043459273L132.42991654078165,32.4078460533361L134.8377332051595,30.240819522678805L137.24554986953734,34.94118824240141L139.6533665339152,30.240819522678805L142.06118319829304,34.94118824240141L144.4689998626709,29.13438542296572L146.87681652704873,27.37384605407715L149.28463319142662,30.046384016420063L151.69244985580445,27.37384605407715L154.1002665201823,27.37384605407715L156.50808318456012,29.122982438388135L158.915899848938,29.13438542296572L161.32371651331584,27.37384605407715L163.73153317769368,27.37384605407715L166.1393498420715,27.37384605407715L168.5471665064494,27.37384605407715L170.95498317082723,27.37384605407715L173.36279983520507,27.37384605407715L175.7706164995829,27.37384605407715L178.1784331639608,27.37384605407715L180.58624982833862,27.37384605407715L182.99406649271646,27.37384605407715L185.40188315709435,28.590686523697514L187.80969982147218,27.37384605407715L190.21751648585,27.37384605407715L192.62533315022785,27.37384605407715L195.03314981460574,27.37384605407715L197.44096647898357,27.37384605407715L199.8487831433614,27.37384605407715L202.25659980773924,29.728499715586054L204.66441647211713,27.37384605407715L207.07223313649496,27.37384605407715L209.4800498008728,27.37384605407715L211.88786646525062,27.37384605407715L214.29568312962851,27.37384605407715L216.70349979400635,27.37384605407715L219.11131645838418,27.37384605407715L221.51913312276207,30.046384016420063L223.9269497871399,27.37384605407715L226.33476645151774,27.37384605407715L228.74258311589557,27.37384605407715L231.15039978027346,27.37384605407715L233.5582164446513,27.37384605407715L235.96603310902913,27.37384605407715L238.37384977340696,27.37384605407715L240.78166643778485,27.37384605407715L243.18948310216268,27.37384605407715L245.59729976654052,27.37384605407715L248.00511643091835,29.35805935121826L250.41293309529624,27.37384605407715L252.82074975967407,27.37384605407715L255.2285664240519,27.37384605407715L257.6363830884298,27.37384605407715L260.04419975280763,27.37384605407715L262.45201641718546,27.37384605407715" fill="none"></path></g><g><path style="fill: none;" stroke="rgb(187, 187, 187)" stroke-width="2px" d="M24.07816664377848,164.2430763244629L26.485983308156328,164.2430763244629L28.893799972534183,164.2430763244629L31.30161663691203,164.2430763244629L33.70943330128988,164.2430763244629L36.117249965667725,164.2430763244629L38.52506663004557,164.2430763244629L40.93288329442342,164.2430763244629L43.34069995880127,164.2430763244629L45.748516623179114,164.2430763244629L48.15633328755696,164.2430763244629L50.56414995193481,164.2430763244629L52.971966616312656,164.2430763244629L55.37978328069052,164.2430763244629L57.787599945068365,164.2430763244629L60.19541660944621,164.2430763244629L62.60323327382406,164.2430763244629L65.01104993820191,164.2430763244629L67.41886660257975,163.1379692934177L69.8266832669576,161.07343950319108L72.23449993133545,158.60914045391874L74.64231659571331,162.54117255505633L77.05013326009114,156.51595529694941L79.457949924469,151.86403751410126L81.86576658884684,152.54640354553513L84.2735832532247,148.16982946480667L86.68139991760253,140.95561040225238L89.0892165819804,124.84847438410398L91.49703324635823,114.01569124687049L93.90484991073609,101.12482602778728L96.31266657511392,106.65784235213177L98.72048323949178,79.5942159554088L101.12829990386962,70.99337386680563L103.53611656824748,65.40987949534755L105.94393323262531,54.31387746411491L108.35174989700317,53.64208294963318L110.75956656138104,47.36869756893793L113.16738322575887,43.39053875704923L115.57519989013673,39.91532257262807L117.98301655451456,40.95026873056631L120.39083321889242,34.22872099446758L122.79864988327026,28.670517858034145L125.20646654764812,34.165524233786726L127.61428321202595,28.670517858034145L130.02209987640381,40.46766769097155L132.42991654078165,28.590686523697514L134.8377332051595,30.654741597468814L137.24554986953734,31.34305582037703L139.6533665339152,28.670517858034145L142.06118319829304,29.35805935121826L144.4689998626709,27.37384605407715L146.87681652704873,29.35805935121826L149.28463319142662,27.37384605407715L151.69244985580445,27.37384605407715L154.1002665201823,27.37384605407715L156.50808318456012,27.37384605407715L158.915899848938,28.590686523697514L161.32371651331584,27.37384605407715L163.73153317769368,27.37384605407715L166.1393498420715,28.590686523697514L168.5471665064494,30.046384016420063L170.95498317082723,27.37384605407715L173.36279983520507,27.37384605407715L175.7706164995829,27.37384605407715L178.1784331639608,27.37384605407715L180.58624982833862,27.37384605407715L182.99406649271646,27.37384605407715L185.40188315709435,27.37384605407715L187.80969982147218,27.37384605407715L190.21751648585,27.37384605407715L192.62533315022785,27.37384605407715L195.03314981460574,27.37384605407715L197.44096647898357,27.37384605407715L199.8487831433614,27.37384605407715L202.25659980773924,27.37384605407715L204.66441647211713,27.37384605407715L207.07223313649496,27.37384605407715L209.4800498008728,27.37384605407715L211.88786646525062,27.37384605407715L214.29568312962851,27.37384605407715L216.70349979400635,27.37384605407715L219.11131645838418,27.37384605407715L221.51913312276207,27.37384605407715L223.9269497871399,27.37384605407715L226.33476645151774,27.37384605407715L228.74258311589557,27.37384605407715L231.15039978027346,27.37384605407715L233.5582164446513,27.37384605407715L235.96603310902913,27.37384605407715L238.37384977340696,27.37384605407715L240.78166643778485,27.37384605407715L243.18948310216268,27.37384605407715L245.59729976654052,29.13438542296572L248.00511643091835,27.37384605407715L250.41293309529624,27.37384605407715L252.82074975967407,27.37384605407715L255.2285664240519,27.37384605407715L257.6363830884298,27.37384605407715L260.04419975280763,27.37384605407715L262.45201641718546,27.37384605407715" fill="none"></path></g><g><path style="fill: none;" stroke="rgb(238, 51, 119)" stroke-width="2px" d="M24.07816664377848,164.2430763244629L26.485983308156328,164.2430763244629L28.893799972534183,164.2430763244629L31.30161663691203,163.0603007375562L33.70943330128988,163.0603007375562L36.117249965667725,164.2430763244629L38.52506663004557,164.2430763244629L40.93288329442342,164.2430763244629L43.34069995880127,164.2430763244629L45.748516623179114,164.2430763244629L48.15633328755696,164.2430763244629L50.56414995193481,164.2430763244629L52.971966616312656,164.2430763244629L55.37978328069052,164.2430763244629L57.787599945068365,164.2430763244629L60.19541660944621,164.2430763244629L62.60323327382406,164.2430763244629L65.01104993820191,164.2430763244629L67.41886660257975,164.2430763244629L69.8266832669576,164.2430763244629L72.23449993133545,164.2430763244629L74.64231659571331,164.2430763244629L77.05013326009114,162.4717822090022L79.457949924469,162.4717822090022L81.86576658884684,162.1084145405975L84.2735832532247,162.051440244758L86.68139991760253,162.03422383955746L89.0892165819804,155.7804575705487L91.49703324635823,151.52403382491428L93.90484991073609,148.93732498927685L96.31266657511392,138.56460450625565L98.72048323949178,130.41793692357842L101.12829990386962,122.63468465227032L103.53611656824748,99.98735221043971L105.94393323262531,87.71103685249182L108.35174989700317,71.1704647234459L110.75956656138104,64.27910440932465L113.16738322575887,64.12398413835398L115.57519989013673,53.839191683045655L117.98301655451456,52.1298926487012L120.39083321889242,46.90038158694588L122.79864988327026,49.387976087884454L125.20646654764812,46.47302028033229L127.61428321202595,44.98676863662621L130.02209987640381,47.203771984305774L132.42991654078165,46.78930691025016L134.8377332051595,43.277480044575356L137.24554986953734,42.12295918297605L139.6533665339152,44.10717248011716L142.06118319829304,41.01652508326296L144.4689998626709,42.50276628467546L146.87681652704873,39.03231178612185L149.28463319142662,39.03231178612185L151.69244985580445,41.01652508326296L154.1002665201823,40.51855298753435L156.50808318456012,41.50253031056127L158.915899848938,43.25053892716676L161.32371651331584,41.386965447630786L163.73153317769368,40.69864078242898L166.1393498420715,36.359773823778966L168.5471665064494,37.13468598725669L170.95498317082723,36.611756809897656L173.36279983520507,33.02377429722256L175.7706164995829,33.02377429722256L178.1784331639608,33.02377429722256L180.58624982833862,30.351236334879644L182.99406649271646,33.02377429722256L185.40188315709435,30.351236334879644L187.80969982147218,30.351236334879644L190.21751648585,32.335449632020755L192.62533315022785,30.351236334879644L195.03314981460574,30.351236334879644L197.44096647898357,30.351236334879644L199.8487831433614,33.02377429722256L202.25659980773924,29.13438542296572L204.66441647211713,33.24530755529341L207.07223313649496,30.046384016420063L209.4800498008728,27.37384605407715L211.88786646525062,29.13438542296572L214.29568312962851,29.13438542296572L216.70349979400635,30.046384016420063L219.11131645838418,28.590686523697514L221.51913312276207,27.37384605407715L223.9269497871399,27.37384605407715L226.33476645151774,30.046384016420063L228.74258311589557,27.37384605407715L231.15039978027346,27.37384605407715L233.5582164446513,27.37384605407715L235.96603310902913,27.37384605407715L238.37384977340696,27.37384605407715L240.78166643778485,28.590686523697514L243.18948310216268,27.37384605407715L245.59729976654052,31.806923385308608L248.00511643091835,27.37384605407715L250.41293309529624,27.37384605407715L252.82074975967407,28.590686523697514L255.2285664240519,27.37384605407715L257.6363830884298,27.37384605407715L260.04419975280763,27.37384605407715L262.45201641718546,27.37384605407715" fill="none"></path></g><g><path style="fill: none;" stroke="rgb(204, 51, 17)" stroke-width="2px" d="M24.07816664377848,164.2430763244629L26.485983308156328,164.2430763244629L28.893799972534183,164.2430763244629L31.30161663691203,164.2430763244629L33.70943330128988,164.2430763244629L36.117249965667725,164.2430763244629L38.52506663004557,164.2430763244629L40.93288329442342,164.2430763244629L43.34069995880127,164.2430763244629L45.748516623179114,164.2430763244629L48.15633328755696,164.2430763244629L50.56414995193481,164.2430763244629L52.971966616312656,164.2430763244629L55.37978328069052,164.2430763244629L57.787599945068365,164.2430763244629L60.19541660944621,164.2430763244629L62.60323327382406,164.2430763244629L65.01104993820191,163.3534257076942L67.41886660257975,164.2430763244629L69.8266832669576,163.38705854051142L72.23449993133545,161.69587035907608L74.64231659571331,163.1982175746128L77.05013326009114,161.42828756533004L79.457949924469,156.56130095677372L81.86576658884684,158.82312099684398L84.2735832532247,153.22710664171808L86.68139991760253,148.65546529596995L89.0892165819804,131.36620160259864L91.49703324635823,116.0341604880654L93.90484991073609,111.84197642718209L96.31266657511392,114.30017065057655L98.72048323949178,93.20466484549324L101.12829990386962,76.51319113207863L103.53611656824748,69.50976412337259L105.94393323262531,76.81680081760352L108.35174989700317,75.27425476926584L110.75956656138104,59.42317684230149L113.16738322575887,50.09722710939896L115.57519989013673,46.88627404833389L117.98301655451456,43.49187077384485L120.39083321889242,40.55412988172466L122.79864988327026,40.40608948579393L125.20646654764812,44.5146412174814L127.61428321202595,45.742331230120186L130.02209987640381,35.14292291186504L132.42991654078165,35.14292291186504L134.8377332051595,36.054921505319356L137.24554986953734,33.92608244224465L139.6533665339152,33.92608244224465L142.06118319829304,32.165543073356105L144.4689998626709,31.253544479901763L146.87681652704873,28.05462094102839L149.28463319142662,31.4772184081543L151.69244985580445,29.49300511101319L154.1002665201823,32.165543073356105L156.50808318456012,27.37384605407715L158.915899848938,27.37384605407715L161.32371651331584,28.05462094102839L163.73153317769368,31.65015323195402L166.1393498420715,27.37384605407715L168.5471665064494,28.590686523697514L170.95498317082723,30.046384016420063L173.36279983520507,27.37384605407715L175.7706164995829,27.37384605407715L178.1784331639608,27.37384605407715L180.58624982833862,27.37384605407715L182.99406649271646,30.046384016420063L185.40188315709435,27.37384605407715L187.80969982147218,27.37384605407715L190.21751648585,27.37384605407715L192.62533315022785,28.81223022406195L195.03314981460574,27.37384605407715L197.44096647898357,27.37384605407715L199.8487831433614,27.37384605407715L202.25659980773924,27.37384605407715L204.66441647211713,28.590686523697514L207.07223313649496,29.728499715586054L209.4800498008728,28.590686523697514L211.88786646525062,27.37384605407715L214.29568312962851,27.37384605407715L216.70349979400635,27.37384605407715L219.11131645838418,27.37384605407715L221.51913312276207,27.37384605407715L223.9269497871399,27.37384605407715L226.33476645151774,27.37384605407715L228.74258311589557,27.37384605407715L231.15039978027346,27.37384605407715L233.5582164446513,27.37384605407715L235.96603310902913,36.49845792467167L238.37384977340696,27.37384605407715L240.78166643778485,27.37384605407715L243.18948310216268,27.37384605407715L245.59729976654052,27.37384605407715L248.00511643091835,27.37384605407715L250.41293309529624,27.37384605407715L252.82074975967407,27.37384605407715L255.2285664240519,27.37384605407715L257.6363830884298,27.37384605407715L260.04419975280763,27.37384605407715L262.45201641718546,27.37384605407715" fill="none"></path></g></g></g></g></g></g><g transform="translate(41, 177)" clip-path="url(#clip_1)"><clipPath id="clip_1"><rect width="288" height="22"></rect></clipPath><g><g><line x1="0" y1="0" x2="0" y2="5" style="visibility: inherit;" fill="rgb(0, 0, 0)" stroke="rgb(204, 204, 204)" stroke-width="1px"></line><line x1="24.07816664377848" y1="0" x2="24.07816664377848" y2="5" style="visibility: inherit;" fill="rgb(0, 0, 0)" stroke="rgb(204, 204, 204)" stroke-width="1px"></line><line x1="48.15633328755696" y1="0" x2="48.15633328755696" y2="5" style="visibility: inherit;" fill="rgb(0, 0, 0)" stroke="rgb(204, 204, 204)" stroke-width="1px"></line><line x1="72.23449993133545" y1="0" x2="72.23449993133545" y2="5" style="visibility: inherit;" fill="rgb(0, 0, 0)" stroke="rgb(204, 204, 204)" stroke-width="1px"></line><line x1="96.31266657511392" y1="0" x2="96.31266657511392" y2="5" style="visibility: inherit;" fill="rgb(0, 0, 0)" stroke="rgb(204, 204, 204)" stroke-width="1px"></line><line x1="120.39083321889242" y1="0" x2="120.39083321889242" y2="5" style="visibility: inherit;" fill="rgb(0, 0, 0)" stroke="rgb(204, 204, 204)" stroke-width="1px"></line><line x1="144.4689998626709" y1="0" x2="144.4689998626709" y2="5" style="visibility: inherit;" fill="rgb(0, 0, 0)" stroke="rgb(204, 204, 204)" stroke-width="1px"></line><line x1="168.5471665064494" y1="0" x2="168.5471665064494" y2="5" style="visibility: inherit;" fill="rgb(0, 0, 0)" stroke="rgb(204, 204, 204)" stroke-width="1px"></line><line x1="192.62533315022785" y1="0" x2="192.62533315022785" y2="5" style="visibility: inherit;" fill="rgb(0, 0, 0)" stroke="rgb(204, 204, 204)" stroke-width="1px"></line><line x1="216.70349979400635" y1="0" x2="216.70349979400635" y2="5" style="visibility: inherit;" fill="rgb(0, 0, 0)" stroke="rgb(204, 204, 204)" stroke-width="1px"></line><line x1="240.78166643778485" y1="0" x2="240.78166643778485" y2="5" style="visibility: inherit;" fill="rgb(0, 0, 0)" stroke="rgb(204, 204, 204)" stroke-width="1px"></line><line x1="264.8598330815633" y1="0" x2="264.8598330815633" y2="5" style="visibility: inherit;" fill="rgb(0, 0, 0)" stroke="rgb(204, 204, 204)" stroke-width="1px"></line><line x1="288.9379997253418" y1="0" x2="288.9379997253418" y2="5" style="visibility: inherit;" fill="rgb(0, 0, 0)" stroke="rgb(204, 204, 204)" stroke-width="1px"></line></g><g transform="translate(0, 8)"><text style="text-anchor: middle; visibility: hidden; font-family: &quot;Helvetica Neue&quot;, sans-serif; font-size: 12px; font-weight: 200;" x="0" y="0" dx="0em" dy="0.95em" fill="rgb(50, 49, 63)" stroke="none" stroke-width="1px">-10</text><text style="text-anchor: middle; visibility: inherit; font-family: &quot;Helvetica Neue&quot;, sans-serif; font-size: 12px; font-weight: 200;" x="24.07816664377848" y="0" dx="0em" dy="0.95em" fill="rgb(50, 49, 63)" stroke="none" stroke-width="1px">0</text><text style="text-anchor: middle; visibility: hidden; font-family: &quot;Helvetica Neue&quot;, sans-serif; font-size: 12px; font-weight: 200;" x="48.15633328755696" y="0" dx="0em" dy="0.95em" fill="rgb(50, 49, 63)" stroke="none" stroke-width="1px">10</text><text style="text-anchor: middle; visibility: inherit; font-family: &quot;Helvetica Neue&quot;, sans-serif; font-size: 12px; font-weight: 200;" x="72.23449993133545" y="0" dx="0em" dy="0.95em" fill="rgb(50, 49, 63)" stroke="none" stroke-width="1px">20</text><text style="text-anchor: middle; visibility: hidden; font-family: &quot;Helvetica Neue&quot;, sans-serif; font-size: 12px; font-weight: 200;" x="96.31266657511392" y="0" dx="0em" dy="0.95em" fill="rgb(50, 49, 63)" stroke="none" stroke-width="1px">30</text><text style="text-anchor: middle; visibility: inherit; font-family: &quot;Helvetica Neue&quot;, sans-serif; font-size: 12px; font-weight: 200;" x="120.39083321889242" y="0" dx="0em" dy="0.95em" fill="rgb(50, 49, 63)" stroke="none" stroke-width="1px">40</text><text style="text-anchor: middle; visibility: hidden; font-family: &quot;Helvetica Neue&quot;, sans-serif; font-size: 12px; font-weight: 200;" x="144.4689998626709" y="0" dx="0em" dy="0.95em" fill="rgb(50, 49, 63)" stroke="none" stroke-width="1px">50</text><text style="text-anchor: middle; visibility: inherit; font-family: &quot;Helvetica Neue&quot;, sans-serif; font-size: 12px; font-weight: 200;" x="168.5471665064494" y="0" dx="0em" dy="0.95em" fill="rgb(50, 49, 63)" stroke="none" stroke-width="1px">60</text><text style="text-anchor: middle; visibility: hidden; font-family: &quot;Helvetica Neue&quot;, sans-serif; font-size: 12px; font-weight: 200;" x="192.62533315022785" y="0" dx="0em" dy="0.95em" fill="rgb(50, 49, 63)" stroke="none" stroke-width="1px">70</text><text style="text-anchor: middle; visibility: inherit; font-family: &quot;Helvetica Neue&quot;, sans-serif; font-size: 12px; font-weight: 200;" x="216.70349979400635" y="0" dx="0em" dy="0.95em" fill="rgb(50, 49, 63)" stroke="none" stroke-width="1px">80</text><text style="text-anchor: middle; visibility: hidden; font-family: &quot;Helvetica Neue&quot;, sans-serif; font-size: 12px; font-weight: 200;" x="240.78166643778485" y="0" dx="0em" dy="0.95em" fill="rgb(50, 49, 63)" stroke="none" stroke-width="1px">90</text><text style="text-anchor: middle; visibility: inherit; font-family: &quot;Helvetica Neue&quot;, sans-serif; font-size: 12px; font-weight: 200;" x="264.8598330815633" y="0" dx="0em" dy="0.95em" fill="rgb(50, 49, 63)" stroke="none" stroke-width="1px">100</text><text style="text-anchor: middle; visibility: hidden; font-family: &quot;Helvetica Neue&quot;, sans-serif; font-size: 12px; font-weight: 200;" x="288.9379997253418" y="0" dx="0em" dy="0.95em" fill="rgb(50, 49, 63)" stroke="none" stroke-width="1px">110</text></g><line x1="0" y1="0" x2="288.9379997253418" y2="0" fill="rgb(0, 0, 0)" stroke="rgb(204, 204, 204)" stroke-width="1px"></line></g></g></g></g></svg>