<svg viewBox="0 0 330 200" xmlns="http://www.w3.org/2000/svg"><g><g><g><g><g><line x1="51.41600036621094" y1="177.92999935150146" x2="46.41600036621094" y2="177.92999935150146" style="visibility: inherit;" fill="rgb(0, 0, 0)" stroke="rgb(204, 204, 204)" stroke-width="1px"></line><line x1="51.41600036621094" y1="163.102499405543" x2="46.41600036621094" y2="163.102499405543" style="visibility: inherit;" fill="rgb(0, 0, 0)" stroke="rgb(204, 204, 204)" stroke-width="1px"></line><line x1="51.41600036621094" y1="148.27499945958456" x2="46.41600036621094" y2="148.27499945958456" style="visibility: inherit;" fill="rgb(0, 0, 0)" stroke="rgb(204, 204, 204)" stroke-width="1px"></line><line x1="51.41600036621094" y1="133.4474995136261" x2="46.41600036621094" y2="133.4474995136261" style="visibility: inherit;" fill="rgb(0, 0, 0)" stroke="rgb(204, 204, 204)" stroke-width="1px"></line><line x1="51.41600036621094" y1="118.61999956766765" x2="46.41600036621094" y2="118.61999956766765" style="visibility: inherit;" fill="rgb(0, 0, 0)" stroke="rgb(204, 204, 204)" stroke-width="1px"></line><line x1="51.41600036621094" y1="103.79249962170918" x2="46.41600036621094" y2="103.79249962170918" style="visibility: inherit;" fill="rgb(0, 0, 0)" stroke="rgb(204, 204, 204)" stroke-width="1px"></line><line x1="51.41600036621094" y1="88.96499967575073" x2="46.41600036621094" y2="88.96499967575073" style="visibility: inherit;" fill="rgb(0, 0, 0)" stroke="rgb(204, 204, 204)" stroke-width="1px"></line><line x1="51.41600036621094" y1="74.13749972979227" x2="46.41600036621094" y2="74.13749972979227" style="visibility: inherit;" fill="rgb(0, 0, 0)" stroke="rgb(204, 204, 204)" stroke-width="1px"></line><line x1="51.41600036621094" y1="59.30999978383383" x2="46.41600036621094" y2="59.30999978383383" style="visibility: inherit;" fill="rgb(0, 0, 0)" stroke="rgb(204, 204, 204)" stroke-width="1px"></line><line x1="51.41600036621094" y1="44.482499837875366" x2="46.41600036621094" y2="44.482499837875366" style="visibility: inherit;" fill="rgb(0, 0, 0)" stroke="rgb(204, 204, 204)" stroke-width="1px"></line><line x1="51.41600036621094" y1="29.6549998919169" x2="46.41600036621094" y2="29.6549998919169" style="visibility: inherit;" fill="rgb(0, 0, 0)" stroke="rgb(204, 204, 204)" stroke-width="1px"></line><line x1="51.41600036621094" y1="14.827499945958465" x2="46.41600036621094" y2="14.827499945958465" style="visibility: inherit;" fill="rgb(0, 0, 0)" stroke="rgb(204, 204, 204)" stroke-width="1px"></line><line x1="51.41600036621094" y1="0" x2="46.41600036621094" y2="0" style="visibility: inherit;" fill="rgb(0, 0, 0)" stroke="rgb(204, 204, 204)" stroke-width="1px"></line></g><g transform="translate(41.41600036621094, 0)"><text style="text-anchor: end; visibility: hidden; font-family: &quot;Helvetica Neue&quot;, sans-serif; font-size: 12px; font-weight: 200;" x="0" y="177.92999935150146" dx="0em" dy="0.3em" fill="rgb(50, 49, 63)" stroke="none" stroke-width="1px">-0.5</text><text style="text-anchor: end; visibility: inherit; font-family: &quot;Helvetica Neue&quot;, sans-serif; font-size: 12px; font-weight: 200;" x="0" y="163.102499405543" dx="0em" dy="0.3em" fill="rgb(50, 49, 63)" stroke="none" stroke-width="1px">0</text><text style="text-anchor: end; visibility: hidden; font-family: &quot;Helvetica Neue&quot;, sans-serif; font-size: 12px; font-weight: 200;" x="0" y="148.27499945958456" dx="0em" dy="0.3em" fill="rgb(50, 49, 63)" stroke="none" stroke-width="1px">0.5</text><text style="text-anchor: end; visibility: inherit; font-family: &quot;Helvetica Neue&quot;, sans-serif; font-size: 12px; font-weight: 200;" x="0" y="133.4474995136261" dx="0em" dy="0.3em" fill="rgb(50, 49, 63)" stroke="none" stroke-width="1px">1</text><text style="text-anchor: end; visibility: hidden; font-family: &quot;Helvetica Neue&quot;, sans-serif; font-size: 12px; font-weight: 200;" x="0" y="118.61999956766765" dx="0em" dy="0.3em" fill="rgb(50, 49, 63)" stroke="none" stroke-width="1px">1.5</text><text style="text-anchor: end; visibility: inherit; font-family: &quot;Helvetica Neue&quot;, sans-serif; font-size: 12px; font-weight: 200;" x="0" y="103.79249962170918" dx="0em" dy="0.3em" fill="rgb(50, 49, 63)" stroke="none" stroke-width="1px">2</text><text style="text-anchor: end; visibility: hidden; font-family: &quot;Helvetica Neue&quot;, sans-serif; font-size: 12px; font-weight: 200;" x="0" y="88.96499967575073" dx="0em" dy="0.3em" fill="rgb(50, 49, 63)" stroke="none" stroke-width="1px">2.5</text><text style="text-anchor: end; visibility: inherit; font-family: &quot;Helvetica Neue&quot;, sans-serif; font-size: 12px; font-weight: 200;" x="0" y="74.13749972979227" dx="0em" dy="0.3em" fill="rgb(50, 49, 63)" stroke="none" stroke-width="1px">3</text><text style="text-anchor: end; visibility: hidden; font-family: &quot;Helvetica Neue&quot;, sans-serif; font-size: 12px; font-weight: 200;" x="0" y="59.30999978383383" dx="0em" dy="0.3em" fill="rgb(50, 49, 63)" stroke="none" stroke-width="1px">3.5</text><text style="text-anchor: end; visibility: inherit; font-family: &quot;Helvetica Neue&quot;, sans-serif; font-size: 12px; font-weight: 200;" x="0" y="44.482499837875366" dx="0em" dy="0.3em" fill="rgb(50, 49, 63)" stroke="none" stroke-width="1px">4</text><text style="text-anchor: end; visibility: hidden; font-family: &quot;Helvetica Neue&quot;, sans-serif; font-size: 12px; font-weight: 200;" x="0" y="29.6549998919169" dx="0em" dy="0.3em" fill="rgb(50, 49, 63)" stroke="none" stroke-width="1px">4.5</text><text style="text-anchor: end; visibility: inherit; font-family: &quot;Helvetica Neue&quot;, sans-serif; font-size: 12px; font-weight: 200;" x="0" y="14.827499945958465" dx="0em" dy="0.3em" fill="rgb(50, 49, 63)" stroke="none" stroke-width="1px">5</text><text style="text-anchor: end; visibility: hidden; font-family: &quot;Helvetica Neue&quot;, sans-serif; font-size: 12px; font-weight: 200;" x="0" y="0" dx="0em" dy="0.3em" fill="rgb(50, 49, 63)" stroke="none" stroke-width="1px">5.5</text></g><line x1="51.41600036621094" y1="0" x2="51.41600036621094" y2="177.92999935150146" fill="rgb(0, 0, 0)" stroke="rgb(204, 204, 204)" stroke-width="1px"></line></g></g><g transform="translate(51, 0)" clip-path="url(#clip_0)"><clipPath id="clip_0"><rect width="278" height="177"></rect></clipPath><g><g><g><line x1="0" y1="0" x2="0" y2="177.92999935150146" fill="rgb(0, 0, 0)" stroke="rgb(60, 60, 60)" stroke-width="1px" opacity="0.25"></line><line x1="23.215333302815754" y1="0" x2="23.215333302815754" y2="177.92999935150146" fill="rgb(0, 0, 0)" stroke="rgb(60, 60, 60)" stroke-width="1px" opacity="0.25"></line><line x1="46.43066660563151" y1="0" x2="46.43066660563151" y2="177.92999935150146" fill="rgb(0, 0, 0)" stroke="rgb(60, 60, 60)" stroke-width="1px" opacity="0.25"></line><line x1="69.64599990844727" y1="0" x2="69.64599990844727" y2="177.92999935150146" fill="rgb(0, 0, 0)" stroke="rgb(60, 60, 60)" stroke-width="1px" opacity="0.25"></line><line x1="92.86133321126302" y1="0" x2="92.86133321126302" y2="177.92999935150146" fill="rgb(0, 0, 0)" stroke="rgb(60, 60, 60)" stroke-width="1px" opacity="0.25"></line><line x1="116.07666651407878" y1="0" x2="116.07666651407878" y2="177.92999935150146" fill="rgb(0, 0, 0)" stroke="rgb(60, 60, 60)" stroke-width="1px" opacity="0.25"></line><line x1="139.29199981689453" y1="0" x2="139.29199981689453" y2="177.92999935150146" fill="rgb(0, 0, 0)" stroke="rgb(60, 60, 60)" stroke-width="1px" opacity="0.25"></line><line x1="162.5073331197103" y1="0" x2="162.5073331197103" y2="177.92999935150146" fill="rgb(0, 0, 0)" stroke="rgb(60, 60, 60)" stroke-width="1px" opacity="0.25"></line><line x1="185.72266642252603" y1="0" x2="185.72266642252603" y2="177.92999935150146" fill="rgb(0, 0, 0)" stroke="rgb(60, 60, 60)" stroke-width="1px" opacity="0.25"></line><line x1="208.9379997253418" y1="0" x2="208.9379997253418" y2="177.92999935150146" fill="rgb(0, 0, 0)" stroke="rgb(60, 60, 60)" stroke-width="1px" opacity="0.25"></line><line x1="232.15333302815756" y1="0" x2="232.15333302815756" y2="177.92999935150146" fill="rgb(0, 0, 0)" stroke="rgb(60, 60, 60)" stroke-width="1px" opacity="0.25"></line><line x1="255.3686663309733" y1="0" x2="255.3686663309733" y2="177.92999935150146" fill="rgb(0, 0, 0)" stroke="rgb(60, 60, 60)" stroke-width="1px" opacity="0.25"></line><line x1="278.58399963378906" y1="0" x2="278.58399963378906" y2="177.92999935150146" fill="rgb(0, 0, 0)" stroke="rgb(60, 60, 60)" stroke-width="1px" opacity="0.25"></line></g><g><line x1="0" y1="177.92999935150146" x2="278.58399963378906" y2="177.92999935150146" fill="rgb(0, 0, 0)" stroke="rgb(60, 60, 60)" stroke-width="1px" opacity="0.25"></line><line x1="0" y1="163.102499405543" x2="278.58399963378906" y2="163.102499405543" fill="rgb(0, 0, 0)" stroke="rgb(60, 60, 60)" stroke-width="1px" opacity="0.25"></line><line x1="0" y1="148.27499945958456" x2="278.58399963378906" y2="148.27499945958456" fill="rgb(0, 0, 0)" stroke="rgb(60, 60, 60)" stroke-width="1px" opacity="0.25"></line><line x1="0" y1="133.4474995136261" x2="278.58399963378906" y2="133.4474995136261" fill="rgb(0, 0, 0)" stroke="rgb(60, 60, 60)" stroke-width="1px" opacity="0.25"></line><line x1="0" y1="118.61999956766765" x2="278.58399963378906" y2="118.61999956766765" fill="rgb(0, 0, 0)" stroke="rgb(60, 60, 60)" stroke-width="1px" opacity="0.25"></line><line x1="0" y1="103.79249962170918" x2="278.58399963378906" y2="103.79249962170918" fill="rgb(0, 0, 0)" stroke="rgb(60, 60, 60)" stroke-width="1px" opacity="0.25"></line><line x1="0" y1="88.96499967575073" x2="278.58399963378906" y2="88.96499967575073" fill="rgb(0, 0, 0)" stroke="rgb(60, 60, 60)" stroke-width="1px" opacity="0.25"></line><line x1="0" y1="74.13749972979227" x2="278.58399963378906" y2="74.13749972979227" fill="rgb(0, 0, 0)" stroke="rgb(60, 60, 60)" stroke-width="1px" opacity="0.25"></line><line x1="0" y1="59.30999978383383" x2="278.58399963378906" y2="59.30999978383383" fill="rgb(0, 0, 0)" stroke="rgb(60, 60, 60)" stroke-width="1px" opacity="0.25"></line><line x1="0" y1="44.482499837875366" x2="278.58399963378906" y2="44.482499837875366" fill="rgb(0, 0, 0)" stroke="rgb(60, 60, 60)" stroke-width="1px" opacity="0.25"></line><line x1="0" y1="29.6549998919169" x2="278.58399963378906" y2="29.6549998919169" fill="rgb(0, 0, 0)" stroke="rgb(60, 60, 60)" stroke-width="1px" opacity="0.25"></line><line x1="0" y1="14.827499945958465" x2="278.58399963378906" y2="14.827499945958465" fill="rgb(0, 0, 0)" stroke="rgb(60, 60, 60)" stroke-width="1px" opacity="0.25"></line><line x1="0" y1="0" x2="278.58399963378906" y2="0" fill="rgb(0, 0, 0)" stroke="rgb(60, 60, 60)" stroke-width="1px" opacity="0.25"></line></g></g></g><g><g><line x1="0" y1="163.102499405543" x2="278.58399963378906" y2="163.102499405543" fill="rgb(0, 0, 0)" stroke="rgb(153, 153, 153)" stroke-width="1.5px"></line></g></g><g><g><line x1="23.215333302815754" y1="0" x2="23.215333302815754" y2="177.92999935150146" fill="rgb(0, 0, 0)" stroke="rgb(153, 153, 153)" stroke-width="1.5px"></line></g></g><g><g><g><g><g><path style="fill: none;" stroke="rgb(0, 119, 187)" stroke-width="2px" d="M23.215333302815754,13.0746163010906L25.53686663309733,15.914544881991333L27.858399963378908,19.902109163596435L30.179933293660483,23.202472783645476L32.50146662394206,26.308419368850565L34.82299995422363,29.358434296106935L37.14453328450521,32.54277665232698L39.46606661478678,35.75466211316052L41.78759994506836,39.00840571358148L44.10913327534993,42.18214912729417L46.43066660563151,45.584237999681505L48.75219993591308,48.97485145624097L51.07373326619466,52.22071667890921L53.39526659647624,55.65247315127232L55.716799926757815,58.85508502355448L58.03833325703939,61.934447419618564L60.359866587320965,65.09864069639484L62.68139991760254,68.40952749139826L65.00293324788412,71.4932052689608L67.3244665781657,74.70607168424746L69.64599990844727,77.66980147673827L71.96753323872885,80.84418035545643L74.28906656901042,83.9155202345305L76.610599899292,86.86585704480576L78.93213322957357,90.22933899622547L81.25366655985515,93.20391688504036L83.57519989013672,96.60739940084879L85.8967332204183,99.68640521996863L88.21826655069987,102.57815526271844L90.53979988098145,105.64196228276873L92.86133321126302,108.60303294168286L95.1828665415446,111.62794706704229L97.50439987182617,114.46390515759516L99.82593320210775,117.29282420627217L102.14746653238932,120.00857920810682L104.4689998626709,122.71413229751373L106.79053319295248,125.27321873286546L109.11206652323405,127.65884340599749L111.43359985351563,130.08722990485555L113.7551331837972,132.15055300495317L116.07666651407878,134.1522074560159L118.39819984436035,136.1431431552726L120.71973317464193,137.93192535664502L123.0412665049235,139.81312950642933L125.36279983520508,141.49443788550076L127.68433316548665,143.0516132844549L130.00586649576823,144.59040043670097L132.3273998260498,145.90720508249092L134.6489331563314,147.23061672870944L136.97046648661293,148.10594533305974L139.29199981689453,149.29814603691256L141.6135331471761,150.37068856592612L143.9350664774577,151.21939533512395L146.25659980773926,152.1946191745854L148.57813313802083,152.97048798006088L150.8996664683024,153.4426928207127L153.221199798584,154.20865864264667L155.54273312886556,154.87386446316822L157.86426645914713,155.371585981308L160.1857997894287,155.89341209423156L162.5073331197103,156.4278762955948L164.82886644999186,156.85362623485165L167.15039978027343,157.11547765068534L169.471933110555,157.495204588748L171.7934664408366,157.87057092998225L174.11499977111816,158.22591046889343L176.43653310139973,158.42358338805008L178.75806643168133,158.639457892752L181.0795997619629,158.942187872057L183.40113309224446,159.14050691373916L185.72266642252603,159.34243979737178L188.04419975280763,159.48430323050684L190.3657330830892,159.71589790526804L192.68726641337076,159.86471866651044L195.00879974365233,159.97844175964727L197.33033307393393,160.15486565621518L199.6518664042155,160.28368584053624L201.97339973449706,160.4317073173822L204.29493306477863,160.5481097628549L206.61646639506023,160.65053348392289L208.9379997253418,160.75276710281622L211.25953305562336,160.82205968575997L213.58106638590496,160.58690198773476L215.90259971618653,160.80545061248634L218.2241330464681,160.91263373183344L220.54566637674967,161.0578070558423L222.86719970703126,161.15939500770898L225.18873303731283,161.23161192033263L227.5102663675944,161.29205966902302L229.83179969787597,161.32832637390396L232.15333302815756,161.40191127547035L234.47486635843913,161.42970546826888L236.7963996887207,161.49860337401245L239.11793301900227,161.481799127737L241.43946634928386,161.5502478045696L243.76099967956543,161.56648531134363L246.082533009847,161.61732479083068L248.4040663401286,161.6675718133925L250.72559967041016,161.70974692155204L253.04713300069173,161.70431693768455" fill="none"></path></g><g><path style="fill: none;" stroke="rgb(187, 187, 187)" stroke-width="2px" d="M23.215333302815754,12.613349737448885L25.53686663309733,15.328637715440351L27.858399963378908,20.538486930134212L30.179933293660483,25.42273116203029L32.50146662394206,30.08811892699663L34.82299995422363,34.69499101918686L37.14453328450521,39.04290631810707L39.46606661478678,43.45138093913184L41.78759994506836,47.74903694511758L44.10913327534993,51.85873135776819L46.43066660563151,55.63390079740714L48.75219993591308,59.39771469552797L51.07373326619466,62.88057798080419L53.39526659647624,66.34917661172805L55.716799926757815,69.97107087080434L58.03833325703939,73.03730182124573L60.359866587320965,76.28570367372437L62.68139991760254,79.18816045409753L65.00293324788412,82.59465174663977L67.3244665781657,85.71172772356853L69.64599990844727,88.62301117610996L71.96753323872885,91.34700768055794L74.28906656901042,94.04438279694666L76.610599899292,96.97009944109602L78.93213322957357,99.36449958568794L81.25366655985515,101.48582037796474L83.57519989013672,104.61340177096106L85.8967332204183,107.3924435870009L88.21826655069987,109.83914110663642L90.53979988098145,112.29993443384004L92.86133321126302,114.37267143276956L95.1828665415446,117.05776875414739L97.50439987182617,119.14681769124255L99.82593320210775,121.59271159071258L102.14746653238932,124.10834819695503L104.4689998626709,125.89569202557476L106.79053319295248,128.1075893471624L109.11206652323405,129.95234885351152L111.43359985351563,131.91922277059354L113.7551331837972,133.81958615269758L116.07666651407878,135.37871750862547L118.39819984436035,137.24889602640994L120.71973317464193,138.75847058522703L123.0412665049235,140.4566774985786L125.36279983520508,141.42789548435593L127.68433316548665,142.69167532734457L130.00586649576823,143.83149990845638L132.3273998260498,145.1206557174066L134.6489331563314,146.43827476762254L136.97046648661293,147.4064939223192L139.29199981689453,148.53015035297994L141.6135331471761,149.25435317108017L143.9350664774577,150.19612596885668L146.25659980773926,150.96225951815495L148.57813313802083,151.68665461783428L150.8996664683024,152.3500272901541L153.221199798584,152.9296378374045L155.54273312886556,153.67691375432835L157.86426645914713,154.36946777109523L160.1857997894287,154.79356196449746L162.5073331197103,154.9976683787149L164.82886644999186,155.70280950265692L167.15039978027343,156.11111459251916L169.471933110555,156.50071432975017L171.7934664408366,156.97545095359203L174.11499977111816,157.19926207294074L176.43653310139973,157.55394740935367L178.75806643168133,157.56591145511078L181.0795997619629,157.91027687183558L183.40113309224446,158.30907349574161L185.72266642252603,158.67039691830126L188.04419975280763,158.8661955305066L190.3657330830892,158.922908802476L192.68726641337076,159.16540226154223L195.00879974365233,159.34878862069667L197.33033307393393,159.5417089559194L199.6518664042155,159.5293317131593L201.97339973449706,159.80310032996337L204.29493306477863,159.94370744805332L206.61646639506023,160.05457483784724L208.9379997253418,160.03489864562786L211.25953305562336,160.20622871239212L213.58106638590496,160.4027575817354L215.90259971618653,160.4378554074437L218.2241330464681,160.50740515691393L220.54566637674967,160.61494892148968L222.86719970703126,160.7304954583987L225.18873303731283,160.83821583252498L227.5102663675944,160.86355263895598L229.83179969787597,160.8307501939902L232.15333302815756,160.95477740666968L234.47486635843913,161.06432120874047L236.7963996887207,161.0374233398655L239.11793301900227,161.1040680558932L241.43946634928386,161.22146962089508L243.76099967956543,161.3081256810318L246.082533009847,161.38815253798828L248.4040663401286,161.44577418897546L250.72559967041016,161.43152925657984L253.04713300069173,161.4455017422711" fill="none"></path></g><g><path style="fill: none;" stroke="rgb(238, 51, 119)" stroke-width="2px" d="M23.215333302815754,12.692975489130873L25.53686663309733,15.599170484313191L27.858399963378908,19.639103706170886L30.179933293660483,22.707591972325588L32.50146662394206,25.653531514175825L34.82299995422363,28.618262181370824L37.14453328450521,31.743480517471937L39.46606661478678,34.85813033987395L41.78759994506836,38.05538265829685L44.10913327534993,41.29337749272733L46.43066660563151,44.50439220206317L48.75219993591308,47.6937647132107L51.07373326619466,50.83059531664945L53.39526659647624,53.94976946212189L55.716799926757815,57.02333490185197L58.03833325703939,60.09353332720016L60.359866587320965,63.1385880442989L62.68139991760254,66.18264926944501L65.00293324788412,69.07223316321496L67.3244665781657,72.06166473858646L69.64599990844727,75.16511547541444L71.96753323872885,78.30713855569974L74.28906656901042,81.53891535848696L76.610599899292,84.56075602201788L78.93213322957357,87.65338458525933L81.25366655985515,90.79384161252648L83.57519989013672,93.75003364146396L85.8967332204183,96.82514161772654L88.21826655069987,100.00711512934069L90.53979988098145,103.11761109552715L92.86133321126302,106.0771539718652L95.1828665415446,108.95790849295554L97.50439987182617,111.64025950960247L99.82593320210775,114.59464107740264L102.14746653238932,117.33514637462956L104.4689998626709,119.99419213741456L106.79053319295248,122.41374964769287L109.11206652323405,124.72006459320104L111.43359985351563,127.0128965463291L113.7551331837972,129.28697951670767L116.07666651407878,131.5591303434985L118.39819984436035,133.4833793807672L120.71973317464193,135.34551552933004L123.0412665049235,137.06614717564102L125.36279983520508,138.76151907520838L127.68433316548665,140.1324687637903L130.00586649576823,141.59514845335417L132.3273998260498,143.08038446479142L134.6489331563314,144.30562899476618L136.97046648661293,145.61030770417764L139.29199981689453,146.62117603543106L141.6135331471761,147.72704318889902L143.9350664774577,148.63607197314917L146.25659980773926,149.3624752118074L148.57813313802083,150.27459962802251L150.8996664683024,151.07985089563743L153.221199798584,151.67023022407133L155.54273312886556,152.38471273428115L157.86426645914713,152.929914116029L160.1857997894287,153.54611877479795L162.5073331197103,154.12907306877523L164.82886644999186,154.51355835797864L167.15039978027343,154.94848689784985L169.471933110555,155.3909459452384L171.7934664408366,155.80420078024673L174.11499977111816,156.14457738828085L176.43653310139973,156.44444811339122L178.75806643168133,156.80439583915475L181.0795997619629,157.17048874715726L183.40113309224446,157.37942768028128L185.72266642252603,157.61466213374368L188.04419975280763,157.91516902485023L190.3657330830892,158.1688802262475L192.68726641337076,158.31895050468992L195.00879974365233,158.6001188683373L197.33033307393393,158.6166680278564L199.6518664042155,158.87532565493905L201.97339973449706,159.067472108946L204.29493306477863,159.18632447457608L206.61646639506023,159.31821424952255L208.9379997253418,159.4480441308855L211.25953305562336,159.63813344995776L213.58106638590496,159.782692658834L215.90259971618653,159.92117007511686L218.2241330464681,160.06148002171113L220.54566637674967,160.147659019687L222.86719970703126,160.23576106797958L225.18873303731283,160.36326242452077L227.5102663675944,160.4145630879581L229.83179969787597,160.4971967342489L232.15333302815756,160.51625919669672L234.47486635843913,160.5973542708722L236.7963996887207,160.61459645698685L239.11793301900227,160.67337608351983L241.43946634928386,160.7940934196512L243.76099967956543,160.7764509900276L246.082533009847,160.9101589259653L248.4040663401286,160.97699041267344L250.72559967041016,161.08761438338612L253.04713300069173,161.12746854557858" fill="none"></path></g><g><path style="fill: none;" stroke="rgb(204, 51, 17)" stroke-width="2px" d="M23.215333302815754,12.3201866964489L25.53686663309733,15.292869052879638L27.858399963378908,20.68186026460333L30.179933293660483,25.32152190696854L32.50146662394206,29.839795786478362L34.82299995422363,34.30184199056927L37.14453328450521,38.69755479375806L39.46606661478678,43.07192170630793L41.78759994506836,47.12826417431768L44.10913327534993,50.9579729099393L46.43066660563151,54.41402249800531L48.75219993591308,57.82486942616568L51.07373326619466,61.25245551765242L53.39526659647624,64.01753145260122L55.716799926757815,66.91490812451502L58.03833325703939,70.05600765936376L60.359866587320965,73.07440551224474L62.68139991760254,76.13944280506253L65.00293324788412,78.86648869778223L67.3244665781657,81.84676886033634L69.64599990844727,84.81285926477071L71.96753323872885,87.62953492391878L74.28906656901042,90.30879270740094L76.610599899292,92.99777007548245L78.93213322957357,95.81333516497311L81.25366655985515,97.4328624615901L83.57519989013672,100.01317162038382L85.8967332204183,102.3955965360325L88.21826655069987,105.25368779950422L90.53979988098145,108.0838880748194L92.86133321126302,110.28556195187544L95.1828665415446,112.82326916745868L97.50439987182617,115.315210735657L99.82593320210775,117.59877237702159L102.14746653238932,119.62234955680412L104.4689998626709,121.98966650559046L106.79053319295248,124.27217688137418L109.11206652323405,126.44370715667773L111.43359985351563,128.61891121701L113.7551331837972,130.57743286882803L116.07666651407878,132.2293635535784L118.39819984436035,133.92250264730933L120.71973317464193,135.38153360145816L123.0412665049235,136.55045246817883L125.36279983520508,138.2868416969048L127.68433316548665,140.01813299689582L130.00586649576823,141.38642207335644L132.3273998260498,142.6923977968441L134.6489331563314,144.08083421365257L136.97046648661293,145.33814040009923L139.29199981689453,146.41844103835052L141.6135331471761,147.5988356467977L143.9350664774577,148.4249739555284L146.25659980773926,149.44173261101693L148.57813313802083,150.0593664620281L150.8996664683024,150.95707709680573L153.221199798584,151.77129115963015L155.54273312886556,152.48906497867895L157.86426645914713,152.91854428733583L160.1857997894287,153.48101106774112L162.5073331197103,154.0353839910764L164.82886644999186,154.55559843667558L167.15039978027343,155.13524050003846L169.471933110555,155.46833789073384L171.7934664408366,155.86389647746083L174.11499977111816,156.26467599926048L176.43653310139973,156.63296595157138L178.75806643168133,156.94647993647038L181.0795997619629,157.25070249849156L183.40113309224446,157.52579902770125L185.72266642252603,157.6704539952828L188.04419975280763,158.04157143112957L190.3657330830892,158.29967719041488L192.68726641337076,158.43735662821166L195.00879974365233,158.75036142459246L197.33033307393393,158.7081284611983L199.6518664042155,158.94504177377968L201.97339973449706,159.06841952109008L204.29493306477863,159.26169946668355L206.61646639506023,159.50934599325043L208.9379997253418,159.59408562689234L211.25953305562336,159.7372536879716L213.58106638590496,159.95058612961293L215.90259971618653,160.0559299577588L218.2241330464681,160.1784834937157L220.54566637674967,160.32841589477175L222.86719970703126,160.35688385021263L225.18873303731283,160.4813025159014L227.5102663675944,160.0198869701246L229.83179969787597,160.3540227318348L232.15333302815756,160.52119793605573L234.47486635843913,160.62944857665062L236.7963996887207,160.72382432453037L239.11793301900227,160.80542340891526L241.43946634928386,160.93074575480128L243.76099967956543,161.0176761303455L246.082533009847,161.09534215271597L248.4040663401286,161.13336372109933L250.72559967041016,161.14602627009594L253.04713300069173,161.23144260269203" fill="none"></path></g></g></g></g><g opacity="0.2"><g><g><g><path style="fill: none;" stroke="rgb(0, 119, 187)" stroke-width="2px" d="M23.215333302815754,13.0746163010906L25.53686663309733,17.618502030531772L27.858399963378908,23.730170873937368L30.179933293660483,27.08370040082309L32.50146662394206,30.363543230494315L34.82299995422363,33.57770294587627L37.14453328450521,37.09643717119934L39.46606661478678,40.43762194915621L41.78759994506836,43.807045517045395L44.10913327534993,46.894788215905095L46.43066660563151,50.65651461258372L48.75219993591308,54.042320072379084L51.07373326619466,57.07891619978898L53.39526659647624,60.79338469163346L55.716799926757815,63.655238281943326L58.03833325703939,66.5513192087736L60.359866587320965,69.84359163100893L62.68139991760254,73.37501705010479L65.00293324788412,76.11825216803243L67.3244665781657,79.52507763846094L69.64599990844727,82.11523362748903L71.96753323872885,85.60564421924451L74.28906656901042,88.52246941489338L76.610599899292,91.29132731066647L78.93213322957357,95.27453801716486L81.25366655985515,97.66577103304674L83.57519989013672,101.71261446598253L85.8967332204183,104.30490922164921L88.21826655069987,106.91577766313269L90.53979988098145,110.23767111952462L92.86133321126302,113.04463794813078L95.1828665415446,116.16531765322475L97.50439987182617,118.71784195486806L99.82593320210775,121.536202576658L102.14746653238932,124.08221159414443L104.4689998626709,126.77246186185853L106.79053319295248,129.11184834629984L109.11206652323405,131.23728039354978L111.43359985351563,133.72980963961706L113.7551331837972,135.24553764820422L116.07666651407878,137.15468912859643L118.39819984436035,139.12954670176245L120.71973317464193,140.61509865741243L123.0412665049235,142.634935730291L125.36279983520508,144.01640045367103L127.68433316548665,145.38737638264325L130.00586649576823,146.89858116492618L132.3273998260498,147.88241205110188L134.6489331563314,149.21573419799267L136.97046648661293,149.41893823956752L139.29199981689453,151.08644709267736L141.6135331471761,151.97950235943864L143.9350664774577,152.492455488917L146.25659980773926,153.657454933775L148.57813313802083,154.13429118827293L150.8996664683024,154.15100008168994L153.221199798584,155.35760737554722L155.54273312886556,155.87167319395033L157.86426645914713,156.1181682585175L160.1857997894287,156.67615126361684L162.5073331197103,157.2295725976397L164.82886644999186,157.49225114373684L167.15039978027343,157.50825477443584L169.471933110555,158.064794995842L171.7934664408366,158.4336204418336L174.11499977111816,158.7589197772602L176.43653310139973,158.72009276678506L178.75806643168133,158.9632696498049L181.0795997619629,159.39628284101445L183.40113309224446,159.43798547626244L185.72266642252603,159.64533912282073L188.04419975280763,159.69709838020944L190.3657330830892,160.06328991740986L192.68726641337076,160.087949808374L195.00879974365233,160.14902639935252L197.33033307393393,160.41950150106703L199.6518664042155,160.47691611701785L201.97339973449706,160.65373953265117L204.29493306477863,160.72271343106388L206.61646639506023,160.8041690655249L208.9379997253418,160.90611753115627L211.25953305562336,160.92599856017557L213.58106638590496,160.23416544069698L215.90259971618653,161.13327354961368L218.2241330464681,161.07340841085409L220.54566637674967,161.27556704185557L222.86719970703126,161.311776935509L225.18873303731283,161.3399372892681L227.5102663675944,161.38273129205862L229.83179969787597,161.38272643122534L232.15333302815756,161.51228862781997L234.47486635843913,161.47139675746664L236.7963996887207,161.6019502326278L239.11793301900227,161.45659275832384L241.43946634928386,161.65292081981852L243.76099967956543,161.59084157150468L246.082533009847,161.69358401006124L248.4040663401286,161.74294234723527L250.72559967041016,161.7730095837913L253.04713300069173,161.69617196188332" fill="none"></path></g><g><path style="fill: none;" stroke="rgb(187, 187, 187)" stroke-width="2px" d="M23.215333302815754,12.613349737448885L25.53686663309733,16.957810502235276L27.858399963378908,25.53994217624026L30.179933293660483,31.166602378740066L32.50146662394206,36.17924919293668L34.82299995422363,41.067953596639114L37.14453328450521,45.26049476220771L39.46606661478678,49.87897925794232L41.78759994506836,54.08724477724388L44.10913327534993,57.9611486003287L46.43066660563151,61.26241444790051L48.75219993591308,65.02295303368567L51.07373326619466,68.09350075580139L53.39526659647624,71.54527921230644L55.716799926757815,75.3996548586779L58.03833325703939,77.63448570327964L60.359866587320965,81.15693183764486L62.68139991760254,83.54110869119515L65.00293324788412,87.70386974079102L67.3244665781657,90.38705677587059L69.64599990844727,92.98977669321862L71.96753323872885,95.4329128029646L74.28906656901042,98.09039221656344L76.610599899292,101.3586397494172L78.93213322957357,102.95608278420438L81.25366655985515,104.66779251991578L83.57519989013672,109.30476585783191L85.8967332204183,111.56100204457687L88.21826655069987,113.50918513233547L90.53979988098145,115.99112306460239L92.86133321126302,117.48177624382176L95.1828665415446,121.08541420196964L97.50439987182617,122.28039084749474L99.82593320210775,125.26155226472326L102.14746653238932,127.88180299820478L104.4689998626709,128.5767077224158L106.79053319295248,131.4254352953222L109.11206652323405,132.71948809591032L111.43359985351563,134.8695336352614L113.7551331837972,136.6701312195029L116.07666651407878,137.7174145393911L118.39819984436035,140.05416380083668L120.71973317464193,141.02283242236294L123.0412665049235,143.00398786787053L125.36279983520508,142.8847224627695L127.68433316548665,144.5873450916305L130.00586649576823,145.5412367800174L132.3273998260498,147.05438943075958L134.6489331563314,148.4147033429021L136.97046648661293,148.85882265434466L139.29199981689453,150.2156349989574L141.6135331471761,150.34065739822526L143.9350664774577,151.60878516551733L146.25659980773926,152.11145984210032L148.57813313802083,152.7732472673521L150.8996664683024,153.3450862986332L153.221199798584,153.7990536582798L155.54273312886556,154.79782762971388L157.86426645914713,155.4082987962454L160.1857997894287,155.42970325460078L162.5073331197103,155.30382800004108L164.82886644999186,156.7605211885699L167.15039978027343,156.7235722273125L169.471933110555,157.08511393559667L171.7934664408366,157.6875558893548L174.11499977111816,157.53497875196382L176.43653310139973,158.08597541397305L178.75806643168133,157.58385752374642L181.0795997619629,158.4268249969228L183.40113309224446,158.90726843160064L185.72266642252603,159.21238205214073L188.04419975280763,159.1598934488146L190.3657330830892,159.00797871043008L192.68726641337076,159.52914245014153L195.00879974365233,159.62386815942835L197.33033307393393,159.8310894587535L199.6518664042155,159.51076584901915L201.97339973449706,160.21375325516948L204.29493306477863,160.15461812518822L206.61646639506023,160.2208759225381L208.9379997253418,160.0053843572988L211.25953305562336,160.4632238125385L213.58106638590496,160.69755088575027L215.90259971618653,160.49050214600618L218.2241330464681,160.61172978111932L220.54566637674967,160.77626456835333L222.86719970703126,160.90381526376223L225.18873303731283,160.99979639371438L227.5102663675944,160.90155784860247L229.83179969787597,160.78154652654155L232.15333302815756,161.14081822568886L234.47486635843913,161.22863691184665L236.7963996887207,160.9970765365531L239.11793301900227,161.20403512993474L241.43946634928386,161.39757196839787L243.76099967956543,161.43810977123695L246.082533009847,161.50819282342297L248.4040663401286,161.53220666545621L250.72559967041016,161.4101618579864L253.04713300069173,161.46646047080793" fill="none"></path></g><g><path style="fill: none;" stroke="rgb(238, 51, 119)" stroke-width="2px" d="M23.215333302815754,12.692975489130873L25.53686663309733,17.342887481422622L27.858399963378908,23.517439599154244L30.179933293660483,26.316134173323547L32.50146662394206,29.499750180015553L34.82299995422363,32.71955199714162L37.14453328450521,36.21259274158987L39.46606661478678,39.39931968157438L41.78759994506836,42.7707087936802L44.10913327534993,46.10142245298664L46.43066660563151,49.291790598983965L48.75219993591308,52.46046705556907L51.07373326619466,55.525598925634654L53.39526659647624,58.62241989346606L55.716799926757815,61.6300702006499L58.03833325703939,64.69666562342354L60.359866587320965,67.70488155484236L62.68139991760254,70.74796822034887L65.00293324788412,73.40616880484734L67.3244665781657,76.54553885575658L69.64599990844727,79.82012138004231L71.96753323872885,83.02006978651991L74.28906656901042,86.38651675687242L76.610599899292,89.09348122073077L78.93213322957357,92.29230544904131L81.25366655985515,95.50451376081253L83.57519989013672,98.18431412078503L85.8967332204183,101.4377988611053L88.21826655069987,104.78007246571455L90.53979988098145,107.783353325683L92.86133321126302,110.51646730495564L95.1828665415446,113.27903970141732L97.50439987182617,115.66378571435405L99.82593320210775,119.0262132174866L102.14746653238932,121.44590420269186L104.4689998626709,123.98276071302571L106.79053319295248,126.04308587567583L109.11206652323405,128.17953699005386L111.43359985351563,130.4521444632506L113.7551331837972,132.6981039646759L116.07666651407878,134.96735657912876L118.39819984436035,136.3697529343552L120.71973317464193,138.13871975083012L123.0412665049235,139.64709464436228L125.36279983520508,141.3045769241189L127.68433316548665,142.18889329644944L130.00586649576823,143.7891679875631L132.3273998260498,145.30823848186395L134.6489331563314,146.14349578968702L136.97046648661293,147.56732576826846L139.29199981689453,148.13747853229896L141.6135331471761,149.38584391909288L143.9350664774577,149.99961514952048L146.25659980773926,150.45208006979286L148.57813313802083,151.6427862523437L150.8996664683024,152.2877277970591L153.221199798584,152.5557992167218L155.54273312886556,153.45643649959567L157.86426645914713,153.7477161886507L160.1857997894287,154.47042576295124L162.5073331197103,155.00350450974113L164.82886644999186,155.09028629178374L167.15039978027343,155.60087970765667L169.471933110555,156.05463451632124L171.7934664408366,156.4240830327592L174.11499977111816,156.65514230033205L176.43653310139973,156.89425420105673L178.75806643168133,157.34431742780006L181.0795997619629,157.71962810916105L183.40113309224446,157.69283607996732L185.72266642252603,157.96751381393725L188.04419975280763,158.3659293615101L190.3657330830892,158.5494470283434L192.68726641337076,158.54405592235355L195.00879974365233,159.0218714138083L197.33033307393393,158.64149176713508L199.6518664042155,159.26331209556304L201.97339973449706,159.3556917899564L204.29493306477863,159.36460302302123L206.61646639506023,159.51604891194222L208.9379997253418,159.64278895292995L211.25953305562336,159.92326742856616L213.58106638590496,159.99953147214836L215.90259971618653,160.12888619954117L218.2241330464681,160.27194494160256L220.54566637674967,160.27692751665077L222.86719970703126,160.36791414041846L225.18873303731283,160.55451445933252L227.5102663675944,160.4915140831141L229.83179969787597,160.62114720368507L232.15333302815756,160.54485289036845L234.47486635843913,160.7189968821354L236.7963996887207,160.64045973615882L239.11793301900227,160.76154552331928L241.43946634928386,160.97516942384826L243.76099967956543,160.74998734559222L246.082533009847,161.11072082987184L248.4040663401286,161.07723764273564L250.72559967041016,161.2535503394552L253.04713300069173,161.1872497888672" fill="none"></path></g><g><path style="fill: none;" stroke="rgb(204, 51, 17)" stroke-width="2px" d="M23.215333302815754,12.3201866964489L25.53686663309733,17.07647846673808L27.858399963378908,25.855291827858082L30.179933293660483,30.777763998389986L32.50146662394206,35.73885416356643L34.82299995422363,40.47445822746053L37.14453328450521,44.983494433722825L39.46606661478678,49.449790658728006L41.78759994506836,53.110581410671074L44.10913327534993,56.6446440527626L46.43066660563151,59.566750764705745L48.75219993591308,62.92257814004617L51.07373326619466,66.38264299159394L53.39526659647624,68.15972828341683L55.716799926757815,71.25756737487123L58.03833325703939,74.76544161488232L60.359866587320965,77.60072500675312L62.68139991760254,80.7362205316526L65.00293324788412,82.95664209886772L67.3244665781657,86.3169166947558L69.64599990844727,89.26183220397529L71.96753323872885,91.85445572872857L74.28906656901042,94.327626485353L76.610599899292,97.03120427410427L78.93213322957357,100.03666278737747L81.25366655985515,99.86214649997146L83.57519989013672,103.88362875627047L85.8967332204183,105.9692302519221L88.21826655069987,109.54082206200582L90.53979988098145,112.32918692358345L92.86133321126302,113.5880720373605L95.1828665415446,116.62982948591475L97.50439987182617,119.05312279046667L99.82593320210775,121.02411467550162L102.14746653238932,122.65771523951112L104.4689998626709,125.5406418677262L106.79053319295248,127.69594240973557L109.11206652323405,129.70100254947482L111.43359985351563,131.881717295393L113.7551331837972,133.5152153400099L116.07666651407878,134.70725957739165L118.39819984436035,136.46221128586873L120.71973317464193,137.57008003162824L123.0412665049235,138.30383076775354L125.36279983520508,140.89142553954252L127.68433316548665,142.6150699466124L130.00586649576823,143.43885568791939L132.3273998260498,144.65136138200225L134.6489331563314,146.1634888388185L136.97046648661293,147.22409967974386L139.29199981689453,148.03889199571435L141.6135331471761,149.3694275594599L143.9350664774577,149.66418141862084L146.25659980773926,150.9668705942471L148.57813313802083,150.98581723854383L150.8996664683024,152.30364304897137L153.221199798584,152.99261225386635L155.54273312886556,153.5657257072519L157.86426645914713,153.5627632503211L160.1857997894287,154.32471123834895L162.5073331197103,154.8669433760793L164.82886644999186,155.33592010507434L167.15039978027343,156.00470359508276L169.471933110555,155.96798397677694L171.7934664408366,156.45723435755127L174.11499977111816,156.86584528195996L176.43653310139973,157.18540088003775L178.75806643168133,157.41675091381887L181.0795997619629,157.70703634152332L183.40113309224446,157.93844382151582L185.72266642252603,157.88743644665513L188.04419975280763,158.59824758489972L190.3657330830892,158.68683582934284L192.68726641337076,158.6438757849068L195.00879974365233,159.21986861916366L197.33033307393393,158.64477901610707L199.6518664042155,159.3004117426518L201.97339973449706,159.25348614205566L204.29493306477863,159.55161938507376L206.61646639506023,159.88081578310073L208.9379997253418,159.72119507735522L211.25953305562336,159.95200577959042L213.58106638590496,160.27058479207494L215.90259971618653,160.21394569997756L218.2241330464681,160.3623137976511L220.54566637674967,160.55331449635585L222.86719970703126,160.3995857833739L225.18873303731283,160.66793051443457L227.5102663675944,159.32776365145938L229.83179969787597,160.85522637440008L232.15333302815756,160.77196074238708L234.47486635843913,160.791824537543L236.7963996887207,160.86538794635L239.11793301900227,160.92782203549254L241.43946634928386,161.11872927363035L243.76099967956543,161.14807169366182L246.082533009847,161.21184118627167L248.4040663401286,161.1903960736744L250.72559967041016,161.16502009359084L253.04713300069173,161.35956710158618" fill="none"></path></g></g></g></g></g></g><g transform="translate(51, 177)" clip-path="url(#clip_1)"><clipPath id="clip_1"><rect width="278" height="22"></rect></clipPath><g><g><line x1="0" y1="0" x2="0" y2="5" style="visibility: inherit;" fill="rgb(0, 0, 0)" stroke="rgb(204, 204, 204)" stroke-width="1px"></line><line x1="23.215333302815754" y1="0" x2="23.215333302815754" y2="5" style="visibility: inherit;" fill="rgb(0, 0, 0)" stroke="rgb(204, 204, 204)" stroke-width="1px"></line><line x1="46.43066660563151" y1="0" x2="46.43066660563151" y2="5" style="visibility: inherit;" fill="rgb(0, 0, 0)" stroke="rgb(204, 204, 204)" stroke-width="1px"></line><line x1="69.64599990844727" y1="0" x2="69.64599990844727" y2="5" style="visibility: inherit;" fill="rgb(0, 0, 0)" stroke="rgb(204, 204, 204)" stroke-width="1px"></line><line x1="92.86133321126302" y1="0" x2="92.86133321126302" y2="5" style="visibility: inherit;" fill="rgb(0, 0, 0)" stroke="rgb(204, 204, 204)" stroke-width="1px"></line><line x1="116.07666651407878" y1="0" x2="116.07666651407878" y2="5" style="visibility: inherit;" fill="rgb(0, 0, 0)" stroke="rgb(204, 204, 204)" stroke-width="1px"></line><line x1="139.29199981689453" y1="0" x2="139.29199981689453" y2="5" style="visibility: inherit;" fill="rgb(0, 0, 0)" stroke="rgb(204, 204, 204)" stroke-width="1px"></line><line x1="162.5073331197103" y1="0" x2="162.5073331197103" y2="5" style="visibility: inherit;" fill="rgb(0, 0, 0)" stroke="rgb(204, 204, 204)" stroke-width="1px"></line><line x1="185.72266642252603" y1="0" x2="185.72266642252603" y2="5" style="visibility: inherit;" fill="rgb(0, 0, 0)" stroke="rgb(204, 204, 204)" stroke-width="1px"></line><line x1="208.9379997253418" y1="0" x2="208.9379997253418" y2="5" style="visibility: inherit;" fill="rgb(0, 0, 0)" stroke="rgb(204, 204, 204)" stroke-width="1px"></line><line x1="232.15333302815756" y1="0" x2="232.15333302815756" y2="5" style="visibility: inherit;" fill="rgb(0, 0, 0)" stroke="rgb(204, 204, 204)" stroke-width="1px"></line><line x1="255.3686663309733" y1="0" x2="255.3686663309733" y2="5" style="visibility: inherit;" fill="rgb(0, 0, 0)" stroke="rgb(204, 204, 204)" stroke-width="1px"></line><line x1="278.58399963378906" y1="0" x2="278.58399963378906" y2="5" style="visibility: inherit;" fill="rgb(0, 0, 0)" stroke="rgb(204, 204, 204)" stroke-width="1px"></line></g><g transform="translate(0, 8)"><text style="text-anchor: middle; visibility: hidden; font-family: &quot;Helvetica Neue&quot;, sans-serif; font-size: 12px; font-weight: 200;" x="0" y="0" dx="0em" dy="0.95em" fill="rgb(50, 49, 63)" stroke="none" stroke-width="1px">-10</text><text style="text-anchor: middle; visibility: inherit; font-family: &quot;Helvetica Neue&quot;, sans-serif; font-size: 12px; font-weight: 200;" x="23.215333302815754" y="0" dx="0em" dy="0.95em" fill="rgb(50, 49, 63)" stroke="none" stroke-width="1px">0</text><text style="text-anchor: middle; visibility: hidden; font-family: &quot;Helvetica Neue&quot;, sans-serif; font-size: 12px; font-weight: 200;" x="46.43066660563151" y="0" dx="0em" dy="0.95em" fill="rgb(50, 49, 63)" stroke="none" stroke-width="1px">10</text><text style="text-anchor: middle; visibility: inherit; font-family: &quot;Helvetica Neue&quot;, sans-serif; font-size: 12px; font-weight: 200;" x="69.64599990844727" y="0" dx="0em" dy="0.95em" fill="rgb(50, 49, 63)" stroke="none" stroke-width="1px">20</text><text style="text-anchor: middle; visibility: hidden; font-family: &quot;Helvetica Neue&quot;, sans-serif; font-size: 12px; font-weight: 200;" x="92.86133321126302" y="0" dx="0em" dy="0.95em" fill="rgb(50, 49, 63)" stroke="none" stroke-width="1px">30</text><text style="text-anchor: middle; visibility: inherit; font-family: &quot;Helvetica Neue&quot;, sans-serif; font-size: 12px; font-weight: 200;" x="116.07666651407878" y="0" dx="0em" dy="0.95em" fill="rgb(50, 49, 63)" stroke="none" stroke-width="1px">40</text><text style="text-anchor: middle; visibility: hidden; font-family: &quot;Helvetica Neue&quot;, sans-serif; font-size: 12px; font-weight: 200;" x="139.29199981689453" y="0" dx="0em" dy="0.95em" fill="rgb(50, 49, 63)" stroke="none" stroke-width="1px">50</text><text style="text-anchor: middle; visibility: inherit; font-family: &quot;Helvetica Neue&quot;, sans-serif; font-size: 12px; font-weight: 200;" x="162.5073331197103" y="0" dx="0em" dy="0.95em" fill="rgb(50, 49, 63)" stroke="none" stroke-width="1px">60</text><text style="text-anchor: middle; visibility: hidden; font-family: &quot;Helvetica Neue&quot;, sans-serif; font-size: 12px; font-weight: 200;" x="185.72266642252603" y="0" dx="0em" dy="0.95em" fill="rgb(50, 49, 63)" stroke="none" stroke-width="1px">70</text><text style="text-anchor: middle; visibility: inherit; font-family: &quot;Helvetica Neue&quot;, sans-serif; font-size: 12px; font-weight: 200;" x="208.9379997253418" y="0" dx="0em" dy="0.95em" fill="rgb(50, 49, 63)" stroke="none" stroke-width="1px">80</text><text style="text-anchor: middle; visibility: hidden; font-family: &quot;Helvetica Neue&quot;, sans-serif; font-size: 12px; font-weight: 200;" x="232.15333302815756" y="0" dx="0em" dy="0.95em" fill="rgb(50, 49, 63)" stroke="none" stroke-width="1px">90</text><text style="text-anchor: middle; visibility: inherit; font-family: &quot;Helvetica Neue&quot;, sans-serif; font-size: 12px; font-weight: 200;" x="255.3686663309733" y="0" dx="0em" dy="0.95em" fill="rgb(50, 49, 63)" stroke="none" stroke-width="1px">100</text><text style="text-anchor: middle; visibility: hidden; font-family: &quot;Helvetica Neue&quot;, sans-serif; font-size: 12px; font-weight: 200;" x="278.58399963378906" y="0" dx="0em" dy="0.95em" fill="rgb(50, 49, 63)" stroke="none" stroke-width="1px">110</text></g><line x1="0" y1="0" x2="278.58399963378906" y2="0" fill="rgb(0, 0, 0)" stroke="rgb(204, 204, 204)" stroke-width="1px"></line></g></g></g></g></svg>