<svg viewBox="0 0 330 200" xmlns="http://www.w3.org/2000/svg"><g><g><g><g><g><line x1="41.0620002746582" y1="177.92999935150146" x2="36.0620002746582" y2="177.92999935150146" style="visibility: inherit;" fill="rgb(0, 0, 0)" stroke="rgb(204, 204, 204)" stroke-width="1px"></line><line x1="41.0620002746582" y1="164.2430763244629" x2="36.0620002746582" y2="164.2430763244629" style="visibility: inherit;" fill="rgb(0, 0, 0)" stroke="rgb(204, 204, 204)" stroke-width="1px"></line><line x1="41.0620002746582" y1="150.55615329742432" x2="36.0620002746582" y2="150.55615329742432" style="visibility: inherit;" fill="rgb(0, 0, 0)" stroke="rgb(204, 204, 204)" stroke-width="1px"></line><line x1="41.0620002746582" y1="136.86923027038574" x2="36.0620002746582" y2="136.86923027038574" style="visibility: inherit;" fill="rgb(0, 0, 0)" stroke="rgb(204, 204, 204)" stroke-width="1px"></line><line x1="41.0620002746582" y1="123.18230724334715" x2="36.0620002746582" y2="123.18230724334715" style="visibility: inherit;" fill="rgb(0, 0, 0)" stroke="rgb(204, 204, 204)" stroke-width="1px"></line><line x1="41.0620002746582" y1="109.49538421630857" x2="36.0620002746582" y2="109.49538421630857" style="visibility: inherit;" fill="rgb(0, 0, 0)" stroke="rgb(204, 204, 204)" stroke-width="1px"></line><line x1="41.0620002746582" y1="95.80846118927002" x2="36.0620002746582" y2="95.80846118927002" style="visibility: inherit;" fill="rgb(0, 0, 0)" stroke="rgb(204, 204, 204)" stroke-width="1px"></line><line x1="41.0620002746582" y1="82.12153816223143" x2="36.0620002746582" y2="82.12153816223143" style="visibility: inherit;" fill="rgb(0, 0, 0)" stroke="rgb(204, 204, 204)" stroke-width="1px"></line><line x1="41.0620002746582" y1="68.43461513519287" x2="36.0620002746582" y2="68.43461513519287" style="visibility: inherit;" fill="rgb(0, 0, 0)" stroke="rgb(204, 204, 204)" stroke-width="1px"></line><line x1="41.0620002746582" y1="54.74769210815428" x2="36.0620002746582" y2="54.74769210815428" style="visibility: inherit;" fill="rgb(0, 0, 0)" stroke="rgb(204, 204, 204)" stroke-width="1px"></line><line x1="41.0620002746582" y1="41.060769081115694" x2="36.0620002746582" y2="41.060769081115694" style="visibility: inherit;" fill="rgb(0, 0, 0)" stroke="rgb(204, 204, 204)" stroke-width="1px"></line><line x1="41.0620002746582" y1="27.37384605407712" x2="36.0620002746582" y2="27.37384605407712" style="visibility: inherit;" fill="rgb(0, 0, 0)" stroke="rgb(204, 204, 204)" stroke-width="1px"></line><line x1="41.0620002746582" y1="13.686923027038517" x2="36.0620002746582" y2="13.686923027038517" style="visibility: inherit;" fill="rgb(0, 0, 0)" stroke="rgb(204, 204, 204)" stroke-width="1px"></line><line x1="41.0620002746582" y1="0" x2="36.0620002746582" y2="0" style="visibility: inherit;" fill="rgb(0, 0, 0)" stroke="rgb(204, 204, 204)" stroke-width="1px"></line></g><g transform="translate(31.062000274658203, 0)"><text style="text-anchor: end; visibility: hidden; font-family: &quot;Helvetica Neue&quot;, sans-serif; font-size: 12px; font-weight: 200;" x="0" y="177.92999935150146" dx="0em" dy="0.3em" fill="rgb(50, 49, 63)" stroke="none" stroke-width="1px">1.2</text><text style="text-anchor: end; visibility: inherit; font-family: &quot;Helvetica Neue&quot;, sans-serif; font-size: 12px; font-weight: 200;" x="0" y="164.2430763244629" dx="0em" dy="0.3em" fill="rgb(50, 49, 63)" stroke="none" stroke-width="1px">1.4</text><text style="text-anchor: end; visibility: hidden; font-family: &quot;Helvetica Neue&quot;, sans-serif; font-size: 12px; font-weight: 200;" x="0" y="150.55615329742432" dx="0em" dy="0.3em" fill="rgb(50, 49, 63)" stroke="none" stroke-width="1px">1.6</text><text style="text-anchor: end; visibility: inherit; font-family: &quot;Helvetica Neue&quot;, sans-serif; font-size: 12px; font-weight: 200;" x="0" y="136.86923027038574" dx="0em" dy="0.3em" fill="rgb(50, 49, 63)" stroke="none" stroke-width="1px">1.8</text><text style="text-anchor: end; visibility: hidden; font-family: &quot;Helvetica Neue&quot;, sans-serif; font-size: 12px; font-weight: 200;" x="0" y="123.18230724334715" dx="0em" dy="0.3em" fill="rgb(50, 49, 63)" stroke="none" stroke-width="1px">2</text><text style="text-anchor: end; visibility: inherit; font-family: &quot;Helvetica Neue&quot;, sans-serif; font-size: 12px; font-weight: 200;" x="0" y="109.49538421630857" dx="0em" dy="0.3em" fill="rgb(50, 49, 63)" stroke="none" stroke-width="1px">2.2</text><text style="text-anchor: end; visibility: hidden; font-family: &quot;Helvetica Neue&quot;, sans-serif; font-size: 12px; font-weight: 200;" x="0" y="95.80846118927002" dx="0em" dy="0.3em" fill="rgb(50, 49, 63)" stroke="none" stroke-width="1px">2.4</text><text style="text-anchor: end; visibility: inherit; font-family: &quot;Helvetica Neue&quot;, sans-serif; font-size: 12px; font-weight: 200;" x="0" y="82.12153816223143" dx="0em" dy="0.3em" fill="rgb(50, 49, 63)" stroke="none" stroke-width="1px">2.6</text><text style="text-anchor: end; visibility: hidden; font-family: &quot;Helvetica Neue&quot;, sans-serif; font-size: 12px; font-weight: 200;" x="0" y="68.43461513519287" dx="0em" dy="0.3em" fill="rgb(50, 49, 63)" stroke="none" stroke-width="1px">2.8</text><text style="text-anchor: end; visibility: inherit; font-family: &quot;Helvetica Neue&quot;, sans-serif; font-size: 12px; font-weight: 200;" x="0" y="54.74769210815428" dx="0em" dy="0.3em" fill="rgb(50, 49, 63)" stroke="none" stroke-width="1px">3</text><text style="text-anchor: end; visibility: hidden; font-family: &quot;Helvetica Neue&quot;, sans-serif; font-size: 12px; font-weight: 200;" x="0" y="41.060769081115694" dx="0em" dy="0.3em" fill="rgb(50, 49, 63)" stroke="none" stroke-width="1px">3.2</text><text style="text-anchor: end; visibility: inherit; font-family: &quot;Helvetica Neue&quot;, sans-serif; font-size: 12px; font-weight: 200;" x="0" y="27.37384605407712" dx="0em" dy="0.3em" fill="rgb(50, 49, 63)" stroke="none" stroke-width="1px">3.4</text><text style="text-anchor: end; visibility: hidden; font-family: &quot;Helvetica Neue&quot;, sans-serif; font-size: 12px; font-weight: 200;" x="0" y="13.686923027038517" dx="0em" dy="0.3em" fill="rgb(50, 49, 63)" stroke="none" stroke-width="1px">3.6</text><text style="text-anchor: end; visibility: hidden; font-family: &quot;Helvetica Neue&quot;, sans-serif; font-size: 12px; font-weight: 200;" x="0" y="0" dx="0em" dy="0.3em" fill="rgb(50, 49, 63)" stroke="none" stroke-width="1px">3.8</text></g><line x1="41.0620002746582" y1="0" x2="41.0620002746582" y2="177.92999935150146" fill="rgb(0, 0, 0)" stroke="rgb(204, 204, 204)" stroke-width="1px"></line></g></g><g transform="translate(41, 0)" clip-path="url(#clip_0)"><clipPath id="clip_0"><rect width="288" height="177"></rect></clipPath><g><g><g><line x1="0" y1="0" x2="0" y2="177.92999935150146" fill="rgb(0, 0, 0)" stroke="rgb(60, 60, 60)" stroke-width="1px" opacity="0.25"></line><line x1="26.26709088412198" y1="0" x2="26.26709088412198" y2="177.92999935150146" fill="rgb(0, 0, 0)" stroke="rgb(60, 60, 60)" stroke-width="1px" opacity="0.25"></line><line x1="52.53418176824396" y1="0" x2="52.53418176824396" y2="177.92999935150146" fill="rgb(0, 0, 0)" stroke="rgb(60, 60, 60)" stroke-width="1px" opacity="0.25"></line><line x1="78.80127265236594" y1="0" x2="78.80127265236594" y2="177.92999935150146" fill="rgb(0, 0, 0)" stroke="rgb(60, 60, 60)" stroke-width="1px" opacity="0.25"></line><line x1="105.06836353648792" y1="0" x2="105.06836353648792" y2="177.92999935150146" fill="rgb(0, 0, 0)" stroke="rgb(60, 60, 60)" stroke-width="1px" opacity="0.25"></line><line x1="131.3354544206099" y1="0" x2="131.3354544206099" y2="177.92999935150146" fill="rgb(0, 0, 0)" stroke="rgb(60, 60, 60)" stroke-width="1px" opacity="0.25"></line><line x1="157.60254530473188" y1="0" x2="157.60254530473188" y2="177.92999935150146" fill="rgb(0, 0, 0)" stroke="rgb(60, 60, 60)" stroke-width="1px" opacity="0.25"></line><line x1="183.86963618885386" y1="0" x2="183.86963618885386" y2="177.92999935150146" fill="rgb(0, 0, 0)" stroke="rgb(60, 60, 60)" stroke-width="1px" opacity="0.25"></line><line x1="210.13672707297584" y1="0" x2="210.13672707297584" y2="177.92999935150146" fill="rgb(0, 0, 0)" stroke="rgb(60, 60, 60)" stroke-width="1px" opacity="0.25"></line><line x1="236.40381795709786" y1="0" x2="236.40381795709786" y2="177.92999935150146" fill="rgb(0, 0, 0)" stroke="rgb(60, 60, 60)" stroke-width="1px" opacity="0.25"></line><line x1="262.6709088412198" y1="0" x2="262.6709088412198" y2="177.92999935150146" fill="rgb(0, 0, 0)" stroke="rgb(60, 60, 60)" stroke-width="1px" opacity="0.25"></line><line x1="288.9379997253418" y1="0" x2="288.9379997253418" y2="177.92999935150146" fill="rgb(0, 0, 0)" stroke="rgb(60, 60, 60)" stroke-width="1px" opacity="0.25"></line></g><g><line x1="0" y1="177.92999935150146" x2="288.9379997253418" y2="177.92999935150146" fill="rgb(0, 0, 0)" stroke="rgb(60, 60, 60)" stroke-width="1px" opacity="0.25"></line><line x1="0" y1="164.2430763244629" x2="288.9379997253418" y2="164.2430763244629" fill="rgb(0, 0, 0)" stroke="rgb(60, 60, 60)" stroke-width="1px" opacity="0.25"></line><line x1="0" y1="150.55615329742432" x2="288.9379997253418" y2="150.55615329742432" fill="rgb(0, 0, 0)" stroke="rgb(60, 60, 60)" stroke-width="1px" opacity="0.25"></line><line x1="0" y1="136.86923027038574" x2="288.9379997253418" y2="136.86923027038574" fill="rgb(0, 0, 0)" stroke="rgb(60, 60, 60)" stroke-width="1px" opacity="0.25"></line><line x1="0" y1="123.18230724334715" x2="288.9379997253418" y2="123.18230724334715" fill="rgb(0, 0, 0)" stroke="rgb(60, 60, 60)" stroke-width="1px" opacity="0.25"></line><line x1="0" y1="109.49538421630857" x2="288.9379997253418" y2="109.49538421630857" fill="rgb(0, 0, 0)" stroke="rgb(60, 60, 60)" stroke-width="1px" opacity="0.25"></line><line x1="0" y1="95.80846118927002" x2="288.9379997253418" y2="95.80846118927002" fill="rgb(0, 0, 0)" stroke="rgb(60, 60, 60)" stroke-width="1px" opacity="0.25"></line><line x1="0" y1="82.12153816223143" x2="288.9379997253418" y2="82.12153816223143" fill="rgb(0, 0, 0)" stroke="rgb(60, 60, 60)" stroke-width="1px" opacity="0.25"></line><line x1="0" y1="68.43461513519287" x2="288.9379997253418" y2="68.43461513519287" fill="rgb(0, 0, 0)" stroke="rgb(60, 60, 60)" stroke-width="1px" opacity="0.25"></line><line x1="0" y1="54.74769210815428" x2="288.9379997253418" y2="54.74769210815428" fill="rgb(0, 0, 0)" stroke="rgb(60, 60, 60)" stroke-width="1px" opacity="0.25"></line><line x1="0" y1="41.060769081115694" x2="288.9379997253418" y2="41.060769081115694" fill="rgb(0, 0, 0)" stroke="rgb(60, 60, 60)" stroke-width="1px" opacity="0.25"></line><line x1="0" y1="27.37384605407712" x2="288.9379997253418" y2="27.37384605407712" fill="rgb(0, 0, 0)" stroke="rgb(60, 60, 60)" stroke-width="1px" opacity="0.25"></line><line x1="0" y1="13.686923027038517" x2="288.9379997253418" y2="13.686923027038517" fill="rgb(0, 0, 0)" stroke="rgb(60, 60, 60)" stroke-width="1px" opacity="0.25"></line><line x1="0" y1="0" x2="288.9379997253418" y2="0" fill="rgb(0, 0, 0)" stroke="rgb(60, 60, 60)" stroke-width="1px" opacity="0.25"></line></g></g></g><g><g><line x1="0" y1="260.0515375137329" x2="288.9379997253418" y2="260.0515375137329" fill="rgb(0, 0, 0)" stroke="rgb(153, 153, 153)" stroke-width="1.5px"></line></g></g><g><g><line x1="0" y1="0" x2="0" y2="177.92999935150146" fill="rgb(0, 0, 0)" stroke="rgb(153, 153, 153)" stroke-width="1.5px"></line></g></g><g><g><g><g><g><path style="fill: none;" stroke="rgb(0, 153, 136)" stroke-width="2px" d="M13.13354544206099,-2.162758895804245L26.26709088412198,31.407420160007604L39.40063632618297,51.111095777472L52.53418176824396,65.42614140965155L65.66772721030495,76.66871214711803L78.80127265236594,86.04511140732157L91.93481809442693,94.18313338074246L105.06836353648792,101.29006558505756L118.20190897854893,107.53368543772753L131.3354544206099,113.09523084532182L144.4689998626709,118.0842048283746L157.60254530473188,122.66622067449121L170.73609074679288,126.89714311525813L183.86963618885386,130.96897746427777L197.00318163091484,134.70764946981902L210.13672707297584,138.2041481524051L223.27027251503685,141.49924007040227L236.40381795709786,144.52899763630037L249.53736339915883,147.5279937923599L262.6709088412198,150.2772110452211" fill="none"></path></g><g><path style="fill: none;" stroke="rgb(51, 187, 238)" stroke-width="2px" d="M13.13354544206099,-2.0632634173900897L26.26709088412198,34.78018308636115L39.40063632618297,55.617779903725236L52.53418176824396,70.20790911303285L65.66772721030495,81.59493887658401L78.80127265236594,90.75588228822717L91.93481809442693,98.40883538480385L105.06836353648792,104.80777215304596L118.20190897854893,110.34837444204882L131.3354544206099,115.23061273387941L144.4689998626709,119.51173176709392L157.60254530473188,123.29093483181707L170.73609074679288,126.67941832633068L183.86963618885386,129.68077215114613L197.00318163091484,132.4430892434331L210.13672707297584,135.09615283101425L223.27027251503685,137.41401483481525L236.40381795709786,139.6485500208292L249.53736339915883,141.66366254527273L262.6709088412198,143.58778911700014" fill="none"></path></g><g><path style="fill: none;" stroke="rgb(0, 119, 187)" stroke-width="2px" d="M13.13354544206099,-4.730779941812926L26.26709088412198,28.497381367439857L39.40063632618297,48.238406831367L52.53418176824396,62.53824027945049L65.66772721030495,73.72070214349897L78.80127265236594,82.96558838885127L91.93481809442693,90.98063431216151L105.06836353648792,98.00920968655005L118.20190897854893,104.32737721765848L131.3354544206099,109.90467586182449L144.4689998626709,114.97863791467356L157.60254530473188,119.70568421247799L170.73609074679288,124.06759562119925L183.86963618885386,128.03693628494455L197.00318163091484,131.8078825629275L210.13672707297584,135.26019208206185L223.27027251503685,138.5389373083749L236.40381795709786,141.68045753175872L249.53736339915883,144.6309931425156L262.6709088412198,147.3516074774467" fill="none"></path></g><g><path style="fill: none;" stroke="rgb(187, 187, 187)" stroke-width="2px" d="M13.13354544206099,-7.636739713455199L26.26709088412198,30.722307805365034L39.40063632618297,51.89278070067701L52.53418176824396,66.582636299831L65.66772721030495,77.78867023807787L78.80127265236594,86.83514809349826L91.93481809442693,94.27422928787765L105.06836353648792,100.6687251874333L118.20190897854893,106.13766554291482L131.3354544206099,110.81347553571065L144.4689998626709,114.89319966298787L157.60254530473188,118.5613954024457L170.73609074679288,121.86949417940774L183.86963618885386,124.79434118610894L197.00318163091484,127.45654405234495L210.13672707297584,129.99928844365405L223.27027251503685,132.22317177350826L236.40381795709786,134.42200077522074L249.53736339915883,136.3908988230799L262.6709088412198,138.4170545459165" fill="none"></path></g></g></g></g><g opacity="0.2"><g><g><g><path style="fill: none;" stroke="rgb(0, 153, 136)" stroke-width="2px" d="M13.13354544206099,-2.162758895804245L26.26709088412198,48.19250968791354L39.40063632618297,65.88885249057033L52.53418176824396,77.95180633780863L65.66772721030495,87.20862221349283L78.80127265236594,95.12849819064375L91.93481809442693,102.19399876082865L105.06836353648792,108.34147488152642L118.20190897854893,113.75291615034801L131.3354544206099,118.6459138595419L144.4689998626709,123.06830676652201L157.60254530473188,127.24599920818297L170.73609074679288,131.12703261597608L183.86963618885386,135.04031476320597L197.00318163091484,138.44609328493027L210.13672707297584,141.7005401303195L223.27027251503685,144.7942817092869L236.40381795709786,147.55873208698267L249.53736339915883,150.52697850815696L262.6709088412198,153.02642305436655" fill="none"></path></g><g><path style="fill: none;" stroke="rgb(51, 187, 238)" stroke-width="2px" d="M13.13354544206099,-2.0632634173900897L26.26709088412198,53.20190633823675L39.40063632618297,71.24597751674831L52.53418176824396,82.97427217117703L65.66772721030495,92.2702792799132L78.80127265236594,99.63054621825653L91.93481809442693,105.94221108924647L105.06836353648792,111.15671722778619L118.20190897854893,115.86733375336028L131.3354544206099,120.10331540404627L144.4689998626709,123.78867002000254L157.60254530473188,127.06829258254378L170.73609074679288,130.06707455436617L183.86963618885386,132.68175959976224L197.00318163091484,135.20523773726472L210.13672707297584,137.74913545352013L223.27027251503685,139.73184147084885L236.40381795709786,141.8830681586926L249.53736339915883,143.67876738267205L262.6709088412198,145.51191201874735" fill="none"></path></g><g><path style="fill: none;" stroke="rgb(0, 119, 187)" stroke-width="2px" d="M13.13354544206099,-4.730779941812926L26.26709088412198,45.111462022066206L39.40063632618297,63.044175929312345L52.53418176824396,75.05059454652357L65.66772721030495,84.2042601410444L78.80127265236594,91.9215719390363L91.93481809442693,98.87044514292005L105.06836353648792,104.98287431582615L118.20190897854893,110.62086440684855L131.3354544206099,115.47108134457606L144.4689998626709,120.0476449264554L157.60254530473188,124.43042238220731L170.73609074679288,128.428442110143L183.86963618885386,132.0057924100346L197.00318163091484,135.5785986806152L210.13672707297584,138.71239624507075L223.27027251503685,141.81763250500615L236.40381795709786,144.82195378724532L249.53736339915883,147.58151749787237L262.6709088412198,150.07221662321774" fill="none"></path></g><g><path style="fill: none;" stroke="rgb(187, 187, 187)" stroke-width="2px" d="M13.13354544206099,-7.636739713455199L26.26709088412198,49.90183156477519L39.40063632618297,67.77063537216098L52.53418176824396,79.43625994909074L65.66772721030495,88.29432705518431L78.80127265236594,95.59892351593679L91.93481809442693,101.59707483859482L105.06836353648792,107.01326408777366L118.20190897854893,111.58524285013276L131.3354544206099,115.48015308711433L144.4689998626709,118.96893968467201L157.60254530473188,122.22780003070261L170.73609074679288,125.17678531506681L183.86963618885386,127.71883115582203L197.00318163091484,130.11858443061305L210.13672707297584,132.54195523656256L223.27027251503685,134.4470211695958L236.40381795709786,136.62081300119928L249.53736339915883,138.3597893601891L262.6709088412198,140.44320640416777" fill="none"></path></g></g></g></g></g></g><g transform="translate(41, 177)" clip-path="url(#clip_1)"><clipPath id="clip_1"><rect width="288" height="22"></rect></clipPath><g><g><line x1="0" y1="0" x2="0" y2="5" style="visibility: inherit;" fill="rgb(0, 0, 0)" stroke="rgb(204, 204, 204)" stroke-width="1px"></line><line x1="26.26709088412198" y1="0" x2="26.26709088412198" y2="5" style="visibility: inherit;" fill="rgb(0, 0, 0)" stroke="rgb(204, 204, 204)" stroke-width="1px"></line><line x1="52.53418176824396" y1="0" x2="52.53418176824396" y2="5" style="visibility: inherit;" fill="rgb(0, 0, 0)" stroke="rgb(204, 204, 204)" stroke-width="1px"></line><line x1="78.80127265236594" y1="0" x2="78.80127265236594" y2="5" style="visibility: inherit;" fill="rgb(0, 0, 0)" stroke="rgb(204, 204, 204)" stroke-width="1px"></line><line x1="105.06836353648792" y1="0" x2="105.06836353648792" y2="5" style="visibility: inherit;" fill="rgb(0, 0, 0)" stroke="rgb(204, 204, 204)" stroke-width="1px"></line><line x1="131.3354544206099" y1="0" x2="131.3354544206099" y2="5" style="visibility: inherit;" fill="rgb(0, 0, 0)" stroke="rgb(204, 204, 204)" stroke-width="1px"></line><line x1="157.60254530473188" y1="0" x2="157.60254530473188" y2="5" style="visibility: inherit;" fill="rgb(0, 0, 0)" stroke="rgb(204, 204, 204)" stroke-width="1px"></line><line x1="183.86963618885386" y1="0" x2="183.86963618885386" y2="5" style="visibility: inherit;" fill="rgb(0, 0, 0)" stroke="rgb(204, 204, 204)" stroke-width="1px"></line><line x1="210.13672707297584" y1="0" x2="210.13672707297584" y2="5" style="visibility: inherit;" fill="rgb(0, 0, 0)" stroke="rgb(204, 204, 204)" stroke-width="1px"></line><line x1="236.40381795709786" y1="0" x2="236.40381795709786" y2="5" style="visibility: inherit;" fill="rgb(0, 0, 0)" stroke="rgb(204, 204, 204)" stroke-width="1px"></line><line x1="262.6709088412198" y1="0" x2="262.6709088412198" y2="5" style="visibility: inherit;" fill="rgb(0, 0, 0)" stroke="rgb(204, 204, 204)" stroke-width="1px"></line><line x1="288.9379997253418" y1="0" x2="288.9379997253418" y2="5" style="visibility: inherit;" fill="rgb(0, 0, 0)" stroke="rgb(204, 204, 204)" stroke-width="1px"></line></g><g transform="translate(0, 8)"><text style="text-anchor: middle; visibility: hidden; font-family: &quot;Helvetica Neue&quot;, sans-serif; font-size: 12px; font-weight: 200;" x="0" y="0" dx="0em" dy="0.95em" fill="rgb(50, 49, 63)" stroke="none" stroke-width="1px">0</text><text style="text-anchor: middle; visibility: inherit; font-family: &quot;Helvetica Neue&quot;, sans-serif; font-size: 12px; font-weight: 200;" x="26.26709088412198" y="0" dx="0em" dy="0.95em" fill="rgb(50, 49, 63)" stroke="none" stroke-width="1px">2</text><text style="text-anchor: middle; visibility: inherit; font-family: &quot;Helvetica Neue&quot;, sans-serif; font-size: 12px; font-weight: 200;" x="52.53418176824396" y="0" dx="0em" dy="0.95em" fill="rgb(50, 49, 63)" stroke="none" stroke-width="1px">4</text><text style="text-anchor: middle; visibility: inherit; font-family: &quot;Helvetica Neue&quot;, sans-serif; font-size: 12px; font-weight: 200;" x="78.80127265236594" y="0" dx="0em" dy="0.95em" fill="rgb(50, 49, 63)" stroke="none" stroke-width="1px">6</text><text style="text-anchor: middle; visibility: inherit; font-family: &quot;Helvetica Neue&quot;, sans-serif; font-size: 12px; font-weight: 200;" x="105.06836353648792" y="0" dx="0em" dy="0.95em" fill="rgb(50, 49, 63)" stroke="none" stroke-width="1px">8</text><text style="text-anchor: middle; visibility: inherit; font-family: &quot;Helvetica Neue&quot;, sans-serif; font-size: 12px; font-weight: 200;" x="131.3354544206099" y="0" dx="0em" dy="0.95em" fill="rgb(50, 49, 63)" stroke="none" stroke-width="1px">10</text><text style="text-anchor: middle; visibility: inherit; font-family: &quot;Helvetica Neue&quot;, sans-serif; font-size: 12px; font-weight: 200;" x="157.60254530473188" y="0" dx="0em" dy="0.95em" fill="rgb(50, 49, 63)" stroke="none" stroke-width="1px">12</text><text style="text-anchor: middle; visibility: inherit; font-family: &quot;Helvetica Neue&quot;, sans-serif; font-size: 12px; font-weight: 200;" x="183.86963618885386" y="0" dx="0em" dy="0.95em" fill="rgb(50, 49, 63)" stroke="none" stroke-width="1px">14</text><text style="text-anchor: middle; visibility: inherit; font-family: &quot;Helvetica Neue&quot;, sans-serif; font-size: 12px; font-weight: 200;" x="210.13672707297584" y="0" dx="0em" dy="0.95em" fill="rgb(50, 49, 63)" stroke="none" stroke-width="1px">16</text><text style="text-anchor: middle; visibility: inherit; font-family: &quot;Helvetica Neue&quot;, sans-serif; font-size: 12px; font-weight: 200;" x="236.40381795709786" y="0" dx="0em" dy="0.95em" fill="rgb(50, 49, 63)" stroke="none" stroke-width="1px">18</text><text style="text-anchor: middle; visibility: inherit; font-family: &quot;Helvetica Neue&quot;, sans-serif; font-size: 12px; font-weight: 200;" x="262.6709088412198" y="0" dx="0em" dy="0.95em" fill="rgb(50, 49, 63)" stroke="none" stroke-width="1px">20</text><text style="text-anchor: middle; visibility: hidden; font-family: &quot;Helvetica Neue&quot;, sans-serif; font-size: 12px; font-weight: 200;" x="288.9379997253418" y="0" dx="0em" dy="0.95em" fill="rgb(50, 49, 63)" stroke="none" stroke-width="1px">22</text></g><line x1="0" y1="0" x2="288.9379997253418" y2="0" fill="rgb(0, 0, 0)" stroke="rgb(204, 204, 204)" stroke-width="1px"></line></g></g></g></g></svg>